<?xml version="1.0" encoding="UTF-8" standalone="no"?>
<!DOCTYPE svg PUBLIC "-//W3C//DTD SVG 1.1//EN"
 "http://www.w3.org/Graphics/SVG/1.1/DTD/svg11.dtd">
<!-- Generated by graphviz version 2.43.0 (0)
 -->
<!-- Title: %3 Pages: 1 -->
<svg width="496pt" height="836pt"
 viewBox="0.00 0.00 496.50 836.00" xmlns="http://www.w3.org/2000/svg" xmlns:xlink="http://www.w3.org/1999/xlink">
<g id="graph0" class="graph" transform="scale(1 1) rotate(0) translate(4 832)">
<title>%3</title>
<polygon fill="white" stroke="transparent" points="-4,4 -4,-832 492.5,-832 492.5,4 -4,4"/>
<!-- Soundness -->
<g id="node1" class="node">
<title>Soundness</title>
<ellipse fill="none" stroke="black" cx="289.09" cy="-234" rx="48.19" ry="18"/>
<text text-anchor="middle" x="289.09" y="-230.3" font-family="Times,serif" font-size="14.00">Soundness</text>
</g>
<!-- Completeness -->
<g id="node2" class="node">
<title>Completeness</title>
<ellipse fill="none" stroke="black" cx="301.09" cy="-162" rx="60.39" ry="18"/>
<text text-anchor="middle" x="301.09" y="-158.3" font-family="Times,serif" font-size="14.00">Completeness</text>
</g>
<!-- Soundness&#45;&gt;Completeness -->
<g id="edge1" class="edge">
<title>Soundness&#45;&gt;Completeness</title>
<path fill="none" stroke="black" d="M292.06,-215.7C293.38,-207.98 294.97,-198.71 296.45,-190.11"/>
<polygon fill="black" stroke="black" points="299.92,-190.55 298.16,-180.1 293.02,-189.37 299.92,-190.55"/>
</g>
<!-- PartInterpolation -->
<g id="node13" class="node">
<title>PartInterpolation</title>
<ellipse fill="none" stroke="black" cx="257.09" cy="-90" rx="70.39" ry="18"/>
<text text-anchor="middle" x="257.09" y="-86.3" font-family="Times,serif" font-size="14.00">PartInterpolation</text>
</g>
<!-- Completeness&#45;&gt;PartInterpolation -->
<g id="edge18" class="edge">
<title>Completeness&#45;&gt;PartInterpolation</title>
<path fill="none" stroke="black" d="M290.44,-144.05C285.33,-135.92 279.09,-126 273.4,-116.94"/>
<polygon fill="black" stroke="black" points="276.24,-114.88 267.95,-108.28 270.31,-118.6 276.24,-114.88"/>
</g>
<!-- Modelgraphs -->
<g id="node3" class="node">
<title>Modelgraphs</title>
<ellipse fill="none" stroke="black" cx="365.09" cy="-378" rx="57.69" ry="18"/>
<text text-anchor="middle" x="365.09" y="-374.3" font-family="Times,serif" font-size="14.00">Modelgraphs</text>
</g>
<!-- Modelgraphs&#45;&gt;Completeness -->
<g id="edge2" class="edge">
<title>Modelgraphs&#45;&gt;Completeness</title>
<path fill="none" stroke="black" d="M366.24,-359.71C367.57,-329.28 367.33,-264.77 346.09,-216 341.45,-205.32 333.91,-195.17 326.32,-186.66"/>
<polygon fill="black" stroke="black" points="328.83,-184.21 319.42,-179.33 323.73,-189.01 328.83,-184.21"/>
</g>
<!-- Semantics -->
<g id="node4" class="node">
<title>Semantics</title>
<ellipse fill="none" stroke="black" cx="410.09" cy="-666" rx="47.39" ry="18"/>
<text text-anchor="middle" x="410.09" y="-662.3" font-family="Times,serif" font-size="14.00">Semantics</text>
</g>
<!-- Semantics&#45;&gt;Modelgraphs -->
<g id="edge15" class="edge">
<title>Semantics&#45;&gt;Modelgraphs</title>
<path fill="none" stroke="black" d="M422.86,-648.46C452.11,-608.4 518.08,-504.19 473.09,-432 461.27,-413.03 440.45,-400.65 420.23,-392.68"/>
<polygon fill="black" stroke="black" points="421.29,-389.34 410.7,-389.21 418.9,-395.92 421.29,-389.34"/>
</g>
<!-- Discon -->
<g id="node5" class="node">
<title>Discon</title>
<ellipse fill="none" stroke="black" cx="246.09" cy="-594" rx="36" ry="18"/>
<text text-anchor="middle" x="246.09" y="-590.3" font-family="Times,serif" font-size="14.00">Discon</text>
</g>
<!-- Semantics&#45;&gt;Discon -->
<g id="edge3" class="edge">
<title>Semantics&#45;&gt;Discon</title>
<path fill="none" stroke="black" d="M379.63,-652C352,-640.2 311.24,-622.81 282.03,-610.34"/>
<polygon fill="black" stroke="black" points="283.17,-607.02 272.6,-606.31 280.42,-613.46 283.17,-607.02"/>
</g>
<!-- Examples -->
<g id="node10" class="node">
<title>Examples</title>
<ellipse fill="none" stroke="black" cx="418.09" cy="-450" rx="46.29" ry="18"/>
<text text-anchor="middle" x="418.09" y="-446.3" font-family="Times,serif" font-size="14.00">Examples</text>
</g>
<!-- Semantics&#45;&gt;Examples -->
<g id="edge7" class="edge">
<title>Semantics&#45;&gt;Examples</title>
<path fill="none" stroke="black" d="M412.63,-647.85C414.1,-637.48 415.89,-624.01 417.09,-612 421.91,-564.19 423.9,-552.02 422.09,-504 421.78,-495.67 421.19,-486.61 420.56,-478.38"/>
<polygon fill="black" stroke="black" points="424.02,-477.85 419.72,-468.17 417.05,-478.42 424.02,-477.85"/>
</g>
<!-- SemQuot -->
<g id="node19" class="node">
<title>SemQuot</title>
<ellipse fill="none" stroke="black" cx="344.09" cy="-594" rx="44.39" ry="18"/>
<text text-anchor="middle" x="344.09" y="-590.3" font-family="Times,serif" font-size="14.00">SemQuot</text>
</g>
<!-- Semantics&#45;&gt;SemQuot -->
<g id="edge20" class="edge">
<title>Semantics&#45;&gt;SemQuot</title>
<path fill="none" stroke="black" d="M394.79,-648.76C386.29,-639.75 375.57,-628.39 366.18,-618.43"/>
<polygon fill="black" stroke="black" points="368.73,-616.02 359.32,-611.15 363.63,-620.82 368.73,-616.02"/>
</g>
<!-- Substitution -->
<g id="node21" class="node">
<title>Substitution</title>
<ellipse fill="none" stroke="black" cx="288.09" cy="-522" rx="53.09" ry="18"/>
<text text-anchor="middle" x="288.09" y="-518.3" font-family="Times,serif" font-size="14.00">Substitution</text>
</g>
<!-- Semantics&#45;&gt;Substitution -->
<g id="edge24" class="edge">
<title>Semantics&#45;&gt;Substitution</title>
<path fill="none" stroke="black" d="M412.06,-647.84C413.33,-628.51 412.49,-597.05 397.09,-576 383.25,-557.08 360.8,-544.58 339.87,-536.51"/>
<polygon fill="black" stroke="black" points="340.99,-533.19 330.39,-533.11 338.62,-539.78 340.99,-533.19"/>
</g>
<!-- Discon&#45;&gt;Substitution -->
<g id="edge25" class="edge">
<title>Discon&#45;&gt;Substitution</title>
<path fill="none" stroke="black" d="M256.05,-576.41C261,-568.16 267.09,-558.01 272.63,-548.78"/>
<polygon fill="black" stroke="black" points="275.78,-550.33 277.92,-539.96 269.77,-546.73 275.78,-550.33"/>
</g>
<!-- Vocab -->
<g id="node6" class="node">
<title>Vocab</title>
<ellipse fill="none" stroke="black" cx="246.09" cy="-666" rx="32.49" ry="18"/>
<text text-anchor="middle" x="246.09" y="-662.3" font-family="Times,serif" font-size="14.00">Vocab</text>
</g>
<!-- Vocab&#45;&gt;Discon -->
<g id="edge4" class="edge">
<title>Vocab&#45;&gt;Discon</title>
<path fill="none" stroke="black" d="M246.09,-647.7C246.09,-639.98 246.09,-630.71 246.09,-622.11"/>
<polygon fill="black" stroke="black" points="249.59,-622.1 246.09,-612.1 242.59,-622.1 249.59,-622.1"/>
</g>
<!-- Fresh -->
<g id="node12" class="node">
<title>Fresh</title>
<ellipse fill="none" stroke="black" cx="186.09" cy="-522" rx="30.59" ry="18"/>
<text text-anchor="middle" x="186.09" y="-518.3" font-family="Times,serif" font-size="14.00">Fresh</text>
</g>
<!-- Vocab&#45;&gt;Fresh -->
<g id="edge9" class="edge">
<title>Vocab&#45;&gt;Fresh</title>
<path fill="none" stroke="black" d="M229.82,-650.35C219.93,-640.5 207.92,-626.67 201.09,-612 192.08,-592.61 188.41,-568.61 186.95,-550.42"/>
<polygon fill="black" stroke="black" points="190.43,-549.96 186.31,-540.19 183.44,-550.39 190.43,-549.96"/>
</g>
<!-- UnfoldBox -->
<g id="node7" class="node">
<title>UnfoldBox</title>
<ellipse fill="none" stroke="black" cx="190.09" cy="-450" rx="50.09" ry="18"/>
<text text-anchor="middle" x="190.09" y="-446.3" font-family="Times,serif" font-size="14.00">UnfoldBox</text>
</g>
<!-- UnfoldBox&#45;&gt;Modelgraphs -->
<g id="edge16" class="edge">
<title>UnfoldBox&#45;&gt;Modelgraphs</title>
<path fill="none" stroke="black" d="M222.19,-436.16C250.06,-425.01 290.67,-408.77 321.48,-396.45"/>
<polygon fill="black" stroke="black" points="323.12,-399.56 331.11,-392.59 320.52,-393.06 323.12,-399.56"/>
</g>
<!-- Distance -->
<g id="node8" class="node">
<title>Distance</title>
<ellipse fill="none" stroke="black" cx="248.09" cy="-378" rx="41.69" ry="18"/>
<text text-anchor="middle" x="248.09" y="-374.3" font-family="Times,serif" font-size="14.00">Distance</text>
</g>
<!-- UnfoldBox&#45;&gt;Distance -->
<g id="edge5" class="edge">
<title>UnfoldBox&#45;&gt;Distance</title>
<path fill="none" stroke="black" d="M203.84,-432.41C211.06,-423.69 220.05,-412.85 228.04,-403.21"/>
<polygon fill="black" stroke="black" points="230.76,-405.4 234.45,-395.47 225.37,-400.94 230.76,-405.4"/>
</g>
<!-- LocalTableau -->
<g id="node15" class="node">
<title>LocalTableau</title>
<ellipse fill="none" stroke="black" cx="129.09" cy="-378" rx="59.29" ry="18"/>
<text text-anchor="middle" x="129.09" y="-374.3" font-family="Times,serif" font-size="14.00">LocalTableau</text>
</g>
<!-- UnfoldBox&#45;&gt;LocalTableau -->
<g id="edge11" class="edge">
<title>UnfoldBox&#45;&gt;LocalTableau</title>
<path fill="none" stroke="black" d="M175.64,-432.41C168.04,-423.69 158.59,-412.85 150.19,-403.21"/>
<polygon fill="black" stroke="black" points="152.66,-400.71 143.45,-395.47 147.38,-405.31 152.66,-400.71"/>
</g>
<!-- Distance&#45;&gt;PartInterpolation -->
<g id="edge19" class="edge">
<title>Distance&#45;&gt;PartInterpolation</title>
<path fill="none" stroke="black" d="M243.66,-360.08C234.2,-321.32 214.32,-223.33 232.09,-144 234.16,-134.77 238.03,-125.25 242.11,-116.87"/>
<polygon fill="black" stroke="black" points="245.23,-118.46 246.73,-107.97 239.02,-115.23 245.23,-118.46"/>
</g>
<!-- UnfoldDia -->
<g id="node9" class="node">
<title>UnfoldDia</title>
<ellipse fill="none" stroke="black" cx="306.09" cy="-450" rx="48.19" ry="18"/>
<text text-anchor="middle" x="306.09" y="-446.3" font-family="Times,serif" font-size="14.00">UnfoldDia</text>
</g>
<!-- UnfoldDia&#45;&gt;Modelgraphs -->
<g id="edge17" class="edge">
<title>UnfoldDia&#45;&gt;Modelgraphs</title>
<path fill="none" stroke="black" d="M320.08,-432.41C327.32,-423.82 336.3,-413.16 344.34,-403.63"/>
<polygon fill="black" stroke="black" points="347.03,-405.86 350.8,-395.96 341.68,-401.35 347.03,-405.86"/>
</g>
<!-- UnfoldDia&#45;&gt;Distance -->
<g id="edge6" class="edge">
<title>UnfoldDia&#45;&gt;Distance</title>
<path fill="none" stroke="black" d="M292.35,-432.41C285.13,-423.69 276.14,-412.85 268.15,-403.21"/>
<polygon fill="black" stroke="black" points="270.82,-400.94 261.74,-395.47 265.43,-405.4 270.82,-400.94"/>
</g>
<!-- UnfoldDia&#45;&gt;LocalTableau -->
<g id="edge12" class="edge">
<title>UnfoldDia&#45;&gt;LocalTableau</title>
<path fill="none" stroke="black" d="M274.04,-436.32C245.78,-425.15 204.35,-408.76 173.01,-396.37"/>
<polygon fill="black" stroke="black" points="174.22,-393.08 163.63,-392.66 171.64,-399.59 174.22,-393.08"/>
</g>
<!-- Star -->
<g id="node11" class="node">
<title>Star</title>
<ellipse fill="none" stroke="black" cx="386.09" cy="-522" rx="27" ry="18"/>
<text text-anchor="middle" x="386.09" y="-518.3" font-family="Times,serif" font-size="14.00">Star</text>
</g>
<!-- Star&#45;&gt;UnfoldBox -->
<g id="edge29" class="edge">
<title>Star&#45;&gt;UnfoldBox</title>
<path fill="none" stroke="black" d="M364.96,-510.5C360.13,-508.24 354.97,-505.95 350.09,-504 312.79,-489.08 269.48,-474.92 237.33,-464.99"/>
<polygon fill="black" stroke="black" points="238.32,-461.64 227.73,-462.05 236.27,-468.33 238.32,-461.64"/>
</g>
<!-- Star&#45;&gt;UnfoldDia -->
<g id="edge32" class="edge">
<title>Star&#45;&gt;UnfoldDia</title>
<path fill="none" stroke="black" d="M370.29,-507.17C359.28,-497.54 344.35,-484.47 331.66,-473.37"/>
<polygon fill="black" stroke="black" points="333.93,-470.71 324.1,-466.76 329.32,-475.97 333.93,-470.71"/>
</g>
<!-- Star&#45;&gt;Examples -->
<g id="edge8" class="edge">
<title>Star&#45;&gt;Examples</title>
<path fill="none" stroke="black" d="M393.68,-504.41C397.41,-496.25 401.99,-486.22 406.18,-477.07"/>
<polygon fill="black" stroke="black" points="409.37,-478.51 410.34,-467.96 403,-475.6 409.37,-478.51"/>
</g>
<!-- Fresh&#45;&gt;UnfoldBox -->
<g id="edge28" class="edge">
<title>Fresh&#45;&gt;UnfoldBox</title>
<path fill="none" stroke="black" d="M187.08,-503.7C187.52,-495.98 188.05,-486.71 188.55,-478.11"/>
<polygon fill="black" stroke="black" points="192.04,-478.29 189.12,-468.1 185.05,-477.89 192.04,-478.29"/>
</g>
<!-- Fresh&#45;&gt;UnfoldDia -->
<g id="edge31" class="edge">
<title>Fresh&#45;&gt;UnfoldDia</title>
<path fill="none" stroke="black" d="M207,-508.81C225.09,-498.25 251.6,-482.79 272.64,-470.51"/>
<polygon fill="black" stroke="black" points="274.41,-473.53 281.29,-465.47 270.88,-467.49 274.41,-473.53"/>
</g>
<!-- Interpolation -->
<g id="node14" class="node">
<title>Interpolation</title>
<ellipse fill="none" stroke="black" cx="257.09" cy="-18" rx="55.79" ry="18"/>
<text text-anchor="middle" x="257.09" y="-14.3" font-family="Times,serif" font-size="14.00">Interpolation</text>
</g>
<!-- PartInterpolation&#45;&gt;Interpolation -->
<g id="edge10" class="edge">
<title>PartInterpolation&#45;&gt;Interpolation</title>
<path fill="none" stroke="black" d="M257.09,-71.7C257.09,-63.98 257.09,-54.71 257.09,-46.11"/>
<polygon fill="black" stroke="black" points="260.59,-46.1 257.09,-36.1 253.59,-46.1 260.59,-46.1"/>
</g>
<!-- Tableau -->
<g id="node20" class="node">
<title>Tableau</title>
<ellipse fill="none" stroke="black" cx="138.09" cy="-306" rx="38.99" ry="18"/>
<text text-anchor="middle" x="138.09" y="-302.3" font-family="Times,serif" font-size="14.00">Tableau</text>
</g>
<!-- LocalTableau&#45;&gt;Tableau -->
<g id="edge26" class="edge">
<title>LocalTableau&#45;&gt;Tableau</title>
<path fill="none" stroke="black" d="M131.32,-359.7C132.31,-351.98 133.5,-342.71 134.61,-334.11"/>
<polygon fill="black" stroke="black" points="138.09,-334.47 135.9,-324.1 131.15,-333.58 138.09,-334.47"/>
</g>
<!-- MultisetOrder -->
<g id="node16" class="node">
<title>MultisetOrder</title>
<ellipse fill="none" stroke="black" cx="61.09" cy="-450" rx="61.19" ry="18"/>
<text text-anchor="middle" x="61.09" y="-446.3" font-family="Times,serif" font-size="14.00">MultisetOrder</text>
</g>
<!-- MultisetOrder&#45;&gt;LocalTableau -->
<g id="edge13" class="edge">
<title>MultisetOrder&#45;&gt;LocalTableau</title>
<path fill="none" stroke="black" d="M77.21,-432.41C85.76,-423.61 96.43,-412.63 105.86,-402.92"/>
<polygon fill="black" stroke="black" points="108.64,-405.08 113.1,-395.47 103.62,-400.2 108.64,-405.08"/>
</g>
<!-- Syntax -->
<g id="node17" class="node">
<title>Syntax</title>
<ellipse fill="none" stroke="black" cx="337.09" cy="-810" rx="35.19" ry="18"/>
<text text-anchor="middle" x="337.09" y="-806.3" font-family="Times,serif" font-size="14.00">Syntax</text>
</g>
<!-- Syntax&#45;&gt;Semantics -->
<g id="edge21" class="edge">
<title>Syntax&#45;&gt;Semantics</title>
<path fill="none" stroke="black" d="M356.42,-794.87C368.22,-785.22 382.62,-771.43 391.09,-756 401.59,-736.9 406.29,-712.55 408.4,-694.14"/>
<polygon fill="black" stroke="black" points="411.89,-694.37 409.36,-684.08 404.92,-693.7 411.89,-694.37"/>
</g>
<!-- Syntax&#45;&gt;Vocab -->
<g id="edge33" class="edge">
<title>Syntax&#45;&gt;Vocab</title>
<path fill="none" stroke="black" d="M318.96,-794.52C307.5,-784.63 293.03,-770.69 283.09,-756 270.05,-736.7 260.25,-712.07 254.02,-693.62"/>
<polygon fill="black" stroke="black" points="257.34,-692.51 250.94,-684.07 250.68,-694.66 257.34,-692.51"/>
</g>
<!-- Measures -->
<g id="node18" class="node">
<title>Measures</title>
<ellipse fill="none" stroke="black" cx="337.09" cy="-738" rx="44.69" ry="18"/>
<text text-anchor="middle" x="337.09" y="-734.3" font-family="Times,serif" font-size="14.00">Measures</text>
</g>
<!-- Syntax&#45;&gt;Measures -->
<g id="edge14" class="edge">
<title>Syntax&#45;&gt;Measures</title>
<path fill="none" stroke="black" d="M337.09,-791.7C337.09,-783.98 337.09,-774.71 337.09,-766.11"/>
<polygon fill="black" stroke="black" points="340.59,-766.1 337.09,-756.1 333.59,-766.1 340.59,-766.1"/>
</g>
<!-- Measures&#45;&gt;Semantics -->
<g id="edge22" class="edge">
<title>Measures&#45;&gt;Semantics</title>
<path fill="none" stroke="black" d="M353.66,-721.12C363.21,-711.96 375.38,-700.29 385.97,-690.13"/>
<polygon fill="black" stroke="black" points="388.55,-692.51 393.34,-683.06 383.7,-687.46 388.55,-692.51"/>
</g>
<!-- Tableau&#45;&gt;Soundness -->
<g id="edge23" class="edge">
<title>Tableau&#45;&gt;Soundness</title>
<path fill="none" stroke="black" d="M164.74,-292.65C188.68,-281.55 224.09,-265.14 251,-252.66"/>
<polygon fill="black" stroke="black" points="252.54,-255.8 260.14,-248.42 249.59,-249.45 252.54,-255.8"/>
</g>
<!-- Substitution&#45;&gt;UnfoldBox -->
<g id="edge27" class="edge">
<title>Substitution&#45;&gt;UnfoldBox</title>
<path fill="none" stroke="black" d="M266.35,-505.46C252.77,-495.77 235.1,-483.15 220.19,-472.5"/>
<polygon fill="black" stroke="black" points="221.95,-469.46 211.78,-466.49 217.89,-475.15 221.95,-469.46"/>
</g>
<!-- Substitution&#45;&gt;UnfoldDia -->
<g id="edge30" class="edge">
<title>Substitution&#45;&gt;UnfoldDia</title>
<path fill="none" stroke="black" d="M292.45,-504.05C294.46,-496.26 296.88,-486.82 299.13,-478.08"/>
<polygon fill="black" stroke="black" points="302.55,-478.83 301.65,-468.28 295.77,-477.09 302.55,-478.83"/>
</g>
</g>
</svg>
