<?xml version="1.0" encoding="UTF-8" standalone="no"?>
<!DOCTYPE svg PUBLIC "-//W3C//DTD SVG 1.1//EN"
 "http://www.w3.org/Graphics/SVG/1.1/DTD/svg11.dtd">
<!-- Generated by graphviz version 2.43.0 (0)
 -->
<!-- Title: %3 Pages: 1 -->
<svg width="570pt" height="692pt"
 viewBox="0.00 0.00 570.44 692.00" xmlns="http://www.w3.org/2000/svg" xmlns:xlink="http://www.w3.org/1999/xlink">
<g id="graph0" class="graph" transform="scale(1 1) rotate(0) translate(4 688)">
<title>%3</title>
<polygon fill="white" stroke="transparent" points="-4,4 -4,-688 566.44,-688 566.44,4 -4,4"/>
<!-- Soundness -->
<g id="node1" class="node">
<title>Soundness</title>
<ellipse fill="none" stroke="black" cx="414.95" cy="-234" rx="48.19" ry="18"/>
<text text-anchor="middle" x="414.95" y="-230.3" font-family="Times,serif" font-size="14.00">Soundness</text>
</g>
<!-- Completeness -->
<g id="node2" class="node">
<title>Completeness</title>
<ellipse fill="none" stroke="black" cx="414.95" cy="-162" rx="60.39" ry="18"/>
<text text-anchor="middle" x="414.95" y="-158.3" font-family="Times,serif" font-size="14.00">Completeness</text>
</g>
<!-- Soundness&#45;&gt;Completeness -->
<g id="edge1" class="edge">
<title>Soundness&#45;&gt;Completeness</title>
<path fill="none" stroke="black" d="M414.95,-215.7C414.95,-207.98 414.95,-198.71 414.95,-190.11"/>
<polygon fill="black" stroke="black" points="418.45,-190.1 414.95,-180.1 411.45,-190.1 418.45,-190.1"/>
</g>
<!-- PartInterpolation -->
<g id="node12" class="node">
<title>PartInterpolation</title>
<ellipse fill="none" stroke="black" cx="458.95" cy="-90" rx="70.39" ry="18"/>
<text text-anchor="middle" x="458.95" y="-86.3" font-family="Times,serif" font-size="14.00">PartInterpolation</text>
</g>
<!-- Completeness&#45;&gt;PartInterpolation -->
<g id="edge20" class="edge">
<title>Completeness&#45;&gt;PartInterpolation</title>
<path fill="none" stroke="black" d="M425.6,-144.05C430.71,-135.92 436.95,-126 442.64,-116.94"/>
<polygon fill="black" stroke="black" points="445.73,-118.6 448.09,-108.28 439.8,-114.88 445.73,-118.6"/>
</g>
<!-- Modelgraphs -->
<g id="node3" class="node">
<title>Modelgraphs</title>
<ellipse fill="none" stroke="black" cx="293.95" cy="-450" rx="57.69" ry="18"/>
<text text-anchor="middle" x="293.95" y="-446.3" font-family="Times,serif" font-size="14.00">Modelgraphs</text>
</g>
<!-- Modelgraphs&#45;&gt;Completeness -->
<g id="edge2" class="edge">
<title>Modelgraphs&#45;&gt;Completeness</title>
<path fill="none" stroke="black" d="M295.42,-431.94C299.57,-391.64 314.02,-288.47 357.95,-216 364.91,-204.51 375.06,-193.95 384.87,-185.33"/>
<polygon fill="black" stroke="black" points="387.19,-187.96 392.6,-178.86 382.69,-182.6 387.19,-187.96"/>
</g>
<!-- Syntax -->
<g id="node4" class="node">
<title>Syntax</title>
<ellipse fill="none" stroke="black" cx="366.95" cy="-666" rx="35.19" ry="18"/>
<text text-anchor="middle" x="366.95" y="-662.3" font-family="Times,serif" font-size="14.00">Syntax</text>
</g>
<!-- DagSyntax -->
<g id="node5" class="node">
<title>DagSyntax</title>
<ellipse fill="none" stroke="black" cx="167.95" cy="-594" rx="50.09" ry="18"/>
<text text-anchor="middle" x="167.95" y="-590.3" font-family="Times,serif" font-size="14.00">DagSyntax</text>
</g>
<!-- Syntax&#45;&gt;DagSyntax -->
<g id="edge3" class="edge">
<title>Syntax&#45;&gt;DagSyntax</title>
<path fill="none" stroke="black" d="M338.86,-655.12C305.87,-643.52 250.74,-624.13 212.04,-610.51"/>
<polygon fill="black" stroke="black" points="213.17,-607.2 202.58,-607.18 210.85,-613.8 213.17,-607.2"/>
</g>
<!-- Semantics -->
<g id="node6" class="node">
<title>Semantics</title>
<ellipse fill="none" stroke="black" cx="293.95" cy="-522" rx="47.39" ry="18"/>
<text text-anchor="middle" x="293.95" y="-518.3" font-family="Times,serif" font-size="14.00">Semantics</text>
</g>
<!-- Syntax&#45;&gt;Semantics -->
<g id="edge21" class="edge">
<title>Syntax&#45;&gt;Semantics</title>
<path fill="none" stroke="black" d="M347.62,-650.87C335.82,-641.22 321.42,-627.43 312.95,-612 302.45,-592.9 297.75,-568.55 295.64,-550.14"/>
<polygon fill="black" stroke="black" points="299.12,-549.7 294.68,-540.08 292.15,-550.37 299.12,-549.7"/>
</g>
<!-- Setsimp -->
<g id="node14" class="node">
<title>Setsimp</title>
<ellipse fill="none" stroke="black" cx="439.95" cy="-522" rx="39.79" ry="18"/>
<text text-anchor="middle" x="439.95" y="-518.3" font-family="Times,serif" font-size="14.00">Setsimp</text>
</g>
<!-- Syntax&#45;&gt;Setsimp -->
<g id="edge23" class="edge">
<title>Syntax&#45;&gt;Setsimp</title>
<path fill="none" stroke="black" d="M386.27,-650.87C398.07,-641.22 412.47,-627.43 420.95,-612 431.44,-592.9 436.14,-568.55 438.25,-550.14"/>
<polygon fill="black" stroke="black" points="441.74,-550.37 439.21,-540.08 434.77,-549.7 441.74,-550.37"/>
</g>
<!-- Vocab -->
<g id="node16" class="node">
<title>Vocab</title>
<ellipse fill="none" stroke="black" cx="529.95" cy="-450" rx="32.49" ry="18"/>
<text text-anchor="middle" x="529.95" y="-446.3" font-family="Times,serif" font-size="14.00">Vocab</text>
</g>
<!-- Syntax&#45;&gt;Vocab -->
<g id="edge27" class="edge">
<title>Syntax&#45;&gt;Vocab</title>
<path fill="none" stroke="black" d="M389.65,-652.12C405.48,-642.42 426.46,-628.07 441.95,-612 480.41,-572.09 507.24,-512.06 520.48,-477.69"/>
<polygon fill="black" stroke="black" points="523.92,-478.49 524.15,-467.9 517.36,-476.03 523.92,-478.49"/>
</g>
<!-- Measures -->
<g id="node17" class="node">
<title>Measures</title>
<ellipse fill="none" stroke="black" cx="366.95" cy="-594" rx="44.69" ry="18"/>
<text text-anchor="middle" x="366.95" y="-590.3" font-family="Times,serif" font-size="14.00">Measures</text>
</g>
<!-- Syntax&#45;&gt;Measures -->
<g id="edge16" class="edge">
<title>Syntax&#45;&gt;Measures</title>
<path fill="none" stroke="black" d="M366.95,-647.7C366.95,-639.98 366.95,-630.71 366.95,-622.11"/>
<polygon fill="black" stroke="black" points="370.45,-622.1 366.95,-612.1 363.45,-622.1 370.45,-622.1"/>
</g>
<!-- DagTableau -->
<g id="node7" class="node">
<title>DagTableau</title>
<ellipse fill="none" stroke="black" cx="53.95" cy="-450" rx="53.89" ry="18"/>
<text text-anchor="middle" x="53.95" y="-446.3" font-family="Times,serif" font-size="14.00">DagTableau</text>
</g>
<!-- DagSyntax&#45;&gt;DagTableau -->
<g id="edge7" class="edge">
<title>DagSyntax&#45;&gt;DagTableau</title>
<path fill="none" stroke="black" d="M155.71,-576.36C142.33,-558.3 120.09,-528.72 99.95,-504 92.17,-494.45 83.36,-484.18 75.55,-475.25"/>
<polygon fill="black" stroke="black" points="77.95,-472.68 68.72,-467.48 72.69,-477.3 77.95,-472.68"/>
</g>
<!-- Semantics&#45;&gt;Modelgraphs -->
<g id="edge17" class="edge">
<title>Semantics&#45;&gt;Modelgraphs</title>
<path fill="none" stroke="black" d="M293.95,-503.7C293.95,-495.98 293.95,-486.71 293.95,-478.11"/>
<polygon fill="black" stroke="black" points="297.45,-478.1 293.95,-468.1 290.45,-478.1 297.45,-478.1"/>
</g>
<!-- Semantics&#45;&gt;DagTableau -->
<g id="edge4" class="edge">
<title>Semantics&#45;&gt;DagTableau</title>
<path fill="none" stroke="black" d="M257.49,-510.37C216.2,-498.32 148.71,-478.64 102.86,-465.27"/>
<polygon fill="black" stroke="black" points="103.72,-461.87 93.14,-462.43 101.76,-468.59 103.72,-461.87"/>
</g>
<!-- Discon -->
<g id="node10" class="node">
<title>Discon</title>
<ellipse fill="none" stroke="black" cx="405.95" cy="-450" rx="36" ry="18"/>
<text text-anchor="middle" x="405.95" y="-446.3" font-family="Times,serif" font-size="14.00">Discon</text>
</g>
<!-- Semantics&#45;&gt;Discon -->
<g id="edge8" class="edge">
<title>Semantics&#45;&gt;Discon</title>
<path fill="none" stroke="black" d="M317.42,-506.33C334.4,-495.71 357.48,-481.29 375.82,-469.83"/>
<polygon fill="black" stroke="black" points="377.77,-472.74 384.39,-464.47 374.06,-466.8 377.77,-472.74"/>
</g>
<!-- Examples -->
<g id="node11" class="node">
<title>Examples</title>
<ellipse fill="none" stroke="black" cx="171.95" cy="-450" rx="46.29" ry="18"/>
<text text-anchor="middle" x="171.95" y="-446.3" font-family="Times,serif" font-size="14.00">Examples</text>
</g>
<!-- Semantics&#45;&gt;Examples -->
<g id="edge9" class="edge">
<title>Semantics&#45;&gt;Examples</title>
<path fill="none" stroke="black" d="M268.96,-506.67C250.71,-496.19 225.74,-481.87 205.71,-470.37"/>
<polygon fill="black" stroke="black" points="207.31,-467.26 196.89,-465.32 203.83,-473.33 207.31,-467.26"/>
</g>
<!-- LocalTableau -->
<g id="node15" class="node">
<title>LocalTableau</title>
<ellipse fill="none" stroke="black" cx="414.95" cy="-378" rx="59.29" ry="18"/>
<text text-anchor="middle" x="414.95" y="-374.3" font-family="Times,serif" font-size="14.00">LocalTableau</text>
</g>
<!-- DagTableau&#45;&gt;LocalTableau -->
<g id="edge14" class="edge">
<title>DagTableau&#45;&gt;LocalTableau</title>
<path fill="none" stroke="black" d="M93.81,-437.68C101.46,-435.67 109.43,-433.68 116.95,-432 198.03,-413.89 292.62,-397.93 353.11,-388.38"/>
<polygon fill="black" stroke="black" points="353.92,-391.79 363.26,-386.78 352.84,-384.88 353.92,-391.79"/>
</g>
<!-- Star -->
<g id="node8" class="node">
<title>Star</title>
<ellipse fill="none" stroke="black" cx="173.95" cy="-522" rx="27" ry="18"/>
<text text-anchor="middle" x="173.95" y="-518.3" font-family="Times,serif" font-size="14.00">Star</text>
</g>
<!-- Star&#45;&gt;Modelgraphs -->
<g id="edge18" class="edge">
<title>Star&#45;&gt;Modelgraphs</title>
<path fill="none" stroke="black" d="M193.76,-509.44C211.47,-499.11 237.82,-483.74 259.05,-471.36"/>
<polygon fill="black" stroke="black" points="260.92,-474.32 267.8,-466.25 257.39,-468.27 260.92,-474.32"/>
</g>
<!-- Star&#45;&gt;DagTableau -->
<g id="edge5" class="edge">
<title>Star&#45;&gt;DagTableau</title>
<path fill="none" stroke="black" d="M154.13,-509.44C136.31,-499.04 109.73,-483.54 88.42,-471.11"/>
<polygon fill="black" stroke="black" points="90.06,-468.01 79.66,-466 86.53,-474.06 90.06,-468.01"/>
</g>
<!-- Star&#45;&gt;Examples -->
<g id="edge10" class="edge">
<title>Star&#45;&gt;Examples</title>
<path fill="none" stroke="black" d="M173.45,-503.7C173.23,-495.98 172.97,-486.71 172.72,-478.11"/>
<polygon fill="black" stroke="black" points="176.22,-478 172.43,-468.1 169.22,-478.2 176.22,-478"/>
</g>
<!-- Closure -->
<g id="node9" class="node">
<title>Closure</title>
<ellipse fill="none" stroke="black" cx="52.95" cy="-522" rx="38.19" ry="18"/>
<text text-anchor="middle" x="52.95" y="-518.3" font-family="Times,serif" font-size="14.00">Closure</text>
</g>
<!-- Closure&#45;&gt;DagTableau -->
<g id="edge6" class="edge">
<title>Closure&#45;&gt;DagTableau</title>
<path fill="none" stroke="black" d="M53.19,-503.7C53.3,-495.98 53.44,-486.71 53.56,-478.11"/>
<polygon fill="black" stroke="black" points="57.06,-478.15 53.7,-468.1 50.06,-478.05 57.06,-478.15"/>
</g>
<!-- Discon&#45;&gt;LocalTableau -->
<g id="edge13" class="edge">
<title>Discon&#45;&gt;LocalTableau</title>
<path fill="none" stroke="black" d="M408.17,-431.7C409.16,-423.98 410.35,-414.71 411.46,-406.11"/>
<polygon fill="black" stroke="black" points="414.94,-406.47 412.75,-396.1 408,-405.58 414.94,-406.47"/>
</g>
<!-- Interpolation -->
<g id="node13" class="node">
<title>Interpolation</title>
<ellipse fill="none" stroke="black" cx="458.95" cy="-18" rx="55.79" ry="18"/>
<text text-anchor="middle" x="458.95" y="-14.3" font-family="Times,serif" font-size="14.00">Interpolation</text>
</g>
<!-- PartInterpolation&#45;&gt;Interpolation -->
<g id="edge11" class="edge">
<title>PartInterpolation&#45;&gt;Interpolation</title>
<path fill="none" stroke="black" d="M458.95,-71.7C458.95,-63.98 458.95,-54.71 458.95,-46.11"/>
<polygon fill="black" stroke="black" points="462.45,-46.1 458.95,-36.1 455.45,-46.1 462.45,-46.1"/>
</g>
<!-- Setsimp&#45;&gt;LocalTableau -->
<g id="edge12" class="edge">
<title>Setsimp&#45;&gt;LocalTableau</title>
<path fill="none" stroke="black" d="M446.2,-503.9C451.91,-485.71 458.4,-456.26 450.95,-432 447.89,-422.06 442.26,-412.31 436.35,-403.93"/>
<polygon fill="black" stroke="black" points="439,-401.63 430.18,-395.76 433.41,-405.85 439,-401.63"/>
</g>
<!-- Tableau -->
<g id="node18" class="node">
<title>Tableau</title>
<ellipse fill="none" stroke="black" cx="414.95" cy="-306" rx="38.99" ry="18"/>
<text text-anchor="middle" x="414.95" y="-302.3" font-family="Times,serif" font-size="14.00">Tableau</text>
</g>
<!-- LocalTableau&#45;&gt;Tableau -->
<g id="edge26" class="edge">
<title>LocalTableau&#45;&gt;Tableau</title>
<path fill="none" stroke="black" d="M414.95,-359.7C414.95,-351.98 414.95,-342.71 414.95,-334.11"/>
<polygon fill="black" stroke="black" points="418.45,-334.1 414.95,-324.1 411.45,-334.1 418.45,-334.1"/>
</g>
<!-- Vocab&#45;&gt;PartInterpolation -->
<g id="edge19" class="edge">
<title>Vocab&#45;&gt;PartInterpolation</title>
<path fill="none" stroke="black" d="M528.17,-431.97C525.54,-405.34 520.95,-352.21 520.95,-307 520.95,-307 520.95,-307 520.95,-233 520.95,-189.26 495.93,-143.79 477.68,-116.44"/>
<polygon fill="black" stroke="black" points="480.34,-114.14 471.79,-107.89 474.58,-118.11 480.34,-114.14"/>
</g>
<!-- Vocab&#45;&gt;LocalTableau -->
<g id="edge15" class="edge">
<title>Vocab&#45;&gt;LocalTableau</title>
<path fill="none" stroke="black" d="M508.85,-436.16C492.1,-425.96 468.33,-411.5 448.9,-399.67"/>
<polygon fill="black" stroke="black" points="450.68,-396.66 440.32,-394.45 447.04,-402.63 450.68,-396.66"/>
</g>
<!-- Measures&#45;&gt;Semantics -->
<g id="edge22" class="edge">
<title>Measures&#45;&gt;Semantics</title>
<path fill="none" stroke="black" d="M350.38,-577.12C340.83,-567.96 328.66,-556.29 318.07,-546.13"/>
<polygon fill="black" stroke="black" points="320.34,-543.46 310.7,-539.06 315.49,-548.51 320.34,-543.46"/>
</g>
<!-- Measures&#45;&gt;Setsimp -->
<g id="edge24" class="edge">
<title>Measures&#45;&gt;Setsimp</title>
<path fill="none" stroke="black" d="M383.51,-577.12C393.19,-567.83 405.57,-555.96 416.27,-545.7"/>
<polygon fill="black" stroke="black" points="418.9,-548.03 423.7,-538.58 414.06,-542.98 418.9,-548.03"/>
</g>
<!-- Tableau&#45;&gt;Soundness -->
<g id="edge25" class="edge">
<title>Tableau&#45;&gt;Soundness</title>
<path fill="none" stroke="black" d="M414.95,-287.7C414.95,-279.98 414.95,-270.71 414.95,-262.11"/>
<polygon fill="black" stroke="black" points="418.45,-262.1 414.95,-252.1 411.45,-262.1 418.45,-262.1"/>
</g>
</g>
</svg>
