<?xml version="1.0" encoding="UTF-8" standalone="no"?>
<!DOCTYPE svg PUBLIC "-//W3C//DTD SVG 1.1//EN"
 "http://www.w3.org/Graphics/SVG/1.1/DTD/svg11.dtd">
<!-- Generated by graphviz version 2.43.0 (0)
 -->
<!-- Title: %3 Pages: 1 -->
<svg width="563pt" height="836pt"
 viewBox="0.00 0.00 562.64 836.00" xmlns="http://www.w3.org/2000/svg" xmlns:xlink="http://www.w3.org/1999/xlink">
<g id="graph0" class="graph" transform="scale(1 1) rotate(0) translate(4 832)">
<title>%3</title>
<polygon fill="white" stroke="transparent" points="-4,4 -4,-832 558.64,-832 558.64,4 -4,4"/>
<!-- Soundness -->
<g id="node1" class="node">
<title>Soundness</title>
<ellipse fill="none" stroke="black" cx="187.44" cy="-234" rx="48.19" ry="18"/>
<text text-anchor="middle" x="187.44" y="-230.3" font-family="Times,serif" font-size="14.00">Soundness</text>
</g>
<!-- Completeness -->
<g id="node2" class="node">
<title>Completeness</title>
<ellipse fill="none" stroke="black" cx="208.44" cy="-162" rx="60.39" ry="18"/>
<text text-anchor="middle" x="208.44" y="-158.3" font-family="Times,serif" font-size="14.00">Completeness</text>
</g>
<!-- Soundness&#45;&gt;Completeness -->
<g id="edge1" class="edge">
<title>Soundness&#45;&gt;Completeness</title>
<path fill="none" stroke="black" d="M192.53,-216.05C194.87,-208.26 197.7,-198.82 200.32,-190.08"/>
<polygon fill="black" stroke="black" points="203.74,-190.86 203.26,-180.28 197.04,-188.85 203.74,-190.86"/>
</g>
<!-- PartInterpolation -->
<g id="node13" class="node">
<title>PartInterpolation</title>
<ellipse fill="none" stroke="black" cx="268.44" cy="-90" rx="70.39" ry="18"/>
<text text-anchor="middle" x="268.44" y="-86.3" font-family="Times,serif" font-size="14.00">PartInterpolation</text>
</g>
<!-- Completeness&#45;&gt;PartInterpolation -->
<g id="edge17" class="edge">
<title>Completeness&#45;&gt;PartInterpolation</title>
<path fill="none" stroke="black" d="M222.66,-144.41C230.03,-135.82 239.17,-125.16 247.34,-115.63"/>
<polygon fill="black" stroke="black" points="250.06,-117.83 253.91,-107.96 244.75,-113.27 250.06,-117.83"/>
</g>
<!-- TableauGame -->
<g id="node3" class="node">
<title>TableauGame</title>
<ellipse fill="none" stroke="black" cx="60.44" cy="-234" rx="60.39" ry="18"/>
<text text-anchor="middle" x="60.44" y="-230.3" font-family="Times,serif" font-size="14.00">TableauGame</text>
</g>
<!-- TableauGame&#45;&gt;Completeness -->
<g id="edge2" class="edge">
<title>TableauGame&#45;&gt;Completeness</title>
<path fill="none" stroke="black" d="M91.47,-218.33C113.84,-207.74 144.24,-193.37 168.44,-181.92"/>
<polygon fill="black" stroke="black" points="170.17,-184.97 177.71,-177.53 167.18,-178.65 170.17,-184.97"/>
</g>
<!-- Modelgraphs -->
<g id="node4" class="node">
<title>Modelgraphs</title>
<ellipse fill="none" stroke="black" cx="263.44" cy="-378" rx="57.69" ry="18"/>
<text text-anchor="middle" x="263.44" y="-374.3" font-family="Times,serif" font-size="14.00">Modelgraphs</text>
</g>
<!-- Modelgraphs&#45;&gt;Completeness -->
<g id="edge3" class="edge">
<title>Modelgraphs&#45;&gt;Completeness</title>
<path fill="none" stroke="black" d="M264.04,-359.93C264.53,-329.84 263.04,-265.84 244.44,-216 240.75,-206.1 234.84,-196.25 228.87,-187.77"/>
<polygon fill="black" stroke="black" points="231.49,-185.43 222.71,-179.5 225.87,-189.61 231.49,-185.43"/>
</g>
<!-- Semantics -->
<g id="node5" class="node">
<title>Semantics</title>
<ellipse fill="none" stroke="black" cx="437.44" cy="-666" rx="47.39" ry="18"/>
<text text-anchor="middle" x="437.44" y="-662.3" font-family="Times,serif" font-size="14.00">Semantics</text>
</g>
<!-- Discon -->
<g id="node6" class="node">
<title>Discon</title>
<ellipse fill="none" stroke="black" cx="286.44" cy="-594" rx="36" ry="18"/>
<text text-anchor="middle" x="286.44" y="-590.3" font-family="Times,serif" font-size="14.00">Discon</text>
</g>
<!-- Semantics&#45;&gt;Discon -->
<g id="edge4" class="edge">
<title>Semantics&#45;&gt;Discon</title>
<path fill="none" stroke="black" d="M408.69,-651.67C383.84,-640.15 347.87,-623.47 321.37,-611.19"/>
<polygon fill="black" stroke="black" points="322.62,-607.91 312.08,-606.88 319.68,-614.26 322.62,-607.91"/>
</g>
<!-- Examples -->
<g id="node10" class="node">
<title>Examples</title>
<ellipse fill="none" stroke="black" cx="431.44" cy="-450" rx="46.29" ry="18"/>
<text text-anchor="middle" x="431.44" y="-446.3" font-family="Times,serif" font-size="14.00">Examples</text>
</g>
<!-- Semantics&#45;&gt;Examples -->
<g id="edge7" class="edge">
<title>Semantics&#45;&gt;Examples</title>
<path fill="none" stroke="black" d="M436.96,-647.85C435.93,-610.83 433.47,-523.18 432.21,-478.39"/>
<polygon fill="black" stroke="black" points="435.71,-478.13 431.93,-468.23 428.71,-478.33 435.71,-478.13"/>
</g>
<!-- SemQuot -->
<g id="node20" class="node">
<title>SemQuot</title>
<ellipse fill="none" stroke="black" cx="510.44" cy="-594" rx="44.39" ry="18"/>
<text text-anchor="middle" x="510.44" y="-590.3" font-family="Times,serif" font-size="14.00">SemQuot</text>
</g>
<!-- Semantics&#45;&gt;SemQuot -->
<g id="edge19" class="edge">
<title>Semantics&#45;&gt;SemQuot</title>
<path fill="none" stroke="black" d="M454.01,-649.12C463.62,-639.9 475.9,-628.13 486.54,-617.92"/>
<polygon fill="black" stroke="black" points="489.15,-620.27 493.95,-610.82 484.31,-615.22 489.15,-620.27"/>
</g>
<!-- Substitution -->
<g id="node22" class="node">
<title>Substitution</title>
<ellipse fill="none" stroke="black" cx="285.44" cy="-522" rx="53.09" ry="18"/>
<text text-anchor="middle" x="285.44" y="-518.3" font-family="Times,serif" font-size="14.00">Substitution</text>
</g>
<!-- Discon&#45;&gt;Substitution -->
<g id="edge23" class="edge">
<title>Discon&#45;&gt;Substitution</title>
<path fill="none" stroke="black" d="M286.2,-575.7C286.09,-567.98 285.95,-558.71 285.83,-550.11"/>
<polygon fill="black" stroke="black" points="289.33,-550.05 285.69,-540.1 282.33,-550.15 289.33,-550.05"/>
</g>
<!-- Vocab -->
<g id="node7" class="node">
<title>Vocab</title>
<ellipse fill="none" stroke="black" cx="286.44" cy="-666" rx="32.49" ry="18"/>
<text text-anchor="middle" x="286.44" y="-662.3" font-family="Times,serif" font-size="14.00">Vocab</text>
</g>
<!-- Vocab&#45;&gt;Discon -->
<g id="edge5" class="edge">
<title>Vocab&#45;&gt;Discon</title>
<path fill="none" stroke="black" d="M286.44,-647.7C286.44,-639.98 286.44,-630.71 286.44,-622.11"/>
<polygon fill="black" stroke="black" points="289.94,-622.1 286.44,-612.1 282.94,-622.1 289.94,-622.1"/>
</g>
<!-- Fresh -->
<g id="node12" class="node">
<title>Fresh</title>
<ellipse fill="none" stroke="black" cx="183.44" cy="-522" rx="30.59" ry="18"/>
<text text-anchor="middle" x="183.44" y="-518.3" font-family="Times,serif" font-size="14.00">Fresh</text>
</g>
<!-- Vocab&#45;&gt;Fresh -->
<g id="edge9" class="edge">
<title>Vocab&#45;&gt;Fresh</title>
<path fill="none" stroke="black" d="M272.52,-649.66C263.35,-639.3 251.26,-625.16 241.44,-612 225.86,-591.1 209.8,-566.14 198.54,-547.99"/>
<polygon fill="black" stroke="black" points="201.34,-545.85 193.12,-539.17 195.38,-549.52 201.34,-545.85"/>
</g>
<!-- UnfoldDia -->
<g id="node8" class="node">
<title>UnfoldDia</title>
<ellipse fill="none" stroke="black" cx="306.44" cy="-450" rx="48.19" ry="18"/>
<text text-anchor="middle" x="306.44" y="-446.3" font-family="Times,serif" font-size="14.00">UnfoldDia</text>
</g>
<!-- UnfoldDia&#45;&gt;Modelgraphs -->
<g id="edge16" class="edge">
<title>UnfoldDia&#45;&gt;Modelgraphs</title>
<path fill="none" stroke="black" d="M296.04,-432.05C290.97,-423.8 284.76,-413.7 279.13,-404.54"/>
<polygon fill="black" stroke="black" points="281.97,-402.48 273.76,-395.79 276.01,-406.14 281.97,-402.48"/>
</g>
<!-- Distance -->
<g id="node9" class="node">
<title>Distance</title>
<ellipse fill="none" stroke="black" cx="338.44" cy="-162" rx="41.69" ry="18"/>
<text text-anchor="middle" x="338.44" y="-158.3" font-family="Times,serif" font-size="14.00">Distance</text>
</g>
<!-- UnfoldDia&#45;&gt;Distance -->
<g id="edge6" class="edge">
<title>UnfoldDia&#45;&gt;Distance</title>
<path fill="none" stroke="black" d="M316.24,-431.94C321.5,-421.84 327.5,-408.59 330.44,-396 347.44,-323.33 344.1,-234.48 340.91,-190.45"/>
<polygon fill="black" stroke="black" points="344.38,-189.95 340.11,-180.25 337.4,-190.5 344.38,-189.95"/>
</g>
<!-- LocalTableau -->
<g id="node16" class="node">
<title>LocalTableau</title>
<ellipse fill="none" stroke="black" cx="128.44" cy="-378" rx="59.29" ry="18"/>
<text text-anchor="middle" x="128.44" y="-374.3" font-family="Times,serif" font-size="14.00">LocalTableau</text>
</g>
<!-- UnfoldDia&#45;&gt;LocalTableau -->
<g id="edge12" class="edge">
<title>UnfoldDia&#45;&gt;LocalTableau</title>
<path fill="none" stroke="black" d="M274.62,-436.49C246.17,-425.29 204.19,-408.79 172.51,-396.33"/>
<polygon fill="black" stroke="black" points="173.62,-393 163.03,-392.6 171.06,-399.52 173.62,-393"/>
</g>
<!-- Distance&#45;&gt;PartInterpolation -->
<g id="edge18" class="edge">
<title>Distance&#45;&gt;PartInterpolation</title>
<path fill="none" stroke="black" d="M322.56,-145.12C313.69,-136.24 302.45,-125.01 292.52,-115.08"/>
<polygon fill="black" stroke="black" points="294.79,-112.39 285.24,-107.8 289.84,-117.34 294.79,-112.39"/>
</g>
<!-- Star -->
<g id="node11" class="node">
<title>Star</title>
<ellipse fill="none" stroke="black" cx="383.44" cy="-522" rx="27" ry="18"/>
<text text-anchor="middle" x="383.44" y="-518.3" font-family="Times,serif" font-size="14.00">Star</text>
</g>
<!-- Star&#45;&gt;UnfoldDia -->
<g id="edge32" class="edge">
<title>Star&#45;&gt;UnfoldDia</title>
<path fill="none" stroke="black" d="M367.86,-506.83C357.41,-497.33 343.41,-484.6 331.42,-473.7"/>
<polygon fill="black" stroke="black" points="333.64,-470.99 323.88,-466.85 328.93,-476.17 333.64,-470.99"/>
</g>
<!-- Star&#45;&gt;Examples -->
<g id="edge8" class="edge">
<title>Star&#45;&gt;Examples</title>
<path fill="none" stroke="black" d="M394.34,-505.12C400.18,-496.59 407.52,-485.89 414.13,-476.25"/>
<polygon fill="black" stroke="black" points="417.16,-478.02 419.93,-467.8 411.38,-474.07 417.16,-478.02"/>
</g>
<!-- UnfoldBox -->
<g id="node15" class="node">
<title>UnfoldBox</title>
<ellipse fill="none" stroke="black" cx="190.44" cy="-450" rx="50.09" ry="18"/>
<text text-anchor="middle" x="190.44" y="-446.3" font-family="Times,serif" font-size="14.00">UnfoldBox</text>
</g>
<!-- Star&#45;&gt;UnfoldBox -->
<g id="edge29" class="edge">
<title>Star&#45;&gt;UnfoldBox</title>
<path fill="none" stroke="black" d="M362.3,-510.52C357.47,-508.26 352.32,-505.96 347.44,-504 311.09,-489.34 268.96,-475.27 237.5,-465.32"/>
<polygon fill="black" stroke="black" points="238.27,-461.89 227.68,-462.23 236.17,-468.57 238.27,-461.89"/>
</g>
<!-- Fresh&#45;&gt;UnfoldDia -->
<g id="edge31" class="edge">
<title>Fresh&#45;&gt;UnfoldDia</title>
<path fill="none" stroke="black" d="M204.59,-508.97C223.1,-498.43 250.34,-482.93 272,-470.6"/>
<polygon fill="black" stroke="black" points="273.94,-473.53 280.9,-465.54 270.47,-467.44 273.94,-473.53"/>
</g>
<!-- Fresh&#45;&gt;UnfoldBox -->
<g id="edge28" class="edge">
<title>Fresh&#45;&gt;UnfoldBox</title>
<path fill="none" stroke="black" d="M185.17,-503.7C185.95,-495.98 186.87,-486.71 187.73,-478.11"/>
<polygon fill="black" stroke="black" points="191.22,-478.4 188.73,-468.1 184.26,-477.71 191.22,-478.4"/>
</g>
<!-- Interpolation -->
<g id="node14" class="node">
<title>Interpolation</title>
<ellipse fill="none" stroke="black" cx="268.44" cy="-18" rx="55.79" ry="18"/>
<text text-anchor="middle" x="268.44" y="-14.3" font-family="Times,serif" font-size="14.00">Interpolation</text>
</g>
<!-- PartInterpolation&#45;&gt;Interpolation -->
<g id="edge10" class="edge">
<title>PartInterpolation&#45;&gt;Interpolation</title>
<path fill="none" stroke="black" d="M268.44,-71.7C268.44,-63.98 268.44,-54.71 268.44,-46.11"/>
<polygon fill="black" stroke="black" points="271.94,-46.1 268.44,-36.1 264.94,-46.1 271.94,-46.1"/>
</g>
<!-- UnfoldBox&#45;&gt;Modelgraphs -->
<g id="edge15" class="edge">
<title>UnfoldBox&#45;&gt;Modelgraphs</title>
<path fill="none" stroke="black" d="M207.38,-432.76C216.8,-423.73 228.69,-412.33 239.1,-402.35"/>
<polygon fill="black" stroke="black" points="241.56,-404.84 246.35,-395.39 236.71,-399.78 241.56,-404.84"/>
</g>
<!-- UnfoldBox&#45;&gt;LocalTableau -->
<g id="edge11" class="edge">
<title>UnfoldBox&#45;&gt;LocalTableau</title>
<path fill="none" stroke="black" d="M175.75,-432.41C168.03,-423.69 158.42,-412.85 149.89,-403.21"/>
<polygon fill="black" stroke="black" points="152.28,-400.64 143.03,-395.47 147.04,-405.28 152.28,-400.64"/>
</g>
<!-- Tableau -->
<g id="node21" class="node">
<title>Tableau</title>
<ellipse fill="none" stroke="black" cx="139.44" cy="-306" rx="38.99" ry="18"/>
<text text-anchor="middle" x="139.44" y="-302.3" font-family="Times,serif" font-size="14.00">Tableau</text>
</g>
<!-- LocalTableau&#45;&gt;Tableau -->
<g id="edge24" class="edge">
<title>LocalTableau&#45;&gt;Tableau</title>
<path fill="none" stroke="black" d="M131.16,-359.7C132.38,-351.98 133.83,-342.71 135.18,-334.11"/>
<polygon fill="black" stroke="black" points="138.66,-334.53 136.76,-324.1 131.75,-333.44 138.66,-334.53"/>
</g>
<!-- MultisetOrder -->
<g id="node17" class="node">
<title>MultisetOrder</title>
<ellipse fill="none" stroke="black" cx="61.44" cy="-450" rx="61.19" ry="18"/>
<text text-anchor="middle" x="61.44" y="-446.3" font-family="Times,serif" font-size="14.00">MultisetOrder</text>
</g>
<!-- MultisetOrder&#45;&gt;LocalTableau -->
<g id="edge13" class="edge">
<title>MultisetOrder&#45;&gt;LocalTableau</title>
<path fill="none" stroke="black" d="M77.32,-432.41C85.75,-423.61 96.26,-412.63 105.55,-402.92"/>
<polygon fill="black" stroke="black" points="108.29,-405.11 112.68,-395.47 103.24,-400.27 108.29,-405.11"/>
</g>
<!-- Syntax -->
<g id="node18" class="node">
<title>Syntax</title>
<ellipse fill="none" stroke="black" cx="364.44" cy="-810" rx="35.19" ry="18"/>
<text text-anchor="middle" x="364.44" y="-806.3" font-family="Times,serif" font-size="14.00">Syntax</text>
</g>
<!-- Syntax&#45;&gt;Semantics -->
<g id="edge20" class="edge">
<title>Syntax&#45;&gt;Semantics</title>
<path fill="none" stroke="black" d="M383.77,-794.87C395.57,-785.22 409.97,-771.43 418.44,-756 428.94,-736.9 433.64,-712.55 435.75,-694.14"/>
<polygon fill="black" stroke="black" points="439.24,-694.37 436.71,-684.08 432.27,-693.7 439.24,-694.37"/>
</g>
<!-- Syntax&#45;&gt;Vocab -->
<g id="edge33" class="edge">
<title>Syntax&#45;&gt;Vocab</title>
<path fill="none" stroke="black" d="M345.39,-794.72C333.71,-785 319.33,-771.2 310.44,-756 299.3,-736.94 293.2,-712.59 289.94,-694.17"/>
<polygon fill="black" stroke="black" points="293.37,-693.42 288.33,-684.1 286.45,-694.53 293.37,-693.42"/>
</g>
<!-- Measures -->
<g id="node19" class="node">
<title>Measures</title>
<ellipse fill="none" stroke="black" cx="364.44" cy="-738" rx="44.69" ry="18"/>
<text text-anchor="middle" x="364.44" y="-734.3" font-family="Times,serif" font-size="14.00">Measures</text>
</g>
<!-- Syntax&#45;&gt;Measures -->
<g id="edge14" class="edge">
<title>Syntax&#45;&gt;Measures</title>
<path fill="none" stroke="black" d="M364.44,-791.7C364.44,-783.98 364.44,-774.71 364.44,-766.11"/>
<polygon fill="black" stroke="black" points="367.94,-766.1 364.44,-756.1 360.94,-766.1 367.94,-766.1"/>
</g>
<!-- Measures&#45;&gt;Semantics -->
<g id="edge21" class="edge">
<title>Measures&#45;&gt;Semantics</title>
<path fill="none" stroke="black" d="M381.01,-721.12C390.56,-711.96 402.73,-700.29 413.32,-690.13"/>
<polygon fill="black" stroke="black" points="415.9,-692.51 420.69,-683.06 411.05,-687.46 415.9,-692.51"/>
</g>
<!-- Tableau&#45;&gt;Soundness -->
<g id="edge22" class="edge">
<title>Tableau&#45;&gt;Soundness</title>
<path fill="none" stroke="black" d="M150.82,-288.41C156.53,-280.08 163.58,-269.8 169.97,-260.49"/>
<polygon fill="black" stroke="black" points="173.05,-262.18 175.82,-251.96 167.28,-258.22 173.05,-262.18"/>
</g>
<!-- Tableau&#45;&gt;TableauGame -->
<g id="edge26" class="edge">
<title>Tableau&#45;&gt;TableauGame</title>
<path fill="none" stroke="black" d="M122.3,-289.81C111.91,-280.6 98.43,-268.65 86.7,-258.27"/>
<polygon fill="black" stroke="black" points="88.74,-255.39 78.93,-251.38 84.09,-260.63 88.74,-255.39"/>
</g>
<!-- Substitution&#45;&gt;UnfoldDia -->
<g id="edge30" class="edge">
<title>Substitution&#45;&gt;UnfoldDia</title>
<path fill="none" stroke="black" d="M290.53,-504.05C292.87,-496.26 295.7,-486.82 298.32,-478.08"/>
<polygon fill="black" stroke="black" points="301.74,-478.86 301.26,-468.28 295.04,-476.85 301.74,-478.86"/>
</g>
<!-- Substitution&#45;&gt;UnfoldBox -->
<g id="edge27" class="edge">
<title>Substitution&#45;&gt;UnfoldBox</title>
<path fill="none" stroke="black" d="M264.36,-505.46C251.2,-495.77 234.07,-483.15 219.62,-472.5"/>
<polygon fill="black" stroke="black" points="221.6,-469.61 211.47,-466.49 217.44,-475.24 221.6,-469.61"/>
</g>
<!-- Game -->
<g id="node23" class="node">
<title>Game</title>
<ellipse fill="none" stroke="black" cx="50.44" cy="-306" rx="32.49" ry="18"/>
<text text-anchor="middle" x="50.44" y="-302.3" font-family="Times,serif" font-size="14.00">Game</text>
</g>
<!-- Game&#45;&gt;TableauGame -->
<g id="edge25" class="edge">
<title>Game&#45;&gt;TableauGame</title>
<path fill="none" stroke="black" d="M52.92,-287.7C54.02,-279.98 55.34,-270.71 56.57,-262.11"/>
<polygon fill="black" stroke="black" points="60.05,-262.5 58,-252.1 53.12,-261.51 60.05,-262.5"/>
</g>
</g>
</svg>
