<?xml version="1.0" encoding="UTF-8" standalone="no"?>
<!DOCTYPE svg PUBLIC "-//W3C//DTD SVG 1.1//EN"
 "http://www.w3.org/Graphics/SVG/1.1/DTD/svg11.dtd">
<!-- Generated by graphviz version 2.43.0 (0)
 -->
<!-- Title: %3 Pages: 1 -->
<svg width="767pt" height="836pt"
 viewBox="0.00 0.00 767.04 836.00" xmlns="http://www.w3.org/2000/svg" xmlns:xlink="http://www.w3.org/1999/xlink">
<g id="graph0" class="graph" transform="scale(1 1) rotate(0) translate(4 832)">
<title>%3</title>
<polygon fill="white" stroke="transparent" points="-4,4 -4,-832 763.04,-832 763.04,4 -4,4"/>
<!-- Soundness -->
<g id="node1" class="node">
<title>Soundness</title>
<ellipse fill="none" stroke="black" cx="237.95" cy="-234" rx="48.19" ry="18"/>
<text text-anchor="middle" x="237.95" y="-230.3" font-family="Times,serif" font-size="14.00">Soundness</text>
</g>
<!-- Completeness -->
<g id="node2" class="node">
<title>Completeness</title>
<ellipse fill="none" stroke="black" cx="275.95" cy="-162" rx="60.39" ry="18"/>
<text text-anchor="middle" x="275.95" y="-158.3" font-family="Times,serif" font-size="14.00">Completeness</text>
</g>
<!-- Soundness&#45;&gt;Completeness -->
<g id="edge1" class="edge">
<title>Soundness&#45;&gt;Completeness</title>
<path fill="none" stroke="black" d="M247.14,-216.05C251.51,-208.01 256.83,-198.2 261.71,-189.23"/>
<polygon fill="black" stroke="black" points="264.87,-190.73 266.57,-180.28 258.72,-187.39 264.87,-190.73"/>
</g>
<!-- PartInterpolation -->
<g id="node14" class="node">
<title>PartInterpolation</title>
<ellipse fill="none" stroke="black" cx="275.95" cy="-90" rx="70.39" ry="18"/>
<text text-anchor="middle" x="275.95" y="-86.3" font-family="Times,serif" font-size="14.00">PartInterpolation</text>
</g>
<!-- Completeness&#45;&gt;PartInterpolation -->
<g id="edge21" class="edge">
<title>Completeness&#45;&gt;PartInterpolation</title>
<path fill="none" stroke="black" d="M275.95,-143.7C275.95,-135.98 275.95,-126.71 275.95,-118.11"/>
<polygon fill="black" stroke="black" points="279.45,-118.1 275.95,-108.1 272.45,-118.1 279.45,-118.1"/>
</g>
<!-- Modelgraphs -->
<g id="node3" class="node">
<title>Modelgraphs</title>
<ellipse fill="none" stroke="black" cx="313.95" cy="-378" rx="57.69" ry="18"/>
<text text-anchor="middle" x="313.95" y="-374.3" font-family="Times,serif" font-size="14.00">Modelgraphs</text>
</g>
<!-- Modelgraphs&#45;&gt;Completeness -->
<g id="edge2" class="edge">
<title>Modelgraphs&#45;&gt;Completeness</title>
<path fill="none" stroke="black" d="M313.2,-359.86C311.62,-330.19 307.05,-267.51 294.95,-216 292.88,-207.21 289.83,-197.85 286.77,-189.49"/>
<polygon fill="black" stroke="black" points="289.94,-187.99 283.11,-179.89 283.4,-190.48 289.94,-187.99"/>
</g>
<!-- Syntax -->
<g id="node4" class="node">
<title>Syntax</title>
<ellipse fill="none" stroke="black" cx="353.95" cy="-810" rx="35.19" ry="18"/>
<text text-anchor="middle" x="353.95" y="-806.3" font-family="Times,serif" font-size="14.00">Syntax</text>
</g>
<!-- DagSyntax -->
<g id="node5" class="node">
<title>DagSyntax</title>
<ellipse fill="none" stroke="black" cx="124.95" cy="-738" rx="50.09" ry="18"/>
<text text-anchor="middle" x="124.95" y="-734.3" font-family="Times,serif" font-size="14.00">DagSyntax</text>
</g>
<!-- Syntax&#45;&gt;DagSyntax -->
<g id="edge3" class="edge">
<title>Syntax&#45;&gt;DagSyntax</title>
<path fill="none" stroke="black" d="M324.48,-799.99C285.76,-788.16 217.34,-767.24 171.56,-753.25"/>
<polygon fill="black" stroke="black" points="172.46,-749.86 161.87,-750.29 170.41,-756.56 172.46,-749.86"/>
</g>
<!-- Semantics -->
<g id="node6" class="node">
<title>Semantics</title>
<ellipse fill="none" stroke="black" cx="351.95" cy="-666" rx="47.39" ry="18"/>
<text text-anchor="middle" x="351.95" y="-662.3" font-family="Times,serif" font-size="14.00">Semantics</text>
</g>
<!-- Syntax&#45;&gt;Semantics -->
<g id="edge23" class="edge">
<title>Syntax&#45;&gt;Semantics</title>
<path fill="none" stroke="black" d="M333.21,-795.21C321.02,-785.79 306.71,-772.11 299.95,-756 293.75,-741.25 293.89,-734.81 299.95,-720 304.78,-708.16 313.68,-697.54 322.77,-688.97"/>
<polygon fill="black" stroke="black" points="325.18,-691.51 330.36,-682.27 320.54,-686.26 325.18,-691.51"/>
</g>
<!-- Vocab -->
<g id="node12" class="node">
<title>Vocab</title>
<ellipse fill="none" stroke="black" cx="419.95" cy="-594" rx="32.49" ry="18"/>
<text text-anchor="middle" x="419.95" y="-590.3" font-family="Times,serif" font-size="14.00">Vocab</text>
</g>
<!-- Syntax&#45;&gt;Vocab -->
<g id="edge37" class="edge">
<title>Syntax&#45;&gt;Vocab</title>
<path fill="none" stroke="black" d="M374.27,-795.03C386.3,-785.53 400.59,-771.85 407.95,-756 428.09,-712.6 426.7,-655.49 423.55,-622.26"/>
<polygon fill="black" stroke="black" points="426.99,-621.52 422.43,-611.95 420.03,-622.27 426.99,-621.52"/>
</g>
<!-- Setsimp -->
<g id="node16" class="node">
<title>Setsimp</title>
<ellipse fill="none" stroke="black" cx="494.95" cy="-666" rx="39.79" ry="18"/>
<text text-anchor="middle" x="494.95" y="-662.3" font-family="Times,serif" font-size="14.00">Setsimp</text>
</g>
<!-- Syntax&#45;&gt;Setsimp -->
<g id="edge25" class="edge">
<title>Syntax&#45;&gt;Setsimp</title>
<path fill="none" stroke="black" d="M379.39,-797.6C398.03,-788.34 423.08,-773.9 440.95,-756 459.19,-737.73 473.89,-712.13 483.31,-693.08"/>
<polygon fill="black" stroke="black" points="486.48,-694.58 487.63,-684.05 480.16,-691.56 486.48,-694.58"/>
</g>
<!-- Measures -->
<g id="node20" class="node">
<title>Measures</title>
<ellipse fill="none" stroke="black" cx="353.95" cy="-738" rx="44.69" ry="18"/>
<text text-anchor="middle" x="353.95" y="-734.3" font-family="Times,serif" font-size="14.00">Measures</text>
</g>
<!-- Syntax&#45;&gt;Measures -->
<g id="edge17" class="edge">
<title>Syntax&#45;&gt;Measures</title>
<path fill="none" stroke="black" d="M353.95,-791.7C353.95,-783.98 353.95,-774.71 353.95,-766.11"/>
<polygon fill="black" stroke="black" points="357.45,-766.1 353.95,-756.1 350.45,-766.1 357.45,-766.1"/>
</g>
<!-- DagTableau -->
<g id="node7" class="node">
<title>DagTableau</title>
<ellipse fill="none" stroke="black" cx="53.95" cy="-594" rx="53.89" ry="18"/>
<text text-anchor="middle" x="53.95" y="-590.3" font-family="Times,serif" font-size="14.00">DagTableau</text>
</g>
<!-- DagSyntax&#45;&gt;DagTableau -->
<g id="edge7" class="edge">
<title>DagSyntax&#45;&gt;DagTableau</title>
<path fill="none" stroke="black" d="M97.73,-722.62C83.54,-713.56 67.42,-700.47 58.95,-684 49.18,-665.02 48.49,-640.66 49.92,-622.22"/>
<polygon fill="black" stroke="black" points="53.42,-622.44 50.96,-612.14 46.46,-621.72 53.42,-622.44"/>
</g>
<!-- Semantics&#45;&gt;Modelgraphs -->
<g id="edge18" class="edge">
<title>Semantics&#45;&gt;Modelgraphs</title>
<path fill="none" stroke="black" d="M350.32,-647.87C348.5,-629.89 345.23,-600.85 340.95,-576 338.16,-559.85 335.69,-556.16 332.95,-540 325.03,-493.33 319.31,-438.5 316.32,-406.37"/>
<polygon fill="black" stroke="black" points="319.77,-405.64 315.38,-396 312.8,-406.28 319.77,-405.64"/>
</g>
<!-- Semantics&#45;&gt;DagTableau -->
<g id="edge4" class="edge">
<title>Semantics&#45;&gt;DagTableau</title>
<path fill="none" stroke="black" d="M312.68,-655.78C259.79,-643.35 165.51,-621.21 106.54,-607.35"/>
<polygon fill="black" stroke="black" points="107.21,-603.92 96.67,-605.04 105.61,-610.73 107.21,-603.92"/>
</g>
<!-- Discon -->
<g id="node10" class="node">
<title>Discon</title>
<ellipse fill="none" stroke="black" cx="551.95" cy="-594" rx="36" ry="18"/>
<text text-anchor="middle" x="551.95" y="-590.3" font-family="Times,serif" font-size="14.00">Discon</text>
</g>
<!-- Semantics&#45;&gt;Discon -->
<g id="edge8" class="edge">
<title>Semantics&#45;&gt;Discon</title>
<path fill="none" stroke="black" d="M385.87,-653.13C421.22,-640.75 476.51,-621.4 513.46,-608.47"/>
<polygon fill="black" stroke="black" points="515.09,-611.61 523.37,-605 512.77,-605 515.09,-611.61"/>
</g>
<!-- Examples -->
<g id="node11" class="node">
<title>Examples</title>
<ellipse fill="none" stroke="black" cx="285.95" cy="-594" rx="46.29" ry="18"/>
<text text-anchor="middle" x="285.95" y="-590.3" font-family="Times,serif" font-size="14.00">Examples</text>
</g>
<!-- Semantics&#45;&gt;Examples -->
<g id="edge9" class="edge">
<title>Semantics&#45;&gt;Examples</title>
<path fill="none" stroke="black" d="M336.64,-648.76C328.14,-639.75 317.42,-628.39 308.03,-618.43"/>
<polygon fill="black" stroke="black" points="310.58,-616.02 301.17,-611.15 305.48,-620.82 310.58,-616.02"/>
</g>
<!-- Substitution -->
<g id="node23" class="node">
<title>Substitution</title>
<ellipse fill="none" stroke="black" cx="474.95" cy="-522" rx="53.09" ry="18"/>
<text text-anchor="middle" x="474.95" y="-518.3" font-family="Times,serif" font-size="14.00">Substitution</text>
</g>
<!-- Semantics&#45;&gt;Substitution -->
<g id="edge29" class="edge">
<title>Semantics&#45;&gt;Substitution</title>
<path fill="none" stroke="black" d="M391.19,-655.8C415.09,-648.12 444.17,-634.66 460.95,-612 474,-594.37 476.95,-569.34 476.95,-550.32"/>
<polygon fill="black" stroke="black" points="480.45,-550.08 476.68,-540.18 473.45,-550.27 480.45,-550.08"/>
</g>
<!-- Star -->
<g id="node8" class="node">
<title>Star</title>
<ellipse fill="none" stroke="black" cx="188.95" cy="-666" rx="27" ry="18"/>
<text text-anchor="middle" x="188.95" y="-662.3" font-family="Times,serif" font-size="14.00">Star</text>
</g>
<!-- Star&#45;&gt;Soundness -->
<g id="edge27" class="edge">
<title>Star&#45;&gt;Soundness</title>
<path fill="none" stroke="black" d="M178.73,-649.11C163.33,-623.59 135.95,-571.42 135.95,-523 135.95,-523 135.95,-523 135.95,-377 135.95,-326.78 178.55,-282.16 208.69,-256.88"/>
<polygon fill="black" stroke="black" points="211.26,-259.3 216.81,-250.28 206.84,-253.87 211.26,-259.3"/>
</g>
<!-- Star&#45;&gt;Modelgraphs -->
<g id="edge19" class="edge">
<title>Star&#45;&gt;Modelgraphs</title>
<path fill="none" stroke="black" d="M190.09,-647.84C191.71,-629.59 195.47,-600.09 203.95,-576 227.12,-510.08 271.41,-440.38 296.13,-404.17"/>
<polygon fill="black" stroke="black" points="299.17,-405.92 301.97,-395.71 293.41,-401.95 299.17,-405.92"/>
</g>
<!-- Star&#45;&gt;DagTableau -->
<g id="edge5" class="edge">
<title>Star&#45;&gt;DagTableau</title>
<path fill="none" stroke="black" d="M168.15,-654.22C147.69,-643.61 115.99,-627.17 91.18,-614.31"/>
<polygon fill="black" stroke="black" points="92.53,-611.07 82.05,-609.57 89.31,-617.28 92.53,-611.07"/>
</g>
<!-- Star&#45;&gt;Examples -->
<g id="edge10" class="edge">
<title>Star&#45;&gt;Examples</title>
<path fill="none" stroke="black" d="M206.74,-652.16C220.71,-642.08 240.46,-627.83 256.74,-616.08"/>
<polygon fill="black" stroke="black" points="258.83,-618.88 264.89,-610.19 254.73,-613.21 258.83,-618.88"/>
</g>
<!-- Unfold -->
<g id="node18" class="node">
<title>Unfold</title>
<ellipse fill="none" stroke="black" cx="447.95" cy="-450" rx="36" ry="18"/>
<text text-anchor="middle" x="447.95" y="-446.3" font-family="Times,serif" font-size="14.00">Unfold</text>
</g>
<!-- Star&#45;&gt;Unfold -->
<g id="edge36" class="edge">
<title>Star&#45;&gt;Unfold</title>
<path fill="none" stroke="black" d="M193.99,-648.13C200.31,-629.07 212.6,-597.85 230.95,-576 279.21,-518.53 361.04,-481.73 409.23,-463.86"/>
<polygon fill="black" stroke="black" points="410.48,-467.13 418.69,-460.43 408.1,-460.54 410.48,-467.13"/>
</g>
<!-- Closure -->
<g id="node9" class="node">
<title>Closure</title>
<ellipse fill="none" stroke="black" cx="105.95" cy="-666" rx="38.19" ry="18"/>
<text text-anchor="middle" x="105.95" y="-662.3" font-family="Times,serif" font-size="14.00">Closure</text>
</g>
<!-- Closure&#45;&gt;DagTableau -->
<g id="edge6" class="edge">
<title>Closure&#45;&gt;DagTableau</title>
<path fill="none" stroke="black" d="M93.88,-648.76C87.48,-640.14 79.47,-629.36 72.31,-619.73"/>
<polygon fill="black" stroke="black" points="75.07,-617.57 66.3,-611.63 69.46,-621.75 75.07,-617.57"/>
</g>
<!-- LocalTableau -->
<g id="node17" class="node">
<title>LocalTableau</title>
<ellipse fill="none" stroke="black" cx="593.95" cy="-378" rx="59.29" ry="18"/>
<text text-anchor="middle" x="593.95" y="-374.3" font-family="Times,serif" font-size="14.00">LocalTableau</text>
</g>
<!-- Discon&#45;&gt;LocalTableau -->
<g id="edge14" class="edge">
<title>Discon&#45;&gt;LocalTableau</title>
<path fill="none" stroke="black" d="M555.31,-575.85C562.59,-538.75 579.85,-450.81 588.63,-406.1"/>
<polygon fill="black" stroke="black" points="592.07,-406.72 590.56,-396.23 585.2,-405.37 592.07,-406.72"/>
</g>
<!-- Discon&#45;&gt;Unfold -->
<g id="edge33" class="edge">
<title>Discon&#45;&gt;Unfold</title>
<path fill="none" stroke="black" d="M553.14,-575.69C553.58,-556.51 551.64,-525.46 536.95,-504 524.75,-486.18 504.41,-473.42 486.26,-464.89"/>
<polygon fill="black" stroke="black" points="487.58,-461.65 477.02,-460.81 484.75,-468.05 487.58,-461.65"/>
</g>
<!-- Discon&#45;&gt;Substitution -->
<g id="edge31" class="edge">
<title>Discon&#45;&gt;Substitution</title>
<path fill="none" stroke="black" d="M535.24,-577.81C525.03,-568.53 511.78,-556.48 500.3,-546.05"/>
<polygon fill="black" stroke="black" points="502.45,-543.27 492.69,-539.13 497.74,-548.45 502.45,-543.27"/>
</g>
<!-- Fresh -->
<g id="node13" class="node">
<title>Fresh</title>
<ellipse fill="none" stroke="black" cx="372.95" cy="-522" rx="30.59" ry="18"/>
<text text-anchor="middle" x="372.95" y="-518.3" font-family="Times,serif" font-size="14.00">Fresh</text>
</g>
<!-- Vocab&#45;&gt;Fresh -->
<g id="edge11" class="edge">
<title>Vocab&#45;&gt;Fresh</title>
<path fill="none" stroke="black" d="M409.04,-576.76C403.23,-568.11 395.96,-557.27 389.47,-547.6"/>
<polygon fill="black" stroke="black" points="392.27,-545.5 383.79,-539.15 386.46,-549.4 392.27,-545.5"/>
</g>
<!-- Vocab&#45;&gt;Substitution -->
<g id="edge30" class="edge">
<title>Vocab&#45;&gt;Substitution</title>
<path fill="none" stroke="black" d="M432.43,-577.12C439.26,-568.42 447.88,-557.45 455.57,-547.66"/>
<polygon fill="black" stroke="black" points="458.32,-549.82 461.75,-539.8 452.82,-545.5 458.32,-549.82"/>
</g>
<!-- Fresh&#45;&gt;Unfold -->
<g id="edge35" class="edge">
<title>Fresh&#45;&gt;Unfold</title>
<path fill="none" stroke="black" d="M388.49,-506.5C398.83,-496.84 412.63,-483.97 424.32,-473.05"/>
<polygon fill="black" stroke="black" points="426.72,-475.59 431.65,-466.21 421.95,-470.48 426.72,-475.59"/>
</g>
<!-- Interpolation -->
<g id="node15" class="node">
<title>Interpolation</title>
<ellipse fill="none" stroke="black" cx="275.95" cy="-18" rx="55.79" ry="18"/>
<text text-anchor="middle" x="275.95" y="-14.3" font-family="Times,serif" font-size="14.00">Interpolation</text>
</g>
<!-- PartInterpolation&#45;&gt;Interpolation -->
<g id="edge12" class="edge">
<title>PartInterpolation&#45;&gt;Interpolation</title>
<path fill="none" stroke="black" d="M275.95,-71.7C275.95,-63.98 275.95,-54.71 275.95,-46.11"/>
<polygon fill="black" stroke="black" points="279.45,-46.1 275.95,-36.1 272.45,-46.1 279.45,-46.1"/>
</g>
<!-- Setsimp&#45;&gt;LocalTableau -->
<g id="edge13" class="edge">
<title>Setsimp&#45;&gt;LocalTableau</title>
<path fill="none" stroke="black" d="M524.4,-653.92C582.24,-630.28 708.87,-568.67 752.95,-468 759.36,-453.34 762.3,-444.98 752.95,-432 732.21,-403.23 695.17,-389.84 662.06,-383.71"/>
<polygon fill="black" stroke="black" points="662.37,-380.21 651.93,-382.03 661.22,-387.12 662.37,-380.21"/>
</g>
<!-- Tableau -->
<g id="node22" class="node">
<title>Tableau</title>
<ellipse fill="none" stroke="black" cx="486.95" cy="-306" rx="38.99" ry="18"/>
<text text-anchor="middle" x="486.95" y="-302.3" font-family="Times,serif" font-size="14.00">Tableau</text>
</g>
<!-- LocalTableau&#45;&gt;Tableau -->
<g id="edge32" class="edge">
<title>LocalTableau&#45;&gt;Tableau</title>
<path fill="none" stroke="black" d="M570.2,-361.46C554.47,-351.17 533.71,-337.59 516.86,-326.57"/>
<polygon fill="black" stroke="black" points="518.73,-323.61 508.45,-321.07 514.9,-329.47 518.73,-323.61"/>
</g>
<!-- Unfold&#45;&gt;Modelgraphs -->
<g id="edge20" class="edge">
<title>Unfold&#45;&gt;Modelgraphs</title>
<path fill="none" stroke="black" d="M423.99,-436.49C403.79,-425.93 374.53,-410.65 351.26,-398.49"/>
<polygon fill="black" stroke="black" points="352.83,-395.36 342.34,-393.83 349.59,-401.57 352.83,-395.36"/>
</g>
<!-- Unfold&#45;&gt;LocalTableau -->
<g id="edge15" class="edge">
<title>Unfold&#45;&gt;LocalTableau</title>
<path fill="none" stroke="black" d="M473.04,-436.97C495.41,-426.24 528.51,-410.37 554.43,-397.95"/>
<polygon fill="black" stroke="black" points="556.12,-401.02 563.62,-393.54 553.09,-394.71 556.12,-401.02"/>
</g>
<!-- Paths -->
<g id="node21" class="node">
<title>Paths</title>
<ellipse fill="none" stroke="black" cx="447.95" cy="-378" rx="29.8" ry="18"/>
<text text-anchor="middle" x="447.95" y="-374.3" font-family="Times,serif" font-size="14.00">Paths</text>
</g>
<!-- Unfold&#45;&gt;Paths -->
<g id="edge22" class="edge">
<title>Unfold&#45;&gt;Paths</title>
<path fill="none" stroke="black" d="M447.95,-431.7C447.95,-423.98 447.95,-414.71 447.95,-406.11"/>
<polygon fill="black" stroke="black" points="451.45,-406.1 447.95,-396.1 444.45,-406.1 451.45,-406.1"/>
</g>
<!-- MultisetOrder -->
<g id="node19" class="node">
<title>MultisetOrder</title>
<ellipse fill="none" stroke="black" cx="682.95" cy="-450" rx="61.19" ry="18"/>
<text text-anchor="middle" x="682.95" y="-446.3" font-family="Times,serif" font-size="14.00">MultisetOrder</text>
</g>
<!-- MultisetOrder&#45;&gt;LocalTableau -->
<g id="edge16" class="edge">
<title>MultisetOrder&#45;&gt;LocalTableau</title>
<path fill="none" stroke="black" d="M662.3,-432.76C650.51,-423.49 635.54,-411.71 622.62,-401.55"/>
<polygon fill="black" stroke="black" points="624.5,-398.58 614.48,-395.15 620.17,-404.08 624.5,-398.58"/>
</g>
<!-- Measures&#45;&gt;Semantics -->
<g id="edge24" class="edge">
<title>Measures&#45;&gt;Semantics</title>
<path fill="none" stroke="black" d="M353.45,-719.7C353.23,-711.98 352.97,-702.71 352.72,-694.11"/>
<polygon fill="black" stroke="black" points="356.22,-694 352.43,-684.1 349.22,-694.2 356.22,-694"/>
</g>
<!-- Measures&#45;&gt;Setsimp -->
<g id="edge26" class="edge">
<title>Measures&#45;&gt;Setsimp</title>
<path fill="none" stroke="black" d="M381.13,-723.5C403.6,-712.35 435.64,-696.44 460.01,-684.34"/>
<polygon fill="black" stroke="black" points="461.87,-687.33 469.27,-679.75 458.75,-681.06 461.87,-687.33"/>
</g>
<!-- Tableau&#45;&gt;Soundness -->
<g id="edge28" class="edge">
<title>Tableau&#45;&gt;Soundness</title>
<path fill="none" stroke="black" d="M454.39,-295.85C411.23,-283.71 334.75,-262.21 285.22,-248.29"/>
<polygon fill="black" stroke="black" points="285.96,-244.86 275.38,-245.52 284.06,-251.6 285.96,-244.86"/>
</g>
<!-- Substitution&#45;&gt;Unfold -->
<g id="edge34" class="edge">
<title>Substitution&#45;&gt;Unfold</title>
<path fill="none" stroke="black" d="M468.41,-504.05C465.32,-496.06 461.57,-486.33 458.13,-477.4"/>
<polygon fill="black" stroke="black" points="461.29,-475.86 454.42,-467.79 454.75,-478.38 461.29,-475.86"/>
</g>
</g>
</svg>
