<?xml version="1.0" encoding="UTF-8" standalone="no"?>
<!DOCTYPE svg PUBLIC "-//W3C//DTD SVG 1.1//EN"
 "http://www.w3.org/Graphics/SVG/1.1/DTD/svg11.dtd">
<!-- Generated by graphviz version 2.43.0 (0)
 -->
<!-- Title: %3 Pages: 1 -->
<svg width="895pt" height="692pt"
 viewBox="0.00 0.00 895.37 692.00" xmlns="http://www.w3.org/2000/svg" xmlns:xlink="http://www.w3.org/1999/xlink">
<g id="graph0" class="graph" transform="scale(1 1) rotate(0) translate(4 688)">
<title>%3</title>
<polygon fill="white" stroke="transparent" points="-4,4 -4,-688 891.37,-688 891.37,4 -4,4"/>
<!-- Soundness -->
<g id="node1" class="node">
<title>Soundness</title>
<ellipse fill="none" stroke="black" cx="345.05" cy="-234" rx="48.19" ry="18"/>
<text text-anchor="middle" x="345.05" y="-230.3" font-family="Times,serif" font-size="14.00">Soundness</text>
</g>
<!-- Completeness -->
<g id="node2" class="node">
<title>Completeness</title>
<ellipse fill="none" stroke="black" cx="440.05" cy="-162" rx="60.39" ry="18"/>
<text text-anchor="middle" x="440.05" y="-158.3" font-family="Times,serif" font-size="14.00">Completeness</text>
</g>
<!-- Soundness&#45;&gt;Completeness -->
<g id="edge1" class="edge">
<title>Soundness&#45;&gt;Completeness</title>
<path fill="none" stroke="black" d="M366.13,-217.46C379.11,-207.9 395.94,-195.5 410.27,-184.94"/>
<polygon fill="black" stroke="black" points="412.39,-187.73 418.36,-178.98 408.24,-182.09 412.39,-187.73"/>
</g>
<!-- PartInterpolation -->
<g id="node14" class="node">
<title>PartInterpolation</title>
<ellipse fill="none" stroke="black" cx="663.05" cy="-90" rx="70.39" ry="18"/>
<text text-anchor="middle" x="663.05" y="-86.3" font-family="Times,serif" font-size="14.00">PartInterpolation</text>
</g>
<!-- Completeness&#45;&gt;PartInterpolation -->
<g id="edge22" class="edge">
<title>Completeness&#45;&gt;PartInterpolation</title>
<path fill="none" stroke="black" d="M480.17,-148.4C516.66,-136.95 570.75,-119.97 610.64,-107.45"/>
<polygon fill="black" stroke="black" points="611.71,-110.78 620.2,-104.45 609.61,-104.1 611.71,-110.78"/>
</g>
<!-- Modelgraphs -->
<g id="node3" class="node">
<title>Modelgraphs</title>
<ellipse fill="none" stroke="black" cx="440.05" cy="-306" rx="57.69" ry="18"/>
<text text-anchor="middle" x="440.05" y="-302.3" font-family="Times,serif" font-size="14.00">Modelgraphs</text>
</g>
<!-- Modelgraphs&#45;&gt;Completeness -->
<g id="edge2" class="edge">
<title>Modelgraphs&#45;&gt;Completeness</title>
<path fill="none" stroke="black" d="M440.05,-287.87C440.05,-263.67 440.05,-219.21 440.05,-190.39"/>
<polygon fill="black" stroke="black" points="443.55,-190.19 440.05,-180.19 436.55,-190.19 443.55,-190.19"/>
</g>
<!-- Syntax -->
<g id="node4" class="node">
<title>Syntax</title>
<ellipse fill="none" stroke="black" cx="366.05" cy="-666" rx="35.19" ry="18"/>
<text text-anchor="middle" x="366.05" y="-662.3" font-family="Times,serif" font-size="14.00">Syntax</text>
</g>
<!-- DagSyntax -->
<g id="node5" class="node">
<title>DagSyntax</title>
<ellipse fill="none" stroke="black" cx="247.05" cy="-594" rx="50.09" ry="18"/>
<text text-anchor="middle" x="247.05" y="-590.3" font-family="Times,serif" font-size="14.00">DagSyntax</text>
</g>
<!-- Syntax&#45;&gt;DagSyntax -->
<g id="edge3" class="edge">
<title>Syntax&#45;&gt;DagSyntax</title>
<path fill="none" stroke="black" d="M343.94,-652C326.14,-641.53 300.83,-626.64 280.55,-614.71"/>
<polygon fill="black" stroke="black" points="282.3,-611.68 271.91,-609.63 278.76,-617.71 282.3,-611.68"/>
</g>
<!-- Semantics -->
<g id="node6" class="node">
<title>Semantics</title>
<ellipse fill="none" stroke="black" cx="445.05" cy="-522" rx="47.39" ry="18"/>
<text text-anchor="middle" x="445.05" y="-518.3" font-family="Times,serif" font-size="14.00">Semantics</text>
</g>
<!-- Syntax&#45;&gt;Semantics -->
<g id="edge25" class="edge">
<title>Syntax&#45;&gt;Semantics</title>
<path fill="none" stroke="black" d="M385.04,-650.68C396.71,-640.96 411.08,-627.15 420.05,-612 431.32,-592.95 437.7,-568.59 441.19,-550.17"/>
<polygon fill="black" stroke="black" points="444.68,-550.55 442.93,-540.1 437.78,-549.36 444.68,-550.55"/>
</g>
<!-- Vocab -->
<g id="node12" class="node">
<title>Vocab</title>
<ellipse fill="none" stroke="black" cx="768.05" cy="-522" rx="32.49" ry="18"/>
<text text-anchor="middle" x="768.05" y="-518.3" font-family="Times,serif" font-size="14.00">Vocab</text>
</g>
<!-- Syntax&#45;&gt;Vocab -->
<g id="edge38" class="edge">
<title>Syntax&#45;&gt;Vocab</title>
<path fill="none" stroke="black" d="M394.31,-655.01C465.61,-629.83 652.7,-563.74 731.85,-535.79"/>
<polygon fill="black" stroke="black" points="733.13,-539.04 741.4,-532.41 730.8,-532.44 733.13,-539.04"/>
</g>
<!-- Setsimp -->
<g id="node16" class="node">
<title>Setsimp</title>
<ellipse fill="none" stroke="black" cx="136.05" cy="-522" rx="39.79" ry="18"/>
<text text-anchor="middle" x="136.05" y="-518.3" font-family="Times,serif" font-size="14.00">Setsimp</text>
</g>
<!-- Syntax&#45;&gt;Setsimp -->
<g id="edge27" class="edge">
<title>Syntax&#45;&gt;Setsimp</title>
<path fill="none" stroke="black" d="M331.47,-662.25C292.86,-657.6 230.27,-645.16 188.05,-612 167.58,-595.93 153.58,-569.39 145.31,-549.47"/>
<polygon fill="black" stroke="black" points="148.52,-548.05 141.61,-540.02 142,-550.61 148.52,-548.05"/>
</g>
<!-- Measures -->
<g id="node19" class="node">
<title>Measures</title>
<ellipse fill="none" stroke="black" cx="366.05" cy="-594" rx="44.69" ry="18"/>
<text text-anchor="middle" x="366.05" y="-590.3" font-family="Times,serif" font-size="14.00">Measures</text>
</g>
<!-- Syntax&#45;&gt;Measures -->
<g id="edge17" class="edge">
<title>Syntax&#45;&gt;Measures</title>
<path fill="none" stroke="black" d="M366.05,-647.7C366.05,-639.98 366.05,-630.71 366.05,-622.11"/>
<polygon fill="black" stroke="black" points="369.55,-622.1 366.05,-612.1 362.55,-622.1 369.55,-622.1"/>
</g>
<!-- DagTableau -->
<g id="node7" class="node">
<title>DagTableau</title>
<ellipse fill="none" stroke="black" cx="210.05" cy="-450" rx="53.89" ry="18"/>
<text text-anchor="middle" x="210.05" y="-446.3" font-family="Times,serif" font-size="14.00">DagTableau</text>
</g>
<!-- DagSyntax&#45;&gt;DagTableau -->
<g id="edge7" class="edge">
<title>DagSyntax&#45;&gt;DagTableau</title>
<path fill="none" stroke="black" d="M238.01,-576.28C232.87,-566.07 226.74,-552.6 223.05,-540 217.09,-519.68 213.8,-495.91 212.01,-478.05"/>
<polygon fill="black" stroke="black" points="215.5,-477.68 211.11,-468.03 208.52,-478.31 215.5,-477.68"/>
</g>
<!-- Semantics&#45;&gt;Modelgraphs -->
<g id="edge18" class="edge">
<title>Semantics&#45;&gt;Modelgraphs</title>
<path fill="none" stroke="black" d="M444.65,-503.85C443.78,-466.83 441.73,-379.18 440.69,-334.39"/>
<polygon fill="black" stroke="black" points="444.18,-334.15 440.45,-324.23 437.18,-334.31 444.18,-334.15"/>
</g>
<!-- Semantics&#45;&gt;DagTableau -->
<g id="edge4" class="edge">
<title>Semantics&#45;&gt;DagTableau</title>
<path fill="none" stroke="black" d="M409.21,-510.08C402.51,-508.05 395.57,-505.96 389.05,-504 345.06,-490.81 294.94,-475.99 258.94,-465.38"/>
<polygon fill="black" stroke="black" points="259.76,-461.97 249.18,-462.5 257.78,-468.69 259.76,-461.97"/>
</g>
<!-- Discon -->
<g id="node10" class="node">
<title>Discon</title>
<ellipse fill="none" stroke="black" cx="542.05" cy="-450" rx="36" ry="18"/>
<text text-anchor="middle" x="542.05" y="-446.3" font-family="Times,serif" font-size="14.00">Discon</text>
</g>
<!-- Semantics&#45;&gt;Discon -->
<g id="edge8" class="edge">
<title>Semantics&#45;&gt;Discon</title>
<path fill="none" stroke="black" d="M466.09,-505.81C480.2,-495.63 498.92,-482.12 514.25,-471.06"/>
<polygon fill="black" stroke="black" points="516.3,-473.9 522.36,-465.21 512.2,-468.22 516.3,-473.9"/>
</g>
<!-- Examples -->
<g id="node11" class="node">
<title>Examples</title>
<ellipse fill="none" stroke="black" cx="366.05" cy="-450" rx="46.29" ry="18"/>
<text text-anchor="middle" x="366.05" y="-446.3" font-family="Times,serif" font-size="14.00">Examples</text>
</g>
<!-- Semantics&#45;&gt;Examples -->
<g id="edge9" class="edge">
<title>Semantics&#45;&gt;Examples</title>
<path fill="none" stroke="black" d="M427.12,-505.12C416.61,-495.81 403.17,-483.9 391.58,-473.62"/>
<polygon fill="black" stroke="black" points="393.71,-470.83 383.9,-466.82 389.06,-476.07 393.71,-470.83"/>
</g>
<!-- Unfold -->
<g id="node20" class="node">
<title>Unfold</title>
<ellipse fill="none" stroke="black" cx="606.05" cy="-378" rx="36" ry="18"/>
<text text-anchor="middle" x="606.05" y="-374.3" font-family="Times,serif" font-size="14.00">Unfold</text>
</g>
<!-- Semantics&#45;&gt;Unfold -->
<g id="edge33" class="edge">
<title>Semantics&#45;&gt;Unfold</title>
<path fill="none" stroke="black" d="M489.59,-515.72C521.33,-509.59 562.55,-496.39 587.05,-468 601.68,-451.04 605.93,-425.58 606.81,-406.23"/>
<polygon fill="black" stroke="black" points="610.31,-406.26 607,-396.2 603.31,-406.13 610.31,-406.26"/>
</g>
<!-- Paths -->
<g id="node21" class="node">
<title>Paths</title>
<ellipse fill="none" stroke="black" cx="576.05" cy="-306" rx="29.8" ry="18"/>
<text text-anchor="middle" x="576.05" y="-302.3" font-family="Times,serif" font-size="14.00">Paths</text>
</g>
<!-- Semantics&#45;&gt;Paths -->
<g id="edge23" class="edge">
<title>Semantics&#45;&gt;Paths</title>
<path fill="none" stroke="black" d="M454.65,-504.17C464.96,-486.19 481.89,-456.93 497.05,-432 518.42,-396.83 544.01,-356.69 560.15,-331.6"/>
<polygon fill="black" stroke="black" points="563.17,-333.37 565.64,-323.07 557.28,-329.58 563.17,-333.37"/>
</g>
<!-- Substitution -->
<g id="node23" class="node">
<title>Substitution</title>
<ellipse fill="none" stroke="black" cx="687.05" cy="-450" rx="53.09" ry="18"/>
<text text-anchor="middle" x="687.05" y="-446.3" font-family="Times,serif" font-size="14.00">Substitution</text>
</g>
<!-- Semantics&#45;&gt;Substitution -->
<g id="edge30" class="edge">
<title>Semantics&#45;&gt;Substitution</title>
<path fill="none" stroke="black" d="M481.54,-510.44C523.24,-498.38 591.69,-478.58 638.02,-465.18"/>
<polygon fill="black" stroke="black" points="639.21,-468.48 647.84,-462.34 637.27,-461.76 639.21,-468.48"/>
</g>
<!-- LocalTableau -->
<g id="node17" class="node">
<title>LocalTableau</title>
<ellipse fill="none" stroke="black" cx="205.05" cy="-378" rx="59.29" ry="18"/>
<text text-anchor="middle" x="205.05" y="-374.3" font-family="Times,serif" font-size="14.00">LocalTableau</text>
</g>
<!-- DagTableau&#45;&gt;LocalTableau -->
<g id="edge15" class="edge">
<title>DagTableau&#45;&gt;LocalTableau</title>
<path fill="none" stroke="black" d="M208.81,-431.7C208.26,-423.98 207.6,-414.71 206.98,-406.11"/>
<polygon fill="black" stroke="black" points="210.47,-405.83 206.27,-396.1 203.49,-406.33 210.47,-405.83"/>
</g>
<!-- Star -->
<g id="node8" class="node">
<title>Star</title>
<ellipse fill="none" stroke="black" cx="353.05" cy="-522" rx="27" ry="18"/>
<text text-anchor="middle" x="353.05" y="-518.3" font-family="Times,serif" font-size="14.00">Star</text>
</g>
<!-- Star&#45;&gt;Modelgraphs -->
<g id="edge19" class="edge">
<title>Star&#45;&gt;Modelgraphs</title>
<path fill="none" stroke="black" d="M337.47,-506.92C327.82,-497.09 316.3,-483.08 311.05,-468 305.78,-452.89 304.81,-446.73 311.05,-432 330.28,-386.59 374.97,-349.58 406.33,-327.93"/>
<polygon fill="black" stroke="black" points="408.45,-330.72 414.79,-322.23 404.54,-324.91 408.45,-330.72"/>
</g>
<!-- Star&#45;&gt;DagTableau -->
<g id="edge5" class="edge">
<title>Star&#45;&gt;DagTableau</title>
<path fill="none" stroke="black" d="M331.95,-510.67C309.98,-499.92 275.12,-482.85 248.29,-469.72"/>
<polygon fill="black" stroke="black" points="249.69,-466.51 239.17,-465.26 246.61,-472.8 249.69,-466.51"/>
</g>
<!-- Star&#45;&gt;Examples -->
<g id="edge10" class="edge">
<title>Star&#45;&gt;Examples</title>
<path fill="none" stroke="black" d="M356.19,-504.05C357.62,-496.35 359.36,-487.03 360.96,-478.36"/>
<polygon fill="black" stroke="black" points="364.45,-478.75 362.84,-468.28 357.57,-477.47 364.45,-478.75"/>
</g>
<!-- Closure -->
<g id="node9" class="node">
<title>Closure</title>
<ellipse fill="none" stroke="black" cx="270.05" cy="-522" rx="38.19" ry="18"/>
<text text-anchor="middle" x="270.05" y="-518.3" font-family="Times,serif" font-size="14.00">Closure</text>
</g>
<!-- Closure&#45;&gt;DagTableau -->
<g id="edge6" class="edge">
<title>Closure&#45;&gt;DagTableau</title>
<path fill="none" stroke="black" d="M256.43,-505.12C248.98,-496.42 239.57,-485.45 231.19,-475.66"/>
<polygon fill="black" stroke="black" points="233.61,-473.11 224.44,-467.8 228.29,-477.67 233.61,-473.11"/>
</g>
<!-- Discon&#45;&gt;LocalTableau -->
<g id="edge14" class="edge">
<title>Discon&#45;&gt;LocalTableau</title>
<path fill="none" stroke="black" d="M509.73,-442.29C452.81,-430.46 333.97,-405.78 262.69,-390.97"/>
<polygon fill="black" stroke="black" points="263.04,-387.47 252.53,-388.86 261.61,-394.32 263.04,-387.47"/>
</g>
<!-- Discon&#45;&gt;Unfold -->
<g id="edge35" class="edge">
<title>Discon&#45;&gt;Unfold</title>
<path fill="none" stroke="black" d="M556.25,-433.46C564.58,-424.35 575.28,-412.65 584.62,-402.43"/>
<polygon fill="black" stroke="black" points="587.27,-404.72 591.44,-394.98 582.11,-400 587.27,-404.72"/>
</g>
<!-- Fresh -->
<g id="node13" class="node">
<title>Fresh</title>
<ellipse fill="none" stroke="black" cx="827.05" cy="-450" rx="30.59" ry="18"/>
<text text-anchor="middle" x="827.05" y="-446.3" font-family="Times,serif" font-size="14.00">Fresh</text>
</g>
<!-- Vocab&#45;&gt;Fresh -->
<g id="edge11" class="edge">
<title>Vocab&#45;&gt;Fresh</title>
<path fill="none" stroke="black" d="M781.14,-505.46C788.85,-496.31 798.76,-484.55 807.4,-474.31"/>
<polygon fill="black" stroke="black" points="810.22,-476.39 813.99,-466.49 804.87,-471.88 810.22,-476.39"/>
</g>
<!-- Vocab&#45;&gt;PartInterpolation -->
<g id="edge21" class="edge">
<title>Vocab&#45;&gt;PartInterpolation</title>
<path fill="none" stroke="black" d="M796.78,-512.97C819.32,-505.17 849.7,-491.06 867.05,-468 891.36,-435.67 886.05,-419.45 886.05,-379 886.05,-379 886.05,-379 886.05,-233 886.05,-157.58 794.17,-120.48 728.37,-103.57"/>
<polygon fill="black" stroke="black" points="729,-100.13 718.46,-101.13 727.33,-106.92 729,-100.13"/>
</g>
<!-- Vocab&#45;&gt;Unfold -->
<g id="edge34" class="edge">
<title>Vocab&#45;&gt;Unfold</title>
<path fill="none" stroke="black" d="M769.01,-503.8C769.17,-484.13 766.41,-452.08 749.05,-432 724.35,-403.45 682.81,-390.26 650.85,-384.18"/>
<polygon fill="black" stroke="black" points="651.29,-380.7 640.84,-382.44 650.09,-387.6 651.29,-380.7"/>
</g>
<!-- Vocab&#45;&gt;Substitution -->
<g id="edge31" class="edge">
<title>Vocab&#45;&gt;Substitution</title>
<path fill="none" stroke="black" d="M751.26,-506.5C740.32,-497.04 725.8,-484.49 713.34,-473.72"/>
<polygon fill="black" stroke="black" points="715.36,-470.84 705.5,-466.95 710.78,-476.14 715.36,-470.84"/>
</g>
<!-- Fresh&#45;&gt;Unfold -->
<g id="edge37" class="edge">
<title>Fresh&#45;&gt;Unfold</title>
<path fill="none" stroke="black" d="M802.4,-439.34C795.82,-436.86 788.69,-434.25 782.05,-432 735.97,-416.38 682.36,-400.57 646.52,-390.33"/>
<polygon fill="black" stroke="black" points="647.03,-386.84 636.46,-387.47 645.12,-393.57 647.03,-386.84"/>
</g>
<!-- Interpolation -->
<g id="node15" class="node">
<title>Interpolation</title>
<ellipse fill="none" stroke="black" cx="663.05" cy="-18" rx="55.79" ry="18"/>
<text text-anchor="middle" x="663.05" y="-14.3" font-family="Times,serif" font-size="14.00">Interpolation</text>
</g>
<!-- PartInterpolation&#45;&gt;Interpolation -->
<g id="edge12" class="edge">
<title>PartInterpolation&#45;&gt;Interpolation</title>
<path fill="none" stroke="black" d="M663.05,-71.7C663.05,-63.98 663.05,-54.71 663.05,-46.11"/>
<polygon fill="black" stroke="black" points="666.55,-46.1 663.05,-36.1 659.55,-46.1 666.55,-46.1"/>
</g>
<!-- Setsimp&#45;&gt;LocalTableau -->
<g id="edge13" class="edge">
<title>Setsimp&#45;&gt;LocalTableau</title>
<path fill="none" stroke="black" d="M98.11,-516.73C67.81,-511.09 27.2,-498.07 7.05,-468 -1.86,-454.71 -2.7,-444.69 7.05,-432 23.5,-410.56 90.12,-395.91 141.59,-387.53"/>
<polygon fill="black" stroke="black" points="142.33,-390.96 151.66,-385.94 141.24,-384.04 142.33,-390.96"/>
</g>
<!-- Tableau -->
<g id="node22" class="node">
<title>Tableau</title>
<ellipse fill="none" stroke="black" cx="265.05" cy="-306" rx="38.99" ry="18"/>
<text text-anchor="middle" x="265.05" y="-302.3" font-family="Times,serif" font-size="14.00">Tableau</text>
</g>
<!-- LocalTableau&#45;&gt;Tableau -->
<g id="edge32" class="edge">
<title>LocalTableau&#45;&gt;Tableau</title>
<path fill="none" stroke="black" d="M219.27,-360.41C226.85,-351.57 236.31,-340.53 244.65,-330.79"/>
<polygon fill="black" stroke="black" points="247.49,-332.86 251.34,-322.99 242.18,-328.3 247.49,-332.86"/>
</g>
<!-- MultisetOrder -->
<g id="node18" class="node">
<title>MultisetOrder</title>
<ellipse fill="none" stroke="black" cx="77.05" cy="-450" rx="61.19" ry="18"/>
<text text-anchor="middle" x="77.05" y="-446.3" font-family="Times,serif" font-size="14.00">MultisetOrder</text>
</g>
<!-- MultisetOrder&#45;&gt;LocalTableau -->
<g id="edge16" class="edge">
<title>MultisetOrder&#45;&gt;LocalTableau</title>
<path fill="none" stroke="black" d="M104.82,-433.81C123.44,-423.63 148.16,-410.11 168.39,-399.05"/>
<polygon fill="black" stroke="black" points="170.23,-402.03 177.33,-394.16 166.87,-395.89 170.23,-402.03"/>
</g>
<!-- Measures&#45;&gt;Semantics -->
<g id="edge26" class="edge">
<title>Measures&#45;&gt;Semantics</title>
<path fill="none" stroke="black" d="M383.97,-577.12C394.48,-567.81 407.92,-555.9 419.52,-545.62"/>
<polygon fill="black" stroke="black" points="422.03,-548.07 427.19,-538.82 417.38,-542.83 422.03,-548.07"/>
</g>
<!-- Measures&#45;&gt;Setsimp -->
<g id="edge28" class="edge">
<title>Measures&#45;&gt;Setsimp</title>
<path fill="none" stroke="black" d="M331.11,-582.37C289.96,-569.84 221.64,-549.05 177.75,-535.69"/>
<polygon fill="black" stroke="black" points="178.55,-532.28 167.96,-532.71 176.51,-538.97 178.55,-532.28"/>
</g>
<!-- Unfold&#45;&gt;Modelgraphs -->
<g id="edge20" class="edge">
<title>Unfold&#45;&gt;Modelgraphs</title>
<path fill="none" stroke="black" d="M579.38,-365.75C553.24,-354.73 513,-337.77 482.48,-324.89"/>
<polygon fill="black" stroke="black" points="483.51,-321.53 472.94,-320.87 480.79,-327.98 483.51,-321.53"/>
</g>
<!-- Unfold&#45;&gt;Paths -->
<g id="edge24" class="edge">
<title>Unfold&#45;&gt;Paths</title>
<path fill="none" stroke="black" d="M598.78,-360.05C595.32,-351.97 591.1,-342.12 587.24,-333.11"/>
<polygon fill="black" stroke="black" points="590.4,-331.6 583.24,-323.79 583.96,-334.36 590.4,-331.6"/>
</g>
<!-- Tableau&#45;&gt;Soundness -->
<g id="edge29" class="edge">
<title>Tableau&#45;&gt;Soundness</title>
<path fill="none" stroke="black" d="M282.4,-289.81C293.19,-280.38 307.24,-268.08 319.3,-257.53"/>
<polygon fill="black" stroke="black" points="321.67,-260.11 326.89,-250.89 317.06,-254.84 321.67,-260.11"/>
</g>
<!-- Substitution&#45;&gt;Unfold -->
<g id="edge36" class="edge">
<title>Substitution&#45;&gt;Unfold</title>
<path fill="none" stroke="black" d="M668.26,-432.76C657.25,-423.25 643.19,-411.1 631.23,-400.77"/>
<polygon fill="black" stroke="black" points="633.2,-397.84 623.35,-393.95 628.63,-403.14 633.2,-397.84"/>
</g>
</g>
</svg>
