<?xml version="1.0" encoding="UTF-8" standalone="no"?>
<!DOCTYPE svg PUBLIC "-//W3C//DTD SVG 1.1//EN"
 "http://www.w3.org/Graphics/SVG/1.1/DTD/svg11.dtd">
<!-- Generated by graphviz version 2.43.0 (0)
 -->
<!-- Title: %3 Pages: 1 -->
<svg width="515pt" height="980pt"
 viewBox="0.00 0.00 514.79 980.00" xmlns="http://www.w3.org/2000/svg" xmlns:xlink="http://www.w3.org/1999/xlink">
<g id="graph0" class="graph" transform="scale(1 1) rotate(0) translate(4 976)">
<title>%3</title>
<polygon fill="white" stroke="transparent" points="-4,4 -4,-976 510.79,-976 510.79,4 -4,4"/>
<!-- Interpolation -->
<g id="node1" class="node">
<title>Interpolation</title>
<ellipse fill="none" stroke="black" cx="85.6" cy="-90" rx="55.79" ry="18"/>
<text text-anchor="middle" x="85.6" y="-86.3" font-family="Times,serif" font-size="14.00">Interpolation</text>
</g>
<!-- Beth -->
<g id="node2" class="node">
<title>Beth</title>
<ellipse fill="none" stroke="black" cx="85.6" cy="-18" rx="27.1" ry="18"/>
<text text-anchor="middle" x="85.6" y="-14.3" font-family="Times,serif" font-size="14.00">Beth</text>
</g>
<!-- Interpolation&#45;&gt;Beth -->
<g id="edge1" class="edge">
<title>Interpolation&#45;&gt;Beth</title>
<path fill="none" stroke="black" d="M85.6,-71.7C85.6,-63.98 85.6,-54.71 85.6,-46.11"/>
<polygon fill="black" stroke="black" points="89.1,-46.1 85.6,-36.1 82.1,-46.1 89.1,-46.1"/>
</g>
<!-- Soundness -->
<g id="node3" class="node">
<title>Soundness</title>
<ellipse fill="none" stroke="black" cx="317.6" cy="-306" rx="48.19" ry="18"/>
<text text-anchor="middle" x="317.6" y="-302.3" font-family="Times,serif" font-size="14.00">Soundness</text>
</g>
<!-- Completeness -->
<g id="node4" class="node">
<title>Completeness</title>
<ellipse fill="none" stroke="black" cx="129.6" cy="-234" rx="60.39" ry="18"/>
<text text-anchor="middle" x="129.6" y="-230.3" font-family="Times,serif" font-size="14.00">Completeness</text>
</g>
<!-- Soundness&#45;&gt;Completeness -->
<g id="edge2" class="edge">
<title>Soundness&#45;&gt;Completeness</title>
<path fill="none" stroke="black" d="M284.85,-292.81C254.59,-281.54 209.34,-264.69 175.48,-252.09"/>
<polygon fill="black" stroke="black" points="176.41,-248.7 165.82,-248.49 173.97,-255.26 176.41,-248.7"/>
</g>
<!-- PartInterpolation -->
<g id="node14" class="node">
<title>PartInterpolation</title>
<ellipse fill="none" stroke="black" cx="85.6" cy="-162" rx="70.39" ry="18"/>
<text text-anchor="middle" x="85.6" y="-158.3" font-family="Times,serif" font-size="14.00">PartInterpolation</text>
</g>
<!-- Completeness&#45;&gt;PartInterpolation -->
<g id="edge16" class="edge">
<title>Completeness&#45;&gt;PartInterpolation</title>
<path fill="none" stroke="black" d="M118.95,-216.05C113.83,-207.92 107.6,-198 101.9,-188.94"/>
<polygon fill="black" stroke="black" points="104.74,-186.88 96.46,-180.28 98.81,-190.6 104.74,-186.88"/>
</g>
<!-- TableauGame -->
<g id="node5" class="node">
<title>TableauGame</title>
<ellipse fill="none" stroke="black" cx="129.6" cy="-378" rx="60.39" ry="18"/>
<text text-anchor="middle" x="129.6" y="-374.3" font-family="Times,serif" font-size="14.00">TableauGame</text>
</g>
<!-- TableauGame&#45;&gt;Completeness -->
<g id="edge3" class="edge">
<title>TableauGame&#45;&gt;Completeness</title>
<path fill="none" stroke="black" d="M129.6,-359.87C129.6,-335.67 129.6,-291.21 129.6,-262.39"/>
<polygon fill="black" stroke="black" points="133.1,-262.19 129.6,-252.19 126.1,-262.19 133.1,-262.19"/>
</g>
<!-- Semantics -->
<g id="node6" class="node">
<title>Semantics</title>
<ellipse fill="none" stroke="black" cx="389.6" cy="-810" rx="47.39" ry="18"/>
<text text-anchor="middle" x="389.6" y="-806.3" font-family="Times,serif" font-size="14.00">Semantics</text>
</g>
<!-- Discon -->
<g id="node7" class="node">
<title>Discon</title>
<ellipse fill="none" stroke="black" cx="238.6" cy="-738" rx="36" ry="18"/>
<text text-anchor="middle" x="238.6" y="-734.3" font-family="Times,serif" font-size="14.00">Discon</text>
</g>
<!-- Semantics&#45;&gt;Discon -->
<g id="edge4" class="edge">
<title>Semantics&#45;&gt;Discon</title>
<path fill="none" stroke="black" d="M360.84,-795.67C335.99,-784.15 300.02,-767.47 273.52,-755.19"/>
<polygon fill="black" stroke="black" points="274.77,-751.91 264.23,-750.88 271.83,-758.26 274.77,-751.91"/>
</g>
<!-- Examples -->
<g id="node11" class="node">
<title>Examples</title>
<ellipse fill="none" stroke="black" cx="383.6" cy="-594" rx="46.29" ry="18"/>
<text text-anchor="middle" x="383.6" y="-590.3" font-family="Times,serif" font-size="14.00">Examples</text>
</g>
<!-- Semantics&#45;&gt;Examples -->
<g id="edge7" class="edge">
<title>Semantics&#45;&gt;Examples</title>
<path fill="none" stroke="black" d="M389.12,-791.85C388.08,-754.83 385.62,-667.18 384.36,-622.39"/>
<polygon fill="black" stroke="black" points="387.86,-622.13 384.08,-612.23 380.86,-622.33 387.86,-622.13"/>
</g>
<!-- SemQuot -->
<g id="node20" class="node">
<title>SemQuot</title>
<ellipse fill="none" stroke="black" cx="462.6" cy="-738" rx="44.39" ry="18"/>
<text text-anchor="middle" x="462.6" y="-734.3" font-family="Times,serif" font-size="14.00">SemQuot</text>
</g>
<!-- Semantics&#45;&gt;SemQuot -->
<g id="edge18" class="edge">
<title>Semantics&#45;&gt;SemQuot</title>
<path fill="none" stroke="black" d="M406.16,-793.12C415.77,-783.9 428.05,-772.13 438.69,-761.92"/>
<polygon fill="black" stroke="black" points="441.3,-764.27 446.1,-754.82 436.46,-759.22 441.3,-764.27"/>
</g>
<!-- Substitution -->
<g id="node22" class="node">
<title>Substitution</title>
<ellipse fill="none" stroke="black" cx="237.6" cy="-666" rx="53.09" ry="18"/>
<text text-anchor="middle" x="237.6" y="-662.3" font-family="Times,serif" font-size="14.00">Substitution</text>
</g>
<!-- Discon&#45;&gt;Substitution -->
<g id="edge22" class="edge">
<title>Discon&#45;&gt;Substitution</title>
<path fill="none" stroke="black" d="M238.35,-719.7C238.24,-711.98 238.11,-702.71 237.98,-694.11"/>
<polygon fill="black" stroke="black" points="241.48,-694.05 237.84,-684.1 234.48,-694.15 241.48,-694.05"/>
</g>
<!-- Vocab -->
<g id="node8" class="node">
<title>Vocab</title>
<ellipse fill="none" stroke="black" cx="238.6" cy="-810" rx="32.49" ry="18"/>
<text text-anchor="middle" x="238.6" y="-806.3" font-family="Times,serif" font-size="14.00">Vocab</text>
</g>
<!-- Vocab&#45;&gt;Discon -->
<g id="edge5" class="edge">
<title>Vocab&#45;&gt;Discon</title>
<path fill="none" stroke="black" d="M238.6,-791.7C238.6,-783.98 238.6,-774.71 238.6,-766.11"/>
<polygon fill="black" stroke="black" points="242.1,-766.1 238.6,-756.1 235.1,-766.1 242.1,-766.1"/>
</g>
<!-- Fresh -->
<g id="node13" class="node">
<title>Fresh</title>
<ellipse fill="none" stroke="black" cx="135.6" cy="-666" rx="30.59" ry="18"/>
<text text-anchor="middle" x="135.6" y="-662.3" font-family="Times,serif" font-size="14.00">Fresh</text>
</g>
<!-- Vocab&#45;&gt;Fresh -->
<g id="edge9" class="edge">
<title>Vocab&#45;&gt;Fresh</title>
<path fill="none" stroke="black" d="M224.67,-793.66C215.5,-783.3 203.41,-769.16 193.6,-756 178.01,-735.1 161.95,-710.14 150.7,-691.99"/>
<polygon fill="black" stroke="black" points="153.49,-689.85 145.28,-683.17 147.53,-693.52 153.49,-689.85"/>
</g>
<!-- UnfoldDia -->
<g id="node9" class="node">
<title>UnfoldDia</title>
<ellipse fill="none" stroke="black" cx="147.6" cy="-594" rx="48.19" ry="18"/>
<text text-anchor="middle" x="147.6" y="-590.3" font-family="Times,serif" font-size="14.00">UnfoldDia</text>
</g>
<!-- Distance -->
<g id="node10" class="node">
<title>Distance</title>
<ellipse fill="none" stroke="black" cx="41.6" cy="-306" rx="41.69" ry="18"/>
<text text-anchor="middle" x="41.6" y="-302.3" font-family="Times,serif" font-size="14.00">Distance</text>
</g>
<!-- UnfoldDia&#45;&gt;Distance -->
<g id="edge6" class="edge">
<title>UnfoldDia&#45;&gt;Distance</title>
<path fill="none" stroke="black" d="M122.3,-578.58C108.11,-569.27 91.18,-555.94 80.6,-540 38.06,-475.95 36.91,-380.76 39.34,-334.38"/>
<polygon fill="black" stroke="black" points="42.84,-334.41 39.97,-324.21 35.86,-333.97 42.84,-334.41"/>
</g>
<!-- LocalTableau -->
<g id="node16" class="node">
<title>LocalTableau</title>
<ellipse fill="none" stroke="black" cx="282.6" cy="-522" rx="59.29" ry="18"/>
<text text-anchor="middle" x="282.6" y="-518.3" font-family="Times,serif" font-size="14.00">LocalTableau</text>
</g>
<!-- UnfoldDia&#45;&gt;LocalTableau -->
<g id="edge12" class="edge">
<title>UnfoldDia&#45;&gt;LocalTableau</title>
<path fill="none" stroke="black" d="M174.59,-579C194.74,-568.55 222.54,-554.14 244.89,-542.55"/>
<polygon fill="black" stroke="black" points="246.52,-545.65 253.78,-537.94 243.29,-539.44 246.52,-545.65"/>
</g>
<!-- Modelgraphs -->
<g id="node19" class="node">
<title>Modelgraphs</title>
<ellipse fill="none" stroke="black" cx="147.6" cy="-522" rx="57.69" ry="18"/>
<text text-anchor="middle" x="147.6" y="-518.3" font-family="Times,serif" font-size="14.00">Modelgraphs</text>
</g>
<!-- UnfoldDia&#45;&gt;Modelgraphs -->
<g id="edge15" class="edge">
<title>UnfoldDia&#45;&gt;Modelgraphs</title>
<path fill="none" stroke="black" d="M147.6,-575.7C147.6,-567.98 147.6,-558.71 147.6,-550.11"/>
<polygon fill="black" stroke="black" points="151.1,-550.1 147.6,-540.1 144.1,-550.1 151.1,-550.1"/>
</g>
<!-- Distance&#45;&gt;PartInterpolation -->
<g id="edge17" class="edge">
<title>Distance&#45;&gt;PartInterpolation</title>
<path fill="none" stroke="black" d="M44.04,-287.96C46.91,-269.81 52.36,-240.4 60.6,-216 63.59,-207.13 67.66,-197.79 71.65,-189.47"/>
<polygon fill="black" stroke="black" points="74.91,-190.76 76.22,-180.25 68.64,-187.65 74.91,-190.76"/>
</g>
<!-- Star -->
<g id="node12" class="node">
<title>Star</title>
<ellipse fill="none" stroke="black" cx="335.6" cy="-666" rx="27" ry="18"/>
<text text-anchor="middle" x="335.6" y="-662.3" font-family="Times,serif" font-size="14.00">Star</text>
</g>
<!-- Star&#45;&gt;UnfoldDia -->
<g id="edge35" class="edge">
<title>Star&#45;&gt;UnfoldDia</title>
<path fill="none" stroke="black" d="M314.44,-654.56C309.61,-652.3 304.46,-649.99 299.6,-648 264.24,-633.53 223.3,-619.4 192.82,-609.38"/>
<polygon fill="black" stroke="black" points="193.91,-606.05 183.31,-606.27 191.73,-612.7 193.91,-606.05"/>
</g>
<!-- Star&#45;&gt;Examples -->
<g id="edge8" class="edge">
<title>Star&#45;&gt;Examples</title>
<path fill="none" stroke="black" d="M346.49,-649.12C352.33,-640.59 359.67,-629.89 366.28,-620.25"/>
<polygon fill="black" stroke="black" points="369.31,-622.02 372.08,-611.8 363.54,-618.07 369.31,-622.02"/>
</g>
<!-- UnfoldBox -->
<g id="node15" class="node">
<title>UnfoldBox</title>
<ellipse fill="none" stroke="black" cx="263.6" cy="-594" rx="50.09" ry="18"/>
<text text-anchor="middle" x="263.6" y="-590.3" font-family="Times,serif" font-size="14.00">UnfoldBox</text>
</g>
<!-- Star&#45;&gt;UnfoldBox -->
<g id="edge32" class="edge">
<title>Star&#45;&gt;UnfoldBox</title>
<path fill="none" stroke="black" d="M321.03,-650.83C311.41,-641.49 298.59,-629.02 287.5,-618.24"/>
<polygon fill="black" stroke="black" points="289.77,-615.56 280.16,-611.1 284.89,-620.58 289.77,-615.56"/>
</g>
<!-- Fresh&#45;&gt;UnfoldDia -->
<g id="edge34" class="edge">
<title>Fresh&#45;&gt;UnfoldDia</title>
<path fill="none" stroke="black" d="M138.5,-648.05C139.82,-640.35 141.42,-631.03 142.91,-622.36"/>
<polygon fill="black" stroke="black" points="146.39,-622.72 144.63,-612.28 139.5,-621.54 146.39,-622.72"/>
</g>
<!-- Fresh&#45;&gt;UnfoldBox -->
<g id="edge31" class="edge">
<title>Fresh&#45;&gt;UnfoldBox</title>
<path fill="none" stroke="black" d="M157.31,-653.13C176.74,-642.5 205.59,-626.72 228.33,-614.28"/>
<polygon fill="black" stroke="black" points="230.25,-617.23 237.34,-609.36 226.89,-611.08 230.25,-617.23"/>
</g>
<!-- PartInterpolation&#45;&gt;Interpolation -->
<g id="edge10" class="edge">
<title>PartInterpolation&#45;&gt;Interpolation</title>
<path fill="none" stroke="black" d="M85.6,-143.7C85.6,-135.98 85.6,-126.71 85.6,-118.11"/>
<polygon fill="black" stroke="black" points="89.1,-118.1 85.6,-108.1 82.1,-118.1 89.1,-118.1"/>
</g>
<!-- UnfoldBox&#45;&gt;LocalTableau -->
<g id="edge11" class="edge">
<title>UnfoldBox&#45;&gt;LocalTableau</title>
<path fill="none" stroke="black" d="M268.2,-576.05C270.31,-568.26 272.87,-558.82 275.25,-550.08"/>
<polygon fill="black" stroke="black" points="278.67,-550.84 277.91,-540.28 271.91,-549.01 278.67,-550.84"/>
</g>
<!-- UnfoldBox&#45;&gt;Modelgraphs -->
<g id="edge14" class="edge">
<title>UnfoldBox&#45;&gt;Modelgraphs</title>
<path fill="none" stroke="black" d="M239,-578.15C222.31,-568.08 200.02,-554.64 181.63,-543.54"/>
<polygon fill="black" stroke="black" points="183.33,-540.48 172.96,-538.31 179.72,-546.47 183.33,-540.48"/>
</g>
<!-- Tableau -->
<g id="node23" class="node">
<title>Tableau</title>
<ellipse fill="none" stroke="black" cx="282.6" cy="-450" rx="38.99" ry="18"/>
<text text-anchor="middle" x="282.6" y="-446.3" font-family="Times,serif" font-size="14.00">Tableau</text>
</g>
<!-- LocalTableau&#45;&gt;Tableau -->
<g id="edge23" class="edge">
<title>LocalTableau&#45;&gt;Tableau</title>
<path fill="none" stroke="black" d="M282.6,-503.7C282.6,-495.98 282.6,-486.71 282.6,-478.11"/>
<polygon fill="black" stroke="black" points="286.1,-478.1 282.6,-468.1 279.1,-478.1 286.1,-478.1"/>
</g>
<!-- Syntax -->
<g id="node17" class="node">
<title>Syntax</title>
<ellipse fill="none" stroke="black" cx="316.6" cy="-954" rx="35.19" ry="18"/>
<text text-anchor="middle" x="316.6" y="-950.3" font-family="Times,serif" font-size="14.00">Syntax</text>
</g>
<!-- Syntax&#45;&gt;Semantics -->
<g id="edge19" class="edge">
<title>Syntax&#45;&gt;Semantics</title>
<path fill="none" stroke="black" d="M335.92,-938.87C347.72,-929.22 362.12,-915.43 370.6,-900 381.09,-880.9 385.79,-856.55 387.9,-838.14"/>
<polygon fill="black" stroke="black" points="391.39,-838.37 388.86,-828.08 384.42,-837.7 391.39,-838.37"/>
</g>
<!-- Syntax&#45;&gt;Vocab -->
<g id="edge36" class="edge">
<title>Syntax&#45;&gt;Vocab</title>
<path fill="none" stroke="black" d="M297.55,-938.72C285.86,-929 271.48,-915.2 262.6,-900 251.46,-880.94 245.35,-856.59 242.09,-838.17"/>
<polygon fill="black" stroke="black" points="245.52,-837.42 240.49,-828.1 238.61,-838.53 245.52,-837.42"/>
</g>
<!-- Measures -->
<g id="node18" class="node">
<title>Measures</title>
<ellipse fill="none" stroke="black" cx="316.6" cy="-882" rx="44.69" ry="18"/>
<text text-anchor="middle" x="316.6" y="-878.3" font-family="Times,serif" font-size="14.00">Measures</text>
</g>
<!-- Syntax&#45;&gt;Measures -->
<g id="edge13" class="edge">
<title>Syntax&#45;&gt;Measures</title>
<path fill="none" stroke="black" d="M316.6,-935.7C316.6,-927.98 316.6,-918.71 316.6,-910.11"/>
<polygon fill="black" stroke="black" points="320.1,-910.1 316.6,-900.1 313.1,-910.1 320.1,-910.1"/>
</g>
<!-- Measures&#45;&gt;Semantics -->
<g id="edge20" class="edge">
<title>Measures&#45;&gt;Semantics</title>
<path fill="none" stroke="black" d="M333.16,-865.12C342.71,-855.96 354.88,-844.29 365.47,-834.13"/>
<polygon fill="black" stroke="black" points="368.05,-836.51 372.84,-827.06 363.2,-831.46 368.05,-836.51"/>
</g>
<!-- Modelgraphs&#45;&gt;TableauGame -->
<g id="edge27" class="edge">
<title>Modelgraphs&#45;&gt;TableauGame</title>
<path fill="none" stroke="black" d="M147.57,-503.84C147.32,-485.85 146.3,-456.8 142.6,-432 141.32,-423.44 139.29,-414.23 137.22,-405.93"/>
<polygon fill="black" stroke="black" points="140.54,-404.81 134.62,-396.03 133.77,-406.59 140.54,-404.81"/>
</g>
<!-- TableauPath -->
<g id="node21" class="node">
<title>TableauPath</title>
<ellipse fill="none" stroke="black" cx="429.6" cy="-378" rx="54.69" ry="18"/>
<text text-anchor="middle" x="429.6" y="-374.3" font-family="Times,serif" font-size="14.00">TableauPath</text>
</g>
<!-- TableauPath&#45;&gt;Soundness -->
<g id="edge21" class="edge">
<title>TableauPath&#45;&gt;Soundness</title>
<path fill="none" stroke="black" d="M405.29,-361.81C389.19,-351.74 367.86,-338.42 350.28,-327.42"/>
<polygon fill="black" stroke="black" points="351.8,-324.25 341.47,-321.92 348.09,-330.19 351.8,-324.25"/>
</g>
<!-- Substitution&#45;&gt;UnfoldDia -->
<g id="edge33" class="edge">
<title>Substitution&#45;&gt;UnfoldDia</title>
<path fill="none" stroke="black" d="M217.17,-649.12C204.89,-639.56 189.08,-627.27 175.64,-616.81"/>
<polygon fill="black" stroke="black" points="177.67,-613.96 167.63,-610.58 173.37,-619.48 177.67,-613.96"/>
</g>
<!-- Substitution&#45;&gt;UnfoldBox -->
<g id="edge30" class="edge">
<title>Substitution&#45;&gt;UnfoldBox</title>
<path fill="none" stroke="black" d="M243.89,-648.05C246.82,-640.18 250.37,-630.62 253.64,-621.79"/>
<polygon fill="black" stroke="black" points="256.98,-622.87 257.18,-612.28 250.42,-620.43 256.98,-622.87"/>
</g>
<!-- Tableau&#45;&gt;TableauGame -->
<g id="edge26" class="edge">
<title>Tableau&#45;&gt;TableauGame</title>
<path fill="none" stroke="black" d="M255.95,-436.81C232.36,-426.01 197.57,-410.1 170.46,-397.7"/>
<polygon fill="black" stroke="black" points="171.78,-394.45 161.23,-393.47 168.87,-400.82 171.78,-394.45"/>
</g>
<!-- Tableau&#45;&gt;TableauPath -->
<g id="edge28" class="edge">
<title>Tableau&#45;&gt;TableauPath</title>
<path fill="none" stroke="black" d="M308.88,-436.49C331.6,-425.66 364.78,-409.87 390.6,-397.57"/>
<polygon fill="black" stroke="black" points="392.22,-400.67 399.75,-393.21 389.21,-394.35 392.22,-400.67"/>
</g>
<!-- TableauExamples -->
<g id="node24" class="node">
<title>TableauExamples</title>
<ellipse fill="none" stroke="black" cx="282.6" cy="-378" rx="74.19" ry="18"/>
<text text-anchor="middle" x="282.6" y="-374.3" font-family="Times,serif" font-size="14.00">TableauExamples</text>
</g>
<!-- Tableau&#45;&gt;TableauExamples -->
<g id="edge24" class="edge">
<title>Tableau&#45;&gt;TableauExamples</title>
<path fill="none" stroke="black" d="M282.6,-431.7C282.6,-423.98 282.6,-414.71 282.6,-406.11"/>
<polygon fill="black" stroke="black" points="286.1,-406.1 282.6,-396.1 279.1,-406.1 286.1,-406.1"/>
</g>
<!-- Game -->
<g id="node25" class="node">
<title>Game</title>
<ellipse fill="none" stroke="black" cx="101.6" cy="-450" rx="32.49" ry="18"/>
<text text-anchor="middle" x="101.6" y="-446.3" font-family="Times,serif" font-size="14.00">Game</text>
</g>
<!-- Game&#45;&gt;TableauGame -->
<g id="edge25" class="edge">
<title>Game&#45;&gt;TableauGame</title>
<path fill="none" stroke="black" d="M108.37,-432.05C111.53,-424.18 115.35,-414.62 118.88,-405.79"/>
<polygon fill="black" stroke="black" points="122.22,-406.86 122.69,-396.28 115.72,-404.26 122.22,-406.86"/>
</g>
<!-- Vector -->
<g id="node26" class="node">
<title>Vector</title>
<ellipse fill="none" stroke="black" cx="429.6" cy="-450" rx="33.6" ry="18"/>
<text text-anchor="middle" x="429.6" y="-446.3" font-family="Times,serif" font-size="14.00">Vector</text>
</g>
<!-- Vector&#45;&gt;TableauPath -->
<g id="edge29" class="edge">
<title>Vector&#45;&gt;TableauPath</title>
<path fill="none" stroke="black" d="M429.6,-431.7C429.6,-423.98 429.6,-414.71 429.6,-406.11"/>
<polygon fill="black" stroke="black" points="433.1,-406.1 429.6,-396.1 426.1,-406.1 433.1,-406.1"/>
</g>
</g>
</svg>
