<?xml version="1.0" encoding="UTF-8" standalone="no"?>
<!DOCTYPE svg PUBLIC "-//W3C//DTD SVG 1.1//EN"
 "http://www.w3.org/Graphics/SVG/1.1/DTD/svg11.dtd">
<!-- Generated by graphviz version 2.43.0 (0)
 -->
<!-- Title: %3 Pages: 1 -->
<svg width="406pt" height="836pt"
 viewBox="0.00 0.00 406.05 836.00" xmlns="http://www.w3.org/2000/svg" xmlns:xlink="http://www.w3.org/1999/xlink">
<g id="graph0" class="graph" transform="scale(1 1) rotate(0) translate(4 832)">
<title>%3</title>
<polygon fill="white" stroke="transparent" points="-4,4 -4,-832 402.05,-832 402.05,4 -4,4"/>
<!-- Soundness -->
<g id="node1" class="node">
<title>Soundness</title>
<ellipse fill="none" stroke="black" cx="140.6" cy="-234" rx="48.19" ry="18"/>
<text text-anchor="middle" x="140.6" y="-230.3" font-family="Times,serif" font-size="14.00">Soundness</text>
</g>
<!-- Completeness -->
<g id="node2" class="node">
<title>Completeness</title>
<ellipse fill="none" stroke="black" cx="140.6" cy="-162" rx="60.39" ry="18"/>
<text text-anchor="middle" x="140.6" y="-158.3" font-family="Times,serif" font-size="14.00">Completeness</text>
</g>
<!-- Soundness&#45;&gt;Completeness -->
<g id="edge1" class="edge">
<title>Soundness&#45;&gt;Completeness</title>
<path fill="none" stroke="black" d="M140.6,-215.7C140.6,-207.98 140.6,-198.71 140.6,-190.11"/>
<polygon fill="black" stroke="black" points="144.1,-190.1 140.6,-180.1 137.1,-190.1 144.1,-190.1"/>
</g>
<!-- PartInterpolation -->
<g id="node12" class="node">
<title>PartInterpolation</title>
<ellipse fill="none" stroke="black" cx="91.6" cy="-90" rx="70.39" ry="18"/>
<text text-anchor="middle" x="91.6" y="-86.3" font-family="Times,serif" font-size="14.00">PartInterpolation</text>
</g>
<!-- Completeness&#45;&gt;PartInterpolation -->
<g id="edge16" class="edge">
<title>Completeness&#45;&gt;PartInterpolation</title>
<path fill="none" stroke="black" d="M128.73,-144.05C122.9,-135.71 115.74,-125.49 109.27,-116.25"/>
<polygon fill="black" stroke="black" points="111.95,-113.97 103.35,-107.79 106.22,-117.99 111.95,-113.97"/>
</g>
<!-- Modelgraphs -->
<g id="node3" class="node">
<title>Modelgraphs</title>
<ellipse fill="none" stroke="black" cx="263.6" cy="-378" rx="57.69" ry="18"/>
<text text-anchor="middle" x="263.6" y="-374.3" font-family="Times,serif" font-size="14.00">Modelgraphs</text>
</g>
<!-- Modelgraphs&#45;&gt;Completeness -->
<g id="edge2" class="edge">
<title>Modelgraphs&#45;&gt;Completeness</title>
<path fill="none" stroke="black" d="M259.21,-359.83C250.79,-329.02 230.26,-263.2 197.6,-216 189.89,-204.87 179.48,-194.33 169.67,-185.62"/>
<polygon fill="black" stroke="black" points="171.87,-182.9 161.99,-179.06 167.32,-188.22 171.87,-182.9"/>
</g>
<!-- Semantics -->
<g id="node4" class="node">
<title>Semantics</title>
<ellipse fill="none" stroke="black" cx="283.6" cy="-666" rx="47.39" ry="18"/>
<text text-anchor="middle" x="283.6" y="-662.3" font-family="Times,serif" font-size="14.00">Semantics</text>
</g>
<!-- Semantics&#45;&gt;Modelgraphs -->
<g id="edge13" class="edge">
<title>Semantics&#45;&gt;Modelgraphs</title>
<path fill="none" stroke="black" d="M300.66,-649.09C340.46,-610.02 432.5,-507.06 383.6,-432 369.89,-410.96 345.73,-398.21 322.67,-390.52"/>
<polygon fill="black" stroke="black" points="323.47,-387.1 312.88,-387.52 321.42,-393.8 323.47,-387.1"/>
</g>
<!-- Discon -->
<g id="node5" class="node">
<title>Discon</title>
<ellipse fill="none" stroke="black" cx="209.6" cy="-594" rx="36" ry="18"/>
<text text-anchor="middle" x="209.6" y="-590.3" font-family="Times,serif" font-size="14.00">Discon</text>
</g>
<!-- Semantics&#45;&gt;Discon -->
<g id="edge3" class="edge">
<title>Semantics&#45;&gt;Discon</title>
<path fill="none" stroke="black" d="M266.8,-649.12C256.92,-639.77 244.27,-627.79 233.37,-617.49"/>
<polygon fill="black" stroke="black" points="235.48,-614.67 225.81,-610.34 230.67,-619.75 235.48,-614.67"/>
</g>
<!-- Examples -->
<g id="node9" class="node">
<title>Examples</title>
<ellipse fill="none" stroke="black" cx="328.6" cy="-450" rx="46.29" ry="18"/>
<text text-anchor="middle" x="328.6" y="-446.3" font-family="Times,serif" font-size="14.00">Examples</text>
</g>
<!-- Semantics&#45;&gt;Examples -->
<g id="edge6" class="edge">
<title>Semantics&#45;&gt;Examples</title>
<path fill="none" stroke="black" d="M287.2,-647.85C295,-610.75 313.5,-522.81 322.9,-478.1"/>
<polygon fill="black" stroke="black" points="326.34,-478.74 324.97,-468.23 319.49,-477.3 326.34,-478.74"/>
</g>
<!-- Substitution -->
<g id="node19" class="node">
<title>Substitution</title>
<ellipse fill="none" stroke="black" cx="150.6" cy="-522" rx="53.09" ry="18"/>
<text text-anchor="middle" x="150.6" y="-518.3" font-family="Times,serif" font-size="14.00">Substitution</text>
</g>
<!-- Semantics&#45;&gt;Substitution -->
<g id="edge21" class="edge">
<title>Semantics&#45;&gt;Substitution</title>
<path fill="none" stroke="black" d="M281.91,-647.69C279.2,-628.22 272.23,-596.63 254.6,-576 239.94,-558.86 218.38,-546.6 198.67,-538.23"/>
<polygon fill="black" stroke="black" points="199.78,-534.9 189.19,-534.42 197.17,-541.39 199.78,-534.9"/>
</g>
<!-- Discon&#45;&gt;Substitution -->
<g id="edge23" class="edge">
<title>Discon&#45;&gt;Substitution</title>
<path fill="none" stroke="black" d="M196.21,-577.12C188.88,-568.42 179.63,-557.45 171.38,-547.66"/>
<polygon fill="black" stroke="black" points="173.88,-545.19 164.75,-539.8 168.52,-549.7 173.88,-545.19"/>
</g>
<!-- Vocab -->
<g id="node6" class="node">
<title>Vocab</title>
<ellipse fill="none" stroke="black" cx="145.6" cy="-666" rx="32.49" ry="18"/>
<text text-anchor="middle" x="145.6" y="-662.3" font-family="Times,serif" font-size="14.00">Vocab</text>
</g>
<!-- Vocab&#45;&gt;Discon -->
<g id="edge4" class="edge">
<title>Vocab&#45;&gt;Discon</title>
<path fill="none" stroke="black" d="M159.8,-649.46C168.13,-640.35 178.83,-628.65 188.17,-618.43"/>
<polygon fill="black" stroke="black" points="190.82,-620.72 194.99,-610.98 185.66,-616 190.82,-620.72"/>
</g>
<!-- Fresh -->
<g id="node11" class="node">
<title>Fresh</title>
<ellipse fill="none" stroke="black" cx="82.6" cy="-594" rx="30.59" ry="18"/>
<text text-anchor="middle" x="82.6" y="-590.3" font-family="Times,serif" font-size="14.00">Fresh</text>
</g>
<!-- Vocab&#45;&gt;Fresh -->
<g id="edge8" class="edge">
<title>Vocab&#45;&gt;Fresh</title>
<path fill="none" stroke="black" d="M131.61,-649.46C123.3,-640.22 112.59,-628.32 103.3,-618"/>
<polygon fill="black" stroke="black" points="105.83,-615.58 96.54,-610.49 100.63,-620.27 105.83,-615.58"/>
</g>
<!-- Vocab&#45;&gt;Substitution -->
<g id="edge22" class="edge">
<title>Vocab&#45;&gt;Substitution</title>
<path fill="none" stroke="black" d="M146.2,-647.87C147.05,-623.67 148.62,-579.21 149.63,-550.39"/>
<polygon fill="black" stroke="black" points="153.14,-550.31 149.99,-540.19 146.14,-550.06 153.14,-550.31"/>
</g>
<!-- Unfold -->
<g id="node7" class="node">
<title>Unfold</title>
<ellipse fill="none" stroke="black" cx="50.6" cy="-450" rx="36" ry="18"/>
<text text-anchor="middle" x="50.6" y="-446.3" font-family="Times,serif" font-size="14.00">Unfold</text>
</g>
<!-- Unfold&#45;&gt;Modelgraphs -->
<g id="edge15" class="edge">
<title>Unfold&#45;&gt;Modelgraphs</title>
<path fill="none" stroke="black" d="M78.11,-438.33C83.87,-436.17 89.91,-433.97 95.6,-432 135.05,-418.34 180.2,-404.17 213.76,-393.93"/>
<polygon fill="black" stroke="black" points="214.79,-397.27 223.34,-391.01 212.75,-390.58 214.79,-397.27"/>
</g>
<!-- Distance -->
<g id="node8" class="node">
<title>Distance</title>
<ellipse fill="none" stroke="black" cx="41.6" cy="-306" rx="41.69" ry="18"/>
<text text-anchor="middle" x="41.6" y="-302.3" font-family="Times,serif" font-size="14.00">Distance</text>
</g>
<!-- Unfold&#45;&gt;Distance -->
<g id="edge5" class="edge">
<title>Unfold&#45;&gt;Distance</title>
<path fill="none" stroke="black" d="M49.51,-431.87C47.98,-407.67 45.16,-363.21 43.33,-334.39"/>
<polygon fill="black" stroke="black" points="46.81,-333.95 42.69,-324.19 39.83,-334.39 46.81,-333.95"/>
</g>
<!-- LocalTableau -->
<g id="node14" class="node">
<title>LocalTableau</title>
<ellipse fill="none" stroke="black" cx="128.6" cy="-378" rx="59.29" ry="18"/>
<text text-anchor="middle" x="128.6" y="-374.3" font-family="Times,serif" font-size="14.00">LocalTableau</text>
</g>
<!-- Unfold&#45;&gt;LocalTableau -->
<g id="edge10" class="edge">
<title>Unfold&#45;&gt;LocalTableau</title>
<path fill="none" stroke="black" d="M67.52,-433.81C77.79,-424.6 91.1,-412.65 102.67,-402.27"/>
<polygon fill="black" stroke="black" points="105.24,-404.66 110.34,-395.38 100.56,-399.45 105.24,-404.66"/>
</g>
<!-- Distance&#45;&gt;PartInterpolation -->
<g id="edge17" class="edge">
<title>Distance&#45;&gt;PartInterpolation</title>
<path fill="none" stroke="black" d="M43.78,-287.85C47.77,-258.18 57.21,-195.48 71.6,-144 74.07,-135.15 77.4,-125.7 80.64,-117.27"/>
<polygon fill="black" stroke="black" points="83.91,-118.52 84.33,-107.93 77.4,-115.94 83.91,-118.52"/>
</g>
<!-- Star -->
<g id="node10" class="node">
<title>Star</title>
<ellipse fill="none" stroke="black" cx="254.6" cy="-522" rx="27" ry="18"/>
<text text-anchor="middle" x="254.6" y="-518.3" font-family="Times,serif" font-size="14.00">Star</text>
</g>
<!-- Star&#45;&gt;Modelgraphs -->
<g id="edge14" class="edge">
<title>Star&#45;&gt;Modelgraphs</title>
<path fill="none" stroke="black" d="M255.68,-503.87C257.22,-479.67 260.03,-435.21 261.86,-406.39"/>
<polygon fill="black" stroke="black" points="265.37,-406.39 262.51,-396.19 258.38,-405.95 265.37,-406.39"/>
</g>
<!-- Star&#45;&gt;Unfold -->
<g id="edge27" class="edge">
<title>Star&#45;&gt;Unfold</title>
<path fill="none" stroke="black" d="M232.5,-511.64C226.12,-509.05 219.12,-506.32 212.6,-504 161.33,-485.78 147.07,-485.62 95.6,-468 93.02,-467.12 90.37,-466.18 87.7,-465.23"/>
<polygon fill="black" stroke="black" points="88.7,-461.86 78.1,-461.7 86.29,-468.43 88.7,-461.86"/>
</g>
<!-- Star&#45;&gt;Examples -->
<g id="edge7" class="edge">
<title>Star&#45;&gt;Examples</title>
<path fill="none" stroke="black" d="M269.57,-506.83C279.52,-497.42 292.82,-484.85 304.27,-474.01"/>
<polygon fill="black" stroke="black" points="306.98,-476.27 311.84,-466.85 302.17,-471.18 306.98,-476.27"/>
</g>
<!-- Fresh&#45;&gt;Unfold -->
<g id="edge26" class="edge">
<title>Fresh&#45;&gt;Unfold</title>
<path fill="none" stroke="black" d="M78.74,-575.87C73.26,-551.56 63.18,-506.82 56.68,-478.01"/>
<polygon fill="black" stroke="black" points="60.08,-477.18 54.47,-468.19 53.25,-478.71 60.08,-477.18"/>
</g>
<!-- Interpolation -->
<g id="node13" class="node">
<title>Interpolation</title>
<ellipse fill="none" stroke="black" cx="91.6" cy="-18" rx="55.79" ry="18"/>
<text text-anchor="middle" x="91.6" y="-14.3" font-family="Times,serif" font-size="14.00">Interpolation</text>
</g>
<!-- PartInterpolation&#45;&gt;Interpolation -->
<g id="edge9" class="edge">
<title>PartInterpolation&#45;&gt;Interpolation</title>
<path fill="none" stroke="black" d="M91.6,-71.7C91.6,-63.98 91.6,-54.71 91.6,-46.11"/>
<polygon fill="black" stroke="black" points="95.1,-46.1 91.6,-36.1 88.1,-46.1 95.1,-46.1"/>
</g>
<!-- Tableau -->
<g id="node18" class="node">
<title>Tableau</title>
<ellipse fill="none" stroke="black" cx="140.6" cy="-306" rx="38.99" ry="18"/>
<text text-anchor="middle" x="140.6" y="-302.3" font-family="Times,serif" font-size="14.00">Tableau</text>
</g>
<!-- LocalTableau&#45;&gt;Tableau -->
<g id="edge24" class="edge">
<title>LocalTableau&#45;&gt;Tableau</title>
<path fill="none" stroke="black" d="M131.56,-359.7C132.88,-351.98 134.47,-342.71 135.95,-334.11"/>
<polygon fill="black" stroke="black" points="139.42,-334.55 137.66,-324.1 132.52,-333.37 139.42,-334.55"/>
</g>
<!-- MultisetOrder -->
<g id="node15" class="node">
<title>MultisetOrder</title>
<ellipse fill="none" stroke="black" cx="165.6" cy="-450" rx="61.19" ry="18"/>
<text text-anchor="middle" x="165.6" y="-446.3" font-family="Times,serif" font-size="14.00">MultisetOrder</text>
</g>
<!-- MultisetOrder&#45;&gt;LocalTableau -->
<g id="edge11" class="edge">
<title>MultisetOrder&#45;&gt;LocalTableau</title>
<path fill="none" stroke="black" d="M156.64,-432.05C152.39,-424.01 147.2,-414.2 142.46,-405.23"/>
<polygon fill="black" stroke="black" points="145.5,-403.48 137.73,-396.28 139.31,-406.75 145.5,-403.48"/>
</g>
<!-- Syntax -->
<g id="node16" class="node">
<title>Syntax</title>
<ellipse fill="none" stroke="black" cx="218.6" cy="-810" rx="35.19" ry="18"/>
<text text-anchor="middle" x="218.6" y="-806.3" font-family="Times,serif" font-size="14.00">Syntax</text>
</g>
<!-- Syntax&#45;&gt;Semantics -->
<g id="edge18" class="edge">
<title>Syntax&#45;&gt;Semantics</title>
<path fill="none" stroke="black" d="M238.39,-795.11C250.37,-785.56 264.8,-771.78 272.6,-756 282.11,-736.75 284.56,-712.4 284.8,-694.05"/>
<polygon fill="black" stroke="black" points="288.3,-693.98 284.73,-684.01 281.3,-694.04 288.3,-693.98"/>
</g>
<!-- Syntax&#45;&gt;Vocab -->
<g id="edge28" class="edge">
<title>Syntax&#45;&gt;Vocab</title>
<path fill="none" stroke="black" d="M199.27,-794.87C187.47,-785.22 173.07,-771.43 164.6,-756 154.1,-736.9 149.4,-712.55 147.29,-694.14"/>
<polygon fill="black" stroke="black" points="150.77,-693.7 146.33,-684.08 143.8,-694.37 150.77,-693.7"/>
</g>
<!-- Measures -->
<g id="node17" class="node">
<title>Measures</title>
<ellipse fill="none" stroke="black" cx="218.6" cy="-738" rx="44.69" ry="18"/>
<text text-anchor="middle" x="218.6" y="-734.3" font-family="Times,serif" font-size="14.00">Measures</text>
</g>
<!-- Syntax&#45;&gt;Measures -->
<g id="edge12" class="edge">
<title>Syntax&#45;&gt;Measures</title>
<path fill="none" stroke="black" d="M218.6,-791.7C218.6,-783.98 218.6,-774.71 218.6,-766.11"/>
<polygon fill="black" stroke="black" points="222.1,-766.1 218.6,-756.1 215.1,-766.1 222.1,-766.1"/>
</g>
<!-- Measures&#45;&gt;Semantics -->
<g id="edge19" class="edge">
<title>Measures&#45;&gt;Semantics</title>
<path fill="none" stroke="black" d="M233.67,-720.76C241.96,-711.84 252.39,-700.61 261.57,-690.72"/>
<polygon fill="black" stroke="black" points="264.36,-692.86 268.6,-683.15 259.23,-688.09 264.36,-692.86"/>
</g>
<!-- Tableau&#45;&gt;Soundness -->
<g id="edge20" class="edge">
<title>Tableau&#45;&gt;Soundness</title>
<path fill="none" stroke="black" d="M140.6,-287.7C140.6,-279.98 140.6,-270.71 140.6,-262.11"/>
<polygon fill="black" stroke="black" points="144.1,-262.1 140.6,-252.1 137.1,-262.1 144.1,-262.1"/>
</g>
<!-- Substitution&#45;&gt;Unfold -->
<g id="edge25" class="edge">
<title>Substitution&#45;&gt;Unfold</title>
<path fill="none" stroke="black" d="M128.4,-505.46C113.84,-495.27 94.66,-481.84 78.98,-470.87"/>
<polygon fill="black" stroke="black" points="80.89,-467.93 70.69,-465.07 76.88,-473.67 80.89,-467.93"/>
</g>
</g>
</svg>
