<?xml version="1.0" encoding="UTF-8" standalone="no"?>
<!DOCTYPE svg PUBLIC "-//W3C//DTD SVG 1.1//EN"
 "http://www.w3.org/Graphics/SVG/1.1/DTD/svg11.dtd">
<!-- Generated by graphviz version 2.43.0 (0)
 -->
<!-- Title: %3 Pages: 1 -->
<svg width="654pt" height="764pt"
 viewBox="0.00 0.00 654.19 764.00" xmlns="http://www.w3.org/2000/svg" xmlns:xlink="http://www.w3.org/1999/xlink">
<g id="graph0" class="graph" transform="scale(1 1) rotate(0) translate(4 760)">
<title>%3</title>
<polygon fill="white" stroke="transparent" points="-4,4 -4,-760 650.19,-760 650.19,4 -4,4"/>
<!-- Soundness -->
<g id="node1" class="node">
<title>Soundness</title>
<ellipse fill="none" stroke="black" cx="409.25" cy="-234" rx="48.19" ry="18"/>
<text text-anchor="middle" x="409.25" y="-230.3" font-family="Times,serif" font-size="14.00">Soundness</text>
</g>
<!-- Completeness -->
<g id="node2" class="node">
<title>Completeness</title>
<ellipse fill="none" stroke="black" cx="371.25" cy="-162" rx="60.39" ry="18"/>
<text text-anchor="middle" x="371.25" y="-158.3" font-family="Times,serif" font-size="14.00">Completeness</text>
</g>
<!-- Soundness&#45;&gt;Completeness -->
<g id="edge1" class="edge">
<title>Soundness&#45;&gt;Completeness</title>
<path fill="none" stroke="black" d="M400.05,-216.05C395.68,-208.01 390.36,-198.2 385.48,-189.23"/>
<polygon fill="black" stroke="black" points="388.47,-187.39 380.63,-180.28 382.32,-190.73 388.47,-187.39"/>
</g>
<!-- PartInterpolation -->
<g id="node14" class="node">
<title>PartInterpolation</title>
<ellipse fill="none" stroke="black" cx="371.25" cy="-90" rx="70.39" ry="18"/>
<text text-anchor="middle" x="371.25" y="-86.3" font-family="Times,serif" font-size="14.00">PartInterpolation</text>
</g>
<!-- Completeness&#45;&gt;PartInterpolation -->
<g id="edge21" class="edge">
<title>Completeness&#45;&gt;PartInterpolation</title>
<path fill="none" stroke="black" d="M371.25,-143.7C371.25,-135.98 371.25,-126.71 371.25,-118.11"/>
<polygon fill="black" stroke="black" points="374.75,-118.1 371.25,-108.1 367.75,-118.1 374.75,-118.1"/>
</g>
<!-- Modelgraphs -->
<g id="node3" class="node">
<title>Modelgraphs</title>
<ellipse fill="none" stroke="black" cx="333.25" cy="-378" rx="57.69" ry="18"/>
<text text-anchor="middle" x="333.25" y="-374.3" font-family="Times,serif" font-size="14.00">Modelgraphs</text>
</g>
<!-- Modelgraphs&#45;&gt;Completeness -->
<g id="edge2" class="edge">
<title>Modelgraphs&#45;&gt;Completeness</title>
<path fill="none" stroke="black" d="M333.99,-359.86C335.57,-330.19 340.14,-267.51 352.25,-216 354.31,-207.21 357.37,-197.85 360.42,-189.49"/>
<polygon fill="black" stroke="black" points="363.79,-190.48 364.08,-179.89 357.25,-187.99 363.79,-190.48"/>
</g>
<!-- Syntax -->
<g id="node4" class="node">
<title>Syntax</title>
<ellipse fill="none" stroke="black" cx="285.25" cy="-738" rx="35.19" ry="18"/>
<text text-anchor="middle" x="285.25" y="-734.3" font-family="Times,serif" font-size="14.00">Syntax</text>
</g>
<!-- DagSyntax -->
<g id="node5" class="node">
<title>DagSyntax</title>
<ellipse fill="none" stroke="black" cx="464.25" cy="-666" rx="50.09" ry="18"/>
<text text-anchor="middle" x="464.25" y="-662.3" font-family="Times,serif" font-size="14.00">DagSyntax</text>
</g>
<!-- Syntax&#45;&gt;DagSyntax -->
<g id="edge3" class="edge">
<title>Syntax&#45;&gt;DagSyntax</title>
<path fill="none" stroke="black" d="M312.43,-726.37C341.54,-714.99 388.11,-696.78 422,-683.52"/>
<polygon fill="black" stroke="black" points="423.6,-686.65 431.64,-679.75 421.05,-680.14 423.6,-686.65"/>
</g>
<!-- Semantics -->
<g id="node6" class="node">
<title>Semantics</title>
<ellipse fill="none" stroke="black" cx="324.25" cy="-594" rx="47.39" ry="18"/>
<text text-anchor="middle" x="324.25" y="-590.3" font-family="Times,serif" font-size="14.00">Semantics</text>
</g>
<!-- Syntax&#45;&gt;Semantics -->
<g id="edge23" class="edge">
<title>Syntax&#45;&gt;Semantics</title>
<path fill="none" stroke="black" d="M289.87,-720.15C296.52,-695.94 308.85,-651.05 316.8,-622.13"/>
<polygon fill="black" stroke="black" points="320.23,-622.84 319.51,-612.27 313.48,-620.98 320.23,-622.84"/>
</g>
<!-- Vocab -->
<g id="node12" class="node">
<title>Vocab</title>
<ellipse fill="none" stroke="black" cx="226.25" cy="-594" rx="32.49" ry="18"/>
<text text-anchor="middle" x="226.25" y="-590.3" font-family="Times,serif" font-size="14.00">Vocab</text>
</g>
<!-- Syntax&#45;&gt;Vocab -->
<g id="edge35" class="edge">
<title>Syntax&#45;&gt;Vocab</title>
<path fill="none" stroke="black" d="M283.82,-719.91C281.78,-701.47 277.01,-671.57 266.25,-648 261.46,-637.51 254.3,-627.13 247.36,-618.37"/>
<polygon fill="black" stroke="black" points="249.94,-615.98 240.86,-610.52 244.54,-620.45 249.94,-615.98"/>
</g>
<!-- Setsimp -->
<g id="node16" class="node">
<title>Setsimp</title>
<ellipse fill="none" stroke="black" cx="136.25" cy="-594" rx="39.79" ry="18"/>
<text text-anchor="middle" x="136.25" y="-590.3" font-family="Times,serif" font-size="14.00">Setsimp</text>
</g>
<!-- Syntax&#45;&gt;Setsimp -->
<g id="edge25" class="edge">
<title>Syntax&#45;&gt;Setsimp</title>
<path fill="none" stroke="black" d="M252.24,-731.76C223.29,-725.44 182.2,-711.93 158.25,-684 143.56,-666.87 138.39,-641.43 136.71,-622.12"/>
<polygon fill="black" stroke="black" points="140.2,-621.89 136.09,-612.12 133.21,-622.32 140.2,-621.89"/>
</g>
<!-- Measures -->
<g id="node20" class="node">
<title>Measures</title>
<ellipse fill="none" stroke="black" cx="212.25" cy="-666" rx="44.69" ry="18"/>
<text text-anchor="middle" x="212.25" y="-662.3" font-family="Times,serif" font-size="14.00">Measures</text>
</g>
<!-- Syntax&#45;&gt;Measures -->
<g id="edge17" class="edge">
<title>Syntax&#45;&gt;Measures</title>
<path fill="none" stroke="black" d="M269.41,-721.81C259.66,-712.47 246.99,-700.31 236.05,-689.83"/>
<polygon fill="black" stroke="black" points="238.46,-687.28 228.82,-682.89 233.61,-692.34 238.46,-687.28"/>
</g>
<!-- DagTableau -->
<g id="node7" class="node">
<title>DagTableau</title>
<ellipse fill="none" stroke="black" cx="592.25" cy="-522" rx="53.89" ry="18"/>
<text text-anchor="middle" x="592.25" y="-518.3" font-family="Times,serif" font-size="14.00">DagTableau</text>
</g>
<!-- DagSyntax&#45;&gt;DagTableau -->
<g id="edge7" class="edge">
<title>DagSyntax&#45;&gt;DagTableau</title>
<path fill="none" stroke="black" d="M478.93,-648.71C501.38,-623.81 544.37,-576.12 570.46,-547.17"/>
<polygon fill="black" stroke="black" points="573.25,-549.31 577.34,-539.54 568.05,-544.62 573.25,-549.31"/>
</g>
<!-- Semantics&#45;&gt;Modelgraphs -->
<g id="edge18" class="edge">
<title>Semantics&#45;&gt;Modelgraphs</title>
<path fill="none" stroke="black" d="M324.97,-575.85C326.53,-538.83 330.21,-451.18 332.1,-406.39"/>
<polygon fill="black" stroke="black" points="335.6,-406.37 332.52,-396.23 328.61,-406.08 335.6,-406.37"/>
</g>
<!-- Semantics&#45;&gt;DagTableau -->
<g id="edge4" class="edge">
<title>Semantics&#45;&gt;DagTableau</title>
<path fill="none" stroke="black" d="M362.08,-583.12C408.98,-570.87 489.1,-549.94 541.35,-536.29"/>
<polygon fill="black" stroke="black" points="542.3,-539.66 551.1,-533.75 540.54,-532.89 542.3,-539.66"/>
</g>
<!-- Discon -->
<g id="node10" class="node">
<title>Discon</title>
<ellipse fill="none" stroke="black" cx="136.25" cy="-522" rx="36" ry="18"/>
<text text-anchor="middle" x="136.25" y="-518.3" font-family="Times,serif" font-size="14.00">Discon</text>
</g>
<!-- Semantics&#45;&gt;Discon -->
<g id="edge8" class="edge">
<title>Semantics&#45;&gt;Discon</title>
<path fill="none" stroke="black" d="M291.28,-580.85C262.29,-570.14 218.94,-554.1 181.25,-540 178.7,-539.05 176.06,-538.06 173.41,-537.06"/>
<polygon fill="black" stroke="black" points="174.44,-533.71 163.84,-533.46 171.97,-540.26 174.44,-533.71"/>
</g>
<!-- Examples -->
<g id="node11" class="node">
<title>Examples</title>
<ellipse fill="none" stroke="black" cx="398.25" cy="-522" rx="46.29" ry="18"/>
<text text-anchor="middle" x="398.25" y="-518.3" font-family="Times,serif" font-size="14.00">Examples</text>
</g>
<!-- Semantics&#45;&gt;Examples -->
<g id="edge9" class="edge">
<title>Semantics&#45;&gt;Examples</title>
<path fill="none" stroke="black" d="M341.04,-577.12C350.78,-567.9 363.23,-556.13 374.02,-545.92"/>
<polygon fill="black" stroke="black" points="376.66,-548.24 381.52,-538.82 371.85,-543.15 376.66,-548.24"/>
</g>
<!-- Substitution -->
<g id="node23" class="node">
<title>Substitution</title>
<ellipse fill="none" stroke="black" cx="243.25" cy="-522" rx="53.09" ry="18"/>
<text text-anchor="middle" x="243.25" y="-518.3" font-family="Times,serif" font-size="14.00">Substitution</text>
</g>
<!-- Semantics&#45;&gt;Substitution -->
<g id="edge29" class="edge">
<title>Semantics&#45;&gt;Substitution</title>
<path fill="none" stroke="black" d="M305.87,-577.12C295.17,-567.87 281.51,-556.07 269.68,-545.84"/>
<polygon fill="black" stroke="black" points="271.69,-542.95 261.84,-539.06 267.11,-548.25 271.69,-542.95"/>
</g>
<!-- Star -->
<g id="node8" class="node">
<title>Star</title>
<ellipse fill="none" stroke="black" cx="472.25" cy="-594" rx="27" ry="18"/>
<text text-anchor="middle" x="472.25" y="-590.3" font-family="Times,serif" font-size="14.00">Star</text>
</g>
<!-- Star&#45;&gt;Soundness -->
<g id="edge27" class="edge">
<title>Star&#45;&gt;Soundness</title>
<path fill="none" stroke="black" d="M479.76,-576.34C490.83,-550.2 510.25,-497.7 510.25,-451 510.25,-451 510.25,-451 510.25,-377 510.25,-326.95 468.06,-282.28 438.22,-256.95"/>
<polygon fill="black" stroke="black" points="440.12,-253.98 430.18,-250.32 435.67,-259.38 440.12,-253.98"/>
</g>
<!-- Star&#45;&gt;Modelgraphs -->
<g id="edge19" class="edge">
<title>Star&#45;&gt;Modelgraphs</title>
<path fill="none" stroke="black" d="M471.38,-575.99C469.82,-557.35 465.46,-527.03 453.25,-504 430.92,-461.91 390.3,-424.06 362.56,-401.31"/>
<polygon fill="black" stroke="black" points="364.73,-398.57 354.75,-395.03 360.34,-404.02 364.73,-398.57"/>
</g>
<!-- Star&#45;&gt;DagTableau -->
<g id="edge5" class="edge">
<title>Star&#45;&gt;DagTableau</title>
<path fill="none" stroke="black" d="M492.06,-581.44C509.89,-571.04 536.47,-555.54 557.77,-543.11"/>
<polygon fill="black" stroke="black" points="559.66,-546.06 566.54,-538 556.14,-540.01 559.66,-546.06"/>
</g>
<!-- Star&#45;&gt;Examples -->
<g id="edge10" class="edge">
<title>Star&#45;&gt;Examples</title>
<path fill="none" stroke="black" d="M457.27,-578.83C447.32,-569.42 434.03,-556.85 422.58,-546.01"/>
<polygon fill="black" stroke="black" points="424.68,-543.18 415.01,-538.85 419.87,-548.27 424.68,-543.18"/>
</g>
<!-- Closure -->
<g id="node9" class="node">
<title>Closure</title>
<ellipse fill="none" stroke="black" cx="593.25" cy="-594" rx="38.19" ry="18"/>
<text text-anchor="middle" x="593.25" y="-590.3" font-family="Times,serif" font-size="14.00">Closure</text>
</g>
<!-- Closure&#45;&gt;DagTableau -->
<g id="edge6" class="edge">
<title>Closure&#45;&gt;DagTableau</title>
<path fill="none" stroke="black" d="M593,-575.7C592.89,-567.98 592.76,-558.71 592.64,-550.11"/>
<polygon fill="black" stroke="black" points="596.13,-550.05 592.49,-540.1 589.14,-550.15 596.13,-550.05"/>
</g>
<!-- LocalTableau -->
<g id="node17" class="node">
<title>LocalTableau</title>
<ellipse fill="none" stroke="black" cx="120.25" cy="-378" rx="59.29" ry="18"/>
<text text-anchor="middle" x="120.25" y="-374.3" font-family="Times,serif" font-size="14.00">LocalTableau</text>
</g>
<!-- Discon&#45;&gt;LocalTableau -->
<g id="edge14" class="edge">
<title>Discon&#45;&gt;LocalTableau</title>
<path fill="none" stroke="black" d="M140.76,-504.08C144.88,-486.04 149.58,-456.72 144.25,-432 142.29,-422.92 138.64,-413.52 134.76,-405.2"/>
<polygon fill="black" stroke="black" points="137.79,-403.42 130.2,-396.02 131.52,-406.53 137.79,-403.42"/>
</g>
<!-- Unfold -->
<g id="node18" class="node">
<title>Unfold</title>
<ellipse fill="none" stroke="black" cx="227.25" cy="-450" rx="36" ry="18"/>
<text text-anchor="middle" x="227.25" y="-446.3" font-family="Times,serif" font-size="14.00">Unfold</text>
</g>
<!-- Discon&#45;&gt;Unfold -->
<g id="edge32" class="edge">
<title>Discon&#45;&gt;Unfold</title>
<path fill="none" stroke="black" d="M155.1,-506.5C168.16,-496.45 185.73,-482.93 200.27,-471.75"/>
<polygon fill="black" stroke="black" points="202.62,-474.36 208.42,-465.49 198.36,-468.81 202.62,-474.36"/>
</g>
<!-- Fresh -->
<g id="node13" class="node">
<title>Fresh</title>
<ellipse fill="none" stroke="black" cx="52.25" cy="-522" rx="30.59" ry="18"/>
<text text-anchor="middle" x="52.25" y="-518.3" font-family="Times,serif" font-size="14.00">Fresh</text>
</g>
<!-- Vocab&#45;&gt;Fresh -->
<g id="edge11" class="edge">
<title>Vocab&#45;&gt;Fresh</title>
<path fill="none" stroke="black" d="M201.14,-582.46C195.9,-580.3 190.4,-578.05 185.25,-576 143.69,-559.43 132.65,-556.94 91.25,-540 89.4,-539.24 87.51,-538.46 85.61,-537.66"/>
<polygon fill="black" stroke="black" points="86.67,-534.31 76.1,-533.6 83.92,-540.75 86.67,-534.31"/>
</g>
<!-- Vocab&#45;&gt;Substitution -->
<g id="edge30" class="edge">
<title>Vocab&#45;&gt;Substitution</title>
<path fill="none" stroke="black" d="M230.36,-576.05C232.26,-568.26 234.55,-558.82 236.67,-550.08"/>
<polygon fill="black" stroke="black" points="240.09,-550.82 239.05,-540.28 233.29,-549.17 240.09,-550.82"/>
</g>
<!-- Fresh&#45;&gt;Unfold -->
<g id="edge34" class="edge">
<title>Fresh&#45;&gt;Unfold</title>
<path fill="none" stroke="black" d="M76.11,-510.42C81.1,-508.26 86.33,-506.03 91.25,-504 124.42,-490.31 162.51,-475.55 189.92,-465.09"/>
<polygon fill="black" stroke="black" points="191.41,-468.27 199.51,-461.44 188.92,-461.73 191.41,-468.27"/>
</g>
<!-- Interpolation -->
<g id="node15" class="node">
<title>Interpolation</title>
<ellipse fill="none" stroke="black" cx="371.25" cy="-18" rx="55.79" ry="18"/>
<text text-anchor="middle" x="371.25" y="-14.3" font-family="Times,serif" font-size="14.00">Interpolation</text>
</g>
<!-- PartInterpolation&#45;&gt;Interpolation -->
<g id="edge12" class="edge">
<title>PartInterpolation&#45;&gt;Interpolation</title>
<path fill="none" stroke="black" d="M371.25,-71.7C371.25,-63.98 371.25,-54.71 371.25,-46.11"/>
<polygon fill="black" stroke="black" points="374.75,-46.1 371.25,-36.1 367.75,-46.1 374.75,-46.1"/>
</g>
<!-- Setsimp&#45;&gt;LocalTableau -->
<g id="edge13" class="edge">
<title>Setsimp&#45;&gt;LocalTableau</title>
<path fill="none" stroke="black" d="M99.11,-587.38C70.61,-581 32.77,-567.63 12.25,-540 -6.95,-514.15 6.03,-500.15 4.25,-468 3.36,-452.02 -4.4,-445.46 4.25,-432 17.18,-411.88 39.85,-399.3 61.74,-391.49"/>
<polygon fill="black" stroke="black" points="62.96,-394.77 71.37,-388.32 60.77,-388.12 62.96,-394.77"/>
</g>
<!-- Tableau -->
<g id="node22" class="node">
<title>Tableau</title>
<ellipse fill="none" stroke="black" cx="405.25" cy="-306" rx="38.99" ry="18"/>
<text text-anchor="middle" x="405.25" y="-302.3" font-family="Times,serif" font-size="14.00">Tableau</text>
</g>
<!-- LocalTableau&#45;&gt;Tableau -->
<g id="edge31" class="edge">
<title>LocalTableau&#45;&gt;Tableau</title>
<path fill="none" stroke="black" d="M164.5,-365.9C172.41,-363.93 180.57,-361.9 188.25,-360 248.32,-345.15 317.82,-328.22 361.65,-317.58"/>
<polygon fill="black" stroke="black" points="362.51,-320.97 371.41,-315.21 360.86,-314.16 362.51,-320.97"/>
</g>
<!-- Unfold&#45;&gt;Modelgraphs -->
<g id="edge20" class="edge">
<title>Unfold&#45;&gt;Modelgraphs</title>
<path fill="none" stroke="black" d="M248.19,-435.17C263.3,-425.19 283.97,-411.54 301.15,-400.2"/>
<polygon fill="black" stroke="black" points="303.35,-402.94 309.77,-394.51 299.49,-397.1 303.35,-402.94"/>
</g>
<!-- Unfold&#45;&gt;LocalTableau -->
<g id="edge15" class="edge">
<title>Unfold&#45;&gt;LocalTableau</title>
<path fill="none" stroke="black" d="M206.36,-435.34C191.14,-425.38 170.21,-411.69 152.8,-400.3"/>
<polygon fill="black" stroke="black" points="154.35,-397.13 144.06,-394.58 150.52,-402.98 154.35,-397.13"/>
</g>
<!-- Paths -->
<g id="node21" class="node">
<title>Paths</title>
<ellipse fill="none" stroke="black" cx="227.25" cy="-378" rx="29.8" ry="18"/>
<text text-anchor="middle" x="227.25" y="-374.3" font-family="Times,serif" font-size="14.00">Paths</text>
</g>
<!-- Unfold&#45;&gt;Paths -->
<g id="edge22" class="edge">
<title>Unfold&#45;&gt;Paths</title>
<path fill="none" stroke="black" d="M227.25,-431.7C227.25,-423.98 227.25,-414.71 227.25,-406.11"/>
<polygon fill="black" stroke="black" points="230.75,-406.1 227.25,-396.1 223.75,-406.1 230.75,-406.1"/>
</g>
<!-- MultisetOrder -->
<g id="node19" class="node">
<title>MultisetOrder</title>
<ellipse fill="none" stroke="black" cx="74.25" cy="-450" rx="61.19" ry="18"/>
<text text-anchor="middle" x="74.25" y="-446.3" font-family="Times,serif" font-size="14.00">MultisetOrder</text>
</g>
<!-- MultisetOrder&#45;&gt;LocalTableau -->
<g id="edge16" class="edge">
<title>MultisetOrder&#45;&gt;LocalTableau</title>
<path fill="none" stroke="black" d="M85.38,-432.05C90.86,-423.71 97.58,-413.49 103.65,-404.25"/>
<polygon fill="black" stroke="black" points="106.65,-406.07 109.22,-395.79 100.8,-402.22 106.65,-406.07"/>
</g>
<!-- Measures&#45;&gt;Semantics -->
<g id="edge24" class="edge">
<title>Measures&#45;&gt;Semantics</title>
<path fill="none" stroke="black" d="M235.45,-650.5C251.86,-640.24 274.07,-626.36 292.17,-615.05"/>
<polygon fill="black" stroke="black" points="294.06,-617.99 300.69,-609.73 290.35,-612.06 294.06,-617.99"/>
</g>
<!-- Measures&#45;&gt;Setsimp -->
<g id="edge26" class="edge">
<title>Measures&#45;&gt;Setsimp</title>
<path fill="none" stroke="black" d="M195,-649.12C184.75,-639.68 171.6,-627.56 160.34,-617.19"/>
<polygon fill="black" stroke="black" points="162.63,-614.54 152.9,-610.34 157.89,-619.69 162.63,-614.54"/>
</g>
<!-- Tableau&#45;&gt;Soundness -->
<g id="edge28" class="edge">
<title>Tableau&#45;&gt;Soundness</title>
<path fill="none" stroke="black" d="M406.24,-287.7C406.68,-279.98 407.21,-270.71 407.7,-262.11"/>
<polygon fill="black" stroke="black" points="411.19,-262.29 408.27,-252.1 404.21,-261.89 411.19,-262.29"/>
</g>
<!-- Substitution&#45;&gt;Unfold -->
<g id="edge33" class="edge">
<title>Substitution&#45;&gt;Unfold</title>
<path fill="none" stroke="black" d="M239.29,-503.7C237.53,-495.98 235.41,-486.71 233.44,-478.11"/>
<polygon fill="black" stroke="black" points="236.8,-477.07 231.16,-468.1 229.97,-478.63 236.8,-477.07"/>
</g>
</g>
</svg>
