<?xml version="1.0" encoding="UTF-8" standalone="no"?>
<!DOCTYPE svg PUBLIC "-//W3C//DTD SVG 1.1//EN"
 "http://www.w3.org/Graphics/SVG/1.1/DTD/svg11.dtd">
<!-- Generated by graphviz version 2.43.0 (0)
 -->
<!-- Title: %3 Pages: 1 -->
<svg width="532pt" height="836pt"
 viewBox="0.00 0.00 532.05 836.00" xmlns="http://www.w3.org/2000/svg" xmlns:xlink="http://www.w3.org/1999/xlink">
<g id="graph0" class="graph" transform="scale(1 1) rotate(0) translate(4 832)">
<title>%3</title>
<polygon fill="white" stroke="transparent" points="-4,4 -4,-832 528.05,-832 528.05,4 -4,4"/>
<!-- Soundness -->
<g id="node1" class="node">
<title>Soundness</title>
<ellipse fill="none" stroke="black" cx="156" cy="-234" rx="48.19" ry="18"/>
<text text-anchor="middle" x="156" y="-230.3" font-family="Times,serif" font-size="14.00">Soundness</text>
</g>
<!-- Completeness -->
<g id="node2" class="node">
<title>Completeness</title>
<ellipse fill="none" stroke="black" cx="289" cy="-162" rx="60.39" ry="18"/>
<text text-anchor="middle" x="289" y="-158.3" font-family="Times,serif" font-size="14.00">Completeness</text>
</g>
<!-- Soundness&#45;&gt;Completeness -->
<g id="edge1" class="edge">
<title>Soundness&#45;&gt;Completeness</title>
<path fill="none" stroke="black" d="M182.91,-218.83C202.57,-208.49 229.49,-194.32 251.29,-182.85"/>
<polygon fill="black" stroke="black" points="253.07,-185.87 260.28,-178.11 249.8,-179.67 253.07,-185.87"/>
</g>
<!-- PartInterpolation -->
<g id="node14" class="node">
<title>PartInterpolation</title>
<ellipse fill="none" stroke="black" cx="333" cy="-90" rx="70.39" ry="18"/>
<text text-anchor="middle" x="333" y="-86.3" font-family="Times,serif" font-size="14.00">PartInterpolation</text>
</g>
<!-- Completeness&#45;&gt;PartInterpolation -->
<g id="edge19" class="edge">
<title>Completeness&#45;&gt;PartInterpolation</title>
<path fill="none" stroke="black" d="M299.65,-144.05C304.76,-135.92 311,-126 316.69,-116.94"/>
<polygon fill="black" stroke="black" points="319.78,-118.6 322.14,-108.28 313.86,-114.88 319.78,-118.6"/>
</g>
<!-- Modelgraphs -->
<g id="node3" class="node">
<title>Modelgraphs</title>
<ellipse fill="none" stroke="black" cx="291" cy="-378" rx="57.69" ry="18"/>
<text text-anchor="middle" x="291" y="-374.3" font-family="Times,serif" font-size="14.00">Modelgraphs</text>
</g>
<!-- Modelgraphs&#45;&gt;Completeness -->
<g id="edge2" class="edge">
<title>Modelgraphs&#45;&gt;Completeness</title>
<path fill="none" stroke="black" d="M290.84,-359.85C290.49,-322.83 289.67,-235.18 289.26,-190.39"/>
<polygon fill="black" stroke="black" points="292.75,-190.2 289.16,-180.23 285.75,-190.26 292.75,-190.2"/>
</g>
<!-- Semantics -->
<g id="node4" class="node">
<title>Semantics</title>
<ellipse fill="none" stroke="black" cx="370" cy="-666" rx="47.39" ry="18"/>
<text text-anchor="middle" x="370" y="-662.3" font-family="Times,serif" font-size="14.00">Semantics</text>
</g>
<!-- Semantics&#45;&gt;Modelgraphs -->
<g id="edge16" class="edge">
<title>Semantics&#45;&gt;Modelgraphs</title>
<path fill="none" stroke="black" d="M402.62,-652.76C421.61,-644.07 444.58,-630.63 459,-612 509.29,-547.04 551.48,-496.81 501,-432 483.05,-408.96 409.57,-394.37 354.55,-386.45"/>
<polygon fill="black" stroke="black" points="354.9,-382.97 344.51,-385.05 353.93,-389.9 354.9,-382.97"/>
</g>
<!-- Discon -->
<g id="node5" class="node">
<title>Discon</title>
<ellipse fill="none" stroke="black" cx="272" cy="-594" rx="36" ry="18"/>
<text text-anchor="middle" x="272" y="-590.3" font-family="Times,serif" font-size="14.00">Discon</text>
</g>
<!-- Semantics&#45;&gt;Discon -->
<g id="edge3" class="edge">
<title>Semantics&#45;&gt;Discon</title>
<path fill="none" stroke="black" d="M348.74,-649.81C334.49,-639.63 315.57,-626.12 300.09,-615.06"/>
<polygon fill="black" stroke="black" points="302.06,-612.17 291.89,-609.21 297.99,-617.87 302.06,-612.17"/>
</g>
<!-- Examples -->
<g id="node9" class="node">
<title>Examples</title>
<ellipse fill="none" stroke="black" cx="446" cy="-450" rx="46.29" ry="18"/>
<text text-anchor="middle" x="446" y="-446.3" font-family="Times,serif" font-size="14.00">Examples</text>
</g>
<!-- Semantics&#45;&gt;Examples -->
<g id="edge6" class="edge">
<title>Semantics&#45;&gt;Examples</title>
<path fill="none" stroke="black" d="M396.45,-651C411.2,-641.83 428.64,-628.5 439,-612 464.64,-571.16 458.93,-512.34 452.46,-478.26"/>
<polygon fill="black" stroke="black" points="455.82,-477.2 450.37,-468.11 448.96,-478.61 455.82,-477.2"/>
</g>
<!-- SemQuot -->
<g id="node21" class="node">
<title>SemQuot</title>
<ellipse fill="none" stroke="black" cx="370" cy="-594" rx="44.39" ry="18"/>
<text text-anchor="middle" x="370" y="-590.3" font-family="Times,serif" font-size="14.00">SemQuot</text>
</g>
<!-- Semantics&#45;&gt;SemQuot -->
<g id="edge21" class="edge">
<title>Semantics&#45;&gt;SemQuot</title>
<path fill="none" stroke="black" d="M370,-647.7C370,-639.98 370,-630.71 370,-622.11"/>
<polygon fill="black" stroke="black" points="373.5,-622.1 370,-612.1 366.5,-622.1 373.5,-622.1"/>
</g>
<!-- Substitution -->
<g id="node23" class="node">
<title>Substitution</title>
<ellipse fill="none" stroke="black" cx="320" cy="-522" rx="53.09" ry="18"/>
<text text-anchor="middle" x="320" y="-518.3" font-family="Times,serif" font-size="14.00">Substitution</text>
</g>
<!-- Semantics&#45;&gt;Substitution -->
<g id="edge26" class="edge">
<title>Semantics&#45;&gt;Substitution</title>
<path fill="none" stroke="black" d="M391.99,-649.82C403.58,-640.43 416.68,-627.27 423,-612 429.12,-597.22 431.33,-589.66 423,-576 411.57,-557.26 391.16,-544.87 371.51,-536.82"/>
<polygon fill="black" stroke="black" points="372.56,-533.47 361.97,-533.2 370.08,-540.02 372.56,-533.47"/>
</g>
<!-- Discon&#45;&gt;Substitution -->
<g id="edge27" class="edge">
<title>Discon&#45;&gt;Substitution</title>
<path fill="none" stroke="black" d="M283.13,-576.76C288.99,-568.23 296.29,-557.58 302.84,-548.02"/>
<polygon fill="black" stroke="black" points="305.83,-549.86 308.59,-539.63 300.05,-545.9 305.83,-549.86"/>
</g>
<!-- Vocab -->
<g id="node6" class="node">
<title>Vocab</title>
<ellipse fill="none" stroke="black" cx="271" cy="-666" rx="32.49" ry="18"/>
<text text-anchor="middle" x="271" y="-662.3" font-family="Times,serif" font-size="14.00">Vocab</text>
</g>
<!-- Vocab&#45;&gt;Discon -->
<g id="edge4" class="edge">
<title>Vocab&#45;&gt;Discon</title>
<path fill="none" stroke="black" d="M271.25,-647.7C271.36,-639.98 271.49,-630.71 271.61,-622.11"/>
<polygon fill="black" stroke="black" points="275.11,-622.15 271.76,-612.1 268.11,-622.05 275.11,-622.15"/>
</g>
<!-- Fresh -->
<g id="node13" class="node">
<title>Fresh</title>
<ellipse fill="none" stroke="black" cx="218" cy="-522" rx="30.59" ry="18"/>
<text text-anchor="middle" x="218" y="-518.3" font-family="Times,serif" font-size="14.00">Fresh</text>
</g>
<!-- Vocab&#45;&gt;Fresh -->
<g id="edge9" class="edge">
<title>Vocab&#45;&gt;Fresh</title>
<path fill="none" stroke="black" d="M254.33,-649.99C244.61,-640.2 233.1,-626.56 227,-612 218.81,-592.46 216.79,-568.46 216.7,-550.31"/>
<polygon fill="black" stroke="black" points="220.2,-550.17 216.84,-540.12 213.2,-550.07 220.2,-550.17"/>
</g>
<!-- UnfoldDia -->
<g id="node7" class="node">
<title>UnfoldDia</title>
<ellipse fill="none" stroke="black" cx="334" cy="-450" rx="48.19" ry="18"/>
<text text-anchor="middle" x="334" y="-446.3" font-family="Times,serif" font-size="14.00">UnfoldDia</text>
</g>
<!-- UnfoldDia&#45;&gt;Modelgraphs -->
<g id="edge18" class="edge">
<title>UnfoldDia&#45;&gt;Modelgraphs</title>
<path fill="none" stroke="black" d="M323.59,-432.05C318.52,-423.8 312.32,-413.7 306.69,-404.54"/>
<polygon fill="black" stroke="black" points="309.53,-402.48 301.31,-395.79 303.57,-406.14 309.53,-402.48"/>
</g>
<!-- Distance -->
<g id="node8" class="node">
<title>Distance</title>
<ellipse fill="none" stroke="black" cx="377" cy="-234" rx="41.69" ry="18"/>
<text text-anchor="middle" x="377" y="-230.3" font-family="Times,serif" font-size="14.00">Distance</text>
</g>
<!-- UnfoldDia&#45;&gt;Distance -->
<g id="edge5" class="edge">
<title>UnfoldDia&#45;&gt;Distance</title>
<path fill="none" stroke="black" d="M343.16,-432.31C348.35,-422.12 354.48,-408.65 358,-396 370.74,-350.2 374.94,-294.75 376.32,-262.32"/>
<polygon fill="black" stroke="black" points="379.82,-262.38 376.69,-252.25 372.83,-262.12 379.82,-262.38"/>
</g>
<!-- LocalTableau -->
<g id="node18" class="node">
<title>LocalTableau</title>
<ellipse fill="none" stroke="black" cx="156" cy="-378" rx="59.29" ry="18"/>
<text text-anchor="middle" x="156" y="-374.3" font-family="Times,serif" font-size="14.00">LocalTableau</text>
</g>
<!-- UnfoldDia&#45;&gt;LocalTableau -->
<g id="edge13" class="edge">
<title>UnfoldDia&#45;&gt;LocalTableau</title>
<path fill="none" stroke="black" d="M302.18,-436.49C273.72,-425.29 231.74,-408.79 200.06,-396.33"/>
<polygon fill="black" stroke="black" points="201.17,-393 190.59,-392.6 198.61,-399.52 201.17,-393"/>
</g>
<!-- Distance&#45;&gt;PartInterpolation -->
<g id="edge20" class="edge">
<title>Distance&#45;&gt;PartInterpolation</title>
<path fill="none" stroke="black" d="M374.56,-215.96C371.69,-197.81 366.24,-168.4 358,-144 355.01,-135.13 350.94,-125.79 346.95,-117.47"/>
<polygon fill="black" stroke="black" points="349.95,-115.65 342.38,-108.25 343.68,-118.76 349.95,-115.65"/>
</g>
<!-- Star -->
<g id="node10" class="node">
<title>Star</title>
<ellipse fill="none" stroke="black" cx="418" cy="-522" rx="27" ry="18"/>
<text text-anchor="middle" x="418" y="-518.3" font-family="Times,serif" font-size="14.00">Star</text>
</g>
<!-- Star&#45;&gt;UnfoldDia -->
<g id="edge35" class="edge">
<title>Star&#45;&gt;UnfoldDia</title>
<path fill="none" stroke="black" d="M401.8,-507.5C390.2,-497.83 374.3,-484.58 360.81,-473.34"/>
<polygon fill="black" stroke="black" points="362.71,-470.37 352.79,-466.65 358.23,-475.75 362.71,-470.37"/>
</g>
<!-- Star&#45;&gt;Examples -->
<g id="edge7" class="edge">
<title>Star&#45;&gt;Examples</title>
<path fill="none" stroke="black" d="M424.64,-504.41C427.87,-496.34 431.83,-486.43 435.46,-477.35"/>
<polygon fill="black" stroke="black" points="438.75,-478.54 439.22,-467.96 432.25,-475.94 438.75,-478.54"/>
</g>
<!-- UnfoldBox -->
<g id="node17" class="node">
<title>UnfoldBox</title>
<ellipse fill="none" stroke="black" cx="218" cy="-450" rx="50.09" ry="18"/>
<text text-anchor="middle" x="218" y="-446.3" font-family="Times,serif" font-size="14.00">UnfoldBox</text>
</g>
<!-- Star&#45;&gt;UnfoldBox -->
<g id="edge31" class="edge">
<title>Star&#45;&gt;UnfoldBox</title>
<path fill="none" stroke="black" d="M396.88,-510.47C392.04,-508.22 386.88,-505.93 382,-504 343.55,-488.78 298.82,-474.55 265.79,-464.67"/>
<polygon fill="black" stroke="black" points="266.52,-461.24 255.94,-461.75 264.53,-467.95 266.52,-461.24"/>
</g>
<!-- Syntax -->
<g id="node11" class="node">
<title>Syntax</title>
<ellipse fill="none" stroke="black" cx="259" cy="-810" rx="35.19" ry="18"/>
<text text-anchor="middle" x="259" y="-806.3" font-family="Times,serif" font-size="14.00">Syntax</text>
</g>
<!-- Syntax&#45;&gt;Semantics -->
<g id="edge22" class="edge">
<title>Syntax&#45;&gt;Semantics</title>
<path fill="none" stroke="black" d="M268.06,-792.5C278.53,-774.05 296.8,-743.64 316,-720 324.63,-709.38 335.17,-698.63 344.65,-689.61"/>
<polygon fill="black" stroke="black" points="347.04,-692.17 351.96,-682.79 342.26,-687.05 347.04,-692.17"/>
</g>
<!-- Syntax&#45;&gt;Vocab -->
<g id="edge36" class="edge">
<title>Syntax&#45;&gt;Vocab</title>
<path fill="none" stroke="black" d="M260.45,-791.87C262.49,-767.67 266.25,-723.21 268.69,-694.39"/>
<polygon fill="black" stroke="black" points="272.19,-694.45 269.55,-684.19 265.22,-693.86 272.19,-694.45"/>
</g>
<!-- FischerLadner -->
<g id="node12" class="node">
<title>FischerLadner</title>
<ellipse fill="none" stroke="black" cx="159" cy="-666" rx="61.99" ry="18"/>
<text text-anchor="middle" x="159" y="-662.3" font-family="Times,serif" font-size="14.00">FischerLadner</text>
</g>
<!-- Syntax&#45;&gt;FischerLadner -->
<g id="edge8" class="edge">
<title>Syntax&#45;&gt;FischerLadner</title>
<path fill="none" stroke="black" d="M247.53,-792.71C230.23,-768.15 197.33,-721.43 176.88,-692.38"/>
<polygon fill="black" stroke="black" points="179.58,-690.14 170.96,-683.98 173.85,-694.17 179.58,-690.14"/>
</g>
<!-- LoadSplit -->
<g id="node16" class="node">
<title>LoadSplit</title>
<ellipse fill="none" stroke="black" cx="49" cy="-306" rx="45.49" ry="18"/>
<text text-anchor="middle" x="49" y="-302.3" font-family="Times,serif" font-size="14.00">LoadSplit</text>
</g>
<!-- Syntax&#45;&gt;LoadSplit -->
<g id="edge11" class="edge">
<title>Syntax&#45;&gt;LoadSplit</title>
<path fill="none" stroke="black" d="M224.61,-806.01C154.15,-797.8 0,-768.28 0,-667 0,-667 0,-667 0,-449 0,-406.54 19.82,-360.66 34.25,-332.87"/>
<polygon fill="black" stroke="black" points="37.45,-334.31 39.08,-323.84 31.28,-331 37.45,-334.31"/>
</g>
<!-- Measures -->
<g id="node20" class="node">
<title>Measures</title>
<ellipse fill="none" stroke="black" cx="370" cy="-738" rx="44.69" ry="18"/>
<text text-anchor="middle" x="370" y="-734.3" font-family="Times,serif" font-size="14.00">Measures</text>
</g>
<!-- Syntax&#45;&gt;Measures -->
<g id="edge15" class="edge">
<title>Syntax&#45;&gt;Measures</title>
<path fill="none" stroke="black" d="M280.4,-795.5C296.75,-785.19 319.55,-770.82 338.05,-759.15"/>
<polygon fill="black" stroke="black" points="340.16,-761.96 346.75,-753.66 336.42,-756.04 340.16,-761.96"/>
</g>
<!-- FischerLadner&#45;&gt;UnfoldBox -->
<g id="edge32" class="edge">
<title>FischerLadner&#45;&gt;UnfoldBox</title>
<path fill="none" stroke="black" d="M158.15,-647.83C157.26,-617.59 158.17,-553.36 178,-504 182.17,-493.62 188.92,-483.5 195.7,-474.93"/>
<polygon fill="black" stroke="black" points="198.41,-477.15 202.13,-467.23 193.03,-472.67 198.41,-477.15"/>
</g>
<!-- Fresh&#45;&gt;UnfoldDia -->
<g id="edge34" class="edge">
<title>Fresh&#45;&gt;UnfoldDia</title>
<path fill="none" stroke="black" d="M238.74,-508.49C256.03,-498.05 280.99,-482.99 301.02,-470.9"/>
<polygon fill="black" stroke="black" points="303.08,-473.75 309.83,-465.59 299.46,-467.76 303.08,-473.75"/>
</g>
<!-- Fresh&#45;&gt;UnfoldBox -->
<g id="edge30" class="edge">
<title>Fresh&#45;&gt;UnfoldBox</title>
<path fill="none" stroke="black" d="M218,-503.7C218,-495.98 218,-486.71 218,-478.11"/>
<polygon fill="black" stroke="black" points="221.5,-478.1 218,-468.1 214.5,-478.1 221.5,-478.1"/>
</g>
<!-- Interpolation -->
<g id="node15" class="node">
<title>Interpolation</title>
<ellipse fill="none" stroke="black" cx="333" cy="-18" rx="55.79" ry="18"/>
<text text-anchor="middle" x="333" y="-14.3" font-family="Times,serif" font-size="14.00">Interpolation</text>
</g>
<!-- PartInterpolation&#45;&gt;Interpolation -->
<g id="edge10" class="edge">
<title>PartInterpolation&#45;&gt;Interpolation</title>
<path fill="none" stroke="black" d="M333,-71.7C333,-63.98 333,-54.71 333,-46.11"/>
<polygon fill="black" stroke="black" points="336.5,-46.1 333,-36.1 329.5,-46.1 336.5,-46.1"/>
</g>
<!-- LoadSplit&#45;&gt;Soundness -->
<g id="edge25" class="edge">
<title>LoadSplit&#45;&gt;Soundness</title>
<path fill="none" stroke="black" d="M71.43,-290.33C86.88,-280.22 107.61,-266.66 124.68,-255.49"/>
<polygon fill="black" stroke="black" points="126.78,-258.3 133.23,-249.9 122.95,-252.44 126.78,-258.3"/>
</g>
<!-- UnfoldBox&#45;&gt;Modelgraphs -->
<g id="edge17" class="edge">
<title>UnfoldBox&#45;&gt;Modelgraphs</title>
<path fill="none" stroke="black" d="M234.93,-432.76C244.35,-423.73 256.25,-412.33 266.65,-402.35"/>
<polygon fill="black" stroke="black" points="269.11,-404.84 273.91,-395.39 264.27,-399.78 269.11,-404.84"/>
</g>
<!-- UnfoldBox&#45;&gt;LocalTableau -->
<g id="edge12" class="edge">
<title>UnfoldBox&#45;&gt;LocalTableau</title>
<path fill="none" stroke="black" d="M203.31,-432.41C195.59,-423.69 185.98,-412.85 177.44,-403.21"/>
<polygon fill="black" stroke="black" points="179.84,-400.64 170.59,-395.47 174.6,-405.28 179.84,-400.64"/>
</g>
<!-- Tableau -->
<g id="node22" class="node">
<title>Tableau</title>
<ellipse fill="none" stroke="black" cx="156" cy="-306" rx="38.99" ry="18"/>
<text text-anchor="middle" x="156" y="-302.3" font-family="Times,serif" font-size="14.00">Tableau</text>
</g>
<!-- LocalTableau&#45;&gt;Tableau -->
<g id="edge28" class="edge">
<title>LocalTableau&#45;&gt;Tableau</title>
<path fill="none" stroke="black" d="M156,-359.7C156,-351.98 156,-342.71 156,-334.11"/>
<polygon fill="black" stroke="black" points="159.5,-334.1 156,-324.1 152.5,-334.1 159.5,-334.1"/>
</g>
<!-- MultisetOrder -->
<g id="node19" class="node">
<title>MultisetOrder</title>
<ellipse fill="none" stroke="black" cx="89" cy="-450" rx="61.19" ry="18"/>
<text text-anchor="middle" x="89" y="-446.3" font-family="Times,serif" font-size="14.00">MultisetOrder</text>
</g>
<!-- MultisetOrder&#45;&gt;LocalTableau -->
<g id="edge14" class="edge">
<title>MultisetOrder&#45;&gt;LocalTableau</title>
<path fill="none" stroke="black" d="M104.88,-432.41C113.31,-423.61 123.81,-412.63 133.11,-402.92"/>
<polygon fill="black" stroke="black" points="135.85,-405.11 140.24,-395.47 130.79,-400.27 135.85,-405.11"/>
</g>
<!-- Measures&#45;&gt;Semantics -->
<g id="edge23" class="edge">
<title>Measures&#45;&gt;Semantics</title>
<path fill="none" stroke="black" d="M370,-719.7C370,-711.98 370,-702.71 370,-694.11"/>
<polygon fill="black" stroke="black" points="373.5,-694.1 370,-684.1 366.5,-694.1 373.5,-694.1"/>
</g>
<!-- Tableau&#45;&gt;Soundness -->
<g id="edge24" class="edge">
<title>Tableau&#45;&gt;Soundness</title>
<path fill="none" stroke="black" d="M156,-287.7C156,-279.98 156,-270.71 156,-262.11"/>
<polygon fill="black" stroke="black" points="159.5,-262.1 156,-252.1 152.5,-262.1 159.5,-262.1"/>
</g>
<!-- Substitution&#45;&gt;UnfoldDia -->
<g id="edge33" class="edge">
<title>Substitution&#45;&gt;UnfoldDia</title>
<path fill="none" stroke="black" d="M323.46,-503.7C325,-495.98 326.86,-486.71 328.58,-478.11"/>
<polygon fill="black" stroke="black" points="332.05,-478.6 330.58,-468.1 325.19,-477.22 332.05,-478.6"/>
</g>
<!-- Substitution&#45;&gt;UnfoldBox -->
<g id="edge29" class="edge">
<title>Substitution&#45;&gt;UnfoldBox</title>
<path fill="none" stroke="black" d="M297.62,-505.64C283.27,-495.79 264.45,-482.88 248.71,-472.08"/>
<polygon fill="black" stroke="black" points="250.56,-469.1 240.33,-466.33 246.6,-474.87 250.56,-469.1"/>
</g>
</g>
</svg>
