<?xml version="1.0" encoding="UTF-8" standalone="no"?>
<!DOCTYPE svg PUBLIC "-//W3C//DTD SVG 1.1//EN"
 "http://www.w3.org/Graphics/SVG/1.1/DTD/svg11.dtd">
<!-- Generated by graphviz version 2.43.0 (0)
 -->
<!-- Title: %3 Pages: 1 -->
<svg width="1169pt" height="548pt"
 viewBox="0.00 0.00 1168.79 548.00" xmlns="http://www.w3.org/2000/svg" xmlns:xlink="http://www.w3.org/1999/xlink">
<g id="graph0" class="graph" transform="scale(1 1) rotate(0) translate(4 544)">
<title>%3</title>
<polygon fill="white" stroke="transparent" points="-4,4 -4,-544 1164.79,-544 1164.79,4 -4,4"/>
<!-- Syntax -->
<g id="node1" class="node">
<title>Syntax</title>
<ellipse fill="none" stroke="black" cx="526.5" cy="-522" rx="35.19" ry="18"/>
<text text-anchor="middle" x="526.5" y="-518.3" font-family="Times,serif" font-size="14.00">Syntax</text>
</g>
<!-- DagSyntax -->
<g id="node2" class="node">
<title>DagSyntax</title>
<ellipse fill="none" stroke="black" cx="432.5" cy="-450" rx="50.09" ry="18"/>
<text text-anchor="middle" x="432.5" y="-446.3" font-family="Times,serif" font-size="14.00">DagSyntax</text>
</g>
<!-- Syntax&#45;&gt;DagSyntax -->
<g id="edge1" class="edge">
<title>Syntax&#45;&gt;DagSyntax</title>
<path fill="none" stroke="black" d="M507.47,-506.83C494.38,-497.08 476.73,-483.94 461.84,-472.85"/>
<polygon fill="black" stroke="black" points="463.56,-469.77 453.45,-466.61 459.38,-475.39 463.56,-469.77"/>
</g>
<!-- DagTableau -->
<g id="node3" class="node">
<title>DagTableau</title>
<ellipse fill="none" stroke="black" cx="329.5" cy="-234" rx="53.89" ry="18"/>
<text text-anchor="middle" x="329.5" y="-230.3" font-family="Times,serif" font-size="14.00">DagTableau</text>
</g>
<!-- Syntax&#45;&gt;DagTableau -->
<g id="edge2" class="edge">
<title>Syntax&#45;&gt;DagTableau</title>
<path fill="none" stroke="black" d="M492.18,-517.89C428.81,-511.56 296.6,-495.4 260.5,-468 191.73,-415.81 138.27,-358.92 187.5,-288 205.76,-261.68 238.77,-248.41 268.36,-241.73"/>
<polygon fill="black" stroke="black" points="269.15,-245.14 278.24,-239.7 267.75,-238.28 269.15,-245.14"/>
</g>
<!-- Discon -->
<g id="node4" class="node">
<title>Discon</title>
<ellipse fill="none" stroke="black" cx="232.5" cy="-306" rx="36" ry="18"/>
<text text-anchor="middle" x="232.5" y="-302.3" font-family="Times,serif" font-size="14.00">Discon</text>
</g>
<!-- Syntax&#45;&gt;Discon -->
<g id="edge8" class="edge">
<title>Syntax&#45;&gt;Discon</title>
<path fill="none" stroke="black" d="M492.92,-516.46C452.07,-509.96 381.84,-495.62 327.5,-468 282.14,-444.95 261.94,-441.15 238.5,-396 228.65,-377.04 227.68,-352.68 228.87,-334.23"/>
<polygon fill="black" stroke="black" points="232.36,-334.42 229.77,-324.15 225.39,-333.79 232.36,-334.42"/>
</g>
<!-- Semantics -->
<g id="node5" class="node">
<title>Semantics</title>
<ellipse fill="none" stroke="black" cx="599.5" cy="-378" rx="47.39" ry="18"/>
<text text-anchor="middle" x="599.5" y="-374.3" font-family="Times,serif" font-size="14.00">Semantics</text>
</g>
<!-- Syntax&#45;&gt;Semantics -->
<g id="edge32" class="edge">
<title>Syntax&#45;&gt;Semantics</title>
<path fill="none" stroke="black" d="M527.23,-503.92C528.68,-485.21 532.94,-454.85 545.5,-432 551.87,-420.4 561.6,-409.72 571.05,-401.03"/>
<polygon fill="black" stroke="black" points="573.61,-403.44 578.84,-394.22 569.01,-398.17 573.61,-403.44"/>
</g>
<!-- Examples -->
<g id="node8" class="node">
<title>Examples</title>
<ellipse fill="none" stroke="black" cx="806.5" cy="-306" rx="46.29" ry="18"/>
<text text-anchor="middle" x="806.5" y="-302.3" font-family="Times,serif" font-size="14.00">Examples</text>
</g>
<!-- Syntax&#45;&gt;Examples -->
<g id="edge10" class="edge">
<title>Syntax&#45;&gt;Examples</title>
<path fill="none" stroke="black" d="M555.26,-511.46C581.69,-502.13 621.49,-486.63 653.5,-468 698.68,-441.71 710.77,-434.16 746.5,-396 764.59,-376.68 781.07,-351.41 792.16,-332.73"/>
<polygon fill="black" stroke="black" points="795.3,-334.3 797.3,-323.89 789.25,-330.78 795.3,-334.3"/>
</g>
<!-- Vocab -->
<g id="node9" class="node">
<title>Vocab</title>
<ellipse fill="none" stroke="black" cx="32.5" cy="-234" rx="32.49" ry="18"/>
<text text-anchor="middle" x="32.5" y="-230.3" font-family="Times,serif" font-size="14.00">Vocab</text>
</g>
<!-- Syntax&#45;&gt;Vocab -->
<g id="edge44" class="edge">
<title>Syntax&#45;&gt;Vocab</title>
<path fill="none" stroke="black" d="M491.58,-519.21C391.48,-513.74 108.71,-495.97 78.5,-468 20.83,-414.62 23.53,-311.58 28.68,-262.41"/>
<polygon fill="black" stroke="black" points="32.18,-262.56 29.86,-252.22 25.23,-261.75 32.18,-262.56"/>
</g>
<!-- Loading -->
<g id="node12" class="node">
<title>Loading</title>
<ellipse fill="none" stroke="black" cx="1120.5" cy="-450" rx="40.09" ry="18"/>
<text text-anchor="middle" x="1120.5" y="-446.3" font-family="Times,serif" font-size="14.00">Loading</text>
</g>
<!-- Syntax&#45;&gt;Loading -->
<g id="edge16" class="edge">
<title>Syntax&#45;&gt;Loading</title>
<path fill="none" stroke="black" d="M561.62,-520.07C648.23,-517.22 878.67,-506.35 1066.5,-468 1070.95,-467.09 1075.56,-465.95 1080.12,-464.7"/>
<polygon fill="black" stroke="black" points="1081.33,-468 1089.95,-461.83 1079.36,-461.28 1081.33,-468"/>
</g>
<!-- LocalTableau -->
<g id="node13" class="node">
<title>LocalTableau</title>
<ellipse fill="none" stroke="black" cx="329.5" cy="-162" rx="59.29" ry="18"/>
<text text-anchor="middle" x="329.5" y="-158.3" font-family="Times,serif" font-size="14.00">LocalTableau</text>
</g>
<!-- Syntax&#45;&gt;LocalTableau -->
<g id="edge17" class="edge">
<title>Syntax&#45;&gt;LocalTableau</title>
<path fill="none" stroke="black" d="M491.22,-520.29C431.66,-517.96 308.39,-508.23 213.5,-468 152.03,-441.94 92.5,-445.76 92.5,-379 92.5,-379 92.5,-379 92.5,-305 92.5,-223.39 197.17,-187.54 267.39,-172.67"/>
<polygon fill="black" stroke="black" points="268.38,-176.04 277.49,-170.62 266.99,-169.18 268.38,-176.04"/>
</g>
<!-- Measures -->
<g id="node14" class="node">
<title>Measures</title>
<ellipse fill="none" stroke="black" cx="599.5" cy="-450" rx="44.69" ry="18"/>
<text text-anchor="middle" x="599.5" y="-446.3" font-family="Times,serif" font-size="14.00">Measures</text>
</g>
<!-- Syntax&#45;&gt;Measures -->
<g id="edge24" class="edge">
<title>Syntax&#45;&gt;Measures</title>
<path fill="none" stroke="black" d="M542.34,-505.81C552.08,-496.47 564.75,-484.31 575.69,-473.83"/>
<polygon fill="black" stroke="black" points="578.13,-476.34 582.93,-466.89 573.29,-471.28 578.13,-476.34"/>
</g>
<!-- Setsimp -->
<g id="node15" class="node">
<title>Setsimp</title>
<ellipse fill="none" stroke="black" cx="287.5" cy="-378" rx="39.79" ry="18"/>
<text text-anchor="middle" x="287.5" y="-374.3" font-family="Times,serif" font-size="14.00">Setsimp</text>
</g>
<!-- Syntax&#45;&gt;Setsimp -->
<g id="edge34" class="edge">
<title>Syntax&#45;&gt;Setsimp</title>
<path fill="none" stroke="black" d="M494.39,-514.51C462.01,-506.94 411.53,-492.27 373.5,-468 346.4,-450.71 321.6,-423.22 305.67,-403.37"/>
<polygon fill="black" stroke="black" points="308.33,-401.09 299.4,-395.38 302.82,-405.41 308.33,-401.09"/>
</g>
<!-- Modelgraphs -->
<g id="node16" class="node">
<title>Modelgraphs</title>
<ellipse fill="none" stroke="black" cx="928.5" cy="-306" rx="57.69" ry="18"/>
<text text-anchor="middle" x="928.5" y="-302.3" font-family="Times,serif" font-size="14.00">Modelgraphs</text>
</g>
<!-- Syntax&#45;&gt;Modelgraphs -->
<g id="edge25" class="edge">
<title>Syntax&#45;&gt;Modelgraphs</title>
<path fill="none" stroke="black" d="M561.12,-518.85C632.78,-512.58 798.57,-488.35 893.5,-396 910.55,-379.41 919.47,-353.52 924.03,-333.93"/>
<polygon fill="black" stroke="black" points="927.47,-334.57 926.09,-324.07 920.62,-333.15 927.47,-334.57"/>
</g>
<!-- Soundness -->
<g id="node17" class="node">
<title>Soundness</title>
<ellipse fill="none" stroke="black" cx="689.5" cy="-18" rx="48.19" ry="18"/>
<text text-anchor="middle" x="689.5" y="-14.3" font-family="Times,serif" font-size="14.00">Soundness</text>
</g>
<!-- Syntax&#45;&gt;Soundness -->
<g id="edge36" class="edge">
<title>Syntax&#45;&gt;Soundness</title>
<path fill="none" stroke="black" d="M561.19,-518.99C648.07,-513.58 872.97,-497.09 941.5,-468 999.7,-443.29 1052.5,-442.23 1052.5,-379 1052.5,-379 1052.5,-379 1052.5,-161 1052.5,-95.17 842.81,-47.38 742.18,-28.23"/>
<polygon fill="black" stroke="black" points="742.68,-24.77 732.21,-26.36 741.39,-31.65 742.68,-24.77"/>
</g>
<!-- Tableau -->
<g id="node18" class="node">
<title>Tableau</title>
<ellipse fill="none" stroke="black" cx="723.5" cy="-90" rx="38.99" ry="18"/>
<text text-anchor="middle" x="723.5" y="-86.3" font-family="Times,serif" font-size="14.00">Tableau</text>
</g>
<!-- Syntax&#45;&gt;Tableau -->
<g id="edge40" class="edge">
<title>Syntax&#45;&gt;Tableau</title>
<path fill="none" stroke="black" d="M561.2,-518.44C672.69,-509.29 1014.5,-473.52 1014.5,-379 1014.5,-379 1014.5,-379 1014.5,-233 1014.5,-126.53 855.21,-99.88 772.34,-93.21"/>
<polygon fill="black" stroke="black" points="772.37,-89.71 762.14,-92.46 771.86,-96.69 772.37,-89.71"/>
</g>
<!-- DagSyntax&#45;&gt;DagTableau -->
<g id="edge7" class="edge">
<title>DagSyntax&#45;&gt;DagTableau</title>
<path fill="none" stroke="black" d="M413.34,-433.22C388.73,-411.57 347.2,-370.08 330.5,-324 323.31,-304.18 323.5,-280.2 325.25,-262.13"/>
<polygon fill="black" stroke="black" points="328.75,-262.33 326.44,-251.99 321.79,-261.51 328.75,-262.33"/>
</g>
<!-- DagTableau&#45;&gt;LocalTableau -->
<g id="edge22" class="edge">
<title>DagTableau&#45;&gt;LocalTableau</title>
<path fill="none" stroke="black" d="M329.5,-215.7C329.5,-207.98 329.5,-198.71 329.5,-190.11"/>
<polygon fill="black" stroke="black" points="333,-190.1 329.5,-180.1 326,-190.1 333,-190.1"/>
</g>
<!-- Discon&#45;&gt;DagTableau -->
<g id="edge3" class="edge">
<title>Discon&#45;&gt;DagTableau</title>
<path fill="none" stroke="black" d="M252.13,-290.83C265.77,-280.99 284.19,-267.69 299.64,-256.54"/>
<polygon fill="black" stroke="black" points="301.81,-259.3 307.87,-250.61 297.71,-253.62 301.81,-259.3"/>
</g>
<!-- Discon&#45;&gt;LocalTableau -->
<g id="edge21" class="edge">
<title>Discon&#45;&gt;LocalTableau</title>
<path fill="none" stroke="black" d="M236.25,-288.03C241.01,-269.16 250.58,-238.38 266.5,-216 274.88,-204.21 286.48,-193.46 297.45,-184.77"/>
<polygon fill="black" stroke="black" points="299.8,-187.38 305.64,-178.54 295.56,-181.8 299.8,-187.38"/>
</g>
<!-- Semantics&#45;&gt;DagTableau -->
<g id="edge4" class="edge">
<title>Semantics&#45;&gt;DagTableau</title>
<path fill="none" stroke="black" d="M553.81,-372.81C490.82,-366.11 381.84,-350.93 353.5,-324 336.78,-308.12 331.28,-281.91 329.66,-262.04"/>
<polygon fill="black" stroke="black" points="333.16,-261.84 329.13,-252.04 326.17,-262.21 333.16,-261.84"/>
</g>
<!-- Semantics&#45;&gt;Discon -->
<g id="edge9" class="edge">
<title>Semantics&#45;&gt;Discon</title>
<path fill="none" stroke="black" d="M557.89,-369.14C503.36,-358.83 404.75,-340.14 320.5,-324 305.86,-321.2 289.86,-318.11 275.57,-315.35"/>
<polygon fill="black" stroke="black" points="275.99,-311.86 265.51,-313.4 274.66,-318.74 275.99,-311.86"/>
</g>
<!-- Semantics&#45;&gt;Examples -->
<g id="edge11" class="edge">
<title>Semantics&#45;&gt;Examples</title>
<path fill="none" stroke="black" d="M633.68,-365.44C668.99,-353.5 724.23,-334.82 762.72,-321.8"/>
<polygon fill="black" stroke="black" points="764.26,-324.98 772.61,-318.46 762.01,-318.35 764.26,-324.98"/>
</g>
<!-- Interpolation -->
<g id="node10" class="node">
<title>Interpolation</title>
<ellipse fill="none" stroke="black" cx="329.5" cy="-18" rx="55.79" ry="18"/>
<text text-anchor="middle" x="329.5" y="-14.3" font-family="Times,serif" font-size="14.00">Interpolation</text>
</g>
<!-- Semantics&#45;&gt;Interpolation -->
<g id="edge14" class="edge">
<title>Semantics&#45;&gt;Interpolation</title>
<path fill="none" stroke="black" d="M601.54,-359.73C603.21,-341.64 604.55,-312.52 599.5,-288 592.46,-253.88 588.15,-244.77 568.5,-216 513.69,-135.8 417.22,-70.69 365.18,-39.31"/>
<polygon fill="black" stroke="black" points="366.69,-36.13 356.3,-34.02 363.11,-42.15 366.69,-36.13"/>
</g>
<!-- PartInterpolation -->
<g id="node11" class="node">
<title>PartInterpolation</title>
<ellipse fill="none" stroke="black" cx="329.5" cy="-90" rx="70.39" ry="18"/>
<text text-anchor="middle" x="329.5" y="-86.3" font-family="Times,serif" font-size="14.00">PartInterpolation</text>
</g>
<!-- Semantics&#45;&gt;PartInterpolation -->
<g id="edge30" class="edge">
<title>Semantics&#45;&gt;PartInterpolation</title>
<path fill="none" stroke="black" d="M597.61,-359.82C593.34,-328.13 580.36,-259.74 544.5,-216 501,-162.94 428.66,-127.59 380.05,-108.41"/>
<polygon fill="black" stroke="black" points="381.25,-105.12 370.66,-104.78 378.73,-111.65 381.25,-105.12"/>
</g>
<!-- Semantics&#45;&gt;LocalTableau -->
<g id="edge20" class="edge">
<title>Semantics&#45;&gt;LocalTableau</title>
<path fill="none" stroke="black" d="M588.18,-360.17C581.51,-349.92 573.1,-336.45 566.5,-324 541.89,-277.59 558.23,-250.36 518.5,-216 484.94,-186.98 436.65,-173.77 397.28,-167.8"/>
<polygon fill="black" stroke="black" points="397.6,-164.31 387.21,-166.39 396.63,-171.24 397.6,-164.31"/>
</g>
<!-- Semantics&#45;&gt;Modelgraphs -->
<g id="edge26" class="edge">
<title>Semantics&#45;&gt;Modelgraphs</title>
<path fill="none" stroke="black" d="M641.38,-369.18C693.22,-359.36 784.12,-341.63 861.5,-324 866.15,-322.94 870.98,-321.8 875.81,-320.63"/>
<polygon fill="black" stroke="black" points="876.81,-323.98 885.68,-318.2 875.13,-317.19 876.81,-323.98"/>
</g>
<!-- Semantics&#45;&gt;Soundness -->
<g id="edge39" class="edge">
<title>Semantics&#45;&gt;Soundness</title>
<path fill="none" stroke="black" d="M611.53,-360.51C618.46,-350.39 626.88,-336.92 632.5,-324 648.83,-286.43 656.5,-275.97 656.5,-235 656.5,-235 656.5,-235 656.5,-161 656.5,-119.97 669.73,-73.97 679.43,-45.74"/>
<polygon fill="black" stroke="black" points="682.78,-46.78 682.82,-36.19 676.18,-44.45 682.78,-46.78"/>
</g>
<!-- Semantics&#45;&gt;Tableau -->
<g id="edge42" class="edge">
<title>Semantics&#45;&gt;Tableau</title>
<path fill="none" stroke="black" d="M626.59,-363.09C641.74,-353.96 659.68,-340.63 670.5,-324 692.61,-290 711.86,-172.01 719.72,-118.17"/>
<polygon fill="black" stroke="black" points="723.23,-118.4 721.18,-108 716.3,-117.4 723.23,-118.4"/>
</g>
<!-- Star -->
<g id="node6" class="node">
<title>Star</title>
<ellipse fill="none" stroke="black" cx="825.5" cy="-378" rx="27" ry="18"/>
<text text-anchor="middle" x="825.5" y="-374.3" font-family="Times,serif" font-size="14.00">Star</text>
</g>
<!-- Star&#45;&gt;DagTableau -->
<g id="edge5" class="edge">
<title>Star&#45;&gt;DagTableau</title>
<path fill="none" stroke="black" d="M801.24,-370.05C724.08,-347.97 483.29,-279.03 378.75,-249.1"/>
<polygon fill="black" stroke="black" points="379.65,-245.72 369.07,-246.33 377.72,-252.45 379.65,-245.72"/>
</g>
<!-- Star&#45;&gt;Examples -->
<g id="edge12" class="edge">
<title>Star&#45;&gt;Examples</title>
<path fill="none" stroke="black" d="M820.9,-360.05C818.78,-352.26 816.22,-342.82 813.85,-334.08"/>
<polygon fill="black" stroke="black" points="817.18,-333.01 811.19,-324.28 810.43,-334.84 817.18,-333.01"/>
</g>
<!-- Star&#45;&gt;Modelgraphs -->
<g id="edge28" class="edge">
<title>Star&#45;&gt;Modelgraphs</title>
<path fill="none" stroke="black" d="M843.91,-364.49C858.6,-354.51 879.5,-340.3 896.86,-328.5"/>
<polygon fill="black" stroke="black" points="899.25,-331.11 905.56,-322.59 895.32,-325.32 899.25,-331.11"/>
</g>
<!-- Closure -->
<g id="node7" class="node">
<title>Closure</title>
<ellipse fill="none" stroke="black" cx="400.5" cy="-306" rx="38.19" ry="18"/>
<text text-anchor="middle" x="400.5" y="-302.3" font-family="Times,serif" font-size="14.00">Closure</text>
</g>
<!-- Closure&#45;&gt;DagTableau -->
<g id="edge6" class="edge">
<title>Closure&#45;&gt;DagTableau</title>
<path fill="none" stroke="black" d="M384.74,-289.46C375.54,-280.39 363.73,-268.75 353.4,-258.57"/>
<polygon fill="black" stroke="black" points="355.78,-256 346.2,-251.47 350.86,-260.98 355.78,-256"/>
</g>
<!-- Vocab&#45;&gt;Interpolation -->
<g id="edge13" class="edge">
<title>Vocab&#45;&gt;Interpolation</title>
<path fill="none" stroke="black" d="M49.64,-218.32C70.96,-200.25 108.67,-168.91 142.5,-144 195.04,-105.31 258.67,-63.87 296.52,-39.75"/>
<polygon fill="black" stroke="black" points="298.54,-42.61 305.11,-34.3 294.79,-36.71 298.54,-42.61"/>
</g>
<!-- Vocab&#45;&gt;PartInterpolation -->
<g id="edge29" class="edge">
<title>Vocab&#45;&gt;PartInterpolation</title>
<path fill="none" stroke="black" d="M56.3,-221.62C106.84,-197.46 225.38,-140.78 288.41,-110.65"/>
<polygon fill="black" stroke="black" points="290.15,-113.69 297.66,-106.22 287.13,-107.38 290.15,-113.69"/>
</g>
<!-- Vocab&#45;&gt;LocalTableau -->
<g id="edge23" class="edge">
<title>Vocab&#45;&gt;LocalTableau</title>
<path fill="none" stroke="black" d="M58.07,-222.8C64.66,-220.38 71.79,-217.94 78.5,-216 142.68,-197.47 217.82,-182.46 269.05,-173.2"/>
<polygon fill="black" stroke="black" points="269.73,-176.64 278.96,-171.43 268.5,-169.75 269.73,-176.64"/>
</g>
<!-- PartInterpolation&#45;&gt;Interpolation -->
<g id="edge15" class="edge">
<title>PartInterpolation&#45;&gt;Interpolation</title>
<path fill="none" stroke="black" d="M329.5,-71.7C329.5,-63.98 329.5,-54.71 329.5,-46.11"/>
<polygon fill="black" stroke="black" points="333,-46.1 329.5,-36.1 326,-46.1 333,-46.1"/>
</g>
<!-- LocalTableau&#45;&gt;PartInterpolation -->
<g id="edge31" class="edge">
<title>LocalTableau&#45;&gt;PartInterpolation</title>
<path fill="none" stroke="black" d="M329.5,-143.7C329.5,-135.98 329.5,-126.71 329.5,-118.11"/>
<polygon fill="black" stroke="black" points="333,-118.1 329.5,-108.1 326,-118.1 333,-118.1"/>
</g>
<!-- LocalTableau&#45;&gt;Soundness -->
<g id="edge38" class="edge">
<title>LocalTableau&#45;&gt;Soundness</title>
<path fill="none" stroke="black" d="M364.34,-147.26C431.08,-120.93 576.65,-63.51 648.17,-35.3"/>
<polygon fill="black" stroke="black" points="649.73,-38.45 657.75,-31.52 647.16,-31.94 649.73,-38.45"/>
</g>
<!-- LocalTableau&#45;&gt;Tableau -->
<g id="edge43" class="edge">
<title>LocalTableau&#45;&gt;Tableau</title>
<path fill="none" stroke="black" d="M379.66,-152.41C439.78,-142.07 543.56,-124.09 632.5,-108 647.26,-105.33 663.36,-102.35 677.85,-99.63"/>
<polygon fill="black" stroke="black" points="678.89,-103 688.08,-97.71 677.6,-96.12 678.89,-103"/>
</g>
<!-- Measures&#45;&gt;Semantics -->
<g id="edge33" class="edge">
<title>Measures&#45;&gt;Semantics</title>
<path fill="none" stroke="black" d="M599.5,-431.7C599.5,-423.98 599.5,-414.71 599.5,-406.11"/>
<polygon fill="black" stroke="black" points="603,-406.1 599.5,-396.1 596,-406.1 603,-406.1"/>
</g>
<!-- Measures&#45;&gt;LocalTableau -->
<g id="edge18" class="edge">
<title>Measures&#45;&gt;LocalTableau</title>
<path fill="none" stroke="black" d="M581.84,-433.26C570.56,-422.97 555.8,-409.06 543.5,-396 471.9,-319.99 466.28,-289.89 392.5,-216 381.95,-205.44 369.53,-194.68 358.52,-185.64"/>
<polygon fill="black" stroke="black" points="360.4,-182.66 350.43,-179.09 356,-188.1 360.4,-182.66"/>
</g>
<!-- Measures&#45;&gt;Setsimp -->
<g id="edge35" class="edge">
<title>Measures&#45;&gt;Setsimp</title>
<path fill="none" stroke="black" d="M561.24,-440.42C503.28,-427.41 393.49,-402.78 332.03,-388.99"/>
<polygon fill="black" stroke="black" points="332.75,-385.57 322.23,-386.79 331.22,-392.4 332.75,-385.57"/>
</g>
<!-- Measures&#45;&gt;Modelgraphs -->
<g id="edge27" class="edge">
<title>Measures&#45;&gt;Modelgraphs</title>
<path fill="none" stroke="black" d="M644.77,-449.35C700.02,-447.75 794.37,-438.32 861.5,-396 885.65,-380.77 904.22,-353.51 915.63,-333.16"/>
<polygon fill="black" stroke="black" points="918.85,-334.55 920.5,-324.09 912.68,-331.24 918.85,-334.55"/>
</g>
<!-- Measures&#45;&gt;Tableau -->
<g id="edge41" class="edge">
<title>Measures&#45;&gt;Tableau</title>
<path fill="none" stroke="black" d="M626.73,-435.5C665.64,-414.06 732.5,-368.31 732.5,-307 732.5,-307 732.5,-307 732.5,-233 732.5,-192.92 728.88,-146.59 726.23,-118.05"/>
<polygon fill="black" stroke="black" points="729.71,-117.65 725.28,-108.03 722.74,-118.31 729.71,-117.65"/>
</g>
<!-- Setsimp&#45;&gt;LocalTableau -->
<g id="edge19" class="edge">
<title>Setsimp&#45;&gt;LocalTableau</title>
<path fill="none" stroke="black" d="M253.24,-368.73C230.26,-361.21 201.68,-347.57 187.5,-324 179.25,-310.29 182.3,-303.13 187.5,-288 204.3,-239.03 254.25,-202.97 290.16,-182.49"/>
<polygon fill="black" stroke="black" points="291.9,-185.53 298.96,-177.62 288.51,-179.4 291.9,-185.53"/>
</g>
<!-- Tableau&#45;&gt;Soundness -->
<g id="edge37" class="edge">
<title>Tableau&#45;&gt;Soundness</title>
<path fill="none" stroke="black" d="M715.27,-72.05C711.3,-63.89 706.45,-53.91 702.04,-44.82"/>
<polygon fill="black" stroke="black" points="705.17,-43.25 697.65,-35.79 698.87,-46.31 705.17,-43.25"/>
</g>
</g>
</svg>
