<?xml version="1.0" encoding="UTF-8" standalone="no"?>
<!DOCTYPE svg PUBLIC "-//W3C//DTD SVG 1.1//EN"
 "http://www.w3.org/Graphics/SVG/1.1/DTD/svg11.dtd">
<!-- Generated by graphviz version 2.43.0 (0)
 -->
<!-- Title: %3 Pages: 1 -->
<svg width="568pt" height="836pt"
 viewBox="0.00 0.00 567.59 836.00" xmlns="http://www.w3.org/2000/svg" xmlns:xlink="http://www.w3.org/1999/xlink">
<g id="graph0" class="graph" transform="scale(1 1) rotate(0) translate(4 832)">
<title>%3</title>
<polygon fill="white" stroke="transparent" points="-4,4 -4,-832 563.59,-832 563.59,4 -4,4"/>
<!-- Soundness -->
<g id="node1" class="node">
<title>Soundness</title>
<ellipse fill="none" stroke="black" cx="249.1" cy="-234" rx="48.19" ry="18"/>
<text text-anchor="middle" x="249.1" y="-230.3" font-family="Times,serif" font-size="14.00">Soundness</text>
</g>
<!-- Completeness -->
<g id="node2" class="node">
<title>Completeness</title>
<ellipse fill="none" stroke="black" cx="225.1" cy="-162" rx="60.39" ry="18"/>
<text text-anchor="middle" x="225.1" y="-158.3" font-family="Times,serif" font-size="14.00">Completeness</text>
</g>
<!-- Soundness&#45;&gt;Completeness -->
<g id="edge1" class="edge">
<title>Soundness&#45;&gt;Completeness</title>
<path fill="none" stroke="black" d="M243.29,-216.05C240.58,-208.18 237.31,-198.62 234.28,-189.79"/>
<polygon fill="black" stroke="black" points="237.57,-188.6 231.02,-180.28 230.95,-190.87 237.57,-188.6"/>
</g>
<!-- PartInterpolation -->
<g id="node16" class="node">
<title>PartInterpolation</title>
<ellipse fill="none" stroke="black" cx="141.1" cy="-90" rx="70.39" ry="18"/>
<text text-anchor="middle" x="141.1" y="-86.3" font-family="Times,serif" font-size="14.00">PartInterpolation</text>
</g>
<!-- Completeness&#45;&gt;PartInterpolation -->
<g id="edge21" class="edge">
<title>Completeness&#45;&gt;PartInterpolation</title>
<path fill="none" stroke="black" d="M205.61,-144.76C194.67,-135.64 180.82,-124.1 168.77,-114.06"/>
<polygon fill="black" stroke="black" points="170.69,-111.1 160.76,-107.39 166.21,-116.48 170.69,-111.1"/>
</g>
<!-- TableauGame -->
<g id="node3" class="node">
<title>TableauGame</title>
<ellipse fill="none" stroke="black" cx="122.1" cy="-234" rx="60.39" ry="18"/>
<text text-anchor="middle" x="122.1" y="-230.3" font-family="Times,serif" font-size="14.00">TableauGame</text>
</g>
<!-- TableauGame&#45;&gt;Completeness -->
<g id="edge2" class="edge">
<title>TableauGame&#45;&gt;Completeness</title>
<path fill="none" stroke="black" d="M145.21,-217.29C159.52,-207.56 178.09,-194.95 193.72,-184.32"/>
<polygon fill="black" stroke="black" points="195.75,-187.17 202.06,-178.66 191.82,-181.38 195.75,-187.17"/>
</g>
<!-- Modelgraphs -->
<g id="node4" class="node">
<title>Modelgraphs</title>
<ellipse fill="none" stroke="black" cx="310.1" cy="-378" rx="57.69" ry="18"/>
<text text-anchor="middle" x="310.1" y="-374.3" font-family="Times,serif" font-size="14.00">Modelgraphs</text>
</g>
<!-- Modelgraphs&#45;&gt;Completeness -->
<g id="edge3" class="edge">
<title>Modelgraphs&#45;&gt;Completeness</title>
<path fill="none" stroke="black" d="M314.59,-359.67C321.63,-328.62 331.94,-262.41 306.1,-216 297.9,-201.29 283.71,-189.97 269.48,-181.65"/>
<polygon fill="black" stroke="black" points="271.12,-178.56 260.66,-176.85 267.77,-184.71 271.12,-178.56"/>
</g>
<!-- Semantics -->
<g id="node5" class="node">
<title>Semantics</title>
<ellipse fill="none" stroke="black" cx="310.1" cy="-666" rx="47.39" ry="18"/>
<text text-anchor="middle" x="310.1" y="-662.3" font-family="Times,serif" font-size="14.00">Semantics</text>
</g>
<!-- Semantics&#45;&gt;Modelgraphs -->
<g id="edge18" class="edge">
<title>Semantics&#45;&gt;Modelgraphs</title>
<path fill="none" stroke="black" d="M322.62,-648.21C329.46,-638.2 337.46,-624.95 342.1,-612 369.26,-536.18 393.92,-506.41 363.1,-432 358.23,-420.26 349.37,-409.76 340.26,-401.27"/>
<polygon fill="black" stroke="black" points="342.48,-398.56 332.64,-394.63 337.88,-403.84 342.48,-398.56"/>
</g>
<!-- Discon -->
<g id="node6" class="node">
<title>Discon</title>
<ellipse fill="none" stroke="black" cx="174.1" cy="-594" rx="36" ry="18"/>
<text text-anchor="middle" x="174.1" y="-590.3" font-family="Times,serif" font-size="14.00">Discon</text>
</g>
<!-- Semantics&#45;&gt;Discon -->
<g id="edge4" class="edge">
<title>Semantics&#45;&gt;Discon</title>
<path fill="none" stroke="black" d="M282.9,-651C261.24,-639.85 230.8,-624.19 207.63,-612.26"/>
<polygon fill="black" stroke="black" points="209,-609.03 198.5,-607.56 205.79,-615.25 209,-609.03"/>
</g>
<!-- Examples -->
<g id="node10" class="node">
<title>Examples</title>
<ellipse fill="none" stroke="black" cx="432.1" cy="-378" rx="46.29" ry="18"/>
<text text-anchor="middle" x="432.1" y="-374.3" font-family="Times,serif" font-size="14.00">Examples</text>
</g>
<!-- Semantics&#45;&gt;Examples -->
<g id="edge7" class="edge">
<title>Semantics&#45;&gt;Examples</title>
<path fill="none" stroke="black" d="M329.07,-649.47C339.99,-639.69 353.26,-626.24 362.1,-612 403.72,-544.87 421.89,-451.48 428.65,-406.02"/>
<polygon fill="black" stroke="black" points="432.13,-406.44 430.07,-396.05 425.2,-405.46 432.13,-406.44"/>
</g>
<!-- SemQuot -->
<g id="node22" class="node">
<title>SemQuot</title>
<ellipse fill="none" stroke="black" cx="272.1" cy="-594" rx="44.39" ry="18"/>
<text text-anchor="middle" x="272.1" y="-590.3" font-family="Times,serif" font-size="14.00">SemQuot</text>
</g>
<!-- Semantics&#45;&gt;SemQuot -->
<g id="edge23" class="edge">
<title>Semantics&#45;&gt;SemQuot</title>
<path fill="none" stroke="black" d="M300.9,-648.05C296.46,-639.89 291.05,-629.91 286.11,-620.82"/>
<polygon fill="black" stroke="black" points="289.06,-618.91 281.21,-611.79 282.9,-622.25 289.06,-618.91"/>
</g>
<!-- Substitution -->
<g id="node24" class="node">
<title>Substitution</title>
<ellipse fill="none" stroke="black" cx="207.1" cy="-522" rx="53.09" ry="18"/>
<text text-anchor="middle" x="207.1" y="-518.3" font-family="Times,serif" font-size="14.00">Substitution</text>
</g>
<!-- Semantics&#45;&gt;Substitution -->
<g id="edge28" class="edge">
<title>Semantics&#45;&gt;Substitution</title>
<path fill="none" stroke="black" d="M319.43,-648.17C328.6,-629.15 339.31,-597.97 325.1,-576 316.71,-563.04 283.31,-548.72 254.17,-538.23"/>
<polygon fill="black" stroke="black" points="255.09,-534.85 244.5,-534.83 252.77,-541.45 255.09,-534.85"/>
</g>
<!-- Discon&#45;&gt;Substitution -->
<g id="edge29" class="edge">
<title>Discon&#45;&gt;Substitution</title>
<path fill="none" stroke="black" d="M181.92,-576.41C185.76,-568.25 190.49,-558.22 194.81,-549.07"/>
<polygon fill="black" stroke="black" points="198,-550.49 199.1,-539.96 191.67,-547.51 198,-550.49"/>
</g>
<!-- Vocab -->
<g id="node7" class="node">
<title>Vocab</title>
<ellipse fill="none" stroke="black" cx="174.1" cy="-666" rx="32.49" ry="18"/>
<text text-anchor="middle" x="174.1" y="-662.3" font-family="Times,serif" font-size="14.00">Vocab</text>
</g>
<!-- Vocab&#45;&gt;Discon -->
<g id="edge5" class="edge">
<title>Vocab&#45;&gt;Discon</title>
<path fill="none" stroke="black" d="M174.1,-647.7C174.1,-639.98 174.1,-630.71 174.1,-622.11"/>
<polygon fill="black" stroke="black" points="177.6,-622.1 174.1,-612.1 170.6,-622.1 177.6,-622.1"/>
</g>
<!-- Fresh -->
<g id="node15" class="node">
<title>Fresh</title>
<ellipse fill="none" stroke="black" cx="105.1" cy="-522" rx="30.59" ry="18"/>
<text text-anchor="middle" x="105.1" y="-518.3" font-family="Times,serif" font-size="14.00">Fresh</text>
</g>
<!-- Vocab&#45;&gt;Fresh -->
<g id="edge11" class="edge">
<title>Vocab&#45;&gt;Fresh</title>
<path fill="none" stroke="black" d="M158.3,-650.12C148.59,-640.17 136.62,-626.32 129.1,-612 118.89,-592.58 112.74,-568.43 109.22,-550.19"/>
<polygon fill="black" stroke="black" points="112.64,-549.45 107.44,-540.22 105.75,-550.68 112.64,-549.45"/>
</g>
<!-- UnfoldDia -->
<g id="node8" class="node">
<title>UnfoldDia</title>
<ellipse fill="none" stroke="black" cx="48.1" cy="-450" rx="48.19" ry="18"/>
<text text-anchor="middle" x="48.1" y="-446.3" font-family="Times,serif" font-size="14.00">UnfoldDia</text>
</g>
<!-- UnfoldDia&#45;&gt;Modelgraphs -->
<g id="edge20" class="edge">
<title>UnfoldDia&#45;&gt;Modelgraphs</title>
<path fill="none" stroke="black" d="M84.22,-438.01C91.14,-435.96 98.33,-433.88 105.1,-432 133.4,-424.12 206.28,-405.42 257.04,-392.48"/>
<polygon fill="black" stroke="black" points="258.05,-395.84 266.87,-389.98 256.32,-389.05 258.05,-395.84"/>
</g>
<!-- Distance -->
<g id="node9" class="node">
<title>Distance</title>
<ellipse fill="none" stroke="black" cx="81.1" cy="-162" rx="41.69" ry="18"/>
<text text-anchor="middle" x="81.1" y="-158.3" font-family="Times,serif" font-size="14.00">Distance</text>
</g>
<!-- UnfoldDia&#45;&gt;Distance -->
<g id="edge6" class="edge">
<title>UnfoldDia&#45;&gt;Distance</title>
<path fill="none" stroke="black" d="M45.83,-431.97C41.2,-392.97 32.73,-294.53 53.1,-216 55.59,-206.38 60.12,-196.57 64.82,-188.04"/>
<polygon fill="black" stroke="black" points="67.86,-189.76 69.89,-179.36 61.82,-186.23 67.86,-189.76"/>
</g>
<!-- LocalTableau -->
<g id="node19" class="node">
<title>LocalTableau</title>
<ellipse fill="none" stroke="black" cx="175.1" cy="-378" rx="59.29" ry="18"/>
<text text-anchor="middle" x="175.1" y="-374.3" font-family="Times,serif" font-size="14.00">LocalTableau</text>
</g>
<!-- UnfoldDia&#45;&gt;LocalTableau -->
<g id="edge15" class="edge">
<title>UnfoldDia&#45;&gt;LocalTableau</title>
<path fill="none" stroke="black" d="M74.1,-434.67C92.81,-424.35 118.29,-410.31 138.98,-398.91"/>
<polygon fill="black" stroke="black" points="140.74,-401.93 147.81,-394.04 137.36,-395.8 140.74,-401.93"/>
</g>
<!-- Distance&#45;&gt;PartInterpolation -->
<g id="edge22" class="edge">
<title>Distance&#45;&gt;PartInterpolation</title>
<path fill="none" stroke="black" d="M95.01,-144.76C102.48,-136.06 111.83,-125.15 120.15,-115.43"/>
<polygon fill="black" stroke="black" points="122.99,-117.5 126.84,-107.63 117.67,-112.95 122.99,-117.5"/>
</g>
<!-- Star -->
<g id="node11" class="node">
<title>Star</title>
<ellipse fill="none" stroke="black" cx="305.1" cy="-522" rx="27" ry="18"/>
<text text-anchor="middle" x="305.1" y="-518.3" font-family="Times,serif" font-size="14.00">Star</text>
</g>
<!-- Star&#45;&gt;UnfoldDia -->
<g id="edge39" class="edge">
<title>Star&#45;&gt;UnfoldDia</title>
<path fill="none" stroke="black" d="M284.49,-510.3C279.53,-508 274.2,-505.74 269.1,-504 198.46,-479.92 177.35,-486.68 105.1,-468 101.32,-467.02 97.42,-465.97 93.52,-464.87"/>
<polygon fill="black" stroke="black" points="94.44,-461.5 83.86,-462.11 92.51,-468.23 94.44,-461.5"/>
</g>
<!-- Star&#45;&gt;Examples -->
<g id="edge8" class="edge">
<title>Star&#45;&gt;Examples</title>
<path fill="none" stroke="black" d="M321.29,-507.52C333.32,-497.2 349.87,-482.34 363.1,-468 381.89,-447.62 401.03,-422.51 414.37,-404.17"/>
<polygon fill="black" stroke="black" points="417.43,-405.91 420.43,-395.75 411.75,-401.82 417.43,-405.91"/>
</g>
<!-- UnfoldBox -->
<g id="node12" class="node">
<title>UnfoldBox</title>
<ellipse fill="none" stroke="black" cx="304.1" cy="-450" rx="50.09" ry="18"/>
<text text-anchor="middle" x="304.1" y="-446.3" font-family="Times,serif" font-size="14.00">UnfoldBox</text>
</g>
<!-- Star&#45;&gt;UnfoldBox -->
<g id="edge35" class="edge">
<title>Star&#45;&gt;UnfoldBox</title>
<path fill="none" stroke="black" d="M304.85,-503.7C304.74,-495.98 304.61,-486.71 304.48,-478.11"/>
<polygon fill="black" stroke="black" points="307.98,-478.05 304.34,-468.1 300.98,-478.15 307.98,-478.05"/>
</g>
<!-- UnfoldBox&#45;&gt;Modelgraphs -->
<g id="edge19" class="edge">
<title>UnfoldBox&#45;&gt;Modelgraphs</title>
<path fill="none" stroke="black" d="M305.58,-431.7C306.24,-423.98 307.03,-414.71 307.77,-406.11"/>
<polygon fill="black" stroke="black" points="311.26,-406.37 308.63,-396.1 304.29,-405.77 311.26,-406.37"/>
</g>
<!-- UnfoldBox&#45;&gt;Examples -->
<g id="edge9" class="edge">
<title>UnfoldBox&#45;&gt;Examples</title>
<path fill="none" stroke="black" d="M330.31,-434.67C349.68,-424.07 376.24,-409.55 397.37,-397.99"/>
<polygon fill="black" stroke="black" points="399.26,-400.95 406.36,-393.08 395.9,-394.8 399.26,-400.95"/>
</g>
<!-- UnfoldBox&#45;&gt;LocalTableau -->
<g id="edge14" class="edge">
<title>UnfoldBox&#45;&gt;LocalTableau</title>
<path fill="none" stroke="black" d="M277.68,-434.67C258.67,-424.35 232.79,-410.31 211.78,-398.91"/>
<polygon fill="black" stroke="black" points="213.27,-395.73 202.81,-394.04 209.93,-401.89 213.27,-395.73"/>
</g>
<!-- Syntax -->
<g id="node13" class="node">
<title>Syntax</title>
<ellipse fill="none" stroke="black" cx="383.1" cy="-810" rx="35.19" ry="18"/>
<text text-anchor="middle" x="383.1" y="-806.3" font-family="Times,serif" font-size="14.00">Syntax</text>
</g>
<!-- Syntax&#45;&gt;Semantics -->
<g id="edge24" class="edge">
<title>Syntax&#45;&gt;Semantics</title>
<path fill="none" stroke="black" d="M382.36,-791.92C380.92,-773.21 376.65,-742.85 364.1,-720 357.72,-708.4 347.99,-697.72 338.55,-689.03"/>
<polygon fill="black" stroke="black" points="340.59,-686.17 330.75,-682.22 335.98,-691.44 340.59,-686.17"/>
</g>
<!-- Syntax&#45;&gt;Vocab -->
<g id="edge40" class="edge">
<title>Syntax&#45;&gt;Vocab</title>
<path fill="none" stroke="black" d="M353.03,-800.51C326.07,-792 286.24,-777.1 256.1,-756 230.46,-738.05 206.89,-710.86 191.67,-691.25"/>
<polygon fill="black" stroke="black" points="194.32,-688.95 185.48,-683.1 188.74,-693.18 194.32,-688.95"/>
</g>
<!-- FischerLadner -->
<g id="node14" class="node">
<title>FischerLadner</title>
<ellipse fill="none" stroke="black" cx="437.1" cy="-666" rx="61.99" ry="18"/>
<text text-anchor="middle" x="437.1" y="-662.3" font-family="Times,serif" font-size="14.00">FischerLadner</text>
</g>
<!-- Syntax&#45;&gt;FischerLadner -->
<g id="edge10" class="edge">
<title>Syntax&#45;&gt;FischerLadner</title>
<path fill="none" stroke="black" d="M389.5,-792.15C398.75,-767.84 415.93,-722.66 426.92,-693.75"/>
<polygon fill="black" stroke="black" points="430.25,-694.86 430.53,-684.27 423.7,-692.37 430.25,-694.86"/>
</g>
<!-- LoadSplit -->
<g id="node18" class="node">
<title>LoadSplit</title>
<ellipse fill="none" stroke="black" cx="514.1" cy="-738" rx="45.49" ry="18"/>
<text text-anchor="middle" x="514.1" y="-734.3" font-family="Times,serif" font-size="14.00">LoadSplit</text>
</g>
<!-- Syntax&#45;&gt;LoadSplit -->
<g id="edge13" class="edge">
<title>Syntax&#45;&gt;LoadSplit</title>
<path fill="none" stroke="black" d="M406.52,-796.49C426.7,-785.7 456.12,-769.98 479.1,-757.7"/>
<polygon fill="black" stroke="black" points="481.01,-760.65 488.19,-752.85 477.72,-754.47 481.01,-760.65"/>
</g>
<!-- Measures -->
<g id="node21" class="node">
<title>Measures</title>
<ellipse fill="none" stroke="black" cx="310.1" cy="-738" rx="44.69" ry="18"/>
<text text-anchor="middle" x="310.1" y="-734.3" font-family="Times,serif" font-size="14.00">Measures</text>
</g>
<!-- Syntax&#45;&gt;Measures -->
<g id="edge17" class="edge">
<title>Syntax&#45;&gt;Measures</title>
<path fill="none" stroke="black" d="M367.26,-793.81C357.51,-784.47 344.84,-772.31 333.9,-761.83"/>
<polygon fill="black" stroke="black" points="336.31,-759.28 326.66,-754.89 331.46,-764.34 336.31,-759.28"/>
</g>
<!-- FischerLadner&#45;&gt;UnfoldBox -->
<g id="edge36" class="edge">
<title>FischerLadner&#45;&gt;UnfoldBox</title>
<path fill="none" stroke="black" d="M427.4,-647.83C410.51,-618.13 374.29,-555.39 341.1,-504 335.07,-494.67 328.17,-484.63 321.97,-475.82"/>
<polygon fill="black" stroke="black" points="324.71,-473.63 316.07,-467.5 319,-477.68 324.71,-473.63"/>
</g>
<!-- Fresh&#45;&gt;UnfoldDia -->
<g id="edge38" class="edge">
<title>Fresh&#45;&gt;UnfoldDia</title>
<path fill="none" stroke="black" d="M92.45,-505.46C85.27,-496.65 76.13,-485.43 68.02,-475.46"/>
<polygon fill="black" stroke="black" points="70.53,-473.01 61.5,-467.47 65.1,-477.43 70.53,-473.01"/>
</g>
<!-- Fresh&#45;&gt;UnfoldBox -->
<g id="edge34" class="edge">
<title>Fresh&#45;&gt;UnfoldBox</title>
<path fill="none" stroke="black" d="M129.08,-510.44C134.33,-508.23 139.87,-505.98 145.1,-504 182.54,-489.83 225.67,-475.58 257.56,-465.43"/>
<polygon fill="black" stroke="black" points="259.02,-468.64 267.49,-462.28 256.9,-461.96 259.02,-468.64"/>
</g>
<!-- Interpolation -->
<g id="node17" class="node">
<title>Interpolation</title>
<ellipse fill="none" stroke="black" cx="141.1" cy="-18" rx="55.79" ry="18"/>
<text text-anchor="middle" x="141.1" y="-14.3" font-family="Times,serif" font-size="14.00">Interpolation</text>
</g>
<!-- PartInterpolation&#45;&gt;Interpolation -->
<g id="edge12" class="edge">
<title>PartInterpolation&#45;&gt;Interpolation</title>
<path fill="none" stroke="black" d="M141.1,-71.7C141.1,-63.98 141.1,-54.71 141.1,-46.11"/>
<polygon fill="black" stroke="black" points="144.6,-46.1 141.1,-36.1 137.6,-46.1 144.6,-46.1"/>
</g>
<!-- LoadSplit&#45;&gt;Soundness -->
<g id="edge27" class="edge">
<title>LoadSplit&#45;&gt;Soundness</title>
<path fill="none" stroke="black" d="M516.66,-720C520.45,-693.4 527.1,-640.3 527.1,-595 527.1,-595 527.1,-595 527.1,-377 527.1,-278.77 387.74,-248.46 306.36,-239.13"/>
<polygon fill="black" stroke="black" points="306.57,-235.63 296.25,-238.04 305.82,-242.59 306.57,-235.63"/>
</g>
<!-- Tableau -->
<g id="node23" class="node">
<title>Tableau</title>
<ellipse fill="none" stroke="black" cx="197.1" cy="-306" rx="38.99" ry="18"/>
<text text-anchor="middle" x="197.1" y="-302.3" font-family="Times,serif" font-size="14.00">Tableau</text>
</g>
<!-- LocalTableau&#45;&gt;Tableau -->
<g id="edge30" class="edge">
<title>LocalTableau&#45;&gt;Tableau</title>
<path fill="none" stroke="black" d="M180.42,-360.05C182.87,-352.26 185.84,-342.82 188.59,-334.08"/>
<polygon fill="black" stroke="black" points="192.01,-334.86 191.67,-324.28 185.33,-332.77 192.01,-334.86"/>
</g>
<!-- MultisetOrder -->
<g id="node20" class="node">
<title>MultisetOrder</title>
<ellipse fill="none" stroke="black" cx="175.1" cy="-450" rx="61.19" ry="18"/>
<text text-anchor="middle" x="175.1" y="-446.3" font-family="Times,serif" font-size="14.00">MultisetOrder</text>
</g>
<!-- MultisetOrder&#45;&gt;LocalTableau -->
<g id="edge16" class="edge">
<title>MultisetOrder&#45;&gt;LocalTableau</title>
<path fill="none" stroke="black" d="M175.1,-431.7C175.1,-423.98 175.1,-414.71 175.1,-406.11"/>
<polygon fill="black" stroke="black" points="178.6,-406.1 175.1,-396.1 171.6,-406.1 178.6,-406.1"/>
</g>
<!-- Measures&#45;&gt;Semantics -->
<g id="edge25" class="edge">
<title>Measures&#45;&gt;Semantics</title>
<path fill="none" stroke="black" d="M310.1,-719.7C310.1,-711.98 310.1,-702.71 310.1,-694.11"/>
<polygon fill="black" stroke="black" points="313.6,-694.1 310.1,-684.1 306.6,-694.1 313.6,-694.1"/>
</g>
<!-- Tableau&#45;&gt;Soundness -->
<g id="edge26" class="edge">
<title>Tableau&#45;&gt;Soundness</title>
<path fill="none" stroke="black" d="M209.16,-288.76C215.56,-280.14 223.57,-269.36 230.73,-259.73"/>
<polygon fill="black" stroke="black" points="233.59,-261.75 236.74,-251.63 227.97,-257.57 233.59,-261.75"/>
</g>
<!-- Tableau&#45;&gt;TableauGame -->
<g id="edge32" class="edge">
<title>Tableau&#45;&gt;TableauGame</title>
<path fill="none" stroke="black" d="M180.45,-289.46C170.73,-280.39 158.26,-268.75 147.35,-258.57"/>
<polygon fill="black" stroke="black" points="149.44,-255.73 139.74,-251.47 144.66,-260.85 149.44,-255.73"/>
</g>
<!-- Substitution&#45;&gt;UnfoldDia -->
<g id="edge37" class="edge">
<title>Substitution&#45;&gt;UnfoldDia</title>
<path fill="none" stroke="black" d="M176.06,-507.34C150.68,-496.16 114.63,-480.29 87.26,-468.24"/>
<polygon fill="black" stroke="black" points="88.54,-464.98 77.97,-464.15 85.72,-471.39 88.54,-464.98"/>
</g>
<!-- Substitution&#45;&gt;UnfoldBox -->
<g id="edge33" class="edge">
<title>Substitution&#45;&gt;UnfoldBox</title>
<path fill="none" stroke="black" d="M228.62,-505.46C242.06,-495.77 259.55,-483.15 274.31,-472.5"/>
<polygon fill="black" stroke="black" points="276.57,-475.18 282.63,-466.49 272.47,-469.51 276.57,-475.18"/>
</g>
<!-- Game -->
<g id="node25" class="node">
<title>Game</title>
<ellipse fill="none" stroke="black" cx="108.1" cy="-306" rx="32.49" ry="18"/>
<text text-anchor="middle" x="108.1" y="-302.3" font-family="Times,serif" font-size="14.00">Game</text>
</g>
<!-- Game&#45;&gt;TableauGame -->
<g id="edge31" class="edge">
<title>Game&#45;&gt;TableauGame</title>
<path fill="none" stroke="black" d="M111.48,-288.05C113.03,-280.35 114.89,-271.03 116.62,-262.36"/>
<polygon fill="black" stroke="black" points="120.11,-262.77 118.64,-252.28 113.25,-261.39 120.11,-262.77"/>
</g>
</g>
</svg>
