<?xml version="1.0" encoding="UTF-8" standalone="no"?>
<!DOCTYPE svg PUBLIC "-//W3C//DTD SVG 1.1//EN"
 "http://www.w3.org/Graphics/SVG/1.1/DTD/svg11.dtd">
<!-- Generated by graphviz version 2.43.0 (0)
 -->
<!-- Title: %3 Pages: 1 -->
<svg width="397pt" height="836pt"
 viewBox="0.00 0.00 396.84 836.00" xmlns="http://www.w3.org/2000/svg" xmlns:xlink="http://www.w3.org/1999/xlink">
<g id="graph0" class="graph" transform="scale(1 1) rotate(0) translate(4 832)">
<title>%3</title>
<polygon fill="white" stroke="transparent" points="-4,4 -4,-832 392.84,-832 392.84,4 -4,4"/>
<!-- Soundness -->
<g id="node1" class="node">
<title>Soundness</title>
<ellipse fill="none" stroke="black" cx="140.6" cy="-234" rx="48.19" ry="18"/>
<text text-anchor="middle" x="140.6" y="-230.3" font-family="Times,serif" font-size="14.00">Soundness</text>
</g>
<!-- Completeness -->
<g id="node2" class="node">
<title>Completeness</title>
<ellipse fill="none" stroke="black" cx="140.6" cy="-162" rx="60.39" ry="18"/>
<text text-anchor="middle" x="140.6" y="-158.3" font-family="Times,serif" font-size="14.00">Completeness</text>
</g>
<!-- Soundness&#45;&gt;Completeness -->
<g id="edge1" class="edge">
<title>Soundness&#45;&gt;Completeness</title>
<path fill="none" stroke="black" d="M140.6,-215.7C140.6,-207.98 140.6,-198.71 140.6,-190.11"/>
<polygon fill="black" stroke="black" points="144.1,-190.1 140.6,-180.1 137.1,-190.1 144.1,-190.1"/>
</g>
<!-- PartInterpolation -->
<g id="node12" class="node">
<title>PartInterpolation</title>
<ellipse fill="none" stroke="black" cx="91.6" cy="-90" rx="70.39" ry="18"/>
<text text-anchor="middle" x="91.6" y="-86.3" font-family="Times,serif" font-size="14.00">PartInterpolation</text>
</g>
<!-- Completeness&#45;&gt;PartInterpolation -->
<g id="edge15" class="edge">
<title>Completeness&#45;&gt;PartInterpolation</title>
<path fill="none" stroke="black" d="M128.73,-144.05C122.9,-135.71 115.74,-125.49 109.27,-116.25"/>
<polygon fill="black" stroke="black" points="111.95,-113.97 103.35,-107.79 106.22,-117.99 111.95,-113.97"/>
</g>
<!-- Modelgraphs -->
<g id="node3" class="node">
<title>Modelgraphs</title>
<ellipse fill="none" stroke="black" cx="263.6" cy="-378" rx="57.69" ry="18"/>
<text text-anchor="middle" x="263.6" y="-374.3" font-family="Times,serif" font-size="14.00">Modelgraphs</text>
</g>
<!-- Modelgraphs&#45;&gt;Completeness -->
<g id="edge2" class="edge">
<title>Modelgraphs&#45;&gt;Completeness</title>
<path fill="none" stroke="black" d="M259.21,-359.83C250.79,-329.02 230.26,-263.2 197.6,-216 189.89,-204.87 179.48,-194.33 169.67,-185.62"/>
<polygon fill="black" stroke="black" points="171.87,-182.9 161.99,-179.06 167.32,-188.22 171.87,-182.9"/>
</g>
<!-- Semantics -->
<g id="node4" class="node">
<title>Semantics</title>
<ellipse fill="none" stroke="black" cx="249.6" cy="-666" rx="47.39" ry="18"/>
<text text-anchor="middle" x="249.6" y="-662.3" font-family="Times,serif" font-size="14.00">Semantics</text>
</g>
<!-- Semantics&#45;&gt;Modelgraphs -->
<g id="edge12" class="edge">
<title>Semantics&#45;&gt;Modelgraphs</title>
<path fill="none" stroke="black" d="M265.81,-648.98C296.23,-617.63 360.83,-544.52 383.6,-468 388.16,-452.66 392.33,-445.41 383.6,-432 369.89,-410.96 345.73,-398.21 322.67,-390.52"/>
<polygon fill="black" stroke="black" points="323.47,-387.1 312.88,-387.52 321.42,-393.8 323.47,-387.1"/>
</g>
<!-- Discon -->
<g id="node5" class="node">
<title>Discon</title>
<ellipse fill="none" stroke="black" cx="185.6" cy="-594" rx="36" ry="18"/>
<text text-anchor="middle" x="185.6" y="-590.3" font-family="Times,serif" font-size="14.00">Discon</text>
</g>
<!-- Semantics&#45;&gt;Discon -->
<g id="edge3" class="edge">
<title>Semantics&#45;&gt;Discon</title>
<path fill="none" stroke="black" d="M234.75,-648.76C226.48,-639.71 216.03,-628.29 206.9,-618.3"/>
<polygon fill="black" stroke="black" points="209.25,-615.68 199.92,-610.67 204.08,-620.41 209.25,-615.68"/>
</g>
<!-- Examples -->
<g id="node8" class="node">
<title>Examples</title>
<ellipse fill="none" stroke="black" cx="328.6" cy="-450" rx="46.29" ry="18"/>
<text text-anchor="middle" x="328.6" y="-446.3" font-family="Times,serif" font-size="14.00">Examples</text>
</g>
<!-- Semantics&#45;&gt;Examples -->
<g id="edge5" class="edge">
<title>Semantics&#45;&gt;Examples</title>
<path fill="none" stroke="black" d="M255.93,-647.85C269.68,-610.58 302.39,-522 318.82,-477.49"/>
<polygon fill="black" stroke="black" points="322.16,-478.53 322.34,-467.94 315.6,-476.1 322.16,-478.53"/>
</g>
<!-- Substitution -->
<g id="node19" class="node">
<title>Substitution</title>
<ellipse fill="none" stroke="black" cx="155.6" cy="-522" rx="53.09" ry="18"/>
<text text-anchor="middle" x="155.6" y="-518.3" font-family="Times,serif" font-size="14.00">Substitution</text>
</g>
<!-- Semantics&#45;&gt;Substitution -->
<g id="edge20" class="edge">
<title>Semantics&#45;&gt;Substitution</title>
<path fill="none" stroke="black" d="M249.56,-647.85C248.74,-628.82 245.03,-597.9 230.6,-576 221.52,-562.24 207.55,-550.95 194.12,-542.38"/>
<polygon fill="black" stroke="black" points="195.79,-539.31 185.42,-537.15 192.18,-545.3 195.79,-539.31"/>
</g>
<!-- Discon&#45;&gt;Substitution -->
<g id="edge22" class="edge">
<title>Discon&#45;&gt;Substitution</title>
<path fill="none" stroke="black" d="M178.33,-576.05C174.92,-568.09 170.77,-558.41 166.96,-549.51"/>
<polygon fill="black" stroke="black" points="170.16,-548.09 163,-540.28 163.72,-550.85 170.16,-548.09"/>
</g>
<!-- Unfold -->
<g id="node6" class="node">
<title>Unfold</title>
<ellipse fill="none" stroke="black" cx="50.6" cy="-450" rx="36" ry="18"/>
<text text-anchor="middle" x="50.6" y="-446.3" font-family="Times,serif" font-size="14.00">Unfold</text>
</g>
<!-- Unfold&#45;&gt;Modelgraphs -->
<g id="edge14" class="edge">
<title>Unfold&#45;&gt;Modelgraphs</title>
<path fill="none" stroke="black" d="M78.11,-438.33C83.87,-436.17 89.91,-433.97 95.6,-432 135.05,-418.34 180.2,-404.17 213.76,-393.93"/>
<polygon fill="black" stroke="black" points="214.79,-397.27 223.34,-391.01 212.75,-390.58 214.79,-397.27"/>
</g>
<!-- Distance -->
<g id="node7" class="node">
<title>Distance</title>
<ellipse fill="none" stroke="black" cx="41.6" cy="-306" rx="41.69" ry="18"/>
<text text-anchor="middle" x="41.6" y="-302.3" font-family="Times,serif" font-size="14.00">Distance</text>
</g>
<!-- Unfold&#45;&gt;Distance -->
<g id="edge4" class="edge">
<title>Unfold&#45;&gt;Distance</title>
<path fill="none" stroke="black" d="M49.51,-431.87C47.98,-407.67 45.16,-363.21 43.33,-334.39"/>
<polygon fill="black" stroke="black" points="46.81,-333.95 42.69,-324.19 39.83,-334.39 46.81,-333.95"/>
</g>
<!-- LocalTableau -->
<g id="node14" class="node">
<title>LocalTableau</title>
<ellipse fill="none" stroke="black" cx="128.6" cy="-378" rx="59.29" ry="18"/>
<text text-anchor="middle" x="128.6" y="-374.3" font-family="Times,serif" font-size="14.00">LocalTableau</text>
</g>
<!-- Unfold&#45;&gt;LocalTableau -->
<g id="edge9" class="edge">
<title>Unfold&#45;&gt;LocalTableau</title>
<path fill="none" stroke="black" d="M67.52,-433.81C77.79,-424.6 91.1,-412.65 102.67,-402.27"/>
<polygon fill="black" stroke="black" points="105.24,-404.66 110.34,-395.38 100.56,-399.45 105.24,-404.66"/>
</g>
<!-- Distance&#45;&gt;PartInterpolation -->
<g id="edge16" class="edge">
<title>Distance&#45;&gt;PartInterpolation</title>
<path fill="none" stroke="black" d="M43.78,-287.85C47.77,-258.18 57.21,-195.48 71.6,-144 74.07,-135.15 77.4,-125.7 80.64,-117.27"/>
<polygon fill="black" stroke="black" points="83.91,-118.52 84.33,-107.93 77.4,-115.94 83.91,-118.52"/>
</g>
<!-- Star -->
<g id="node9" class="node">
<title>Star</title>
<ellipse fill="none" stroke="black" cx="254.6" cy="-522" rx="27" ry="18"/>
<text text-anchor="middle" x="254.6" y="-518.3" font-family="Times,serif" font-size="14.00">Star</text>
</g>
<!-- Star&#45;&gt;Modelgraphs -->
<g id="edge13" class="edge">
<title>Star&#45;&gt;Modelgraphs</title>
<path fill="none" stroke="black" d="M255.68,-503.87C257.22,-479.67 260.03,-435.21 261.86,-406.39"/>
<polygon fill="black" stroke="black" points="265.37,-406.39 262.51,-396.19 258.38,-405.95 265.37,-406.39"/>
</g>
<!-- Star&#45;&gt;Unfold -->
<g id="edge26" class="edge">
<title>Star&#45;&gt;Unfold</title>
<path fill="none" stroke="black" d="M233.3,-510.58C228.21,-508.27 222.76,-505.94 217.6,-504 164.66,-484.15 149.19,-486 95.6,-468 93.01,-467.13 90.36,-466.21 87.69,-465.26"/>
<polygon fill="black" stroke="black" points="88.68,-461.9 78.09,-461.75 86.28,-468.47 88.68,-461.9"/>
</g>
<!-- Star&#45;&gt;Examples -->
<g id="edge6" class="edge">
<title>Star&#45;&gt;Examples</title>
<path fill="none" stroke="black" d="M269.57,-506.83C279.52,-497.42 292.82,-484.85 304.27,-474.01"/>
<polygon fill="black" stroke="black" points="306.98,-476.27 311.84,-466.85 302.17,-471.18 306.98,-476.27"/>
</g>
<!-- Vocab -->
<g id="node10" class="node">
<title>Vocab</title>
<ellipse fill="none" stroke="black" cx="99.6" cy="-594" rx="32.49" ry="18"/>
<text text-anchor="middle" x="99.6" y="-590.3" font-family="Times,serif" font-size="14.00">Vocab</text>
</g>
<!-- Fresh -->
<g id="node11" class="node">
<title>Fresh</title>
<ellipse fill="none" stroke="black" cx="51.6" cy="-522" rx="30.59" ry="18"/>
<text text-anchor="middle" x="51.6" y="-518.3" font-family="Times,serif" font-size="14.00">Fresh</text>
</g>
<!-- Vocab&#45;&gt;Fresh -->
<g id="edge7" class="edge">
<title>Vocab&#45;&gt;Fresh</title>
<path fill="none" stroke="black" d="M88.46,-576.76C82.53,-568.11 75.1,-557.27 68.47,-547.6"/>
<polygon fill="black" stroke="black" points="71.21,-545.42 62.67,-539.15 65.44,-549.37 71.21,-545.42"/>
</g>
<!-- Vocab&#45;&gt;Substitution -->
<g id="edge21" class="edge">
<title>Vocab&#45;&gt;Substitution</title>
<path fill="none" stroke="black" d="M112.3,-577.12C119.26,-568.42 128.04,-557.45 135.87,-547.66"/>
<polygon fill="black" stroke="black" points="138.64,-549.79 142.16,-539.8 133.18,-545.42 138.64,-549.79"/>
</g>
<!-- Fresh&#45;&gt;Unfold -->
<g id="edge25" class="edge">
<title>Fresh&#45;&gt;Unfold</title>
<path fill="none" stroke="black" d="M51.35,-503.7C51.24,-495.98 51.11,-486.71 50.98,-478.11"/>
<polygon fill="black" stroke="black" points="54.48,-478.05 50.84,-468.1 47.48,-478.15 54.48,-478.05"/>
</g>
<!-- Interpolation -->
<g id="node13" class="node">
<title>Interpolation</title>
<ellipse fill="none" stroke="black" cx="91.6" cy="-18" rx="55.79" ry="18"/>
<text text-anchor="middle" x="91.6" y="-14.3" font-family="Times,serif" font-size="14.00">Interpolation</text>
</g>
<!-- PartInterpolation&#45;&gt;Interpolation -->
<g id="edge8" class="edge">
<title>PartInterpolation&#45;&gt;Interpolation</title>
<path fill="none" stroke="black" d="M91.6,-71.7C91.6,-63.98 91.6,-54.71 91.6,-46.11"/>
<polygon fill="black" stroke="black" points="95.1,-46.1 91.6,-36.1 88.1,-46.1 95.1,-46.1"/>
</g>
<!-- Tableau -->
<g id="node18" class="node">
<title>Tableau</title>
<ellipse fill="none" stroke="black" cx="140.6" cy="-306" rx="38.99" ry="18"/>
<text text-anchor="middle" x="140.6" y="-302.3" font-family="Times,serif" font-size="14.00">Tableau</text>
</g>
<!-- LocalTableau&#45;&gt;Tableau -->
<g id="edge23" class="edge">
<title>LocalTableau&#45;&gt;Tableau</title>
<path fill="none" stroke="black" d="M131.56,-359.7C132.88,-351.98 134.47,-342.71 135.95,-334.11"/>
<polygon fill="black" stroke="black" points="139.42,-334.55 137.66,-324.1 132.52,-333.37 139.42,-334.55"/>
</g>
<!-- MultisetOrder -->
<g id="node15" class="node">
<title>MultisetOrder</title>
<ellipse fill="none" stroke="black" cx="165.6" cy="-450" rx="61.19" ry="18"/>
<text text-anchor="middle" x="165.6" y="-446.3" font-family="Times,serif" font-size="14.00">MultisetOrder</text>
</g>
<!-- MultisetOrder&#45;&gt;LocalTableau -->
<g id="edge10" class="edge">
<title>MultisetOrder&#45;&gt;LocalTableau</title>
<path fill="none" stroke="black" d="M156.64,-432.05C152.39,-424.01 147.2,-414.2 142.46,-405.23"/>
<polygon fill="black" stroke="black" points="145.5,-403.48 137.73,-396.28 139.31,-406.75 145.5,-403.48"/>
</g>
<!-- Syntax -->
<g id="node16" class="node">
<title>Syntax</title>
<ellipse fill="none" stroke="black" cx="176.6" cy="-810" rx="35.19" ry="18"/>
<text text-anchor="middle" x="176.6" y="-806.3" font-family="Times,serif" font-size="14.00">Syntax</text>
</g>
<!-- Syntax&#45;&gt;Semantics -->
<g id="edge17" class="edge">
<title>Syntax&#45;&gt;Semantics</title>
<path fill="none" stroke="black" d="M195.92,-794.87C207.72,-785.22 222.12,-771.43 230.6,-756 241.09,-736.9 245.79,-712.55 247.9,-694.14"/>
<polygon fill="black" stroke="black" points="251.39,-694.37 248.86,-684.08 244.42,-693.7 251.39,-694.37"/>
</g>
<!-- Syntax&#45;&gt;Vocab -->
<g id="edge27" class="edge">
<title>Syntax&#45;&gt;Vocab</title>
<path fill="none" stroke="black" d="M156.91,-795.06C144.96,-785.49 130.54,-771.71 122.6,-756 100.84,-712.99 97.87,-655.75 98.31,-622.39"/>
<polygon fill="black" stroke="black" points="101.82,-622.12 98.57,-612.04 94.82,-621.95 101.82,-622.12"/>
</g>
<!-- Measures -->
<g id="node17" class="node">
<title>Measures</title>
<ellipse fill="none" stroke="black" cx="176.6" cy="-738" rx="44.69" ry="18"/>
<text text-anchor="middle" x="176.6" y="-734.3" font-family="Times,serif" font-size="14.00">Measures</text>
</g>
<!-- Syntax&#45;&gt;Measures -->
<g id="edge11" class="edge">
<title>Syntax&#45;&gt;Measures</title>
<path fill="none" stroke="black" d="M176.6,-791.7C176.6,-783.98 176.6,-774.71 176.6,-766.11"/>
<polygon fill="black" stroke="black" points="180.1,-766.1 176.6,-756.1 173.1,-766.1 180.1,-766.1"/>
</g>
<!-- Measures&#45;&gt;Semantics -->
<g id="edge18" class="edge">
<title>Measures&#45;&gt;Semantics</title>
<path fill="none" stroke="black" d="M193.16,-721.12C202.71,-711.96 214.88,-700.29 225.47,-690.13"/>
<polygon fill="black" stroke="black" points="228.05,-692.51 232.84,-683.06 223.2,-687.46 228.05,-692.51"/>
</g>
<!-- Tableau&#45;&gt;Soundness -->
<g id="edge19" class="edge">
<title>Tableau&#45;&gt;Soundness</title>
<path fill="none" stroke="black" d="M140.6,-287.7C140.6,-279.98 140.6,-270.71 140.6,-262.11"/>
<polygon fill="black" stroke="black" points="144.1,-262.1 140.6,-252.1 137.1,-262.1 144.1,-262.1"/>
</g>
<!-- Substitution&#45;&gt;Unfold -->
<g id="edge24" class="edge">
<title>Substitution&#45;&gt;Unfold</title>
<path fill="none" stroke="black" d="M132.55,-505.64C117.17,-495.38 96.8,-481.8 80.22,-470.75"/>
<polygon fill="black" stroke="black" points="81.71,-467.54 71.45,-464.9 77.83,-473.36 81.71,-467.54"/>
</g>
</g>
</svg>
