<?xml version="1.0" encoding="UTF-8" standalone="no"?>
<!DOCTYPE svg PUBLIC "-//W3C//DTD SVG 1.1//EN"
 "http://www.w3.org/Graphics/SVG/1.1/DTD/svg11.dtd">
<!-- Generated by graphviz version 2.43.0 (0)
 -->
<!-- Title: %3 Pages: 1 -->
<svg width="570pt" height="836pt"
 viewBox="0.00 0.00 569.64 836.00" xmlns="http://www.w3.org/2000/svg" xmlns:xlink="http://www.w3.org/1999/xlink">
<g id="graph0" class="graph" transform="scale(1 1) rotate(0) translate(4 832)">
<title>%3</title>
<polygon fill="white" stroke="transparent" points="-4,4 -4,-832 565.64,-832 565.64,4 -4,4"/>
<!-- Soundness -->
<g id="node1" class="node">
<title>Soundness</title>
<ellipse fill="none" stroke="black" cx="187.44" cy="-234" rx="48.19" ry="18"/>
<text text-anchor="middle" x="187.44" y="-230.3" font-family="Times,serif" font-size="14.00">Soundness</text>
</g>
<!-- Completeness -->
<g id="node2" class="node">
<title>Completeness</title>
<ellipse fill="none" stroke="black" cx="208.44" cy="-162" rx="60.39" ry="18"/>
<text text-anchor="middle" x="208.44" y="-158.3" font-family="Times,serif" font-size="14.00">Completeness</text>
</g>
<!-- Soundness&#45;&gt;Completeness -->
<g id="edge1" class="edge">
<title>Soundness&#45;&gt;Completeness</title>
<path fill="none" stroke="black" d="M192.53,-216.05C194.87,-208.26 197.7,-198.82 200.32,-190.08"/>
<polygon fill="black" stroke="black" points="203.74,-190.86 203.26,-180.28 197.04,-188.85 203.74,-190.86"/>
</g>
<!-- PartInterpolation -->
<g id="node15" class="node">
<title>PartInterpolation</title>
<ellipse fill="none" stroke="black" cx="268.44" cy="-90" rx="70.39" ry="18"/>
<text text-anchor="middle" x="268.44" y="-86.3" font-family="Times,serif" font-size="14.00">PartInterpolation</text>
</g>
<!-- Completeness&#45;&gt;PartInterpolation -->
<g id="edge18" class="edge">
<title>Completeness&#45;&gt;PartInterpolation</title>
<path fill="none" stroke="black" d="M222.66,-144.41C230.03,-135.82 239.17,-125.16 247.34,-115.63"/>
<polygon fill="black" stroke="black" points="250.06,-117.83 253.91,-107.96 244.75,-113.27 250.06,-117.83"/>
</g>
<!-- TableauGame -->
<g id="node3" class="node">
<title>TableauGame</title>
<ellipse fill="none" stroke="black" cx="60.44" cy="-234" rx="60.39" ry="18"/>
<text text-anchor="middle" x="60.44" y="-230.3" font-family="Times,serif" font-size="14.00">TableauGame</text>
</g>
<!-- TableauGame&#45;&gt;Completeness -->
<g id="edge2" class="edge">
<title>TableauGame&#45;&gt;Completeness</title>
<path fill="none" stroke="black" d="M91.47,-218.33C113.84,-207.74 144.24,-193.37 168.44,-181.92"/>
<polygon fill="black" stroke="black" points="170.17,-184.97 177.71,-177.53 167.18,-178.65 170.17,-184.97"/>
</g>
<!-- Modelgraphs -->
<g id="node4" class="node">
<title>Modelgraphs</title>
<ellipse fill="none" stroke="black" cx="263.44" cy="-378" rx="57.69" ry="18"/>
<text text-anchor="middle" x="263.44" y="-374.3" font-family="Times,serif" font-size="14.00">Modelgraphs</text>
</g>
<!-- Modelgraphs&#45;&gt;Completeness -->
<g id="edge3" class="edge">
<title>Modelgraphs&#45;&gt;Completeness</title>
<path fill="none" stroke="black" d="M264.04,-359.93C264.53,-329.84 263.04,-265.84 244.44,-216 240.75,-206.1 234.84,-196.25 228.87,-187.77"/>
<polygon fill="black" stroke="black" points="231.49,-185.43 222.71,-179.5 225.87,-189.61 231.49,-185.43"/>
</g>
<!-- Semantics -->
<g id="node5" class="node">
<title>Semantics</title>
<ellipse fill="none" stroke="black" cx="385.44" cy="-666" rx="47.39" ry="18"/>
<text text-anchor="middle" x="385.44" y="-662.3" font-family="Times,serif" font-size="14.00">Semantics</text>
</g>
<!-- Discon -->
<g id="node6" class="node">
<title>Discon</title>
<ellipse fill="none" stroke="black" cx="292.44" cy="-594" rx="36" ry="18"/>
<text text-anchor="middle" x="292.44" y="-590.3" font-family="Times,serif" font-size="14.00">Discon</text>
</g>
<!-- Semantics&#45;&gt;Discon -->
<g id="edge4" class="edge">
<title>Semantics&#45;&gt;Discon</title>
<path fill="none" stroke="black" d="M364.8,-649.46C351.47,-639.43 333.99,-626.27 319.54,-615.4"/>
<polygon fill="black" stroke="black" points="321.54,-612.52 311.44,-609.3 317.33,-618.11 321.54,-612.52"/>
</g>
<!-- Examples -->
<g id="node10" class="node">
<title>Examples</title>
<ellipse fill="none" stroke="black" cx="432.44" cy="-450" rx="46.29" ry="18"/>
<text text-anchor="middle" x="432.44" y="-446.3" font-family="Times,serif" font-size="14.00">Examples</text>
</g>
<!-- Semantics&#45;&gt;Examples -->
<g id="edge7" class="edge">
<title>Semantics&#45;&gt;Examples</title>
<path fill="none" stroke="black" d="M392.54,-647.97C402.08,-624.25 418.73,-579.68 426.44,-540 430.41,-519.61 431.87,-496.15 432.36,-478.43"/>
<polygon fill="black" stroke="black" points="435.86,-478.29 432.55,-468.23 428.86,-478.16 435.86,-478.29"/>
</g>
<!-- SemQuot -->
<g id="node21" class="node">
<title>SemQuot</title>
<ellipse fill="none" stroke="black" cx="517.44" cy="-594" rx="44.39" ry="18"/>
<text text-anchor="middle" x="517.44" y="-590.3" font-family="Times,serif" font-size="14.00">SemQuot</text>
</g>
<!-- Semantics&#45;&gt;SemQuot -->
<g id="edge20" class="edge">
<title>Semantics&#45;&gt;SemQuot</title>
<path fill="none" stroke="black" d="M411.84,-651C432.12,-640.25 460.31,-625.3 482.46,-613.55"/>
<polygon fill="black" stroke="black" points="484.35,-616.51 491.55,-608.73 481.07,-610.33 484.35,-616.51"/>
</g>
<!-- Substitution -->
<g id="node23" class="node">
<title>Substitution</title>
<ellipse fill="none" stroke="black" cx="292.44" cy="-522" rx="53.09" ry="18"/>
<text text-anchor="middle" x="292.44" y="-518.3" font-family="Times,serif" font-size="14.00">Substitution</text>
</g>
<!-- Discon&#45;&gt;Substitution -->
<g id="edge24" class="edge">
<title>Discon&#45;&gt;Substitution</title>
<path fill="none" stroke="black" d="M292.44,-575.7C292.44,-567.98 292.44,-558.71 292.44,-550.11"/>
<polygon fill="black" stroke="black" points="295.94,-550.1 292.44,-540.1 288.94,-550.1 295.94,-550.1"/>
</g>
<!-- Vocab -->
<g id="node7" class="node">
<title>Vocab</title>
<ellipse fill="none" stroke="black" cx="274.44" cy="-666" rx="32.49" ry="18"/>
<text text-anchor="middle" x="274.44" y="-662.3" font-family="Times,serif" font-size="14.00">Vocab</text>
</g>
<!-- Vocab&#45;&gt;Discon -->
<g id="edge5" class="edge">
<title>Vocab&#45;&gt;Discon</title>
<path fill="none" stroke="black" d="M278.8,-648.05C280.81,-640.26 283.23,-630.82 285.48,-622.08"/>
<polygon fill="black" stroke="black" points="288.9,-622.83 288,-612.28 282.12,-621.09 288.9,-622.83"/>
</g>
<!-- Fresh -->
<g id="node14" class="node">
<title>Fresh</title>
<ellipse fill="none" stroke="black" cx="190.44" cy="-522" rx="30.59" ry="18"/>
<text text-anchor="middle" x="190.44" y="-518.3" font-family="Times,serif" font-size="14.00">Fresh</text>
</g>
<!-- Vocab&#45;&gt;Fresh -->
<g id="edge10" class="edge">
<title>Vocab&#45;&gt;Fresh</title>
<path fill="none" stroke="black" d="M264.81,-648.71C250.27,-624.13 222.59,-577.33 205.41,-548.29"/>
<polygon fill="black" stroke="black" points="208.33,-546.36 200.23,-539.54 202.31,-549.93 208.33,-546.36"/>
</g>
<!-- UnfoldDia -->
<g id="node8" class="node">
<title>UnfoldDia</title>
<ellipse fill="none" stroke="black" cx="306.44" cy="-450" rx="48.19" ry="18"/>
<text text-anchor="middle" x="306.44" y="-446.3" font-family="Times,serif" font-size="14.00">UnfoldDia</text>
</g>
<!-- UnfoldDia&#45;&gt;Modelgraphs -->
<g id="edge17" class="edge">
<title>UnfoldDia&#45;&gt;Modelgraphs</title>
<path fill="none" stroke="black" d="M296.04,-432.05C290.97,-423.8 284.76,-413.7 279.13,-404.54"/>
<polygon fill="black" stroke="black" points="281.97,-402.48 273.76,-395.79 276.01,-406.14 281.97,-402.48"/>
</g>
<!-- Distance -->
<g id="node9" class="node">
<title>Distance</title>
<ellipse fill="none" stroke="black" cx="338.44" cy="-162" rx="41.69" ry="18"/>
<text text-anchor="middle" x="338.44" y="-158.3" font-family="Times,serif" font-size="14.00">Distance</text>
</g>
<!-- UnfoldDia&#45;&gt;Distance -->
<g id="edge6" class="edge">
<title>UnfoldDia&#45;&gt;Distance</title>
<path fill="none" stroke="black" d="M316.24,-431.94C321.5,-421.84 327.5,-408.59 330.44,-396 347.44,-323.33 344.1,-234.48 340.91,-190.45"/>
<polygon fill="black" stroke="black" points="344.38,-189.95 340.11,-180.25 337.4,-190.5 344.38,-189.95"/>
</g>
<!-- LocalTableau -->
<g id="node18" class="node">
<title>LocalTableau</title>
<ellipse fill="none" stroke="black" cx="128.44" cy="-378" rx="59.29" ry="18"/>
<text text-anchor="middle" x="128.44" y="-374.3" font-family="Times,serif" font-size="14.00">LocalTableau</text>
</g>
<!-- UnfoldDia&#45;&gt;LocalTableau -->
<g id="edge13" class="edge">
<title>UnfoldDia&#45;&gt;LocalTableau</title>
<path fill="none" stroke="black" d="M274.62,-436.49C246.17,-425.29 204.19,-408.79 172.51,-396.33"/>
<polygon fill="black" stroke="black" points="173.62,-393 163.03,-392.6 171.06,-399.52 173.62,-393"/>
</g>
<!-- Distance&#45;&gt;PartInterpolation -->
<g id="edge19" class="edge">
<title>Distance&#45;&gt;PartInterpolation</title>
<path fill="none" stroke="black" d="M322.56,-145.12C313.69,-136.24 302.45,-125.01 292.52,-115.08"/>
<polygon fill="black" stroke="black" points="294.79,-112.39 285.24,-107.8 289.84,-117.34 294.79,-112.39"/>
</g>
<!-- Star -->
<g id="node11" class="node">
<title>Star</title>
<ellipse fill="none" stroke="black" cx="390.44" cy="-522" rx="27" ry="18"/>
<text text-anchor="middle" x="390.44" y="-518.3" font-family="Times,serif" font-size="14.00">Star</text>
</g>
<!-- Star&#45;&gt;UnfoldDia -->
<g id="edge34" class="edge">
<title>Star&#45;&gt;UnfoldDia</title>
<path fill="none" stroke="black" d="M374.25,-507.5C362.64,-497.83 346.74,-484.58 333.26,-473.34"/>
<polygon fill="black" stroke="black" points="335.15,-470.37 325.23,-466.65 330.67,-475.75 335.15,-470.37"/>
</g>
<!-- Star&#45;&gt;Examples -->
<g id="edge8" class="edge">
<title>Star&#45;&gt;Examples</title>
<path fill="none" stroke="black" d="M399.98,-505.12C405.04,-496.68 411.38,-486.1 417.12,-476.55"/>
<polygon fill="black" stroke="black" points="420.22,-478.17 422.37,-467.8 414.22,-474.57 420.22,-478.17"/>
</g>
<!-- UnfoldBox -->
<g id="node17" class="node">
<title>UnfoldBox</title>
<ellipse fill="none" stroke="black" cx="190.44" cy="-450" rx="50.09" ry="18"/>
<text text-anchor="middle" x="190.44" y="-446.3" font-family="Times,serif" font-size="14.00">UnfoldBox</text>
</g>
<!-- Star&#45;&gt;UnfoldBox -->
<g id="edge30" class="edge">
<title>Star&#45;&gt;UnfoldBox</title>
<path fill="none" stroke="black" d="M369.32,-510.47C364.49,-508.22 359.33,-505.93 354.44,-504 315.99,-488.78 271.26,-474.55 238.24,-464.67"/>
<polygon fill="black" stroke="black" points="238.97,-461.24 228.38,-461.75 236.98,-467.95 238.97,-461.24"/>
</g>
<!-- Syntax -->
<g id="node12" class="node">
<title>Syntax</title>
<ellipse fill="none" stroke="black" cx="293.44" cy="-810" rx="35.19" ry="18"/>
<text text-anchor="middle" x="293.44" y="-806.3" font-family="Times,serif" font-size="14.00">Syntax</text>
</g>
<!-- Syntax&#45;&gt;Semantics -->
<g id="edge21" class="edge">
<title>Syntax&#45;&gt;Semantics</title>
<path fill="none" stroke="black" d="M298.51,-791.94C304.54,-773.25 315.81,-742.89 331.44,-720 338.97,-708.98 349.02,-698.37 358.41,-689.56"/>
<polygon fill="black" stroke="black" points="361.01,-691.93 366.08,-682.63 356.31,-686.74 361.01,-691.93"/>
</g>
<!-- Syntax&#45;&gt;Vocab -->
<g id="edge35" class="edge">
<title>Syntax&#45;&gt;Vocab</title>
<path fill="none" stroke="black" d="M291.15,-791.87C287.91,-767.67 281.97,-723.21 278.11,-694.39"/>
<polygon fill="black" stroke="black" points="281.54,-693.64 276.74,-684.19 274.6,-694.57 281.54,-693.64"/>
</g>
<!-- FischerLadner -->
<g id="node13" class="node">
<title>FischerLadner</title>
<ellipse fill="none" stroke="black" cx="166.44" cy="-738" rx="61.99" ry="18"/>
<text text-anchor="middle" x="166.44" y="-734.3" font-family="Times,serif" font-size="14.00">FischerLadner</text>
</g>
<!-- Syntax&#45;&gt;FischerLadner -->
<g id="edge9" class="edge">
<title>Syntax&#45;&gt;FischerLadner</title>
<path fill="none" stroke="black" d="M270.45,-796.32C251.68,-785.98 224.82,-771.18 203.1,-759.2"/>
<polygon fill="black" stroke="black" points="204.59,-756.03 194.14,-754.27 201.21,-762.16 204.59,-756.03"/>
</g>
<!-- Measures -->
<g id="node20" class="node">
<title>Measures</title>
<ellipse fill="none" stroke="black" cx="385.44" cy="-738" rx="44.69" ry="18"/>
<text text-anchor="middle" x="385.44" y="-734.3" font-family="Times,serif" font-size="14.00">Measures</text>
</g>
<!-- Syntax&#45;&gt;Measures -->
<g id="edge15" class="edge">
<title>Syntax&#45;&gt;Measures</title>
<path fill="none" stroke="black" d="M312.51,-794.5C325.44,-784.65 342.76,-771.47 357.28,-760.43"/>
<polygon fill="black" stroke="black" points="359.61,-763.05 365.45,-754.21 355.37,-757.48 359.61,-763.05"/>
</g>
<!-- FischerLadner&#45;&gt;UnfoldBox -->
<g id="edge31" class="edge">
<title>FischerLadner&#45;&gt;UnfoldBox</title>
<path fill="none" stroke="black" d="M160.96,-720.06C149.18,-680.84 124.56,-581.28 150.44,-504 154,-493.4 160.6,-483.22 167.43,-474.67"/>
<polygon fill="black" stroke="black" points="170.14,-476.89 173.96,-467.01 164.81,-472.35 170.14,-476.89"/>
</g>
<!-- Fresh&#45;&gt;UnfoldDia -->
<g id="edge33" class="edge">
<title>Fresh&#45;&gt;UnfoldDia</title>
<path fill="none" stroke="black" d="M211.18,-508.49C228.48,-498.05 253.43,-482.99 273.46,-470.9"/>
<polygon fill="black" stroke="black" points="275.52,-473.75 282.28,-465.59 271.9,-467.76 275.52,-473.75"/>
</g>
<!-- Fresh&#45;&gt;UnfoldBox -->
<g id="edge29" class="edge">
<title>Fresh&#45;&gt;UnfoldBox</title>
<path fill="none" stroke="black" d="M190.44,-503.7C190.44,-495.98 190.44,-486.71 190.44,-478.11"/>
<polygon fill="black" stroke="black" points="193.94,-478.1 190.44,-468.1 186.94,-478.1 193.94,-478.1"/>
</g>
<!-- Interpolation -->
<g id="node16" class="node">
<title>Interpolation</title>
<ellipse fill="none" stroke="black" cx="268.44" cy="-18" rx="55.79" ry="18"/>
<text text-anchor="middle" x="268.44" y="-14.3" font-family="Times,serif" font-size="14.00">Interpolation</text>
</g>
<!-- PartInterpolation&#45;&gt;Interpolation -->
<g id="edge11" class="edge">
<title>PartInterpolation&#45;&gt;Interpolation</title>
<path fill="none" stroke="black" d="M268.44,-71.7C268.44,-63.98 268.44,-54.71 268.44,-46.11"/>
<polygon fill="black" stroke="black" points="271.94,-46.1 268.44,-36.1 264.94,-46.1 271.94,-46.1"/>
</g>
<!-- UnfoldBox&#45;&gt;Modelgraphs -->
<g id="edge16" class="edge">
<title>UnfoldBox&#45;&gt;Modelgraphs</title>
<path fill="none" stroke="black" d="M207.38,-432.76C216.8,-423.73 228.69,-412.33 239.1,-402.35"/>
<polygon fill="black" stroke="black" points="241.56,-404.84 246.35,-395.39 236.71,-399.78 241.56,-404.84"/>
</g>
<!-- UnfoldBox&#45;&gt;LocalTableau -->
<g id="edge12" class="edge">
<title>UnfoldBox&#45;&gt;LocalTableau</title>
<path fill="none" stroke="black" d="M175.75,-432.41C168.03,-423.69 158.42,-412.85 149.89,-403.21"/>
<polygon fill="black" stroke="black" points="152.28,-400.64 143.03,-395.47 147.04,-405.28 152.28,-400.64"/>
</g>
<!-- Tableau -->
<g id="node22" class="node">
<title>Tableau</title>
<ellipse fill="none" stroke="black" cx="139.44" cy="-306" rx="38.99" ry="18"/>
<text text-anchor="middle" x="139.44" y="-302.3" font-family="Times,serif" font-size="14.00">Tableau</text>
</g>
<!-- LocalTableau&#45;&gt;Tableau -->
<g id="edge25" class="edge">
<title>LocalTableau&#45;&gt;Tableau</title>
<path fill="none" stroke="black" d="M131.16,-359.7C132.38,-351.98 133.83,-342.71 135.18,-334.11"/>
<polygon fill="black" stroke="black" points="138.66,-334.53 136.76,-324.1 131.75,-333.44 138.66,-334.53"/>
</g>
<!-- MultisetOrder -->
<g id="node19" class="node">
<title>MultisetOrder</title>
<ellipse fill="none" stroke="black" cx="61.44" cy="-450" rx="61.19" ry="18"/>
<text text-anchor="middle" x="61.44" y="-446.3" font-family="Times,serif" font-size="14.00">MultisetOrder</text>
</g>
<!-- MultisetOrder&#45;&gt;LocalTableau -->
<g id="edge14" class="edge">
<title>MultisetOrder&#45;&gt;LocalTableau</title>
<path fill="none" stroke="black" d="M77.32,-432.41C85.75,-423.61 96.26,-412.63 105.55,-402.92"/>
<polygon fill="black" stroke="black" points="108.29,-405.11 112.68,-395.47 103.24,-400.27 108.29,-405.11"/>
</g>
<!-- Measures&#45;&gt;Semantics -->
<g id="edge22" class="edge">
<title>Measures&#45;&gt;Semantics</title>
<path fill="none" stroke="black" d="M385.44,-719.7C385.44,-711.98 385.44,-702.71 385.44,-694.11"/>
<polygon fill="black" stroke="black" points="388.94,-694.1 385.44,-684.1 381.94,-694.1 388.94,-694.1"/>
</g>
<!-- Tableau&#45;&gt;Soundness -->
<g id="edge23" class="edge">
<title>Tableau&#45;&gt;Soundness</title>
<path fill="none" stroke="black" d="M150.82,-288.41C156.53,-280.08 163.58,-269.8 169.97,-260.49"/>
<polygon fill="black" stroke="black" points="173.05,-262.18 175.82,-251.96 167.28,-258.22 173.05,-262.18"/>
</g>
<!-- Tableau&#45;&gt;TableauGame -->
<g id="edge27" class="edge">
<title>Tableau&#45;&gt;TableauGame</title>
<path fill="none" stroke="black" d="M122.3,-289.81C111.91,-280.6 98.43,-268.65 86.7,-258.27"/>
<polygon fill="black" stroke="black" points="88.74,-255.39 78.93,-251.38 84.09,-260.63 88.74,-255.39"/>
</g>
<!-- Substitution&#45;&gt;UnfoldDia -->
<g id="edge32" class="edge">
<title>Substitution&#45;&gt;UnfoldDia</title>
<path fill="none" stroke="black" d="M295.91,-503.7C297.45,-495.98 299.3,-486.71 301.02,-478.11"/>
<polygon fill="black" stroke="black" points="304.49,-478.6 303.02,-468.1 297.63,-477.22 304.49,-478.6"/>
</g>
<!-- Substitution&#45;&gt;UnfoldBox -->
<g id="edge28" class="edge">
<title>Substitution&#45;&gt;UnfoldBox</title>
<path fill="none" stroke="black" d="M270.06,-505.64C255.71,-495.79 236.89,-482.88 221.16,-472.08"/>
<polygon fill="black" stroke="black" points="223,-469.1 212.78,-466.33 219.04,-474.87 223,-469.1"/>
</g>
<!-- Game -->
<g id="node24" class="node">
<title>Game</title>
<ellipse fill="none" stroke="black" cx="50.44" cy="-306" rx="32.49" ry="18"/>
<text text-anchor="middle" x="50.44" y="-302.3" font-family="Times,serif" font-size="14.00">Game</text>
</g>
<!-- Game&#45;&gt;TableauGame -->
<g id="edge26" class="edge">
<title>Game&#45;&gt;TableauGame</title>
<path fill="none" stroke="black" d="M52.92,-287.7C54.02,-279.98 55.34,-270.71 56.57,-262.11"/>
<polygon fill="black" stroke="black" points="60.05,-262.5 58,-252.1 53.12,-261.51 60.05,-262.5"/>
</g>
</g>
</svg>
