<?xml version="1.0" encoding="UTF-8" standalone="no"?>
<!DOCTYPE svg PUBLIC "-//W3C//DTD SVG 1.1//EN"
 "http://www.w3.org/Graphics/SVG/1.1/DTD/svg11.dtd">
<!-- Generated by graphviz version 2.43.0 (0)
 -->
<!-- Title: %3 Pages: 1 -->
<svg width="503pt" height="980pt"
 viewBox="0.00 0.00 502.74 980.00" xmlns="http://www.w3.org/2000/svg" xmlns:xlink="http://www.w3.org/1999/xlink">
<g id="graph0" class="graph" transform="scale(1 1) rotate(0) translate(4 976)">
<title>%3</title>
<polygon fill="white" stroke="transparent" points="-4,4 -4,-976 498.74,-976 498.74,4 -4,4"/>
<!-- Interpolation -->
<g id="node1" class="node">
<title>Interpolation</title>
<ellipse fill="none" stroke="black" cx="96.15" cy="-90" rx="55.79" ry="18"/>
<text text-anchor="middle" x="96.15" y="-86.3" font-family="Times,serif" font-size="14.00">Interpolation</text>
</g>
<!-- Beth -->
<g id="node2" class="node">
<title>Beth</title>
<ellipse fill="none" stroke="black" cx="96.15" cy="-18" rx="27.1" ry="18"/>
<text text-anchor="middle" x="96.15" y="-14.3" font-family="Times,serif" font-size="14.00">Beth</text>
</g>
<!-- Interpolation&#45;&gt;Beth -->
<g id="edge1" class="edge">
<title>Interpolation&#45;&gt;Beth</title>
<path fill="none" stroke="black" d="M96.15,-71.7C96.15,-63.98 96.15,-54.71 96.15,-46.11"/>
<polygon fill="black" stroke="black" points="99.65,-46.1 96.15,-36.1 92.65,-46.1 99.65,-46.1"/>
</g>
<!-- Soundness -->
<g id="node3" class="node">
<title>Soundness</title>
<ellipse fill="none" stroke="black" cx="328.15" cy="-306" rx="48.19" ry="18"/>
<text text-anchor="middle" x="328.15" y="-302.3" font-family="Times,serif" font-size="14.00">Soundness</text>
</g>
<!-- Completeness -->
<g id="node4" class="node">
<title>Completeness</title>
<ellipse fill="none" stroke="black" cx="140.15" cy="-234" rx="60.39" ry="18"/>
<text text-anchor="middle" x="140.15" y="-230.3" font-family="Times,serif" font-size="14.00">Completeness</text>
</g>
<!-- Soundness&#45;&gt;Completeness -->
<g id="edge2" class="edge">
<title>Soundness&#45;&gt;Completeness</title>
<path fill="none" stroke="black" d="M295.4,-292.81C265.14,-281.54 219.89,-264.69 186.03,-252.09"/>
<polygon fill="black" stroke="black" points="186.96,-248.7 176.37,-248.49 184.52,-255.26 186.96,-248.7"/>
</g>
<!-- PartInterpolation -->
<g id="node13" class="node">
<title>PartInterpolation</title>
<ellipse fill="none" stroke="black" cx="96.15" cy="-162" rx="70.39" ry="18"/>
<text text-anchor="middle" x="96.15" y="-158.3" font-family="Times,serif" font-size="14.00">PartInterpolation</text>
</g>
<!-- Completeness&#45;&gt;PartInterpolation -->
<g id="edge15" class="edge">
<title>Completeness&#45;&gt;PartInterpolation</title>
<path fill="none" stroke="black" d="M129.49,-216.05C124.38,-207.92 118.14,-198 112.45,-188.94"/>
<polygon fill="black" stroke="black" points="115.29,-186.88 107,-180.28 109.36,-190.6 115.29,-186.88"/>
</g>
<!-- TableauGame -->
<g id="node5" class="node">
<title>TableauGame</title>
<ellipse fill="none" stroke="black" cx="140.15" cy="-378" rx="60.39" ry="18"/>
<text text-anchor="middle" x="140.15" y="-374.3" font-family="Times,serif" font-size="14.00">TableauGame</text>
</g>
<!-- TableauGame&#45;&gt;Completeness -->
<g id="edge3" class="edge">
<title>TableauGame&#45;&gt;Completeness</title>
<path fill="none" stroke="black" d="M140.15,-359.87C140.15,-335.67 140.15,-291.21 140.15,-262.39"/>
<polygon fill="black" stroke="black" points="143.65,-262.19 140.15,-252.19 136.65,-262.19 143.65,-262.19"/>
</g>
<!-- Semantics -->
<g id="node6" class="node">
<title>Semantics</title>
<ellipse fill="none" stroke="black" cx="148.15" cy="-810" rx="47.39" ry="18"/>
<text text-anchor="middle" x="148.15" y="-806.3" font-family="Times,serif" font-size="14.00">Semantics</text>
</g>
<!-- Discon -->
<g id="node7" class="node">
<title>Discon</title>
<ellipse fill="none" stroke="black" cx="251.15" cy="-738" rx="36" ry="18"/>
<text text-anchor="middle" x="251.15" y="-734.3" font-family="Times,serif" font-size="14.00">Discon</text>
</g>
<!-- Semantics&#45;&gt;Discon -->
<g id="edge4" class="edge">
<title>Semantics&#45;&gt;Discon</title>
<path fill="none" stroke="black" d="M170.24,-793.98C185.3,-783.75 205.41,-770.08 221.81,-758.93"/>
<polygon fill="black" stroke="black" points="224.19,-761.55 230.49,-753.04 220.25,-755.76 224.19,-761.55"/>
</g>
<!-- Examples -->
<g id="node11" class="node">
<title>Examples</title>
<ellipse fill="none" stroke="black" cx="46.15" cy="-594" rx="46.29" ry="18"/>
<text text-anchor="middle" x="46.15" y="-590.3" font-family="Times,serif" font-size="14.00">Examples</text>
</g>
<!-- Semantics&#45;&gt;Examples -->
<g id="edge7" class="edge">
<title>Semantics&#45;&gt;Examples</title>
<path fill="none" stroke="black" d="M128.33,-793.44C117.17,-783.74 103.78,-770.39 95.15,-756 69.37,-713.05 56.14,-655.42 50.22,-622.03"/>
<polygon fill="black" stroke="black" points="53.66,-621.37 48.54,-612.09 46.75,-622.54 53.66,-621.37"/>
</g>
<!-- SemQuot -->
<g id="node19" class="node">
<title>SemQuot</title>
<ellipse fill="none" stroke="black" cx="148.15" cy="-738" rx="44.39" ry="18"/>
<text text-anchor="middle" x="148.15" y="-734.3" font-family="Times,serif" font-size="14.00">SemQuot</text>
</g>
<!-- Semantics&#45;&gt;SemQuot -->
<g id="edge17" class="edge">
<title>Semantics&#45;&gt;SemQuot</title>
<path fill="none" stroke="black" d="M148.15,-791.7C148.15,-783.98 148.15,-774.71 148.15,-766.11"/>
<polygon fill="black" stroke="black" points="151.65,-766.1 148.15,-756.1 144.65,-766.1 151.65,-766.1"/>
</g>
<!-- Substitution -->
<g id="node21" class="node">
<title>Substitution</title>
<ellipse fill="none" stroke="black" cx="253.15" cy="-666" rx="53.09" ry="18"/>
<text text-anchor="middle" x="253.15" y="-662.3" font-family="Times,serif" font-size="14.00">Substitution</text>
</g>
<!-- Discon&#45;&gt;Substitution -->
<g id="edge21" class="edge">
<title>Discon&#45;&gt;Substitution</title>
<path fill="none" stroke="black" d="M251.64,-719.7C251.86,-711.98 252.13,-702.71 252.37,-694.11"/>
<polygon fill="black" stroke="black" points="255.87,-694.2 252.66,-684.1 248.87,-694 255.87,-694.2"/>
</g>
<!-- Vocab -->
<g id="node8" class="node">
<title>Vocab</title>
<ellipse fill="none" stroke="black" cx="251.15" cy="-810" rx="32.49" ry="18"/>
<text text-anchor="middle" x="251.15" y="-806.3" font-family="Times,serif" font-size="14.00">Vocab</text>
</g>
<!-- Vocab&#45;&gt;Discon -->
<g id="edge5" class="edge">
<title>Vocab&#45;&gt;Discon</title>
<path fill="none" stroke="black" d="M251.15,-791.7C251.15,-783.98 251.15,-774.71 251.15,-766.11"/>
<polygon fill="black" stroke="black" points="254.65,-766.1 251.15,-756.1 247.65,-766.1 254.65,-766.1"/>
</g>
<!-- UnfoldDia -->
<g id="node9" class="node">
<title>UnfoldDia</title>
<ellipse fill="none" stroke="black" cx="158.15" cy="-594" rx="48.19" ry="18"/>
<text text-anchor="middle" x="158.15" y="-590.3" font-family="Times,serif" font-size="14.00">UnfoldDia</text>
</g>
<!-- Distance -->
<g id="node10" class="node">
<title>Distance</title>
<ellipse fill="none" stroke="black" cx="52.15" cy="-306" rx="41.69" ry="18"/>
<text text-anchor="middle" x="52.15" y="-302.3" font-family="Times,serif" font-size="14.00">Distance</text>
</g>
<!-- UnfoldDia&#45;&gt;Distance -->
<g id="edge6" class="edge">
<title>UnfoldDia&#45;&gt;Distance</title>
<path fill="none" stroke="black" d="M132.85,-578.58C118.66,-569.27 101.73,-555.94 91.15,-540 48.61,-475.95 47.46,-380.76 49.89,-334.38"/>
<polygon fill="black" stroke="black" points="53.39,-334.41 50.52,-324.21 46.41,-333.97 53.39,-334.41"/>
</g>
<!-- LocalTableau -->
<g id="node15" class="node">
<title>LocalTableau</title>
<ellipse fill="none" stroke="black" cx="293.15" cy="-522" rx="59.29" ry="18"/>
<text text-anchor="middle" x="293.15" y="-518.3" font-family="Times,serif" font-size="14.00">LocalTableau</text>
</g>
<!-- UnfoldDia&#45;&gt;LocalTableau -->
<g id="edge11" class="edge">
<title>UnfoldDia&#45;&gt;LocalTableau</title>
<path fill="none" stroke="black" d="M185.14,-579C205.29,-568.55 233.09,-554.14 255.44,-542.55"/>
<polygon fill="black" stroke="black" points="257.06,-545.65 264.33,-537.94 253.84,-539.44 257.06,-545.65"/>
</g>
<!-- Modelgraphs -->
<g id="node18" class="node">
<title>Modelgraphs</title>
<ellipse fill="none" stroke="black" cx="158.15" cy="-522" rx="57.69" ry="18"/>
<text text-anchor="middle" x="158.15" y="-518.3" font-family="Times,serif" font-size="14.00">Modelgraphs</text>
</g>
<!-- UnfoldDia&#45;&gt;Modelgraphs -->
<g id="edge14" class="edge">
<title>UnfoldDia&#45;&gt;Modelgraphs</title>
<path fill="none" stroke="black" d="M158.15,-575.7C158.15,-567.98 158.15,-558.71 158.15,-550.11"/>
<polygon fill="black" stroke="black" points="161.65,-550.1 158.15,-540.1 154.65,-550.1 161.65,-550.1"/>
</g>
<!-- Distance&#45;&gt;PartInterpolation -->
<g id="edge16" class="edge">
<title>Distance&#45;&gt;PartInterpolation</title>
<path fill="none" stroke="black" d="M54.59,-287.96C57.46,-269.81 62.91,-240.4 71.15,-216 74.14,-207.13 78.21,-197.79 82.2,-189.47"/>
<polygon fill="black" stroke="black" points="85.46,-190.76 86.77,-180.25 79.19,-187.65 85.46,-190.76"/>
</g>
<!-- Star -->
<g id="node12" class="node">
<title>Star</title>
<ellipse fill="none" stroke="black" cx="155.15" cy="-666" rx="27" ry="18"/>
<text text-anchor="middle" x="155.15" y="-662.3" font-family="Times,serif" font-size="14.00">Star</text>
</g>
<!-- Star&#45;&gt;UnfoldDia -->
<g id="edge32" class="edge">
<title>Star&#45;&gt;UnfoldDia</title>
<path fill="none" stroke="black" d="M155.89,-647.7C156.22,-639.98 156.62,-630.71 156.98,-622.11"/>
<polygon fill="black" stroke="black" points="160.48,-622.25 157.41,-612.1 153.49,-621.95 160.48,-622.25"/>
</g>
<!-- Star&#45;&gt;Examples -->
<g id="edge8" class="edge">
<title>Star&#45;&gt;Examples</title>
<path fill="none" stroke="black" d="M136.16,-652.81C120.05,-642.46 96.6,-627.4 77.67,-615.25"/>
<polygon fill="black" stroke="black" points="79.38,-612.18 69.07,-609.72 75.59,-618.07 79.38,-612.18"/>
</g>
<!-- UnfoldBox -->
<g id="node14" class="node">
<title>UnfoldBox</title>
<ellipse fill="none" stroke="black" cx="274.15" cy="-594" rx="50.09" ry="18"/>
<text text-anchor="middle" x="274.15" y="-590.3" font-family="Times,serif" font-size="14.00">UnfoldBox</text>
</g>
<!-- Star&#45;&gt;UnfoldBox -->
<g id="edge30" class="edge">
<title>Star&#45;&gt;UnfoldBox</title>
<path fill="none" stroke="black" d="M174.8,-653.44C192.59,-642.98 219.18,-627.34 240.37,-614.87"/>
<polygon fill="black" stroke="black" points="242.24,-617.83 249.08,-609.74 238.69,-611.8 242.24,-617.83"/>
</g>
<!-- PartInterpolation&#45;&gt;Interpolation -->
<g id="edge9" class="edge">
<title>PartInterpolation&#45;&gt;Interpolation</title>
<path fill="none" stroke="black" d="M96.15,-143.7C96.15,-135.98 96.15,-126.71 96.15,-118.11"/>
<polygon fill="black" stroke="black" points="99.65,-118.1 96.15,-108.1 92.65,-118.1 99.65,-118.1"/>
</g>
<!-- UnfoldBox&#45;&gt;LocalTableau -->
<g id="edge10" class="edge">
<title>UnfoldBox&#45;&gt;LocalTableau</title>
<path fill="none" stroke="black" d="M278.75,-576.05C280.86,-568.26 283.42,-558.82 285.8,-550.08"/>
<polygon fill="black" stroke="black" points="289.22,-550.84 288.46,-540.28 282.46,-549.01 289.22,-550.84"/>
</g>
<!-- UnfoldBox&#45;&gt;Modelgraphs -->
<g id="edge13" class="edge">
<title>UnfoldBox&#45;&gt;Modelgraphs</title>
<path fill="none" stroke="black" d="M249.55,-578.15C232.86,-568.08 210.57,-554.64 192.18,-543.54"/>
<polygon fill="black" stroke="black" points="193.88,-540.48 183.51,-538.31 190.27,-546.47 193.88,-540.48"/>
</g>
<!-- Tableau -->
<g id="node22" class="node">
<title>Tableau</title>
<ellipse fill="none" stroke="black" cx="293.15" cy="-450" rx="38.99" ry="18"/>
<text text-anchor="middle" x="293.15" y="-446.3" font-family="Times,serif" font-size="14.00">Tableau</text>
</g>
<!-- LocalTableau&#45;&gt;Tableau -->
<g id="edge22" class="edge">
<title>LocalTableau&#45;&gt;Tableau</title>
<path fill="none" stroke="black" d="M293.15,-503.7C293.15,-495.98 293.15,-486.71 293.15,-478.11"/>
<polygon fill="black" stroke="black" points="296.65,-478.1 293.15,-468.1 289.65,-478.1 296.65,-478.1"/>
</g>
<!-- Syntax -->
<g id="node16" class="node">
<title>Syntax</title>
<ellipse fill="none" stroke="black" cx="213.15" cy="-954" rx="35.19" ry="18"/>
<text text-anchor="middle" x="213.15" y="-950.3" font-family="Times,serif" font-size="14.00">Syntax</text>
</g>
<!-- Syntax&#45;&gt;Semantics -->
<g id="edge18" class="edge">
<title>Syntax&#45;&gt;Semantics</title>
<path fill="none" stroke="black" d="M212.03,-935.76C210.25,-917.19 205.71,-887.19 194.15,-864 188.82,-853.31 180.83,-843.04 172.99,-834.44"/>
<polygon fill="black" stroke="black" points="175.36,-831.85 165.93,-827.03 170.3,-836.68 175.36,-831.85"/>
</g>
<!-- Syntax&#45;&gt;Vocab -->
<g id="edge33" class="edge">
<title>Syntax&#45;&gt;Vocab</title>
<path fill="none" stroke="black" d="M217.73,-935.87C224.23,-911.56 236.21,-866.82 243.92,-838.01"/>
<polygon fill="black" stroke="black" points="247.34,-838.75 246.55,-828.19 240.58,-836.94 247.34,-838.75"/>
</g>
<!-- Measures -->
<g id="node17" class="node">
<title>Measures</title>
<ellipse fill="none" stroke="black" cx="140.15" cy="-882" rx="44.69" ry="18"/>
<text text-anchor="middle" x="140.15" y="-878.3" font-family="Times,serif" font-size="14.00">Measures</text>
</g>
<!-- Syntax&#45;&gt;Measures -->
<g id="edge12" class="edge">
<title>Syntax&#45;&gt;Measures</title>
<path fill="none" stroke="black" d="M197.31,-937.81C187.56,-928.47 174.89,-916.31 163.95,-905.83"/>
<polygon fill="black" stroke="black" points="166.36,-903.28 156.72,-898.89 161.51,-908.34 166.36,-903.28"/>
</g>
<!-- Measures&#45;&gt;Semantics -->
<g id="edge19" class="edge">
<title>Measures&#45;&gt;Semantics</title>
<path fill="none" stroke="black" d="M142.12,-863.7C143.01,-855.98 144.06,-846.71 145.05,-838.11"/>
<polygon fill="black" stroke="black" points="148.53,-838.44 146.19,-828.1 141.58,-837.64 148.53,-838.44"/>
</g>
<!-- Modelgraphs&#45;&gt;TableauGame -->
<g id="edge26" class="edge">
<title>Modelgraphs&#45;&gt;TableauGame</title>
<path fill="none" stroke="black" d="M158.12,-503.84C157.87,-485.85 156.85,-456.8 153.15,-432 151.87,-423.44 149.84,-414.23 147.77,-405.93"/>
<polygon fill="black" stroke="black" points="151.09,-404.81 145.17,-396.03 144.32,-406.59 151.09,-404.81"/>
</g>
<!-- TableauPath -->
<g id="node20" class="node">
<title>TableauPath</title>
<ellipse fill="none" stroke="black" cx="440.15" cy="-378" rx="54.69" ry="18"/>
<text text-anchor="middle" x="440.15" y="-374.3" font-family="Times,serif" font-size="14.00">TableauPath</text>
</g>
<!-- TableauPath&#45;&gt;Soundness -->
<g id="edge20" class="edge">
<title>TableauPath&#45;&gt;Soundness</title>
<path fill="none" stroke="black" d="M415.84,-361.81C399.74,-351.74 378.41,-338.42 360.83,-327.42"/>
<polygon fill="black" stroke="black" points="362.35,-324.25 352.02,-321.92 358.64,-330.19 362.35,-324.25"/>
</g>
<!-- Substitution&#45;&gt;UnfoldDia -->
<g id="edge31" class="edge">
<title>Substitution&#45;&gt;UnfoldDia</title>
<path fill="none" stroke="black" d="M232.06,-649.46C218.81,-639.7 201.54,-626.97 187.02,-616.28"/>
<polygon fill="black" stroke="black" points="188.97,-613.37 178.84,-610.25 184.82,-619 188.97,-613.37"/>
</g>
<!-- Substitution&#45;&gt;UnfoldBox -->
<g id="edge29" class="edge">
<title>Substitution&#45;&gt;UnfoldBox</title>
<path fill="none" stroke="black" d="M258.23,-648.05C260.57,-640.26 263.4,-630.82 266.02,-622.08"/>
<polygon fill="black" stroke="black" points="269.44,-622.86 268.96,-612.28 262.74,-620.85 269.44,-622.86"/>
</g>
<!-- Tableau&#45;&gt;TableauGame -->
<g id="edge25" class="edge">
<title>Tableau&#45;&gt;TableauGame</title>
<path fill="none" stroke="black" d="M266.5,-436.81C242.91,-426.01 208.12,-410.1 181.01,-397.7"/>
<polygon fill="black" stroke="black" points="182.33,-394.45 171.78,-393.47 179.42,-400.82 182.33,-394.45"/>
</g>
<!-- Tableau&#45;&gt;TableauPath -->
<g id="edge27" class="edge">
<title>Tableau&#45;&gt;TableauPath</title>
<path fill="none" stroke="black" d="M319.43,-436.49C342.15,-425.66 375.33,-409.87 401.15,-397.57"/>
<polygon fill="black" stroke="black" points="402.77,-400.67 410.3,-393.21 399.76,-394.35 402.77,-400.67"/>
</g>
<!-- TableauExamples -->
<g id="node23" class="node">
<title>TableauExamples</title>
<ellipse fill="none" stroke="black" cx="293.15" cy="-378" rx="74.19" ry="18"/>
<text text-anchor="middle" x="293.15" y="-374.3" font-family="Times,serif" font-size="14.00">TableauExamples</text>
</g>
<!-- Tableau&#45;&gt;TableauExamples -->
<g id="edge23" class="edge">
<title>Tableau&#45;&gt;TableauExamples</title>
<path fill="none" stroke="black" d="M293.15,-431.7C293.15,-423.98 293.15,-414.71 293.15,-406.11"/>
<polygon fill="black" stroke="black" points="296.65,-406.1 293.15,-396.1 289.65,-406.1 296.65,-406.1"/>
</g>
<!-- Game -->
<g id="node24" class="node">
<title>Game</title>
<ellipse fill="none" stroke="black" cx="112.15" cy="-450" rx="32.49" ry="18"/>
<text text-anchor="middle" x="112.15" y="-446.3" font-family="Times,serif" font-size="14.00">Game</text>
</g>
<!-- Game&#45;&gt;TableauGame -->
<g id="edge24" class="edge">
<title>Game&#45;&gt;TableauGame</title>
<path fill="none" stroke="black" d="M118.92,-432.05C122.08,-424.18 125.9,-414.62 129.43,-405.79"/>
<polygon fill="black" stroke="black" points="132.77,-406.86 133.24,-396.28 126.27,-404.26 132.77,-406.86"/>
</g>
<!-- Vector -->
<g id="node25" class="node">
<title>Vector</title>
<ellipse fill="none" stroke="black" cx="440.15" cy="-450" rx="33.6" ry="18"/>
<text text-anchor="middle" x="440.15" y="-446.3" font-family="Times,serif" font-size="14.00">Vector</text>
</g>
<!-- Vector&#45;&gt;TableauPath -->
<g id="edge28" class="edge">
<title>Vector&#45;&gt;TableauPath</title>
<path fill="none" stroke="black" d="M440.15,-431.7C440.15,-423.98 440.15,-414.71 440.15,-406.11"/>
<polygon fill="black" stroke="black" points="443.65,-406.1 440.15,-396.1 436.65,-406.1 443.65,-406.1"/>
</g>
</g>
</svg>
