<?xml version="1.0" encoding="UTF-8" standalone="no"?>
<!DOCTYPE svg PUBLIC "-//W3C//DTD SVG 1.1//EN"
 "http://www.w3.org/Graphics/SVG/1.1/DTD/svg11.dtd">
<!-- Generated by graphviz version 2.43.0 (0)
 -->
<!-- Title: %3 Pages: 1 -->
<svg width="515pt" height="908pt"
 viewBox="0.00 0.00 514.79 908.00" xmlns="http://www.w3.org/2000/svg" xmlns:xlink="http://www.w3.org/1999/xlink">
<g id="graph0" class="graph" transform="scale(1 1) rotate(0) translate(4 904)">
<title>%3</title>
<polygon fill="white" stroke="transparent" points="-4,4 -4,-904 510.79,-904 510.79,4 -4,4"/>
<!-- Soundness -->
<g id="node1" class="node">
<title>Soundness</title>
<ellipse fill="none" stroke="black" cx="317.6" cy="-234" rx="48.19" ry="18"/>
<text text-anchor="middle" x="317.6" y="-230.3" font-family="Times,serif" font-size="14.00">Soundness</text>
</g>
<!-- Completeness -->
<g id="node2" class="node">
<title>Completeness</title>
<ellipse fill="none" stroke="black" cx="129.6" cy="-162" rx="60.39" ry="18"/>
<text text-anchor="middle" x="129.6" y="-158.3" font-family="Times,serif" font-size="14.00">Completeness</text>
</g>
<!-- Soundness&#45;&gt;Completeness -->
<g id="edge1" class="edge">
<title>Soundness&#45;&gt;Completeness</title>
<path fill="none" stroke="black" d="M284.85,-220.81C254.59,-209.54 209.34,-192.69 175.48,-180.09"/>
<polygon fill="black" stroke="black" points="176.41,-176.7 165.82,-176.49 173.97,-183.26 176.41,-176.7"/>
</g>
<!-- PartInterpolation -->
<g id="node12" class="node">
<title>PartInterpolation</title>
<ellipse fill="none" stroke="black" cx="85.6" cy="-90" rx="70.39" ry="18"/>
<text text-anchor="middle" x="85.6" y="-86.3" font-family="Times,serif" font-size="14.00">PartInterpolation</text>
</g>
<!-- Completeness&#45;&gt;PartInterpolation -->
<g id="edge15" class="edge">
<title>Completeness&#45;&gt;PartInterpolation</title>
<path fill="none" stroke="black" d="M118.95,-144.05C113.83,-135.92 107.6,-126 101.9,-116.94"/>
<polygon fill="black" stroke="black" points="104.74,-114.88 96.46,-108.28 98.81,-118.6 104.74,-114.88"/>
</g>
<!-- TableauGame -->
<g id="node3" class="node">
<title>TableauGame</title>
<ellipse fill="none" stroke="black" cx="129.6" cy="-306" rx="60.39" ry="18"/>
<text text-anchor="middle" x="129.6" y="-302.3" font-family="Times,serif" font-size="14.00">TableauGame</text>
</g>
<!-- TableauGame&#45;&gt;Completeness -->
<g id="edge2" class="edge">
<title>TableauGame&#45;&gt;Completeness</title>
<path fill="none" stroke="black" d="M129.6,-287.87C129.6,-263.67 129.6,-219.21 129.6,-190.39"/>
<polygon fill="black" stroke="black" points="133.1,-190.19 129.6,-180.19 126.1,-190.19 133.1,-190.19"/>
</g>
<!-- Semantics -->
<g id="node4" class="node">
<title>Semantics</title>
<ellipse fill="none" stroke="black" cx="389.6" cy="-738" rx="47.39" ry="18"/>
<text text-anchor="middle" x="389.6" y="-734.3" font-family="Times,serif" font-size="14.00">Semantics</text>
</g>
<!-- Discon -->
<g id="node5" class="node">
<title>Discon</title>
<ellipse fill="none" stroke="black" cx="238.6" cy="-666" rx="36" ry="18"/>
<text text-anchor="middle" x="238.6" y="-662.3" font-family="Times,serif" font-size="14.00">Discon</text>
</g>
<!-- Semantics&#45;&gt;Discon -->
<g id="edge3" class="edge">
<title>Semantics&#45;&gt;Discon</title>
<path fill="none" stroke="black" d="M360.84,-723.67C335.99,-712.15 300.02,-695.47 273.52,-683.19"/>
<polygon fill="black" stroke="black" points="274.77,-679.91 264.23,-678.88 271.83,-686.26 274.77,-679.91"/>
</g>
<!-- Examples -->
<g id="node9" class="node">
<title>Examples</title>
<ellipse fill="none" stroke="black" cx="383.6" cy="-522" rx="46.29" ry="18"/>
<text text-anchor="middle" x="383.6" y="-518.3" font-family="Times,serif" font-size="14.00">Examples</text>
</g>
<!-- Semantics&#45;&gt;Examples -->
<g id="edge6" class="edge">
<title>Semantics&#45;&gt;Examples</title>
<path fill="none" stroke="black" d="M389.12,-719.85C388.08,-682.83 385.62,-595.18 384.36,-550.39"/>
<polygon fill="black" stroke="black" points="387.86,-550.13 384.08,-540.23 380.86,-550.33 387.86,-550.13"/>
</g>
<!-- SemQuot -->
<g id="node19" class="node">
<title>SemQuot</title>
<ellipse fill="none" stroke="black" cx="462.6" cy="-666" rx="44.39" ry="18"/>
<text text-anchor="middle" x="462.6" y="-662.3" font-family="Times,serif" font-size="14.00">SemQuot</text>
</g>
<!-- Semantics&#45;&gt;SemQuot -->
<g id="edge17" class="edge">
<title>Semantics&#45;&gt;SemQuot</title>
<path fill="none" stroke="black" d="M406.16,-721.12C415.77,-711.9 428.05,-700.13 438.69,-689.92"/>
<polygon fill="black" stroke="black" points="441.3,-692.27 446.1,-682.82 436.46,-687.22 441.3,-692.27"/>
</g>
<!-- Substitution -->
<g id="node21" class="node">
<title>Substitution</title>
<ellipse fill="none" stroke="black" cx="237.6" cy="-594" rx="53.09" ry="18"/>
<text text-anchor="middle" x="237.6" y="-590.3" font-family="Times,serif" font-size="14.00">Substitution</text>
</g>
<!-- Discon&#45;&gt;Substitution -->
<g id="edge21" class="edge">
<title>Discon&#45;&gt;Substitution</title>
<path fill="none" stroke="black" d="M238.35,-647.7C238.24,-639.98 238.11,-630.71 237.98,-622.11"/>
<polygon fill="black" stroke="black" points="241.48,-622.05 237.84,-612.1 234.48,-622.15 241.48,-622.05"/>
</g>
<!-- Vocab -->
<g id="node6" class="node">
<title>Vocab</title>
<ellipse fill="none" stroke="black" cx="238.6" cy="-738" rx="32.49" ry="18"/>
<text text-anchor="middle" x="238.6" y="-734.3" font-family="Times,serif" font-size="14.00">Vocab</text>
</g>
<!-- Vocab&#45;&gt;Discon -->
<g id="edge4" class="edge">
<title>Vocab&#45;&gt;Discon</title>
<path fill="none" stroke="black" d="M238.6,-719.7C238.6,-711.98 238.6,-702.71 238.6,-694.11"/>
<polygon fill="black" stroke="black" points="242.1,-694.1 238.6,-684.1 235.1,-694.1 242.1,-694.1"/>
</g>
<!-- Fresh -->
<g id="node11" class="node">
<title>Fresh</title>
<ellipse fill="none" stroke="black" cx="135.6" cy="-594" rx="30.59" ry="18"/>
<text text-anchor="middle" x="135.6" y="-590.3" font-family="Times,serif" font-size="14.00">Fresh</text>
</g>
<!-- Vocab&#45;&gt;Fresh -->
<g id="edge8" class="edge">
<title>Vocab&#45;&gt;Fresh</title>
<path fill="none" stroke="black" d="M224.67,-721.66C215.5,-711.3 203.41,-697.16 193.6,-684 178.01,-663.1 161.95,-638.14 150.7,-619.99"/>
<polygon fill="black" stroke="black" points="153.49,-617.85 145.28,-611.17 147.53,-621.52 153.49,-617.85"/>
</g>
<!-- UnfoldDia -->
<g id="node7" class="node">
<title>UnfoldDia</title>
<ellipse fill="none" stroke="black" cx="147.6" cy="-522" rx="48.19" ry="18"/>
<text text-anchor="middle" x="147.6" y="-518.3" font-family="Times,serif" font-size="14.00">UnfoldDia</text>
</g>
<!-- Distance -->
<g id="node8" class="node">
<title>Distance</title>
<ellipse fill="none" stroke="black" cx="41.6" cy="-234" rx="41.69" ry="18"/>
<text text-anchor="middle" x="41.6" y="-230.3" font-family="Times,serif" font-size="14.00">Distance</text>
</g>
<!-- UnfoldDia&#45;&gt;Distance -->
<g id="edge5" class="edge">
<title>UnfoldDia&#45;&gt;Distance</title>
<path fill="none" stroke="black" d="M122.3,-506.58C108.11,-497.27 91.18,-483.94 80.6,-468 38.06,-403.95 36.91,-308.76 39.34,-262.38"/>
<polygon fill="black" stroke="black" points="42.84,-262.41 39.97,-252.21 35.86,-261.97 42.84,-262.41"/>
</g>
<!-- LocalTableau -->
<g id="node15" class="node">
<title>LocalTableau</title>
<ellipse fill="none" stroke="black" cx="282.6" cy="-450" rx="59.29" ry="18"/>
<text text-anchor="middle" x="282.6" y="-446.3" font-family="Times,serif" font-size="14.00">LocalTableau</text>
</g>
<!-- UnfoldDia&#45;&gt;LocalTableau -->
<g id="edge11" class="edge">
<title>UnfoldDia&#45;&gt;LocalTableau</title>
<path fill="none" stroke="black" d="M174.59,-507C194.74,-496.55 222.54,-482.14 244.89,-470.55"/>
<polygon fill="black" stroke="black" points="246.52,-473.65 253.78,-465.94 243.29,-467.44 246.52,-473.65"/>
</g>
<!-- Modelgraphs -->
<g id="node18" class="node">
<title>Modelgraphs</title>
<ellipse fill="none" stroke="black" cx="147.6" cy="-450" rx="57.69" ry="18"/>
<text text-anchor="middle" x="147.6" y="-446.3" font-family="Times,serif" font-size="14.00">Modelgraphs</text>
</g>
<!-- UnfoldDia&#45;&gt;Modelgraphs -->
<g id="edge14" class="edge">
<title>UnfoldDia&#45;&gt;Modelgraphs</title>
<path fill="none" stroke="black" d="M147.6,-503.7C147.6,-495.98 147.6,-486.71 147.6,-478.11"/>
<polygon fill="black" stroke="black" points="151.1,-478.1 147.6,-468.1 144.1,-478.1 151.1,-478.1"/>
</g>
<!-- Distance&#45;&gt;PartInterpolation -->
<g id="edge16" class="edge">
<title>Distance&#45;&gt;PartInterpolation</title>
<path fill="none" stroke="black" d="M44.04,-215.96C46.91,-197.81 52.36,-168.4 60.6,-144 63.59,-135.13 67.66,-125.79 71.65,-117.47"/>
<polygon fill="black" stroke="black" points="74.91,-118.76 76.22,-108.25 68.64,-115.65 74.91,-118.76"/>
</g>
<!-- Star -->
<g id="node10" class="node">
<title>Star</title>
<ellipse fill="none" stroke="black" cx="335.6" cy="-594" rx="27" ry="18"/>
<text text-anchor="middle" x="335.6" y="-590.3" font-family="Times,serif" font-size="14.00">Star</text>
</g>
<!-- Star&#45;&gt;UnfoldDia -->
<g id="edge34" class="edge">
<title>Star&#45;&gt;UnfoldDia</title>
<path fill="none" stroke="black" d="M314.44,-582.56C309.61,-580.3 304.46,-577.99 299.6,-576 264.24,-561.53 223.3,-547.4 192.82,-537.38"/>
<polygon fill="black" stroke="black" points="193.91,-534.05 183.31,-534.27 191.73,-540.7 193.91,-534.05"/>
</g>
<!-- Star&#45;&gt;Examples -->
<g id="edge7" class="edge">
<title>Star&#45;&gt;Examples</title>
<path fill="none" stroke="black" d="M346.49,-577.12C352.33,-568.59 359.67,-557.89 366.28,-548.25"/>
<polygon fill="black" stroke="black" points="369.31,-550.02 372.08,-539.8 363.54,-546.07 369.31,-550.02"/>
</g>
<!-- UnfoldBox -->
<g id="node14" class="node">
<title>UnfoldBox</title>
<ellipse fill="none" stroke="black" cx="263.6" cy="-522" rx="50.09" ry="18"/>
<text text-anchor="middle" x="263.6" y="-518.3" font-family="Times,serif" font-size="14.00">UnfoldBox</text>
</g>
<!-- Star&#45;&gt;UnfoldBox -->
<g id="edge31" class="edge">
<title>Star&#45;&gt;UnfoldBox</title>
<path fill="none" stroke="black" d="M321.03,-578.83C311.41,-569.49 298.59,-557.02 287.5,-546.24"/>
<polygon fill="black" stroke="black" points="289.77,-543.56 280.16,-539.1 284.89,-548.58 289.77,-543.56"/>
</g>
<!-- Fresh&#45;&gt;UnfoldDia -->
<g id="edge33" class="edge">
<title>Fresh&#45;&gt;UnfoldDia</title>
<path fill="none" stroke="black" d="M138.5,-576.05C139.82,-568.35 141.42,-559.03 142.91,-550.36"/>
<polygon fill="black" stroke="black" points="146.39,-550.72 144.63,-540.28 139.5,-549.54 146.39,-550.72"/>
</g>
<!-- Fresh&#45;&gt;UnfoldBox -->
<g id="edge30" class="edge">
<title>Fresh&#45;&gt;UnfoldBox</title>
<path fill="none" stroke="black" d="M157.31,-581.13C176.74,-570.5 205.59,-554.72 228.33,-542.28"/>
<polygon fill="black" stroke="black" points="230.25,-545.23 237.34,-537.36 226.89,-539.08 230.25,-545.23"/>
</g>
<!-- Interpolation -->
<g id="node13" class="node">
<title>Interpolation</title>
<ellipse fill="none" stroke="black" cx="85.6" cy="-18" rx="55.79" ry="18"/>
<text text-anchor="middle" x="85.6" y="-14.3" font-family="Times,serif" font-size="14.00">Interpolation</text>
</g>
<!-- PartInterpolation&#45;&gt;Interpolation -->
<g id="edge9" class="edge">
<title>PartInterpolation&#45;&gt;Interpolation</title>
<path fill="none" stroke="black" d="M85.6,-71.7C85.6,-63.98 85.6,-54.71 85.6,-46.11"/>
<polygon fill="black" stroke="black" points="89.1,-46.1 85.6,-36.1 82.1,-46.1 89.1,-46.1"/>
</g>
<!-- UnfoldBox&#45;&gt;LocalTableau -->
<g id="edge10" class="edge">
<title>UnfoldBox&#45;&gt;LocalTableau</title>
<path fill="none" stroke="black" d="M268.2,-504.05C270.31,-496.26 272.87,-486.82 275.25,-478.08"/>
<polygon fill="black" stroke="black" points="278.67,-478.84 277.91,-468.28 271.91,-477.01 278.67,-478.84"/>
</g>
<!-- UnfoldBox&#45;&gt;Modelgraphs -->
<g id="edge13" class="edge">
<title>UnfoldBox&#45;&gt;Modelgraphs</title>
<path fill="none" stroke="black" d="M239,-506.15C222.31,-496.08 200.02,-482.64 181.63,-471.54"/>
<polygon fill="black" stroke="black" points="183.33,-468.48 172.96,-466.31 179.72,-474.47 183.33,-468.48"/>
</g>
<!-- Tableau -->
<g id="node22" class="node">
<title>Tableau</title>
<ellipse fill="none" stroke="black" cx="282.6" cy="-378" rx="38.99" ry="18"/>
<text text-anchor="middle" x="282.6" y="-374.3" font-family="Times,serif" font-size="14.00">Tableau</text>
</g>
<!-- LocalTableau&#45;&gt;Tableau -->
<g id="edge22" class="edge">
<title>LocalTableau&#45;&gt;Tableau</title>
<path fill="none" stroke="black" d="M282.6,-431.7C282.6,-423.98 282.6,-414.71 282.6,-406.11"/>
<polygon fill="black" stroke="black" points="286.1,-406.1 282.6,-396.1 279.1,-406.1 286.1,-406.1"/>
</g>
<!-- Syntax -->
<g id="node16" class="node">
<title>Syntax</title>
<ellipse fill="none" stroke="black" cx="316.6" cy="-882" rx="35.19" ry="18"/>
<text text-anchor="middle" x="316.6" y="-878.3" font-family="Times,serif" font-size="14.00">Syntax</text>
</g>
<!-- Syntax&#45;&gt;Semantics -->
<g id="edge18" class="edge">
<title>Syntax&#45;&gt;Semantics</title>
<path fill="none" stroke="black" d="M335.92,-866.87C347.72,-857.22 362.12,-843.43 370.6,-828 381.09,-808.9 385.79,-784.55 387.9,-766.14"/>
<polygon fill="black" stroke="black" points="391.39,-766.37 388.86,-756.08 384.42,-765.7 391.39,-766.37"/>
</g>
<!-- Syntax&#45;&gt;Vocab -->
<g id="edge35" class="edge">
<title>Syntax&#45;&gt;Vocab</title>
<path fill="none" stroke="black" d="M297.55,-866.72C285.86,-857 271.48,-843.2 262.6,-828 251.46,-808.94 245.35,-784.59 242.09,-766.17"/>
<polygon fill="black" stroke="black" points="245.52,-765.42 240.49,-756.1 238.61,-766.53 245.52,-765.42"/>
</g>
<!-- Measures -->
<g id="node17" class="node">
<title>Measures</title>
<ellipse fill="none" stroke="black" cx="316.6" cy="-810" rx="44.69" ry="18"/>
<text text-anchor="middle" x="316.6" y="-806.3" font-family="Times,serif" font-size="14.00">Measures</text>
</g>
<!-- Syntax&#45;&gt;Measures -->
<g id="edge12" class="edge">
<title>Syntax&#45;&gt;Measures</title>
<path fill="none" stroke="black" d="M316.6,-863.7C316.6,-855.98 316.6,-846.71 316.6,-838.11"/>
<polygon fill="black" stroke="black" points="320.1,-838.1 316.6,-828.1 313.1,-838.1 320.1,-838.1"/>
</g>
<!-- Measures&#45;&gt;Semantics -->
<g id="edge19" class="edge">
<title>Measures&#45;&gt;Semantics</title>
<path fill="none" stroke="black" d="M333.16,-793.12C342.71,-783.96 354.88,-772.29 365.47,-762.13"/>
<polygon fill="black" stroke="black" points="368.05,-764.51 372.84,-755.06 363.2,-759.46 368.05,-764.51"/>
</g>
<!-- Modelgraphs&#45;&gt;TableauGame -->
<g id="edge26" class="edge">
<title>Modelgraphs&#45;&gt;TableauGame</title>
<path fill="none" stroke="black" d="M147.57,-431.84C147.32,-413.85 146.3,-384.8 142.6,-360 141.32,-351.44 139.29,-342.23 137.22,-333.93"/>
<polygon fill="black" stroke="black" points="140.54,-332.81 134.62,-324.03 133.77,-334.59 140.54,-332.81"/>
</g>
<!-- TableauPath -->
<g id="node20" class="node">
<title>TableauPath</title>
<ellipse fill="none" stroke="black" cx="429.6" cy="-306" rx="54.69" ry="18"/>
<text text-anchor="middle" x="429.6" y="-302.3" font-family="Times,serif" font-size="14.00">TableauPath</text>
</g>
<!-- TableauPath&#45;&gt;Soundness -->
<g id="edge20" class="edge">
<title>TableauPath&#45;&gt;Soundness</title>
<path fill="none" stroke="black" d="M405.29,-289.81C389.19,-279.74 367.86,-266.42 350.28,-255.42"/>
<polygon fill="black" stroke="black" points="351.8,-252.25 341.47,-249.92 348.09,-258.19 351.8,-252.25"/>
</g>
<!-- Substitution&#45;&gt;UnfoldDia -->
<g id="edge32" class="edge">
<title>Substitution&#45;&gt;UnfoldDia</title>
<path fill="none" stroke="black" d="M217.17,-577.12C204.89,-567.56 189.08,-555.27 175.64,-544.81"/>
<polygon fill="black" stroke="black" points="177.67,-541.96 167.63,-538.58 173.37,-547.48 177.67,-541.96"/>
</g>
<!-- Substitution&#45;&gt;UnfoldBox -->
<g id="edge29" class="edge">
<title>Substitution&#45;&gt;UnfoldBox</title>
<path fill="none" stroke="black" d="M243.89,-576.05C246.82,-568.18 250.37,-558.62 253.64,-549.79"/>
<polygon fill="black" stroke="black" points="256.98,-550.87 257.18,-540.28 250.42,-548.43 256.98,-550.87"/>
</g>
<!-- Tableau&#45;&gt;TableauGame -->
<g id="edge25" class="edge">
<title>Tableau&#45;&gt;TableauGame</title>
<path fill="none" stroke="black" d="M255.95,-364.81C232.36,-354.01 197.57,-338.1 170.46,-325.7"/>
<polygon fill="black" stroke="black" points="171.78,-322.45 161.23,-321.47 168.87,-328.82 171.78,-322.45"/>
</g>
<!-- Tableau&#45;&gt;TableauPath -->
<g id="edge27" class="edge">
<title>Tableau&#45;&gt;TableauPath</title>
<path fill="none" stroke="black" d="M308.88,-364.49C331.6,-353.66 364.78,-337.87 390.6,-325.57"/>
<polygon fill="black" stroke="black" points="392.22,-328.67 399.75,-321.21 389.21,-322.35 392.22,-328.67"/>
</g>
<!-- TableauExamples -->
<g id="node23" class="node">
<title>TableauExamples</title>
<ellipse fill="none" stroke="black" cx="282.6" cy="-306" rx="74.19" ry="18"/>
<text text-anchor="middle" x="282.6" y="-302.3" font-family="Times,serif" font-size="14.00">TableauExamples</text>
</g>
<!-- Tableau&#45;&gt;TableauExamples -->
<g id="edge23" class="edge">
<title>Tableau&#45;&gt;TableauExamples</title>
<path fill="none" stroke="black" d="M282.6,-359.7C282.6,-351.98 282.6,-342.71 282.6,-334.11"/>
<polygon fill="black" stroke="black" points="286.1,-334.1 282.6,-324.1 279.1,-334.1 286.1,-334.1"/>
</g>
<!-- Game -->
<g id="node24" class="node">
<title>Game</title>
<ellipse fill="none" stroke="black" cx="101.6" cy="-378" rx="32.49" ry="18"/>
<text text-anchor="middle" x="101.6" y="-374.3" font-family="Times,serif" font-size="14.00">Game</text>
</g>
<!-- Game&#45;&gt;TableauGame -->
<g id="edge24" class="edge">
<title>Game&#45;&gt;TableauGame</title>
<path fill="none" stroke="black" d="M108.37,-360.05C111.53,-352.18 115.35,-342.62 118.88,-333.79"/>
<polygon fill="black" stroke="black" points="122.22,-334.86 122.69,-324.28 115.72,-332.26 122.22,-334.86"/>
</g>
<!-- Vector -->
<g id="node25" class="node">
<title>Vector</title>
<ellipse fill="none" stroke="black" cx="429.6" cy="-378" rx="33.6" ry="18"/>
<text text-anchor="middle" x="429.6" y="-374.3" font-family="Times,serif" font-size="14.00">Vector</text>
</g>
<!-- Vector&#45;&gt;TableauPath -->
<g id="edge28" class="edge">
<title>Vector&#45;&gt;TableauPath</title>
<path fill="none" stroke="black" d="M429.6,-359.7C429.6,-351.98 429.6,-342.71 429.6,-334.11"/>
<polygon fill="black" stroke="black" points="433.1,-334.1 429.6,-324.1 426.1,-334.1 433.1,-334.1"/>
</g>
</g>
</svg>
