<?xml version="1.0" encoding="UTF-8" standalone="no"?>
<!DOCTYPE svg PUBLIC "-//W3C//DTD SVG 1.1//EN"
 "http://www.w3.org/Graphics/SVG/1.1/DTD/svg11.dtd">
<!-- Generated by graphviz version 2.43.0 (0)
 -->
<!-- Title: %3 Pages: 1 -->
<svg width="566pt" height="980pt"
 viewBox="0.00 0.00 566.04 980.00" xmlns="http://www.w3.org/2000/svg" xmlns:xlink="http://www.w3.org/1999/xlink">
<g id="graph0" class="graph" transform="scale(1 1) rotate(0) translate(4 976)">
<title>%3</title>
<polygon fill="white" stroke="transparent" points="-4,4 -4,-976 562.04,-976 562.04,4 -4,4"/>
<!-- Interpolation -->
<g id="node1" class="node">
<title>Interpolation</title>
<ellipse fill="none" stroke="black" cx="472.44" cy="-90" rx="55.79" ry="18"/>
<text text-anchor="middle" x="472.44" y="-86.3" font-family="Times,serif" font-size="14.00">Interpolation</text>
</g>
<!-- Beth -->
<g id="node2" class="node">
<title>Beth</title>
<ellipse fill="none" stroke="black" cx="472.44" cy="-18" rx="27.1" ry="18"/>
<text text-anchor="middle" x="472.44" y="-14.3" font-family="Times,serif" font-size="14.00">Beth</text>
</g>
<!-- Interpolation&#45;&gt;Beth -->
<g id="edge1" class="edge">
<title>Interpolation&#45;&gt;Beth</title>
<path fill="none" stroke="black" d="M472.44,-71.7C472.44,-63.98 472.44,-54.71 472.44,-46.11"/>
<polygon fill="black" stroke="black" points="475.94,-46.1 472.44,-36.1 468.94,-46.1 475.94,-46.1"/>
</g>
<!-- Soundness -->
<g id="node3" class="node">
<title>Soundness</title>
<ellipse fill="none" stroke="black" cx="434.44" cy="-306" rx="48.19" ry="18"/>
<text text-anchor="middle" x="434.44" y="-302.3" font-family="Times,serif" font-size="14.00">Soundness</text>
</g>
<!-- Completeness -->
<g id="node4" class="node">
<title>Completeness</title>
<ellipse fill="none" stroke="black" cx="428.44" cy="-234" rx="60.39" ry="18"/>
<text text-anchor="middle" x="428.44" y="-230.3" font-family="Times,serif" font-size="14.00">Completeness</text>
</g>
<!-- Soundness&#45;&gt;Completeness -->
<g id="edge2" class="edge">
<title>Soundness&#45;&gt;Completeness</title>
<path fill="none" stroke="black" d="M432.96,-287.7C432.3,-279.98 431.51,-270.71 430.77,-262.11"/>
<polygon fill="black" stroke="black" points="434.25,-261.77 429.91,-252.1 427.28,-262.37 434.25,-261.77"/>
</g>
<!-- PartInterpolation -->
<g id="node13" class="node">
<title>PartInterpolation</title>
<ellipse fill="none" stroke="black" cx="472.44" cy="-162" rx="70.39" ry="18"/>
<text text-anchor="middle" x="472.44" y="-158.3" font-family="Times,serif" font-size="14.00">PartInterpolation</text>
</g>
<!-- Completeness&#45;&gt;PartInterpolation -->
<g id="edge16" class="edge">
<title>Completeness&#45;&gt;PartInterpolation</title>
<path fill="none" stroke="black" d="M439.1,-216.05C444.21,-207.92 450.45,-198 456.14,-188.94"/>
<polygon fill="black" stroke="black" points="459.23,-190.6 461.59,-180.28 453.3,-186.88 459.23,-190.6"/>
</g>
<!-- TableauGame -->
<g id="node5" class="node">
<title>TableauGame</title>
<ellipse fill="none" stroke="black" cx="60.44" cy="-378" rx="60.39" ry="18"/>
<text text-anchor="middle" x="60.44" y="-374.3" font-family="Times,serif" font-size="14.00">TableauGame</text>
</g>
<!-- TableauGame&#45;&gt;Completeness -->
<g id="edge3" class="edge">
<title>TableauGame&#45;&gt;Completeness</title>
<path fill="none" stroke="black" d="M95.73,-363.38C162.96,-337.44 309.31,-280.97 383.46,-252.36"/>
<polygon fill="black" stroke="black" points="384.93,-255.54 393,-248.68 382.41,-249.01 384.93,-255.54"/>
</g>
<!-- Semantics -->
<g id="node6" class="node">
<title>Semantics</title>
<ellipse fill="none" stroke="black" cx="219.44" cy="-810" rx="47.39" ry="18"/>
<text text-anchor="middle" x="219.44" y="-806.3" font-family="Times,serif" font-size="14.00">Semantics</text>
</g>
<!-- Discon -->
<g id="node7" class="node">
<title>Discon</title>
<ellipse fill="none" stroke="black" cx="322.44" cy="-738" rx="36" ry="18"/>
<text text-anchor="middle" x="322.44" y="-734.3" font-family="Times,serif" font-size="14.00">Discon</text>
</g>
<!-- Semantics&#45;&gt;Discon -->
<g id="edge4" class="edge">
<title>Semantics&#45;&gt;Discon</title>
<path fill="none" stroke="black" d="M241.54,-793.98C256.6,-783.75 276.71,-770.08 293.11,-758.93"/>
<polygon fill="black" stroke="black" points="295.48,-761.55 301.79,-753.04 291.55,-755.76 295.48,-761.55"/>
</g>
<!-- Examples -->
<g id="node11" class="node">
<title>Examples</title>
<ellipse fill="none" stroke="black" cx="116.44" cy="-594" rx="46.29" ry="18"/>
<text text-anchor="middle" x="116.44" y="-590.3" font-family="Times,serif" font-size="14.00">Examples</text>
</g>
<!-- Semantics&#45;&gt;Examples -->
<g id="edge7" class="edge">
<title>Semantics&#45;&gt;Examples</title>
<path fill="none" stroke="black" d="M199.66,-793.42C188.51,-783.72 175.12,-770.37 166.44,-756 140.51,-713.05 126.88,-655.41 120.72,-622.03"/>
<polygon fill="black" stroke="black" points="124.15,-621.34 118.97,-612.09 117.25,-622.55 124.15,-621.34"/>
</g>
<!-- SemQuot -->
<g id="node20" class="node">
<title>SemQuot</title>
<ellipse fill="none" stroke="black" cx="219.44" cy="-738" rx="44.39" ry="18"/>
<text text-anchor="middle" x="219.44" y="-734.3" font-family="Times,serif" font-size="14.00">SemQuot</text>
</g>
<!-- Semantics&#45;&gt;SemQuot -->
<g id="edge18" class="edge">
<title>Semantics&#45;&gt;SemQuot</title>
<path fill="none" stroke="black" d="M219.44,-791.7C219.44,-783.98 219.44,-774.71 219.44,-766.11"/>
<polygon fill="black" stroke="black" points="222.94,-766.1 219.44,-756.1 215.94,-766.1 222.94,-766.1"/>
</g>
<!-- Substitution -->
<g id="node22" class="node">
<title>Substitution</title>
<ellipse fill="none" stroke="black" cx="325.44" cy="-666" rx="53.09" ry="18"/>
<text text-anchor="middle" x="325.44" y="-662.3" font-family="Times,serif" font-size="14.00">Substitution</text>
</g>
<!-- Discon&#45;&gt;Substitution -->
<g id="edge24" class="edge">
<title>Discon&#45;&gt;Substitution</title>
<path fill="none" stroke="black" d="M323.19,-719.7C323.52,-711.98 323.91,-702.71 324.28,-694.11"/>
<polygon fill="black" stroke="black" points="327.78,-694.25 324.71,-684.1 320.79,-693.95 327.78,-694.25"/>
</g>
<!-- Vocab -->
<g id="node8" class="node">
<title>Vocab</title>
<ellipse fill="none" stroke="black" cx="322.44" cy="-810" rx="32.49" ry="18"/>
<text text-anchor="middle" x="322.44" y="-806.3" font-family="Times,serif" font-size="14.00">Vocab</text>
</g>
<!-- Vocab&#45;&gt;Discon -->
<g id="edge5" class="edge">
<title>Vocab&#45;&gt;Discon</title>
<path fill="none" stroke="black" d="M322.44,-791.7C322.44,-783.98 322.44,-774.71 322.44,-766.11"/>
<polygon fill="black" stroke="black" points="325.94,-766.1 322.44,-756.1 318.94,-766.1 325.94,-766.1"/>
</g>
<!-- UnfoldDia -->
<g id="node9" class="node">
<title>UnfoldDia</title>
<ellipse fill="none" stroke="black" cx="346.44" cy="-594" rx="48.19" ry="18"/>
<text text-anchor="middle" x="346.44" y="-590.3" font-family="Times,serif" font-size="14.00">UnfoldDia</text>
</g>
<!-- Distance -->
<g id="node10" class="node">
<title>Distance</title>
<ellipse fill="none" stroke="black" cx="516.44" cy="-378" rx="41.69" ry="18"/>
<text text-anchor="middle" x="516.44" y="-374.3" font-family="Times,serif" font-size="14.00">Distance</text>
</g>
<!-- UnfoldDia&#45;&gt;Distance -->
<g id="edge6" class="edge">
<title>UnfoldDia&#45;&gt;Distance</title>
<path fill="none" stroke="black" d="M374.1,-579.12C409.88,-559.57 471.22,-520.4 501.44,-468 512.24,-449.28 515.76,-424.9 516.71,-406.39"/>
<polygon fill="black" stroke="black" points="520.21,-406.35 517,-396.25 513.21,-406.15 520.21,-406.35"/>
</g>
<!-- LocalTableau -->
<g id="node14" class="node">
<title>LocalTableau</title>
<ellipse fill="none" stroke="black" cx="346.44" cy="-522" rx="59.29" ry="18"/>
<text text-anchor="middle" x="346.44" y="-518.3" font-family="Times,serif" font-size="14.00">LocalTableau</text>
</g>
<!-- UnfoldDia&#45;&gt;LocalTableau -->
<g id="edge12" class="edge">
<title>UnfoldDia&#45;&gt;LocalTableau</title>
<path fill="none" stroke="black" d="M346.44,-575.7C346.44,-567.98 346.44,-558.71 346.44,-550.11"/>
<polygon fill="black" stroke="black" points="349.94,-550.1 346.44,-540.1 342.94,-550.1 349.94,-550.1"/>
</g>
<!-- Modelgraphs -->
<g id="node19" class="node">
<title>Modelgraphs</title>
<ellipse fill="none" stroke="black" cx="211.44" cy="-522" rx="57.69" ry="18"/>
<text text-anchor="middle" x="211.44" y="-518.3" font-family="Times,serif" font-size="14.00">Modelgraphs</text>
</g>
<!-- UnfoldDia&#45;&gt;Modelgraphs -->
<g id="edge15" class="edge">
<title>UnfoldDia&#45;&gt;Modelgraphs</title>
<path fill="none" stroke="black" d="M319.45,-579C299.16,-568.48 271.13,-553.95 248.7,-542.32"/>
<polygon fill="black" stroke="black" points="250.28,-539.19 239.79,-537.7 247.06,-545.41 250.28,-539.19"/>
</g>
<!-- Distance&#45;&gt;Soundness -->
<g id="edge23" class="edge">
<title>Distance&#45;&gt;Soundness</title>
<path fill="none" stroke="black" d="M498.25,-361.46C487.18,-352.02 472.86,-339.79 460.59,-329.32"/>
<polygon fill="black" stroke="black" points="462.75,-326.56 452.88,-322.73 458.21,-331.89 462.75,-326.56"/>
</g>
<!-- Distance&#45;&gt;PartInterpolation -->
<g id="edge17" class="edge">
<title>Distance&#45;&gt;PartInterpolation</title>
<path fill="none" stroke="black" d="M516.22,-359.72C515.44,-329.85 512.02,-266.87 497.44,-216 494.84,-206.9 490.83,-197.42 486.77,-189.04"/>
<polygon fill="black" stroke="black" points="489.89,-187.45 482.25,-180.11 483.65,-190.61 489.89,-187.45"/>
</g>
<!-- Star -->
<g id="node12" class="node">
<title>Star</title>
<ellipse fill="none" stroke="black" cx="227.44" cy="-666" rx="27" ry="18"/>
<text text-anchor="middle" x="227.44" y="-662.3" font-family="Times,serif" font-size="14.00">Star</text>
</g>
<!-- Star&#45;&gt;UnfoldDia -->
<g id="edge35" class="edge">
<title>Star&#45;&gt;UnfoldDia</title>
<path fill="none" stroke="black" d="M247.1,-653.44C265,-642.91 291.82,-627.13 313.08,-614.63"/>
<polygon fill="black" stroke="black" points="314.97,-617.58 321.81,-609.49 311.42,-611.54 314.97,-617.58"/>
</g>
<!-- Star&#45;&gt;Examples -->
<g id="edge8" class="edge">
<title>Star&#45;&gt;Examples</title>
<path fill="none" stroke="black" d="M208.36,-652.97C191.91,-642.59 167.83,-627.4 148.43,-615.17"/>
<polygon fill="black" stroke="black" points="150.22,-612.16 139.9,-609.79 146.49,-618.09 150.22,-612.16"/>
</g>
<!-- UnfoldBox -->
<g id="node16" class="node">
<title>UnfoldBox</title>
<ellipse fill="none" stroke="black" cx="230.44" cy="-594" rx="50.09" ry="18"/>
<text text-anchor="middle" x="230.44" y="-590.3" font-family="Times,serif" font-size="14.00">UnfoldBox</text>
</g>
<!-- Star&#45;&gt;UnfoldBox -->
<g id="edge33" class="edge">
<title>Star&#45;&gt;UnfoldBox</title>
<path fill="none" stroke="black" d="M228.19,-647.7C228.52,-639.98 228.91,-630.71 229.28,-622.11"/>
<polygon fill="black" stroke="black" points="232.78,-622.25 229.71,-612.1 225.79,-621.95 232.78,-622.25"/>
</g>
<!-- PartInterpolation&#45;&gt;Interpolation -->
<g id="edge9" class="edge">
<title>PartInterpolation&#45;&gt;Interpolation</title>
<path fill="none" stroke="black" d="M472.44,-143.7C472.44,-135.98 472.44,-126.71 472.44,-118.11"/>
<polygon fill="black" stroke="black" points="475.94,-118.1 472.44,-108.1 468.94,-118.1 475.94,-118.1"/>
</g>
<!-- LocalSoundness -->
<g id="node15" class="node">
<title>LocalSoundness</title>
<ellipse fill="none" stroke="black" cx="424.44" cy="-450" rx="68.49" ry="18"/>
<text text-anchor="middle" x="424.44" y="-446.3" font-family="Times,serif" font-size="14.00">LocalSoundness</text>
</g>
<!-- LocalTableau&#45;&gt;LocalSoundness -->
<g id="edge10" class="edge">
<title>LocalTableau&#45;&gt;LocalSoundness</title>
<path fill="none" stroke="black" d="M364.54,-504.76C374.6,-495.73 387.31,-484.33 398.43,-474.35"/>
<polygon fill="black" stroke="black" points="401.08,-476.67 406.18,-467.39 396.4,-471.46 401.08,-476.67"/>
</g>
<!-- Tableau -->
<g id="node23" class="node">
<title>Tableau</title>
<ellipse fill="none" stroke="black" cx="213.44" cy="-450" rx="38.99" ry="18"/>
<text text-anchor="middle" x="213.44" y="-446.3" font-family="Times,serif" font-size="14.00">Tableau</text>
</g>
<!-- LocalTableau&#45;&gt;Tableau -->
<g id="edge25" class="edge">
<title>LocalTableau&#45;&gt;Tableau</title>
<path fill="none" stroke="black" d="M318.24,-506.15C297.56,-495.27 269.37,-480.44 247.45,-468.9"/>
<polygon fill="black" stroke="black" points="248.95,-465.73 238.47,-464.17 245.69,-471.93 248.95,-465.73"/>
</g>
<!-- LocalSoundness&#45;&gt;Soundness -->
<g id="edge22" class="edge">
<title>LocalSoundness&#45;&gt;Soundness</title>
<path fill="none" stroke="black" d="M425.65,-431.87C427.36,-407.67 430.49,-363.21 432.52,-334.39"/>
<polygon fill="black" stroke="black" points="436.02,-334.41 433.23,-324.19 429.04,-333.92 436.02,-334.41"/>
</g>
<!-- UnfoldBox&#45;&gt;LocalTableau -->
<g id="edge11" class="edge">
<title>UnfoldBox&#45;&gt;LocalTableau</title>
<path fill="none" stroke="black" d="M255.05,-578.15C271.73,-568.08 294.02,-554.64 312.41,-543.54"/>
<polygon fill="black" stroke="black" points="314.32,-546.47 321.08,-538.31 310.71,-540.48 314.32,-546.47"/>
</g>
<!-- UnfoldBox&#45;&gt;Modelgraphs -->
<g id="edge14" class="edge">
<title>UnfoldBox&#45;&gt;Modelgraphs</title>
<path fill="none" stroke="black" d="M225.85,-576.05C223.73,-568.26 221.17,-558.82 218.79,-550.08"/>
<polygon fill="black" stroke="black" points="222.13,-549.01 216.13,-540.28 215.38,-550.84 222.13,-549.01"/>
</g>
<!-- Syntax -->
<g id="node17" class="node">
<title>Syntax</title>
<ellipse fill="none" stroke="black" cx="284.44" cy="-954" rx="35.19" ry="18"/>
<text text-anchor="middle" x="284.44" y="-950.3" font-family="Times,serif" font-size="14.00">Syntax</text>
</g>
<!-- Syntax&#45;&gt;Semantics -->
<g id="edge19" class="edge">
<title>Syntax&#45;&gt;Semantics</title>
<path fill="none" stroke="black" d="M283.33,-935.76C281.55,-917.19 277.01,-887.19 265.44,-864 260.12,-853.31 252.13,-843.04 244.29,-834.44"/>
<polygon fill="black" stroke="black" points="246.66,-831.85 237.23,-827.03 241.6,-836.68 246.66,-831.85"/>
</g>
<!-- Syntax&#45;&gt;Vocab -->
<g id="edge36" class="edge">
<title>Syntax&#45;&gt;Vocab</title>
<path fill="none" stroke="black" d="M289.03,-935.87C295.53,-911.56 307.51,-866.82 315.22,-838.01"/>
<polygon fill="black" stroke="black" points="318.64,-838.75 317.84,-828.19 311.88,-836.94 318.64,-838.75"/>
</g>
<!-- Measures -->
<g id="node18" class="node">
<title>Measures</title>
<ellipse fill="none" stroke="black" cx="211.44" cy="-882" rx="44.69" ry="18"/>
<text text-anchor="middle" x="211.44" y="-878.3" font-family="Times,serif" font-size="14.00">Measures</text>
</g>
<!-- Syntax&#45;&gt;Measures -->
<g id="edge13" class="edge">
<title>Syntax&#45;&gt;Measures</title>
<path fill="none" stroke="black" d="M268.6,-937.81C258.86,-928.47 246.19,-916.31 235.25,-905.83"/>
<polygon fill="black" stroke="black" points="237.65,-903.28 228.01,-898.89 232.81,-908.34 237.65,-903.28"/>
</g>
<!-- Measures&#45;&gt;Semantics -->
<g id="edge20" class="edge">
<title>Measures&#45;&gt;Semantics</title>
<path fill="none" stroke="black" d="M213.42,-863.7C214.3,-855.98 215.36,-846.71 216.35,-838.11"/>
<polygon fill="black" stroke="black" points="219.83,-838.44 217.49,-828.1 212.88,-837.64 219.83,-838.44"/>
</g>
<!-- Modelgraphs&#45;&gt;TableauGame -->
<g id="edge29" class="edge">
<title>Modelgraphs&#45;&gt;TableauGame</title>
<path fill="none" stroke="black" d="M194.12,-504.71C167.41,-479.59 116.06,-431.3 85.36,-402.43"/>
<polygon fill="black" stroke="black" points="87.71,-399.84 78.03,-395.54 82.92,-404.94 87.71,-399.84"/>
</g>
<!-- TableauPath -->
<g id="node21" class="node">
<title>TableauPath</title>
<ellipse fill="none" stroke="black" cx="360.44" cy="-378" rx="54.69" ry="18"/>
<text text-anchor="middle" x="360.44" y="-374.3" font-family="Times,serif" font-size="14.00">TableauPath</text>
</g>
<!-- TableauPath&#45;&gt;Soundness -->
<g id="edge21" class="edge">
<title>TableauPath&#45;&gt;Soundness</title>
<path fill="none" stroke="black" d="M377.61,-360.76C387.3,-351.6 399.56,-340 410.22,-329.92"/>
<polygon fill="black" stroke="black" points="412.77,-332.32 417.63,-322.91 407.96,-327.24 412.77,-332.32"/>
</g>
<!-- Substitution&#45;&gt;UnfoldDia -->
<g id="edge34" class="edge">
<title>Substitution&#45;&gt;UnfoldDia</title>
<path fill="none" stroke="black" d="M330.53,-648.05C332.87,-640.26 335.7,-630.82 338.32,-622.08"/>
<polygon fill="black" stroke="black" points="341.74,-622.86 341.26,-612.28 335.04,-620.85 341.74,-622.86"/>
</g>
<!-- Substitution&#45;&gt;UnfoldBox -->
<g id="edge32" class="edge">
<title>Substitution&#45;&gt;UnfoldBox</title>
<path fill="none" stroke="black" d="M304.36,-649.46C291.2,-639.77 274.07,-627.15 259.62,-616.5"/>
<polygon fill="black" stroke="black" points="261.6,-613.61 251.47,-610.49 257.44,-619.24 261.6,-613.61"/>
</g>
<!-- Tableau&#45;&gt;TableauGame -->
<g id="edge28" class="edge">
<title>Tableau&#45;&gt;TableauGame</title>
<path fill="none" stroke="black" d="M186.79,-436.81C163.21,-426.01 128.42,-410.1 101.31,-397.7"/>
<polygon fill="black" stroke="black" points="102.63,-394.45 92.08,-393.47 99.71,-400.82 102.63,-394.45"/>
</g>
<!-- Tableau&#45;&gt;TableauPath -->
<g id="edge30" class="edge">
<title>Tableau&#45;&gt;TableauPath</title>
<path fill="none" stroke="black" d="M239.73,-436.49C262.45,-425.66 295.62,-409.87 321.45,-397.57"/>
<polygon fill="black" stroke="black" points="323.07,-400.67 330.6,-393.21 320.06,-394.35 323.07,-400.67"/>
</g>
<!-- TableauExamples -->
<g id="node24" class="node">
<title>TableauExamples</title>
<ellipse fill="none" stroke="black" cx="213.44" cy="-378" rx="74.19" ry="18"/>
<text text-anchor="middle" x="213.44" y="-374.3" font-family="Times,serif" font-size="14.00">TableauExamples</text>
</g>
<!-- Tableau&#45;&gt;TableauExamples -->
<g id="edge26" class="edge">
<title>Tableau&#45;&gt;TableauExamples</title>
<path fill="none" stroke="black" d="M213.44,-431.7C213.44,-423.98 213.44,-414.71 213.44,-406.11"/>
<polygon fill="black" stroke="black" points="216.94,-406.1 213.44,-396.1 209.94,-406.1 216.94,-406.1"/>
</g>
<!-- Game -->
<g id="node25" class="node">
<title>Game</title>
<ellipse fill="none" stroke="black" cx="60.44" cy="-450" rx="32.49" ry="18"/>
<text text-anchor="middle" x="60.44" y="-446.3" font-family="Times,serif" font-size="14.00">Game</text>
</g>
<!-- Game&#45;&gt;TableauGame -->
<g id="edge27" class="edge">
<title>Game&#45;&gt;TableauGame</title>
<path fill="none" stroke="black" d="M60.44,-431.7C60.44,-423.98 60.44,-414.71 60.44,-406.11"/>
<polygon fill="black" stroke="black" points="63.94,-406.1 60.44,-396.1 56.94,-406.1 63.94,-406.1"/>
</g>
<!-- Vector -->
<g id="node26" class="node">
<title>Vector</title>
<ellipse fill="none" stroke="black" cx="304.44" cy="-450" rx="33.6" ry="18"/>
<text text-anchor="middle" x="304.44" y="-446.3" font-family="Times,serif" font-size="14.00">Vector</text>
</g>
<!-- Vector&#45;&gt;TableauPath -->
<g id="edge31" class="edge">
<title>Vector&#45;&gt;TableauPath</title>
<path fill="none" stroke="black" d="M317.15,-433.12C324.11,-424.42 332.89,-413.45 340.71,-403.66"/>
<polygon fill="black" stroke="black" points="343.49,-405.79 347.01,-395.8 338.03,-401.42 343.49,-405.79"/>
</g>
</g>
</svg>
