<?xml version="1.0" encoding="UTF-8" standalone="no"?>
<!DOCTYPE svg PUBLIC "-//W3C//DTD SVG 1.1//EN"
 "http://www.w3.org/Graphics/SVG/1.1/DTD/svg11.dtd">
<!-- Generated by graphviz version 2.43.0 (0)
 -->
<!-- Title: %3 Pages: 1 -->
<svg width="512pt" height="836pt"
 viewBox="0.00 0.00 512.15 836.00" xmlns="http://www.w3.org/2000/svg" xmlns:xlink="http://www.w3.org/1999/xlink">
<g id="graph0" class="graph" transform="scale(1 1) rotate(0) translate(4 832)">
<title>%3</title>
<polygon fill="white" stroke="transparent" points="-4,4 -4,-832 508.15,-832 508.15,4 -4,4"/>
<!-- Soundness -->
<g id="node1" class="node">
<title>Soundness</title>
<ellipse fill="none" stroke="black" cx="329.15" cy="-234" rx="48.19" ry="18"/>
<text text-anchor="middle" x="329.15" y="-230.3" font-family="Times,serif" font-size="14.00">Soundness</text>
</g>
<!-- Completeness -->
<g id="node2" class="node">
<title>Completeness</title>
<ellipse fill="none" stroke="black" cx="329.15" cy="-162" rx="60.39" ry="18"/>
<text text-anchor="middle" x="329.15" y="-158.3" font-family="Times,serif" font-size="14.00">Completeness</text>
</g>
<!-- Soundness&#45;&gt;Completeness -->
<g id="edge1" class="edge">
<title>Soundness&#45;&gt;Completeness</title>
<path fill="none" stroke="black" d="M329.15,-215.7C329.15,-207.98 329.15,-198.71 329.15,-190.11"/>
<polygon fill="black" stroke="black" points="332.65,-190.1 329.15,-180.1 325.65,-190.1 332.65,-190.1"/>
</g>
<!-- PartInterpolation -->
<g id="node15" class="node">
<title>PartInterpolation</title>
<ellipse fill="none" stroke="black" cx="373.15" cy="-90" rx="70.39" ry="18"/>
<text text-anchor="middle" x="373.15" y="-86.3" font-family="Times,serif" font-size="14.00">PartInterpolation</text>
</g>
<!-- Completeness&#45;&gt;PartInterpolation -->
<g id="edge20" class="edge">
<title>Completeness&#45;&gt;PartInterpolation</title>
<path fill="none" stroke="black" d="M339.8,-144.05C344.91,-135.92 351.15,-126 356.84,-116.94"/>
<polygon fill="black" stroke="black" points="359.93,-118.6 362.29,-108.28 354,-114.88 359.93,-118.6"/>
</g>
<!-- Modelgraphs -->
<g id="node3" class="node">
<title>Modelgraphs</title>
<ellipse fill="none" stroke="black" cx="380.15" cy="-378" rx="57.69" ry="18"/>
<text text-anchor="middle" x="380.15" y="-374.3" font-family="Times,serif" font-size="14.00">Modelgraphs</text>
</g>
<!-- Modelgraphs&#45;&gt;Completeness -->
<g id="edge2" class="edge">
<title>Modelgraphs&#45;&gt;Completeness</title>
<path fill="none" stroke="black" d="M336.82,-365.98C300.96,-355.88 254.18,-340.09 243.15,-324 211.25,-277.46 265.31,-217.79 301.2,-185.75"/>
<polygon fill="black" stroke="black" points="303.74,-188.18 308.99,-178.98 299.14,-182.9 303.74,-188.18"/>
</g>
<!-- Semantics -->
<g id="node4" class="node">
<title>Semantics</title>
<ellipse fill="none" stroke="black" cx="300.15" cy="-666" rx="47.39" ry="18"/>
<text text-anchor="middle" x="300.15" y="-662.3" font-family="Times,serif" font-size="14.00">Semantics</text>
</g>
<!-- Semantics&#45;&gt;Modelgraphs -->
<g id="edge17" class="edge">
<title>Semantics&#45;&gt;Modelgraphs</title>
<path fill="none" stroke="black" d="M337.28,-654.67C360.64,-646.49 389.9,-632.89 409.15,-612 432.41,-586.75 430.82,-573.75 437.15,-540 446,-492.82 456.32,-476.01 437.15,-432 431.87,-419.88 422.29,-409.28 412.48,-400.81"/>
<polygon fill="black" stroke="black" points="414.62,-398.04 404.64,-394.49 410.23,-403.49 414.62,-398.04"/>
</g>
<!-- Discon -->
<g id="node5" class="node">
<title>Discon</title>
<ellipse fill="none" stroke="black" cx="364.15" cy="-594" rx="36" ry="18"/>
<text text-anchor="middle" x="364.15" y="-590.3" font-family="Times,serif" font-size="14.00">Discon</text>
</g>
<!-- Semantics&#45;&gt;Discon -->
<g id="edge3" class="edge">
<title>Semantics&#45;&gt;Discon</title>
<path fill="none" stroke="black" d="M314.99,-648.76C323.26,-639.71 333.71,-628.29 342.85,-618.3"/>
<polygon fill="black" stroke="black" points="345.66,-620.41 349.82,-610.67 340.49,-615.68 345.66,-620.41"/>
</g>
<!-- Examples -->
<g id="node9" class="node">
<title>Examples</title>
<ellipse fill="none" stroke="black" cx="46.15" cy="-378" rx="46.29" ry="18"/>
<text text-anchor="middle" x="46.15" y="-374.3" font-family="Times,serif" font-size="14.00">Examples</text>
</g>
<!-- Semantics&#45;&gt;Examples -->
<g id="edge6" class="edge">
<title>Semantics&#45;&gt;Examples</title>
<path fill="none" stroke="black" d="M264.32,-654.02C196.55,-632.42 53.93,-582.81 27.15,-540 1.2,-498.52 19.25,-439.13 33.51,-405.29"/>
<polygon fill="black" stroke="black" points="36.75,-406.62 37.58,-396.05 30.35,-403.79 36.75,-406.62"/>
</g>
<!-- SemQuot -->
<g id="node21" class="node">
<title>SemQuot</title>
<ellipse fill="none" stroke="black" cx="228.15" cy="-594" rx="44.39" ry="18"/>
<text text-anchor="middle" x="228.15" y="-590.3" font-family="Times,serif" font-size="14.00">SemQuot</text>
</g>
<!-- Semantics&#45;&gt;SemQuot -->
<g id="edge22" class="edge">
<title>Semantics&#45;&gt;SemQuot</title>
<path fill="none" stroke="black" d="M283.45,-648.76C274.09,-639.66 262.26,-628.16 251.94,-618.13"/>
<polygon fill="black" stroke="black" points="254.36,-615.61 244.75,-611.15 249.48,-620.63 254.36,-615.61"/>
</g>
<!-- Substitution -->
<g id="node23" class="node">
<title>Substitution</title>
<ellipse fill="none" stroke="black" cx="295.15" cy="-522" rx="53.09" ry="18"/>
<text text-anchor="middle" x="295.15" y="-518.3" font-family="Times,serif" font-size="14.00">Substitution</text>
</g>
<!-- Semantics&#45;&gt;Substitution -->
<g id="edge27" class="edge">
<title>Semantics&#45;&gt;Substitution</title>
<path fill="none" stroke="black" d="M299.54,-647.87C298.69,-623.67 297.13,-579.21 296.11,-550.39"/>
<polygon fill="black" stroke="black" points="299.6,-550.06 295.75,-540.19 292.61,-550.31 299.6,-550.06"/>
</g>
<!-- Discon&#45;&gt;Substitution -->
<g id="edge28" class="edge">
<title>Discon&#45;&gt;Substitution</title>
<path fill="none" stroke="black" d="M348.83,-577.46C339.97,-568.48 328.64,-556.98 318.67,-546.87"/>
<polygon fill="black" stroke="black" points="320.89,-544.13 311.38,-539.47 315.91,-549.05 320.89,-544.13"/>
</g>
<!-- Vocab -->
<g id="node6" class="node">
<title>Vocab</title>
<ellipse fill="none" stroke="black" cx="405.15" cy="-666" rx="32.49" ry="18"/>
<text text-anchor="middle" x="405.15" y="-662.3" font-family="Times,serif" font-size="14.00">Vocab</text>
</g>
<!-- Vocab&#45;&gt;Discon -->
<g id="edge4" class="edge">
<title>Vocab&#45;&gt;Discon</title>
<path fill="none" stroke="black" d="M395.64,-648.76C390.69,-640.32 384.53,-629.8 378.97,-620.31"/>
<polygon fill="black" stroke="black" points="381.96,-618.49 373.89,-611.63 375.92,-622.03 381.96,-618.49"/>
</g>
<!-- Fresh -->
<g id="node14" class="node">
<title>Fresh</title>
<ellipse fill="none" stroke="black" cx="397.15" cy="-522" rx="30.59" ry="18"/>
<text text-anchor="middle" x="397.15" y="-518.3" font-family="Times,serif" font-size="14.00">Fresh</text>
</g>
<!-- Vocab&#45;&gt;Fresh -->
<g id="edge10" class="edge">
<title>Vocab&#45;&gt;Fresh</title>
<path fill="none" stroke="black" d="M407.49,-647.89C409.59,-629.93 411.93,-600.9 409.15,-576 408.19,-567.43 406.38,-558.22 404.46,-549.93"/>
<polygon fill="black" stroke="black" points="407.81,-548.89 402.02,-540.02 401.01,-550.57 407.81,-548.89"/>
</g>
<!-- UnfoldDia -->
<g id="node7" class="node">
<title>UnfoldDia</title>
<ellipse fill="none" stroke="black" cx="380.15" cy="-450" rx="48.19" ry="18"/>
<text text-anchor="middle" x="380.15" y="-446.3" font-family="Times,serif" font-size="14.00">UnfoldDia</text>
</g>
<!-- UnfoldDia&#45;&gt;Modelgraphs -->
<g id="edge19" class="edge">
<title>UnfoldDia&#45;&gt;Modelgraphs</title>
<path fill="none" stroke="black" d="M380.15,-431.7C380.15,-423.98 380.15,-414.71 380.15,-406.11"/>
<polygon fill="black" stroke="black" points="383.65,-406.1 380.15,-396.1 376.65,-406.1 383.65,-406.1"/>
</g>
<!-- Distance -->
<g id="node8" class="node">
<title>Distance</title>
<ellipse fill="none" stroke="black" cx="451.15" cy="-234" rx="41.69" ry="18"/>
<text text-anchor="middle" x="451.15" y="-230.3" font-family="Times,serif" font-size="14.00">Distance</text>
</g>
<!-- UnfoldDia&#45;&gt;Distance -->
<g id="edge5" class="edge">
<title>UnfoldDia&#45;&gt;Distance</title>
<path fill="none" stroke="black" d="M407.63,-435.03C422.17,-426.03 438.73,-412.85 447.15,-396 468.56,-353.11 463.09,-295.46 457.13,-262.05"/>
<polygon fill="black" stroke="black" points="460.55,-261.27 455.22,-252.11 453.67,-262.59 460.55,-261.27"/>
</g>
<!-- LocalTableau -->
<g id="node18" class="node">
<title>LocalTableau</title>
<ellipse fill="none" stroke="black" cx="245.15" cy="-378" rx="59.29" ry="18"/>
<text text-anchor="middle" x="245.15" y="-374.3" font-family="Times,serif" font-size="14.00">LocalTableau</text>
</g>
<!-- UnfoldDia&#45;&gt;LocalTableau -->
<g id="edge14" class="edge">
<title>UnfoldDia&#45;&gt;LocalTableau</title>
<path fill="none" stroke="black" d="M353.15,-435C333,-424.55 305.2,-410.14 282.85,-398.55"/>
<polygon fill="black" stroke="black" points="284.45,-395.44 273.96,-393.94 281.23,-401.65 284.45,-395.44"/>
</g>
<!-- Distance&#45;&gt;PartInterpolation -->
<g id="edge21" class="edge">
<title>Distance&#45;&gt;PartInterpolation</title>
<path fill="none" stroke="black" d="M442.05,-216.43C428.61,-191.98 403.36,-146 387.44,-117.02"/>
<polygon fill="black" stroke="black" points="390.31,-114.98 382.43,-107.9 384.18,-118.35 390.31,-114.98"/>
</g>
<!-- Star -->
<g id="node10" class="node">
<title>Star</title>
<ellipse fill="none" stroke="black" cx="63.15" cy="-522" rx="27" ry="18"/>
<text text-anchor="middle" x="63.15" y="-518.3" font-family="Times,serif" font-size="14.00">Star</text>
</g>
<!-- Star&#45;&gt;UnfoldDia -->
<g id="edge36" class="edge">
<title>Star&#45;&gt;UnfoldDia</title>
<path fill="none" stroke="black" d="M89.15,-516.49C136.15,-508.16 238.24,-489.27 323.15,-468 326.93,-467.05 330.83,-466.02 334.74,-464.94"/>
<polygon fill="black" stroke="black" points="335.74,-468.29 344.4,-462.19 333.82,-461.56 335.74,-468.29"/>
</g>
<!-- Star&#45;&gt;Examples -->
<g id="edge7" class="edge">
<title>Star&#45;&gt;Examples</title>
<path fill="none" stroke="black" d="M61.1,-503.87C58.2,-479.67 52.88,-435.21 49.43,-406.39"/>
<polygon fill="black" stroke="black" points="52.87,-405.7 48.2,-396.19 45.92,-406.53 52.87,-405.7"/>
</g>
<!-- UnfoldBox -->
<g id="node11" class="node">
<title>UnfoldBox</title>
<ellipse fill="none" stroke="black" cx="124.15" cy="-450" rx="50.09" ry="18"/>
<text text-anchor="middle" x="124.15" y="-446.3" font-family="Times,serif" font-size="14.00">UnfoldBox</text>
</g>
<!-- Star&#45;&gt;UnfoldBox -->
<g id="edge32" class="edge">
<title>Star&#45;&gt;UnfoldBox</title>
<path fill="none" stroke="black" d="M76.08,-506.15C84,-497.07 94.31,-485.24 103.35,-474.87"/>
<polygon fill="black" stroke="black" points="106.02,-477.13 109.95,-467.29 100.74,-472.53 106.02,-477.13"/>
</g>
<!-- UnfoldBox&#45;&gt;Modelgraphs -->
<g id="edge18" class="edge">
<title>UnfoldBox&#45;&gt;Modelgraphs</title>
<path fill="none" stroke="black" d="M161.89,-438.02C168.95,-435.99 176.27,-433.92 183.15,-432 232.06,-418.38 287.96,-403.39 327.69,-392.84"/>
<polygon fill="black" stroke="black" points="328.66,-396.21 337.43,-390.26 326.87,-389.44 328.66,-396.21"/>
</g>
<!-- UnfoldBox&#45;&gt;Examples -->
<g id="edge8" class="edge">
<title>UnfoldBox&#45;&gt;Examples</title>
<path fill="none" stroke="black" d="M106.45,-433.12C96.07,-423.81 82.8,-411.9 71.35,-401.62"/>
<polygon fill="black" stroke="black" points="73.56,-398.9 63.78,-394.82 68.88,-404.11 73.56,-398.9"/>
</g>
<!-- UnfoldBox&#45;&gt;LocalTableau -->
<g id="edge13" class="edge">
<title>UnfoldBox&#45;&gt;LocalTableau</title>
<path fill="none" stroke="black" d="M149.51,-434.33C166.98,-424.22 190.43,-410.65 209.74,-399.49"/>
<polygon fill="black" stroke="black" points="211.65,-402.42 218.56,-394.38 208.15,-396.36 211.65,-402.42"/>
</g>
<!-- Syntax -->
<g id="node12" class="node">
<title>Syntax</title>
<ellipse fill="none" stroke="black" cx="367.15" cy="-810" rx="35.19" ry="18"/>
<text text-anchor="middle" x="367.15" y="-806.3" font-family="Times,serif" font-size="14.00">Syntax</text>
</g>
<!-- Syntax&#45;&gt;Semantics -->
<g id="edge23" class="edge">
<title>Syntax&#45;&gt;Semantics</title>
<path fill="none" stroke="black" d="M366.12,-791.71C364.43,-773.1 359.95,-743.06 348.15,-720 342.55,-709.06 334.1,-698.66 325.84,-690.01"/>
<polygon fill="black" stroke="black" points="328.27,-687.48 318.72,-682.89 323.32,-692.43 328.27,-687.48"/>
</g>
<!-- Syntax&#45;&gt;Vocab -->
<g id="edge37" class="edge">
<title>Syntax&#45;&gt;Vocab</title>
<path fill="none" stroke="black" d="M371.73,-791.87C378.23,-767.56 390.21,-722.82 397.92,-694.01"/>
<polygon fill="black" stroke="black" points="401.34,-694.75 400.55,-684.19 394.58,-692.94 401.34,-694.75"/>
</g>
<!-- FischerLadner -->
<g id="node13" class="node">
<title>FischerLadner</title>
<ellipse fill="none" stroke="black" cx="146.15" cy="-666" rx="61.99" ry="18"/>
<text text-anchor="middle" x="146.15" y="-662.3" font-family="Times,serif" font-size="14.00">FischerLadner</text>
</g>
<!-- Syntax&#45;&gt;FischerLadner -->
<g id="edge9" class="edge">
<title>Syntax&#45;&gt;FischerLadner</title>
<path fill="none" stroke="black" d="M337.68,-800.1C310.94,-791.26 271.09,-776.13 240.15,-756 212.16,-737.8 185.01,-710.76 167.14,-691.26"/>
<polygon fill="black" stroke="black" points="169.6,-688.76 160.31,-683.67 164.4,-693.45 169.6,-688.76"/>
</g>
<!-- LoadSplit -->
<g id="node17" class="node">
<title>LoadSplit</title>
<ellipse fill="none" stroke="black" cx="393.15" cy="-306" rx="45.49" ry="18"/>
<text text-anchor="middle" x="393.15" y="-302.3" font-family="Times,serif" font-size="14.00">LoadSplit</text>
</g>
<!-- Syntax&#45;&gt;LoadSplit -->
<g id="edge12" class="edge">
<title>Syntax&#45;&gt;LoadSplit</title>
<path fill="none" stroke="black" d="M392.27,-797.25C431.82,-776.81 504.15,-730.72 504.15,-667 504.15,-667 504.15,-667 504.15,-449 504.15,-396.87 457.13,-352.44 424.3,-327.78"/>
<polygon fill="black" stroke="black" points="426.02,-324.71 415.88,-321.65 421.9,-330.36 426.02,-324.71"/>
</g>
<!-- Measures -->
<g id="node20" class="node">
<title>Measures</title>
<ellipse fill="none" stroke="black" cx="294.15" cy="-738" rx="44.69" ry="18"/>
<text text-anchor="middle" x="294.15" y="-734.3" font-family="Times,serif" font-size="14.00">Measures</text>
</g>
<!-- Syntax&#45;&gt;Measures -->
<g id="edge16" class="edge">
<title>Syntax&#45;&gt;Measures</title>
<path fill="none" stroke="black" d="M351.31,-793.81C341.56,-784.47 328.89,-772.31 317.95,-761.83"/>
<polygon fill="black" stroke="black" points="320.36,-759.28 310.72,-754.89 315.51,-764.34 320.36,-759.28"/>
</g>
<!-- FischerLadner&#45;&gt;UnfoldBox -->
<g id="edge33" class="edge">
<title>FischerLadner&#45;&gt;UnfoldBox</title>
<path fill="none" stroke="black" d="M144.38,-647.85C140.58,-610.83 131.57,-523.18 126.96,-478.39"/>
<polygon fill="black" stroke="black" points="130.42,-477.82 125.92,-468.23 123.46,-478.54 130.42,-477.82"/>
</g>
<!-- Fresh&#45;&gt;UnfoldDia -->
<g id="edge35" class="edge">
<title>Fresh&#45;&gt;UnfoldDia</title>
<path fill="none" stroke="black" d="M393.03,-504.05C391.14,-496.26 388.85,-486.82 386.72,-478.08"/>
<polygon fill="black" stroke="black" points="390.1,-477.17 384.34,-468.28 383.3,-478.82 390.1,-477.17"/>
</g>
<!-- Fresh&#45;&gt;UnfoldBox -->
<g id="edge31" class="edge">
<title>Fresh&#45;&gt;UnfoldBox</title>
<path fill="none" stroke="black" d="M373.75,-510.14C368.37,-507.9 362.62,-505.71 357.15,-504 281.77,-480.44 259.81,-486.95 183.15,-468 179.13,-467.01 174.97,-465.93 170.82,-464.8"/>
<polygon fill="black" stroke="black" points="171.74,-461.43 161.17,-462.14 169.87,-468.17 171.74,-461.43"/>
</g>
<!-- Interpolation -->
<g id="node16" class="node">
<title>Interpolation</title>
<ellipse fill="none" stroke="black" cx="373.15" cy="-18" rx="55.79" ry="18"/>
<text text-anchor="middle" x="373.15" y="-14.3" font-family="Times,serif" font-size="14.00">Interpolation</text>
</g>
<!-- PartInterpolation&#45;&gt;Interpolation -->
<g id="edge11" class="edge">
<title>PartInterpolation&#45;&gt;Interpolation</title>
<path fill="none" stroke="black" d="M373.15,-71.7C373.15,-63.98 373.15,-54.71 373.15,-46.11"/>
<polygon fill="black" stroke="black" points="376.65,-46.1 373.15,-36.1 369.65,-46.1 376.65,-46.1"/>
</g>
<!-- LoadSplit&#45;&gt;Soundness -->
<g id="edge26" class="edge">
<title>LoadSplit&#45;&gt;Soundness</title>
<path fill="none" stroke="black" d="M378.3,-288.76C370.14,-279.84 359.87,-268.61 350.83,-258.72"/>
<polygon fill="black" stroke="black" points="353.24,-256.17 343.91,-251.15 348.07,-260.89 353.24,-256.17"/>
</g>
<!-- Tableau -->
<g id="node22" class="node">
<title>Tableau</title>
<ellipse fill="none" stroke="black" cx="291.15" cy="-306" rx="38.99" ry="18"/>
<text text-anchor="middle" x="291.15" y="-302.3" font-family="Times,serif" font-size="14.00">Tableau</text>
</g>
<!-- LocalTableau&#45;&gt;Tableau -->
<g id="edge29" class="edge">
<title>LocalTableau&#45;&gt;Tableau</title>
<path fill="none" stroke="black" d="M256.28,-360.05C261.76,-351.71 268.48,-341.49 274.55,-332.25"/>
<polygon fill="black" stroke="black" points="277.55,-334.07 280.11,-323.79 271.7,-330.22 277.55,-334.07"/>
</g>
<!-- MultisetOrder -->
<g id="node19" class="node">
<title>MultisetOrder</title>
<ellipse fill="none" stroke="black" cx="253.15" cy="-450" rx="61.19" ry="18"/>
<text text-anchor="middle" x="253.15" y="-446.3" font-family="Times,serif" font-size="14.00">MultisetOrder</text>
</g>
<!-- MultisetOrder&#45;&gt;LocalTableau -->
<g id="edge15" class="edge">
<title>MultisetOrder&#45;&gt;LocalTableau</title>
<path fill="none" stroke="black" d="M251.17,-431.7C250.29,-423.98 249.23,-414.71 248.24,-406.11"/>
<polygon fill="black" stroke="black" points="251.71,-405.64 247.1,-396.1 244.76,-406.44 251.71,-405.64"/>
</g>
<!-- Measures&#45;&gt;Semantics -->
<g id="edge24" class="edge">
<title>Measures&#45;&gt;Semantics</title>
<path fill="none" stroke="black" d="M295.63,-719.7C296.29,-711.98 297.08,-702.71 297.82,-694.11"/>
<polygon fill="black" stroke="black" points="301.31,-694.37 298.68,-684.1 294.34,-693.77 301.31,-694.37"/>
</g>
<!-- Tableau&#45;&gt;Soundness -->
<g id="edge25" class="edge">
<title>Tableau&#45;&gt;Soundness</title>
<path fill="none" stroke="black" d="M300.15,-288.41C304.63,-280.16 310.14,-270.01 315.15,-260.78"/>
<polygon fill="black" stroke="black" points="318.25,-262.41 319.94,-251.96 312.09,-259.07 318.25,-262.41"/>
</g>
<!-- Substitution&#45;&gt;UnfoldDia -->
<g id="edge34" class="edge">
<title>Substitution&#45;&gt;UnfoldDia</title>
<path fill="none" stroke="black" d="M314.43,-505.12C325.93,-495.65 340.68,-483.5 353.3,-473.11"/>
<polygon fill="black" stroke="black" points="355.73,-475.64 361.23,-466.58 351.28,-470.24 355.73,-475.64"/>
</g>
<!-- Substitution&#45;&gt;UnfoldBox -->
<g id="edge30" class="edge">
<title>Substitution&#45;&gt;UnfoldBox</title>
<path fill="none" stroke="black" d="M262.58,-507.67C234.95,-496.36 195.16,-480.07 165.32,-467.86"/>
<polygon fill="black" stroke="black" points="166.59,-464.59 156.01,-464.04 163.94,-471.07 166.59,-464.59"/>
</g>
</g>
</svg>
