<?xml version="1.0" encoding="UTF-8" standalone="no"?>
<!DOCTYPE svg PUBLIC "-//W3C//DTD SVG 1.1//EN"
 "http://www.w3.org/Graphics/SVG/1.1/DTD/svg11.dtd">
<!-- Generated by graphviz version 2.43.0 (0)
 -->
<!-- Title: %3 Pages: 1 -->
<svg width="751pt" height="692pt"
 viewBox="0.00 0.00 751.14 692.00" xmlns="http://www.w3.org/2000/svg" xmlns:xlink="http://www.w3.org/1999/xlink">
<g id="graph0" class="graph" transform="scale(1 1) rotate(0) translate(4 688)">
<title>%3</title>
<polygon fill="white" stroke="transparent" points="-4,4 -4,-688 747.14,-688 747.14,4 -4,4"/>
<!-- Soundness -->
<g id="node1" class="node">
<title>Soundness</title>
<ellipse fill="none" stroke="black" cx="483.55" cy="-234" rx="48.19" ry="18"/>
<text text-anchor="middle" x="483.55" y="-230.3" font-family="Times,serif" font-size="14.00">Soundness</text>
</g>
<!-- Completeness -->
<g id="node2" class="node">
<title>Completeness</title>
<ellipse fill="none" stroke="black" cx="420.55" cy="-162" rx="60.39" ry="18"/>
<text text-anchor="middle" x="420.55" y="-158.3" font-family="Times,serif" font-size="14.00">Completeness</text>
</g>
<!-- Soundness&#45;&gt;Completeness -->
<g id="edge1" class="edge">
<title>Soundness&#45;&gt;Completeness</title>
<path fill="none" stroke="black" d="M468.94,-216.76C461.02,-207.97 451.08,-196.93 442.28,-187.14"/>
<polygon fill="black" stroke="black" points="444.81,-184.72 435.52,-179.63 439.61,-189.41 444.81,-184.72"/>
</g>
<!-- PartInterpolation -->
<g id="node14" class="node">
<title>PartInterpolation</title>
<ellipse fill="none" stroke="black" cx="420.55" cy="-90" rx="70.39" ry="18"/>
<text text-anchor="middle" x="420.55" y="-86.3" font-family="Times,serif" font-size="14.00">PartInterpolation</text>
</g>
<!-- Completeness&#45;&gt;PartInterpolation -->
<g id="edge21" class="edge">
<title>Completeness&#45;&gt;PartInterpolation</title>
<path fill="none" stroke="black" d="M420.55,-143.7C420.55,-135.98 420.55,-126.71 420.55,-118.11"/>
<polygon fill="black" stroke="black" points="424.05,-118.1 420.55,-108.1 417.05,-118.1 424.05,-118.1"/>
</g>
<!-- Modelgraphs -->
<g id="node3" class="node">
<title>Modelgraphs</title>
<ellipse fill="none" stroke="black" cx="333.55" cy="-306" rx="57.69" ry="18"/>
<text text-anchor="middle" x="333.55" y="-302.3" font-family="Times,serif" font-size="14.00">Modelgraphs</text>
</g>
<!-- Modelgraphs&#45;&gt;Completeness -->
<g id="edge2" class="edge">
<title>Modelgraphs&#45;&gt;Completeness</title>
<path fill="none" stroke="black" d="M343.87,-288.15C358.98,-263.49 387.23,-217.37 404.9,-188.53"/>
<polygon fill="black" stroke="black" points="408,-190.18 410.24,-179.82 402.03,-186.52 408,-190.18"/>
</g>
<!-- Syntax -->
<g id="node4" class="node">
<title>Syntax</title>
<ellipse fill="none" stroke="black" cx="384.55" cy="-666" rx="35.19" ry="18"/>
<text text-anchor="middle" x="384.55" y="-662.3" font-family="Times,serif" font-size="14.00">Syntax</text>
</g>
<!-- DagSyntax -->
<g id="node5" class="node">
<title>DagSyntax</title>
<ellipse fill="none" stroke="black" cx="497.55" cy="-594" rx="50.09" ry="18"/>
<text text-anchor="middle" x="497.55" y="-590.3" font-family="Times,serif" font-size="14.00">DagSyntax</text>
</g>
<!-- Syntax&#45;&gt;DagSyntax -->
<g id="edge3" class="edge">
<title>Syntax&#45;&gt;DagSyntax</title>
<path fill="none" stroke="black" d="M406.07,-651.67C422.65,-641.4 445.86,-627.02 464.76,-615.31"/>
<polygon fill="black" stroke="black" points="466.71,-618.22 473.36,-609.98 463.02,-612.27 466.71,-618.22"/>
</g>
<!-- Semantics -->
<g id="node6" class="node">
<title>Semantics</title>
<ellipse fill="none" stroke="black" cx="311.55" cy="-522" rx="47.39" ry="18"/>
<text text-anchor="middle" x="311.55" y="-518.3" font-family="Times,serif" font-size="14.00">Semantics</text>
</g>
<!-- Syntax&#45;&gt;Semantics -->
<g id="edge23" class="edge">
<title>Syntax&#45;&gt;Semantics</title>
<path fill="none" stroke="black" d="M365.22,-650.87C353.42,-641.22 339.03,-627.43 330.55,-612 320.05,-592.9 315.35,-568.55 313.25,-550.14"/>
<polygon fill="black" stroke="black" points="316.72,-549.7 312.28,-540.08 309.75,-550.37 316.72,-549.7"/>
</g>
<!-- Vocab -->
<g id="node12" class="node">
<title>Vocab</title>
<ellipse fill="none" stroke="black" cx="132.55" cy="-522" rx="32.49" ry="18"/>
<text text-anchor="middle" x="132.55" y="-518.3" font-family="Times,serif" font-size="14.00">Vocab</text>
</g>
<!-- Syntax&#45;&gt;Vocab -->
<g id="edge34" class="edge">
<title>Syntax&#45;&gt;Vocab</title>
<path fill="none" stroke="black" d="M361.74,-652.15C316.46,-626.63 215.16,-569.55 163.75,-540.59"/>
<polygon fill="black" stroke="black" points="165.19,-537.38 154.76,-535.52 161.76,-543.48 165.19,-537.38"/>
</g>
<!-- Setsimp -->
<g id="node16" class="node">
<title>Setsimp</title>
<ellipse fill="none" stroke="black" cx="659.55" cy="-522" rx="39.79" ry="18"/>
<text text-anchor="middle" x="659.55" y="-518.3" font-family="Times,serif" font-size="14.00">Setsimp</text>
</g>
<!-- Syntax&#45;&gt;Setsimp -->
<g id="edge25" class="edge">
<title>Syntax&#45;&gt;Setsimp</title>
<path fill="none" stroke="black" d="M417.2,-659.14C453.03,-651.77 511.44,-636.98 556.55,-612 587.94,-594.61 618.33,-566.54 637.86,-546.58"/>
<polygon fill="black" stroke="black" points="640.64,-548.73 645.04,-539.1 635.59,-543.89 640.64,-548.73"/>
</g>
<!-- Measures -->
<g id="node19" class="node">
<title>Measures</title>
<ellipse fill="none" stroke="black" cx="384.55" cy="-594" rx="44.69" ry="18"/>
<text text-anchor="middle" x="384.55" y="-590.3" font-family="Times,serif" font-size="14.00">Measures</text>
</g>
<!-- Syntax&#45;&gt;Measures -->
<g id="edge17" class="edge">
<title>Syntax&#45;&gt;Measures</title>
<path fill="none" stroke="black" d="M384.55,-647.7C384.55,-639.98 384.55,-630.71 384.55,-622.11"/>
<polygon fill="black" stroke="black" points="388.05,-622.1 384.55,-612.1 381.05,-622.1 388.05,-622.1"/>
</g>
<!-- DagTableau -->
<g id="node7" class="node">
<title>DagTableau</title>
<ellipse fill="none" stroke="black" cx="533.55" cy="-450" rx="53.89" ry="18"/>
<text text-anchor="middle" x="533.55" y="-446.3" font-family="Times,serif" font-size="14.00">DagTableau</text>
</g>
<!-- DagSyntax&#45;&gt;DagTableau -->
<g id="edge7" class="edge">
<title>DagSyntax&#45;&gt;DagTableau</title>
<path fill="none" stroke="black" d="M500.69,-575.82C504.1,-557.8 509.96,-528.73 516.55,-504 518.85,-495.37 521.7,-486.06 524.41,-477.69"/>
<polygon fill="black" stroke="black" points="527.78,-478.65 527.6,-468.06 521.13,-476.45 527.78,-478.65"/>
</g>
<!-- Semantics&#45;&gt;Modelgraphs -->
<g id="edge18" class="edge">
<title>Semantics&#45;&gt;Modelgraphs</title>
<path fill="none" stroke="black" d="M313.31,-503.85C317.12,-466.83 326.13,-379.18 330.73,-334.39"/>
<polygon fill="black" stroke="black" points="334.23,-334.54 331.78,-324.23 327.27,-333.82 334.23,-334.54"/>
</g>
<!-- Semantics&#45;&gt;DagTableau -->
<g id="edge4" class="edge">
<title>Semantics&#45;&gt;DagTableau</title>
<path fill="none" stroke="black" d="M346.72,-509.91C384.3,-498.06 444.09,-479.21 485.88,-466.03"/>
<polygon fill="black" stroke="black" points="487.08,-469.32 495.56,-462.98 484.97,-462.65 487.08,-469.32"/>
</g>
<!-- Discon -->
<g id="node10" class="node">
<title>Discon</title>
<ellipse fill="none" stroke="black" cx="239.55" cy="-450" rx="36" ry="18"/>
<text text-anchor="middle" x="239.55" y="-446.3" font-family="Times,serif" font-size="14.00">Discon</text>
</g>
<!-- Semantics&#45;&gt;Discon -->
<g id="edge8" class="edge">
<title>Semantics&#45;&gt;Discon</title>
<path fill="none" stroke="black" d="M294.85,-504.76C285.35,-495.53 273.32,-483.83 262.9,-473.7"/>
<polygon fill="black" stroke="black" points="265.27,-471.13 255.66,-466.67 260.39,-476.15 265.27,-471.13"/>
</g>
<!-- Examples -->
<g id="node11" class="node">
<title>Examples</title>
<ellipse fill="none" stroke="black" cx="377.55" cy="-450" rx="46.29" ry="18"/>
<text text-anchor="middle" x="377.55" y="-446.3" font-family="Times,serif" font-size="14.00">Examples</text>
</g>
<!-- Semantics&#45;&gt;Examples -->
<g id="edge9" class="edge">
<title>Semantics&#45;&gt;Examples</title>
<path fill="none" stroke="black" d="M326.85,-504.76C335.35,-495.75 346.07,-484.39 355.46,-474.43"/>
<polygon fill="black" stroke="black" points="358.01,-476.82 362.32,-467.15 352.92,-472.02 358.01,-476.82"/>
</g>
<!-- Substitution -->
<g id="node23" class="node">
<title>Substitution</title>
<ellipse fill="none" stroke="black" cx="132.55" cy="-450" rx="53.09" ry="18"/>
<text text-anchor="middle" x="132.55" y="-446.3" font-family="Times,serif" font-size="14.00">Substitution</text>
</g>
<!-- Semantics&#45;&gt;Substitution -->
<g id="edge28" class="edge">
<title>Semantics&#45;&gt;Substitution</title>
<path fill="none" stroke="black" d="M279.55,-508.49C250.57,-497.15 207.64,-480.36 175.64,-467.85"/>
<polygon fill="black" stroke="black" points="176.68,-464.5 166.09,-464.12 174.13,-471.02 176.68,-464.5"/>
</g>
<!-- LocalTableau -->
<g id="node17" class="node">
<title>LocalTableau</title>
<ellipse fill="none" stroke="black" cx="538.55" cy="-378" rx="59.29" ry="18"/>
<text text-anchor="middle" x="538.55" y="-374.3" font-family="Times,serif" font-size="14.00">LocalTableau</text>
</g>
<!-- DagTableau&#45;&gt;LocalTableau -->
<g id="edge15" class="edge">
<title>DagTableau&#45;&gt;LocalTableau</title>
<path fill="none" stroke="black" d="M534.78,-431.7C535.33,-423.98 536,-414.71 536.61,-406.11"/>
<polygon fill="black" stroke="black" points="540.1,-406.33 537.33,-396.1 533.12,-405.83 540.1,-406.33"/>
</g>
<!-- Star -->
<g id="node8" class="node">
<title>Star</title>
<ellipse fill="none" stroke="black" cx="442.55" cy="-522" rx="27" ry="18"/>
<text text-anchor="middle" x="442.55" y="-518.3" font-family="Times,serif" font-size="14.00">Star</text>
</g>
<!-- Star&#45;&gt;Modelgraphs -->
<g id="edge19" class="edge">
<title>Star&#45;&gt;Modelgraphs</title>
<path fill="none" stroke="black" d="M443.37,-503.91C443.63,-485.47 442.26,-455.58 432.55,-432 415.89,-391.58 382.12,-353.47 358.68,-330.19"/>
<polygon fill="black" stroke="black" points="361.07,-327.64 351.47,-323.17 356.19,-332.65 361.07,-327.64"/>
</g>
<!-- Star&#45;&gt;DagTableau -->
<g id="edge5" class="edge">
<title>Star&#45;&gt;DagTableau</title>
<path fill="none" stroke="black" d="M459.66,-507.83C472.44,-498.01 490.17,-484.36 505.07,-472.91"/>
<polygon fill="black" stroke="black" points="507.21,-475.67 513,-466.8 502.94,-470.13 507.21,-475.67"/>
</g>
<!-- Star&#45;&gt;Examples -->
<g id="edge10" class="edge">
<title>Star&#45;&gt;Examples</title>
<path fill="none" stroke="black" d="M428.76,-506.15C420.33,-497.07 409.34,-485.24 399.71,-474.87"/>
<polygon fill="black" stroke="black" points="402.04,-472.24 392.67,-467.29 396.91,-477 402.04,-472.24"/>
</g>
<!-- Closure -->
<g id="node9" class="node">
<title>Closure</title>
<ellipse fill="none" stroke="black" cx="563.55" cy="-522" rx="38.19" ry="18"/>
<text text-anchor="middle" x="563.55" y="-518.3" font-family="Times,serif" font-size="14.00">Closure</text>
</g>
<!-- Closure&#45;&gt;DagTableau -->
<g id="edge6" class="edge">
<title>Closure&#45;&gt;DagTableau</title>
<path fill="none" stroke="black" d="M556.29,-504.05C552.87,-496.09 548.72,-486.41 544.91,-477.51"/>
<polygon fill="black" stroke="black" points="548.11,-476.09 540.95,-468.28 541.67,-478.85 548.11,-476.09"/>
</g>
<!-- Discon&#45;&gt;LocalTableau -->
<g id="edge14" class="edge">
<title>Discon&#45;&gt;LocalTableau</title>
<path fill="none" stroke="black" d="M271.26,-441.58C321.66,-429.78 420.7,-406.59 483.04,-392"/>
<polygon fill="black" stroke="black" points="484.16,-395.33 493.1,-389.64 482.56,-388.51 484.16,-395.33"/>
</g>
<!-- Unfold -->
<g id="node20" class="node">
<title>Unfold</title>
<ellipse fill="none" stroke="black" cx="185.55" cy="-378" rx="36" ry="18"/>
<text text-anchor="middle" x="185.55" y="-374.3" font-family="Times,serif" font-size="14.00">Unfold</text>
</g>
<!-- Discon&#45;&gt;Unfold -->
<g id="edge31" class="edge">
<title>Discon&#45;&gt;Unfold</title>
<path fill="none" stroke="black" d="M227.02,-432.76C220.28,-424.02 211.82,-413.05 204.3,-403.31"/>
<polygon fill="black" stroke="black" points="206.88,-400.93 198,-395.15 201.34,-405.2 206.88,-400.93"/>
</g>
<!-- Fresh -->
<g id="node13" class="node">
<title>Fresh</title>
<ellipse fill="none" stroke="black" cx="30.55" cy="-450" rx="30.59" ry="18"/>
<text text-anchor="middle" x="30.55" y="-446.3" font-family="Times,serif" font-size="14.00">Fresh</text>
</g>
<!-- Vocab&#45;&gt;Fresh -->
<g id="edge11" class="edge">
<title>Vocab&#45;&gt;Fresh</title>
<path fill="none" stroke="black" d="M112.88,-507.5C97.4,-496.88 75.63,-481.94 58.37,-470.09"/>
<polygon fill="black" stroke="black" points="60.03,-466.99 49.81,-464.22 56.07,-472.76 60.03,-466.99"/>
</g>
<!-- Vocab&#45;&gt;Substitution -->
<g id="edge29" class="edge">
<title>Vocab&#45;&gt;Substitution</title>
<path fill="none" stroke="black" d="M132.55,-503.7C132.55,-495.98 132.55,-486.71 132.55,-478.11"/>
<polygon fill="black" stroke="black" points="136.05,-478.1 132.55,-468.1 129.05,-478.1 136.05,-478.1"/>
</g>
<!-- Fresh&#45;&gt;Unfold -->
<g id="edge33" class="edge">
<title>Fresh&#45;&gt;Unfold</title>
<path fill="none" stroke="black" d="M54.09,-438.37C79.77,-426.77 121.13,-408.09 150.6,-394.78"/>
<polygon fill="black" stroke="black" points="152.04,-397.97 159.71,-390.67 149.16,-391.59 152.04,-397.97"/>
</g>
<!-- Interpolation -->
<g id="node15" class="node">
<title>Interpolation</title>
<ellipse fill="none" stroke="black" cx="420.55" cy="-18" rx="55.79" ry="18"/>
<text text-anchor="middle" x="420.55" y="-14.3" font-family="Times,serif" font-size="14.00">Interpolation</text>
</g>
<!-- PartInterpolation&#45;&gt;Interpolation -->
<g id="edge12" class="edge">
<title>PartInterpolation&#45;&gt;Interpolation</title>
<path fill="none" stroke="black" d="M420.55,-71.7C420.55,-63.98 420.55,-54.71 420.55,-46.11"/>
<polygon fill="black" stroke="black" points="424.05,-46.1 420.55,-36.1 417.05,-46.1 424.05,-46.1"/>
</g>
<!-- Setsimp&#45;&gt;LocalTableau -->
<g id="edge13" class="edge">
<title>Setsimp&#45;&gt;LocalTableau</title>
<path fill="none" stroke="black" d="M688.45,-509.48C705.81,-500.87 726.43,-487.25 736.55,-468 743.99,-453.84 746.29,-444.69 736.55,-432 720.09,-410.56 653.48,-395.91 602,-387.53"/>
<polygon fill="black" stroke="black" points="602.35,-384.04 591.93,-385.94 601.26,-390.96 602.35,-384.04"/>
</g>
<!-- Tableau -->
<g id="node22" class="node">
<title>Tableau</title>
<ellipse fill="none" stroke="black" cx="508.55" cy="-306" rx="38.99" ry="18"/>
<text text-anchor="middle" x="508.55" y="-302.3" font-family="Times,serif" font-size="14.00">Tableau</text>
</g>
<!-- LocalTableau&#45;&gt;Tableau -->
<g id="edge30" class="edge">
<title>LocalTableau&#45;&gt;Tableau</title>
<path fill="none" stroke="black" d="M531.29,-360.05C527.82,-351.97 523.6,-342.12 519.74,-333.11"/>
<polygon fill="black" stroke="black" points="522.9,-331.6 515.74,-323.79 516.46,-334.36 522.9,-331.6"/>
</g>
<!-- MultisetOrder -->
<g id="node18" class="node">
<title>MultisetOrder</title>
<ellipse fill="none" stroke="black" cx="666.55" cy="-450" rx="61.19" ry="18"/>
<text text-anchor="middle" x="666.55" y="-446.3" font-family="Times,serif" font-size="14.00">MultisetOrder</text>
</g>
<!-- MultisetOrder&#45;&gt;LocalTableau -->
<g id="edge16" class="edge">
<title>MultisetOrder&#45;&gt;LocalTableau</title>
<path fill="none" stroke="black" d="M638.77,-433.81C620.15,-423.63 595.44,-410.11 575.21,-399.05"/>
<polygon fill="black" stroke="black" points="576.72,-395.89 566.27,-394.16 573.36,-402.03 576.72,-395.89"/>
</g>
<!-- Measures&#45;&gt;Semantics -->
<g id="edge24" class="edge">
<title>Measures&#45;&gt;Semantics</title>
<path fill="none" stroke="black" d="M367.98,-577.12C358.44,-567.96 346.27,-556.29 335.67,-546.13"/>
<polygon fill="black" stroke="black" points="337.94,-543.46 328.3,-539.06 333.09,-548.51 337.94,-543.46"/>
</g>
<!-- Measures&#45;&gt;Setsimp -->
<g id="edge26" class="edge">
<title>Measures&#45;&gt;Setsimp</title>
<path fill="none" stroke="black" d="M418.1,-581.87C424.84,-579.8 431.89,-577.74 438.55,-576 514.11,-556.25 535.28,-560.84 610.55,-540 613.67,-539.13 616.89,-538.18 620.1,-537.17"/>
<polygon fill="black" stroke="black" points="621.26,-540.47 629.68,-534.04 619.09,-533.82 621.26,-540.47"/>
</g>
<!-- Unfold&#45;&gt;Modelgraphs -->
<g id="edge20" class="edge">
<title>Unfold&#45;&gt;Modelgraphs</title>
<path fill="none" stroke="black" d="M210.65,-365.13C233.42,-354.36 267.37,-338.3 293.82,-325.79"/>
<polygon fill="black" stroke="black" points="295.65,-328.8 303.19,-321.36 292.66,-322.47 295.65,-328.8"/>
</g>
<!-- Paths -->
<g id="node21" class="node">
<title>Paths</title>
<ellipse fill="none" stroke="black" cx="185.55" cy="-306" rx="29.8" ry="18"/>
<text text-anchor="middle" x="185.55" y="-302.3" font-family="Times,serif" font-size="14.00">Paths</text>
</g>
<!-- Unfold&#45;&gt;Paths -->
<g id="edge22" class="edge">
<title>Unfold&#45;&gt;Paths</title>
<path fill="none" stroke="black" d="M185.55,-359.7C185.55,-351.98 185.55,-342.71 185.55,-334.11"/>
<polygon fill="black" stroke="black" points="189.05,-334.1 185.55,-324.1 182.05,-334.1 189.05,-334.1"/>
</g>
<!-- Tableau&#45;&gt;Soundness -->
<g id="edge27" class="edge">
<title>Tableau&#45;&gt;Soundness</title>
<path fill="none" stroke="black" d="M502.5,-288.05C499.68,-280.18 496.27,-270.62 493.12,-261.79"/>
<polygon fill="black" stroke="black" points="496.38,-260.52 489.72,-252.28 489.78,-262.87 496.38,-260.52"/>
</g>
<!-- Substitution&#45;&gt;Unfold -->
<g id="edge32" class="edge">
<title>Substitution&#45;&gt;Unfold</title>
<path fill="none" stroke="black" d="M145.11,-432.41C151.74,-423.66 159.99,-412.75 167.31,-403.08"/>
<polygon fill="black" stroke="black" points="170.2,-405.07 173.44,-394.99 164.62,-400.85 170.2,-405.07"/>
</g>
</g>
</svg>
