<?xml version="1.0" encoding="UTF-8" standalone="no"?>
<!DOCTYPE svg PUBLIC "-//W3C//DTD SVG 1.1//EN"
 "http://www.w3.org/Graphics/SVG/1.1/DTD/svg11.dtd">
<!-- Generated by graphviz version 2.43.0 (0)
 -->
<!-- Title: %3 Pages: 1 -->
<svg width="495pt" height="836pt"
 viewBox="0.00 0.00 494.79 836.00" xmlns="http://www.w3.org/2000/svg" xmlns:xlink="http://www.w3.org/1999/xlink">
<g id="graph0" class="graph" transform="scale(1 1) rotate(0) translate(4 832)">
<title>%3</title>
<polygon fill="white" stroke="transparent" points="-4,4 -4,-832 490.79,-832 490.79,4 -4,4"/>
<!-- Soundness -->
<g id="node1" class="node">
<title>Soundness</title>
<ellipse fill="none" stroke="black" cx="281.6" cy="-234" rx="48.19" ry="18"/>
<text text-anchor="middle" x="281.6" y="-230.3" font-family="Times,serif" font-size="14.00">Soundness</text>
</g>
<!-- Completeness -->
<g id="node2" class="node">
<title>Completeness</title>
<ellipse fill="none" stroke="black" cx="161.6" cy="-162" rx="60.39" ry="18"/>
<text text-anchor="middle" x="161.6" y="-158.3" font-family="Times,serif" font-size="14.00">Completeness</text>
</g>
<!-- Soundness&#45;&gt;Completeness -->
<g id="edge1" class="edge">
<title>Soundness&#45;&gt;Completeness</title>
<path fill="none" stroke="black" d="M256.73,-218.5C239.43,-208.4 216.1,-194.79 196.88,-183.58"/>
<polygon fill="black" stroke="black" points="198.49,-180.47 188.09,-178.46 194.97,-186.52 198.49,-180.47"/>
</g>
<!-- PartInterpolation -->
<g id="node12" class="node">
<title>PartInterpolation</title>
<ellipse fill="none" stroke="black" cx="101.6" cy="-90" rx="70.39" ry="18"/>
<text text-anchor="middle" x="101.6" y="-86.3" font-family="Times,serif" font-size="14.00">PartInterpolation</text>
</g>
<!-- Completeness&#45;&gt;PartInterpolation -->
<g id="edge15" class="edge">
<title>Completeness&#45;&gt;PartInterpolation</title>
<path fill="none" stroke="black" d="M147.38,-144.41C140.01,-135.82 130.88,-125.16 122.71,-115.63"/>
<polygon fill="black" stroke="black" points="125.3,-113.27 116.13,-107.96 119.98,-117.83 125.3,-113.27"/>
</g>
<!-- TableauGame -->
<g id="node3" class="node">
<title>TableauGame</title>
<ellipse fill="none" stroke="black" cx="154.6" cy="-234" rx="60.39" ry="18"/>
<text text-anchor="middle" x="154.6" y="-230.3" font-family="Times,serif" font-size="14.00">TableauGame</text>
</g>
<!-- TableauGame&#45;&gt;Completeness -->
<g id="edge2" class="edge">
<title>TableauGame&#45;&gt;Completeness</title>
<path fill="none" stroke="black" d="M156.33,-215.7C157.1,-207.98 158.03,-198.71 158.89,-190.11"/>
<polygon fill="black" stroke="black" points="162.37,-190.4 159.89,-180.1 155.41,-189.71 162.37,-190.4"/>
</g>
<!-- Semantics -->
<g id="node4" class="node">
<title>Semantics</title>
<ellipse fill="none" stroke="black" cx="369.6" cy="-666" rx="47.39" ry="18"/>
<text text-anchor="middle" x="369.6" y="-662.3" font-family="Times,serif" font-size="14.00">Semantics</text>
</g>
<!-- Discon -->
<g id="node5" class="node">
<title>Discon</title>
<ellipse fill="none" stroke="black" cx="218.6" cy="-594" rx="36" ry="18"/>
<text text-anchor="middle" x="218.6" y="-590.3" font-family="Times,serif" font-size="14.00">Discon</text>
</g>
<!-- Semantics&#45;&gt;Discon -->
<g id="edge3" class="edge">
<title>Semantics&#45;&gt;Discon</title>
<path fill="none" stroke="black" d="M340.84,-651.67C315.99,-640.15 280.02,-623.47 253.52,-611.19"/>
<polygon fill="black" stroke="black" points="254.77,-607.91 244.23,-606.88 251.83,-614.26 254.77,-607.91"/>
</g>
<!-- Examples -->
<g id="node9" class="node">
<title>Examples</title>
<ellipse fill="none" stroke="black" cx="363.6" cy="-450" rx="46.29" ry="18"/>
<text text-anchor="middle" x="363.6" y="-446.3" font-family="Times,serif" font-size="14.00">Examples</text>
</g>
<!-- Semantics&#45;&gt;Examples -->
<g id="edge6" class="edge">
<title>Semantics&#45;&gt;Examples</title>
<path fill="none" stroke="black" d="M369.12,-647.85C368.08,-610.83 365.62,-523.18 364.36,-478.39"/>
<polygon fill="black" stroke="black" points="367.86,-478.13 364.08,-468.23 360.86,-478.33 367.86,-478.13"/>
</g>
<!-- SemQuot -->
<g id="node19" class="node">
<title>SemQuot</title>
<ellipse fill="none" stroke="black" cx="442.6" cy="-594" rx="44.39" ry="18"/>
<text text-anchor="middle" x="442.6" y="-590.3" font-family="Times,serif" font-size="14.00">SemQuot</text>
</g>
<!-- Semantics&#45;&gt;SemQuot -->
<g id="edge17" class="edge">
<title>Semantics&#45;&gt;SemQuot</title>
<path fill="none" stroke="black" d="M386.16,-649.12C395.77,-639.9 408.05,-628.13 418.69,-617.92"/>
<polygon fill="black" stroke="black" points="421.3,-620.27 426.1,-610.82 416.46,-615.22 421.3,-620.27"/>
</g>
<!-- Substitution -->
<g id="node21" class="node">
<title>Substitution</title>
<ellipse fill="none" stroke="black" cx="217.6" cy="-522" rx="53.09" ry="18"/>
<text text-anchor="middle" x="217.6" y="-518.3" font-family="Times,serif" font-size="14.00">Substitution</text>
</g>
<!-- Discon&#45;&gt;Substitution -->
<g id="edge21" class="edge">
<title>Discon&#45;&gt;Substitution</title>
<path fill="none" stroke="black" d="M218.35,-575.7C218.24,-567.98 218.11,-558.71 217.98,-550.11"/>
<polygon fill="black" stroke="black" points="221.48,-550.05 217.84,-540.1 214.48,-550.15 221.48,-550.05"/>
</g>
<!-- Vocab -->
<g id="node6" class="node">
<title>Vocab</title>
<ellipse fill="none" stroke="black" cx="218.6" cy="-666" rx="32.49" ry="18"/>
<text text-anchor="middle" x="218.6" y="-662.3" font-family="Times,serif" font-size="14.00">Vocab</text>
</g>
<!-- Vocab&#45;&gt;Discon -->
<g id="edge4" class="edge">
<title>Vocab&#45;&gt;Discon</title>
<path fill="none" stroke="black" d="M218.6,-647.7C218.6,-639.98 218.6,-630.71 218.6,-622.11"/>
<polygon fill="black" stroke="black" points="222.1,-622.1 218.6,-612.1 215.1,-622.1 222.1,-622.1"/>
</g>
<!-- Fresh -->
<g id="node11" class="node">
<title>Fresh</title>
<ellipse fill="none" stroke="black" cx="115.6" cy="-522" rx="30.59" ry="18"/>
<text text-anchor="middle" x="115.6" y="-518.3" font-family="Times,serif" font-size="14.00">Fresh</text>
</g>
<!-- Vocab&#45;&gt;Fresh -->
<g id="edge8" class="edge">
<title>Vocab&#45;&gt;Fresh</title>
<path fill="none" stroke="black" d="M204.67,-649.66C195.5,-639.3 183.41,-625.16 173.6,-612 158.01,-591.1 141.95,-566.14 130.7,-547.99"/>
<polygon fill="black" stroke="black" points="133.49,-545.85 125.28,-539.17 127.53,-549.52 133.49,-545.85"/>
</g>
<!-- UnfoldDia -->
<g id="node7" class="node">
<title>UnfoldDia</title>
<ellipse fill="none" stroke="black" cx="127.6" cy="-450" rx="48.19" ry="18"/>
<text text-anchor="middle" x="127.6" y="-446.3" font-family="Times,serif" font-size="14.00">UnfoldDia</text>
</g>
<!-- Distance -->
<g id="node8" class="node">
<title>Distance</title>
<ellipse fill="none" stroke="black" cx="41.6" cy="-162" rx="41.69" ry="18"/>
<text text-anchor="middle" x="41.6" y="-158.3" font-family="Times,serif" font-size="14.00">Distance</text>
</g>
<!-- UnfoldDia&#45;&gt;Distance -->
<g id="edge5" class="edge">
<title>UnfoldDia&#45;&gt;Distance</title>
<path fill="none" stroke="black" d="M100.47,-434.84C86.04,-425.78 69.49,-412.61 60.6,-396 24.78,-329.08 31.15,-235.6 37.19,-190.07"/>
<polygon fill="black" stroke="black" points="40.67,-190.47 38.61,-180.08 33.74,-189.49 40.67,-190.47"/>
</g>
<!-- LocalTableau -->
<g id="node15" class="node">
<title>LocalTableau</title>
<ellipse fill="none" stroke="black" cx="262.6" cy="-378" rx="59.29" ry="18"/>
<text text-anchor="middle" x="262.6" y="-374.3" font-family="Times,serif" font-size="14.00">LocalTableau</text>
</g>
<!-- UnfoldDia&#45;&gt;LocalTableau -->
<g id="edge11" class="edge">
<title>UnfoldDia&#45;&gt;LocalTableau</title>
<path fill="none" stroke="black" d="M154.59,-435C174.74,-424.55 202.54,-410.14 224.89,-398.55"/>
<polygon fill="black" stroke="black" points="226.52,-401.65 233.78,-393.94 223.29,-395.44 226.52,-401.65"/>
</g>
<!-- Modelgraphs -->
<g id="node18" class="node">
<title>Modelgraphs</title>
<ellipse fill="none" stroke="black" cx="127.6" cy="-378" rx="57.69" ry="18"/>
<text text-anchor="middle" x="127.6" y="-374.3" font-family="Times,serif" font-size="14.00">Modelgraphs</text>
</g>
<!-- UnfoldDia&#45;&gt;Modelgraphs -->
<g id="edge14" class="edge">
<title>UnfoldDia&#45;&gt;Modelgraphs</title>
<path fill="none" stroke="black" d="M127.6,-431.7C127.6,-423.98 127.6,-414.71 127.6,-406.11"/>
<polygon fill="black" stroke="black" points="131.1,-406.1 127.6,-396.1 124.1,-406.1 131.1,-406.1"/>
</g>
<!-- Distance&#45;&gt;PartInterpolation -->
<g id="edge16" class="edge">
<title>Distance&#45;&gt;PartInterpolation</title>
<path fill="none" stroke="black" d="M55.51,-144.76C62.98,-136.06 72.33,-125.15 80.65,-115.43"/>
<polygon fill="black" stroke="black" points="83.49,-117.5 87.34,-107.63 78.17,-112.95 83.49,-117.5"/>
</g>
<!-- Star -->
<g id="node10" class="node">
<title>Star</title>
<ellipse fill="none" stroke="black" cx="315.6" cy="-522" rx="27" ry="18"/>
<text text-anchor="middle" x="315.6" y="-518.3" font-family="Times,serif" font-size="14.00">Star</text>
</g>
<!-- Star&#45;&gt;UnfoldDia -->
<g id="edge31" class="edge">
<title>Star&#45;&gt;UnfoldDia</title>
<path fill="none" stroke="black" d="M294.44,-510.56C289.61,-508.3 284.46,-505.99 279.6,-504 244.24,-489.53 203.3,-475.4 172.82,-465.38"/>
<polygon fill="black" stroke="black" points="173.91,-462.05 163.31,-462.27 171.73,-468.7 173.91,-462.05"/>
</g>
<!-- Star&#45;&gt;Examples -->
<g id="edge7" class="edge">
<title>Star&#45;&gt;Examples</title>
<path fill="none" stroke="black" d="M326.49,-505.12C332.33,-496.59 339.67,-485.89 346.28,-476.25"/>
<polygon fill="black" stroke="black" points="349.31,-478.02 352.08,-467.8 343.54,-474.07 349.31,-478.02"/>
</g>
<!-- UnfoldBox -->
<g id="node14" class="node">
<title>UnfoldBox</title>
<ellipse fill="none" stroke="black" cx="243.6" cy="-450" rx="50.09" ry="18"/>
<text text-anchor="middle" x="243.6" y="-446.3" font-family="Times,serif" font-size="14.00">UnfoldBox</text>
</g>
<!-- Star&#45;&gt;UnfoldBox -->
<g id="edge28" class="edge">
<title>Star&#45;&gt;UnfoldBox</title>
<path fill="none" stroke="black" d="M301.03,-506.83C291.41,-497.49 278.59,-485.02 267.5,-474.24"/>
<polygon fill="black" stroke="black" points="269.77,-471.56 260.16,-467.1 264.89,-476.58 269.77,-471.56"/>
</g>
<!-- Fresh&#45;&gt;UnfoldDia -->
<g id="edge30" class="edge">
<title>Fresh&#45;&gt;UnfoldDia</title>
<path fill="none" stroke="black" d="M118.5,-504.05C119.82,-496.35 121.42,-487.03 122.91,-478.36"/>
<polygon fill="black" stroke="black" points="126.39,-478.72 124.63,-468.28 119.5,-477.54 126.39,-478.72"/>
</g>
<!-- Fresh&#45;&gt;UnfoldBox -->
<g id="edge27" class="edge">
<title>Fresh&#45;&gt;UnfoldBox</title>
<path fill="none" stroke="black" d="M137.31,-509.13C156.74,-498.5 185.59,-482.72 208.33,-470.28"/>
<polygon fill="black" stroke="black" points="210.25,-473.23 217.34,-465.36 206.89,-467.08 210.25,-473.23"/>
</g>
<!-- Interpolation -->
<g id="node13" class="node">
<title>Interpolation</title>
<ellipse fill="none" stroke="black" cx="101.6" cy="-18" rx="55.79" ry="18"/>
<text text-anchor="middle" x="101.6" y="-14.3" font-family="Times,serif" font-size="14.00">Interpolation</text>
</g>
<!-- PartInterpolation&#45;&gt;Interpolation -->
<g id="edge9" class="edge">
<title>PartInterpolation&#45;&gt;Interpolation</title>
<path fill="none" stroke="black" d="M101.6,-71.7C101.6,-63.98 101.6,-54.71 101.6,-46.11"/>
<polygon fill="black" stroke="black" points="105.1,-46.1 101.6,-36.1 98.1,-46.1 105.1,-46.1"/>
</g>
<!-- UnfoldBox&#45;&gt;LocalTableau -->
<g id="edge10" class="edge">
<title>UnfoldBox&#45;&gt;LocalTableau</title>
<path fill="none" stroke="black" d="M248.2,-432.05C250.31,-424.26 252.87,-414.82 255.25,-406.08"/>
<polygon fill="black" stroke="black" points="258.67,-406.84 257.91,-396.28 251.91,-405.01 258.67,-406.84"/>
</g>
<!-- UnfoldBox&#45;&gt;Modelgraphs -->
<g id="edge13" class="edge">
<title>UnfoldBox&#45;&gt;Modelgraphs</title>
<path fill="none" stroke="black" d="M219,-434.15C202.31,-424.08 180.02,-410.64 161.63,-399.54"/>
<polygon fill="black" stroke="black" points="163.33,-396.48 152.96,-394.31 159.72,-402.47 163.33,-396.48"/>
</g>
<!-- Tableau -->
<g id="node20" class="node">
<title>Tableau</title>
<ellipse fill="none" stroke="black" cx="268.6" cy="-306" rx="38.99" ry="18"/>
<text text-anchor="middle" x="268.6" y="-302.3" font-family="Times,serif" font-size="14.00">Tableau</text>
</g>
<!-- LocalTableau&#45;&gt;Tableau -->
<g id="edge22" class="edge">
<title>LocalTableau&#45;&gt;Tableau</title>
<path fill="none" stroke="black" d="M264.08,-359.7C264.74,-351.98 265.54,-342.71 266.27,-334.11"/>
<polygon fill="black" stroke="black" points="269.76,-334.37 267.13,-324.1 262.79,-333.77 269.76,-334.37"/>
</g>
<!-- Syntax -->
<g id="node16" class="node">
<title>Syntax</title>
<ellipse fill="none" stroke="black" cx="296.6" cy="-810" rx="35.19" ry="18"/>
<text text-anchor="middle" x="296.6" y="-806.3" font-family="Times,serif" font-size="14.00">Syntax</text>
</g>
<!-- Syntax&#45;&gt;Semantics -->
<g id="edge18" class="edge">
<title>Syntax&#45;&gt;Semantics</title>
<path fill="none" stroke="black" d="M315.92,-794.87C327.72,-785.22 342.12,-771.43 350.6,-756 361.09,-736.9 365.79,-712.55 367.9,-694.14"/>
<polygon fill="black" stroke="black" points="371.39,-694.37 368.86,-684.08 364.42,-693.7 371.39,-694.37"/>
</g>
<!-- Syntax&#45;&gt;Vocab -->
<g id="edge32" class="edge">
<title>Syntax&#45;&gt;Vocab</title>
<path fill="none" stroke="black" d="M277.55,-794.72C265.86,-785 251.48,-771.2 242.6,-756 231.46,-736.94 225.35,-712.59 222.09,-694.17"/>
<polygon fill="black" stroke="black" points="225.52,-693.42 220.49,-684.1 218.61,-694.53 225.52,-693.42"/>
</g>
<!-- Measures -->
<g id="node17" class="node">
<title>Measures</title>
<ellipse fill="none" stroke="black" cx="296.6" cy="-738" rx="44.69" ry="18"/>
<text text-anchor="middle" x="296.6" y="-734.3" font-family="Times,serif" font-size="14.00">Measures</text>
</g>
<!-- Syntax&#45;&gt;Measures -->
<g id="edge12" class="edge">
<title>Syntax&#45;&gt;Measures</title>
<path fill="none" stroke="black" d="M296.6,-791.7C296.6,-783.98 296.6,-774.71 296.6,-766.11"/>
<polygon fill="black" stroke="black" points="300.1,-766.1 296.6,-756.1 293.1,-766.1 300.1,-766.1"/>
</g>
<!-- Measures&#45;&gt;Semantics -->
<g id="edge19" class="edge">
<title>Measures&#45;&gt;Semantics</title>
<path fill="none" stroke="black" d="M313.16,-721.12C322.71,-711.96 334.88,-700.29 345.47,-690.13"/>
<polygon fill="black" stroke="black" points="348.05,-692.51 352.84,-683.06 343.2,-687.46 348.05,-692.51"/>
</g>
<!-- Modelgraphs&#45;&gt;TableauGame -->
<g id="edge25" class="edge">
<title>Modelgraphs&#45;&gt;TableauGame</title>
<path fill="none" stroke="black" d="M128.85,-359.8C130.37,-341.76 133.39,-312.68 138.6,-288 140.43,-279.31 143.03,-269.98 145.59,-261.62"/>
<polygon fill="black" stroke="black" points="148.96,-262.58 148.66,-251.99 142.29,-260.46 148.96,-262.58"/>
</g>
<!-- Tableau&#45;&gt;Soundness -->
<g id="edge20" class="edge">
<title>Tableau&#45;&gt;Soundness</title>
<path fill="none" stroke="black" d="M271.74,-288.05C273.17,-280.35 274.91,-271.03 276.51,-262.36"/>
<polygon fill="black" stroke="black" points="280,-262.75 278.39,-252.28 273.12,-261.47 280,-262.75"/>
</g>
<!-- Tableau&#45;&gt;TableauGame -->
<g id="edge24" class="edge">
<title>Tableau&#45;&gt;TableauGame</title>
<path fill="none" stroke="black" d="M246.07,-291.17C229.68,-281.1 207.19,-267.29 188.61,-255.89"/>
<polygon fill="black" stroke="black" points="190.2,-252.76 179.85,-250.51 186.54,-258.72 190.2,-252.76"/>
</g>
<!-- Substitution&#45;&gt;UnfoldDia -->
<g id="edge29" class="edge">
<title>Substitution&#45;&gt;UnfoldDia</title>
<path fill="none" stroke="black" d="M197.17,-505.12C184.89,-495.56 169.08,-483.27 155.64,-472.81"/>
<polygon fill="black" stroke="black" points="157.67,-469.96 147.63,-466.58 153.37,-475.48 157.67,-469.96"/>
</g>
<!-- Substitution&#45;&gt;UnfoldBox -->
<g id="edge26" class="edge">
<title>Substitution&#45;&gt;UnfoldBox</title>
<path fill="none" stroke="black" d="M223.89,-504.05C226.82,-496.18 230.37,-486.62 233.64,-477.79"/>
<polygon fill="black" stroke="black" points="236.98,-478.87 237.18,-468.28 230.42,-476.43 236.98,-478.87"/>
</g>
<!-- Game -->
<g id="node22" class="node">
<title>Game</title>
<ellipse fill="none" stroke="black" cx="179.6" cy="-306" rx="32.49" ry="18"/>
<text text-anchor="middle" x="179.6" y="-302.3" font-family="Times,serif" font-size="14.00">Game</text>
</g>
<!-- Game&#45;&gt;TableauGame -->
<g id="edge23" class="edge">
<title>Game&#45;&gt;TableauGame</title>
<path fill="none" stroke="black" d="M173.54,-288.05C170.73,-280.18 167.32,-270.62 164.17,-261.79"/>
<polygon fill="black" stroke="black" points="167.43,-260.52 160.77,-252.28 160.83,-262.87 167.43,-260.52"/>
</g>
</g>
</svg>
