<?xml version="1.0" encoding="UTF-8" standalone="no"?>
<!DOCTYPE svg PUBLIC "-//W3C//DTD SVG 1.1//EN"
 "http://www.w3.org/Graphics/SVG/1.1/DTD/svg11.dtd">
<!-- Generated by graphviz version 2.43.0 (0)
 -->
<!-- Title: %3 Pages: 1 -->
<svg width="562pt" height="836pt"
 viewBox="0.00 0.00 562.29 836.00" xmlns="http://www.w3.org/2000/svg" xmlns:xlink="http://www.w3.org/1999/xlink">
<g id="graph0" class="graph" transform="scale(1 1) rotate(0) translate(4 832)">
<title>%3</title>
<polygon fill="white" stroke="transparent" points="-4,4 -4,-832 558.29,-832 558.29,4 -4,4"/>
<!-- Soundness -->
<g id="node1" class="node">
<title>Soundness</title>
<ellipse fill="none" stroke="black" cx="109.09" cy="-234" rx="48.19" ry="18"/>
<text text-anchor="middle" x="109.09" y="-230.3" font-family="Times,serif" font-size="14.00">Soundness</text>
</g>
<!-- Completeness -->
<g id="node2" class="node">
<title>Completeness</title>
<ellipse fill="none" stroke="black" cx="229.09" cy="-162" rx="60.39" ry="18"/>
<text text-anchor="middle" x="229.09" y="-158.3" font-family="Times,serif" font-size="14.00">Completeness</text>
</g>
<!-- Soundness&#45;&gt;Completeness -->
<g id="edge1" class="edge">
<title>Soundness&#45;&gt;Completeness</title>
<path fill="none" stroke="black" d="M133.96,-218.5C151.26,-208.4 174.59,-194.79 193.81,-183.58"/>
<polygon fill="black" stroke="black" points="195.72,-186.52 202.6,-178.46 192.2,-180.47 195.72,-186.52"/>
</g>
<!-- PartInterpolation -->
<g id="node12" class="node">
<title>PartInterpolation</title>
<ellipse fill="none" stroke="black" cx="289.09" cy="-90" rx="70.39" ry="18"/>
<text text-anchor="middle" x="289.09" y="-86.3" font-family="Times,serif" font-size="14.00">PartInterpolation</text>
</g>
<!-- Completeness&#45;&gt;PartInterpolation -->
<g id="edge16" class="edge">
<title>Completeness&#45;&gt;PartInterpolation</title>
<path fill="none" stroke="black" d="M243.31,-144.41C250.68,-135.82 259.82,-125.16 267.99,-115.63"/>
<polygon fill="black" stroke="black" points="270.71,-117.83 274.56,-107.96 265.4,-113.27 270.71,-117.83"/>
</g>
<!-- TableauGame -->
<g id="node3" class="node">
<title>TableauGame</title>
<ellipse fill="none" stroke="black" cx="236.09" cy="-234" rx="60.39" ry="18"/>
<text text-anchor="middle" x="236.09" y="-230.3" font-family="Times,serif" font-size="14.00">TableauGame</text>
</g>
<!-- TableauGame&#45;&gt;Completeness -->
<g id="edge2" class="edge">
<title>TableauGame&#45;&gt;Completeness</title>
<path fill="none" stroke="black" d="M234.36,-215.7C233.59,-207.98 232.67,-198.71 231.81,-190.11"/>
<polygon fill="black" stroke="black" points="235.28,-189.71 230.81,-180.1 228.32,-190.4 235.28,-189.71"/>
</g>
<!-- Semantics -->
<g id="node4" class="node">
<title>Semantics</title>
<ellipse fill="none" stroke="black" cx="437.09" cy="-666" rx="47.39" ry="18"/>
<text text-anchor="middle" x="437.09" y="-662.3" font-family="Times,serif" font-size="14.00">Semantics</text>
</g>
<!-- Discon -->
<g id="node5" class="node">
<title>Discon</title>
<ellipse fill="none" stroke="black" cx="286.09" cy="-594" rx="36" ry="18"/>
<text text-anchor="middle" x="286.09" y="-590.3" font-family="Times,serif" font-size="14.00">Discon</text>
</g>
<!-- Semantics&#45;&gt;Discon -->
<g id="edge3" class="edge">
<title>Semantics&#45;&gt;Discon</title>
<path fill="none" stroke="black" d="M408.34,-651.67C383.49,-640.15 347.52,-623.47 321.02,-611.19"/>
<polygon fill="black" stroke="black" points="322.27,-607.91 311.73,-606.88 319.33,-614.26 322.27,-607.91"/>
</g>
<!-- Examples -->
<g id="node9" class="node">
<title>Examples</title>
<ellipse fill="none" stroke="black" cx="431.09" cy="-450" rx="46.29" ry="18"/>
<text text-anchor="middle" x="431.09" y="-446.3" font-family="Times,serif" font-size="14.00">Examples</text>
</g>
<!-- Semantics&#45;&gt;Examples -->
<g id="edge6" class="edge">
<title>Semantics&#45;&gt;Examples</title>
<path fill="none" stroke="black" d="M436.61,-647.85C435.58,-610.83 433.12,-523.18 431.86,-478.39"/>
<polygon fill="black" stroke="black" points="435.36,-478.13 431.58,-468.23 428.36,-478.33 435.36,-478.13"/>
</g>
<!-- SemQuot -->
<g id="node20" class="node">
<title>SemQuot</title>
<ellipse fill="none" stroke="black" cx="510.09" cy="-594" rx="44.39" ry="18"/>
<text text-anchor="middle" x="510.09" y="-590.3" font-family="Times,serif" font-size="14.00">SemQuot</text>
</g>
<!-- Semantics&#45;&gt;SemQuot -->
<g id="edge18" class="edge">
<title>Semantics&#45;&gt;SemQuot</title>
<path fill="none" stroke="black" d="M453.66,-649.12C463.27,-639.9 475.55,-628.13 486.19,-617.92"/>
<polygon fill="black" stroke="black" points="488.8,-620.27 493.6,-610.82 483.96,-615.22 488.8,-620.27"/>
</g>
<!-- Substitution -->
<g id="node22" class="node">
<title>Substitution</title>
<ellipse fill="none" stroke="black" cx="285.09" cy="-522" rx="53.09" ry="18"/>
<text text-anchor="middle" x="285.09" y="-518.3" font-family="Times,serif" font-size="14.00">Substitution</text>
</g>
<!-- Discon&#45;&gt;Substitution -->
<g id="edge22" class="edge">
<title>Discon&#45;&gt;Substitution</title>
<path fill="none" stroke="black" d="M285.85,-575.7C285.74,-567.98 285.6,-558.71 285.48,-550.11"/>
<polygon fill="black" stroke="black" points="288.98,-550.05 285.34,-540.1 281.98,-550.15 288.98,-550.05"/>
</g>
<!-- Vocab -->
<g id="node6" class="node">
<title>Vocab</title>
<ellipse fill="none" stroke="black" cx="286.09" cy="-666" rx="32.49" ry="18"/>
<text text-anchor="middle" x="286.09" y="-662.3" font-family="Times,serif" font-size="14.00">Vocab</text>
</g>
<!-- Vocab&#45;&gt;Discon -->
<g id="edge4" class="edge">
<title>Vocab&#45;&gt;Discon</title>
<path fill="none" stroke="black" d="M286.09,-647.7C286.09,-639.98 286.09,-630.71 286.09,-622.11"/>
<polygon fill="black" stroke="black" points="289.59,-622.1 286.09,-612.1 282.59,-622.1 289.59,-622.1"/>
</g>
<!-- Fresh -->
<g id="node11" class="node">
<title>Fresh</title>
<ellipse fill="none" stroke="black" cx="183.09" cy="-522" rx="30.59" ry="18"/>
<text text-anchor="middle" x="183.09" y="-518.3" font-family="Times,serif" font-size="14.00">Fresh</text>
</g>
<!-- Vocab&#45;&gt;Fresh -->
<g id="edge8" class="edge">
<title>Vocab&#45;&gt;Fresh</title>
<path fill="none" stroke="black" d="M272.17,-649.66C262.99,-639.3 250.91,-625.16 241.09,-612 225.51,-591.1 209.45,-566.14 198.19,-547.99"/>
<polygon fill="black" stroke="black" points="200.99,-545.85 192.77,-539.17 195.03,-549.52 200.99,-545.85"/>
</g>
<!-- UnfoldDia -->
<g id="node7" class="node">
<title>UnfoldDia</title>
<ellipse fill="none" stroke="black" cx="306.09" cy="-450" rx="48.19" ry="18"/>
<text text-anchor="middle" x="306.09" y="-446.3" font-family="Times,serif" font-size="14.00">UnfoldDia</text>
</g>
<!-- Distance -->
<g id="node8" class="node">
<title>Distance</title>
<ellipse fill="none" stroke="black" cx="349.09" cy="-162" rx="41.69" ry="18"/>
<text text-anchor="middle" x="349.09" y="-158.3" font-family="Times,serif" font-size="14.00">Distance</text>
</g>
<!-- UnfoldDia&#45;&gt;Distance -->
<g id="edge5" class="edge">
<title>UnfoldDia&#45;&gt;Distance</title>
<path fill="none" stroke="black" d="M315.66,-431.89C320.85,-421.77 326.85,-408.52 330.09,-396 348.85,-323.56 350.44,-234.6 349.87,-190.5"/>
<polygon fill="black" stroke="black" points="353.36,-190.23 349.68,-180.29 346.37,-190.35 353.36,-190.23"/>
</g>
<!-- LocalTableau -->
<g id="node15" class="node">
<title>LocalTableau</title>
<ellipse fill="none" stroke="black" cx="125.09" cy="-378" rx="59.29" ry="18"/>
<text text-anchor="middle" x="125.09" y="-374.3" font-family="Times,serif" font-size="14.00">LocalTableau</text>
</g>
<!-- UnfoldDia&#45;&gt;LocalTableau -->
<g id="edge11" class="edge">
<title>UnfoldDia&#45;&gt;LocalTableau</title>
<path fill="none" stroke="black" d="M273.74,-436.49C244.8,-425.29 202.11,-408.79 169.9,-396.33"/>
<polygon fill="black" stroke="black" points="170.85,-392.94 160.26,-392.6 168.33,-399.47 170.85,-392.94"/>
</g>
<!-- Modelgraphs -->
<g id="node19" class="node">
<title>Modelgraphs</title>
<ellipse fill="none" stroke="black" cx="263.09" cy="-378" rx="57.69" ry="18"/>
<text text-anchor="middle" x="263.09" y="-374.3" font-family="Times,serif" font-size="14.00">Modelgraphs</text>
</g>
<!-- UnfoldDia&#45;&gt;Modelgraphs -->
<g id="edge15" class="edge">
<title>UnfoldDia&#45;&gt;Modelgraphs</title>
<path fill="none" stroke="black" d="M295.69,-432.05C290.61,-423.8 284.41,-413.7 278.78,-404.54"/>
<polygon fill="black" stroke="black" points="281.62,-402.48 273.41,-395.79 275.66,-406.14 281.62,-402.48"/>
</g>
<!-- Distance&#45;&gt;PartInterpolation -->
<g id="edge17" class="edge">
<title>Distance&#45;&gt;PartInterpolation</title>
<path fill="none" stroke="black" d="M335.18,-144.76C327.71,-136.06 318.36,-125.15 310.04,-115.43"/>
<polygon fill="black" stroke="black" points="312.52,-112.95 303.35,-107.63 307.2,-117.5 312.52,-112.95"/>
</g>
<!-- Star -->
<g id="node10" class="node">
<title>Star</title>
<ellipse fill="none" stroke="black" cx="383.09" cy="-522" rx="27" ry="18"/>
<text text-anchor="middle" x="383.09" y="-518.3" font-family="Times,serif" font-size="14.00">Star</text>
</g>
<!-- Star&#45;&gt;UnfoldDia -->
<g id="edge32" class="edge">
<title>Star&#45;&gt;UnfoldDia</title>
<path fill="none" stroke="black" d="M367.51,-506.83C357.06,-497.33 343.06,-484.6 331.07,-473.7"/>
<polygon fill="black" stroke="black" points="333.29,-470.99 323.53,-466.85 328.58,-476.17 333.29,-470.99"/>
</g>
<!-- Star&#45;&gt;Examples -->
<g id="edge7" class="edge">
<title>Star&#45;&gt;Examples</title>
<path fill="none" stroke="black" d="M393.99,-505.12C399.83,-496.59 407.17,-485.89 413.78,-476.25"/>
<polygon fill="black" stroke="black" points="416.81,-478.02 419.58,-467.8 411.03,-474.07 416.81,-478.02"/>
</g>
<!-- UnfoldBox -->
<g id="node14" class="node">
<title>UnfoldBox</title>
<ellipse fill="none" stroke="black" cx="190.09" cy="-450" rx="50.09" ry="18"/>
<text text-anchor="middle" x="190.09" y="-446.3" font-family="Times,serif" font-size="14.00">UnfoldBox</text>
</g>
<!-- Star&#45;&gt;UnfoldBox -->
<g id="edge29" class="edge">
<title>Star&#45;&gt;UnfoldBox</title>
<path fill="none" stroke="black" d="M361.95,-510.52C357.12,-508.26 351.97,-505.96 347.09,-504 310.74,-489.34 268.61,-475.27 237.15,-465.32"/>
<polygon fill="black" stroke="black" points="237.92,-461.89 227.33,-462.23 235.82,-468.57 237.92,-461.89"/>
</g>
<!-- Fresh&#45;&gt;UnfoldDia -->
<g id="edge31" class="edge">
<title>Fresh&#45;&gt;UnfoldDia</title>
<path fill="none" stroke="black" d="M204.24,-508.97C222.75,-498.43 249.99,-482.93 271.65,-470.6"/>
<polygon fill="black" stroke="black" points="273.59,-473.53 280.55,-465.54 270.12,-467.44 273.59,-473.53"/>
</g>
<!-- Fresh&#45;&gt;UnfoldBox -->
<g id="edge28" class="edge">
<title>Fresh&#45;&gt;UnfoldBox</title>
<path fill="none" stroke="black" d="M184.82,-503.7C185.6,-495.98 186.52,-486.71 187.38,-478.11"/>
<polygon fill="black" stroke="black" points="190.87,-478.4 188.38,-468.1 183.91,-477.71 190.87,-478.4"/>
</g>
<!-- Interpolation -->
<g id="node13" class="node">
<title>Interpolation</title>
<ellipse fill="none" stroke="black" cx="289.09" cy="-18" rx="55.79" ry="18"/>
<text text-anchor="middle" x="289.09" y="-14.3" font-family="Times,serif" font-size="14.00">Interpolation</text>
</g>
<!-- PartInterpolation&#45;&gt;Interpolation -->
<g id="edge9" class="edge">
<title>PartInterpolation&#45;&gt;Interpolation</title>
<path fill="none" stroke="black" d="M289.09,-71.7C289.09,-63.98 289.09,-54.71 289.09,-46.11"/>
<polygon fill="black" stroke="black" points="292.59,-46.1 289.09,-36.1 285.59,-46.1 292.59,-46.1"/>
</g>
<!-- UnfoldBox&#45;&gt;LocalTableau -->
<g id="edge10" class="edge">
<title>UnfoldBox&#45;&gt;LocalTableau</title>
<path fill="none" stroke="black" d="M175.02,-432.76C166.85,-423.97 156.6,-412.93 147.51,-403.14"/>
<polygon fill="black" stroke="black" points="149.91,-400.58 140.54,-395.63 144.78,-405.34 149.91,-400.58"/>
</g>
<!-- UnfoldBox&#45;&gt;Modelgraphs -->
<g id="edge14" class="edge">
<title>UnfoldBox&#45;&gt;Modelgraphs</title>
<path fill="none" stroke="black" d="M207.03,-432.76C216.45,-423.73 228.34,-412.33 238.75,-402.35"/>
<polygon fill="black" stroke="black" points="241.21,-404.84 246,-395.39 236.36,-399.78 241.21,-404.84"/>
</g>
<!-- Tableau -->
<g id="node21" class="node">
<title>Tableau</title>
<ellipse fill="none" stroke="black" cx="118.09" cy="-306" rx="38.99" ry="18"/>
<text text-anchor="middle" x="118.09" y="-302.3" font-family="Times,serif" font-size="14.00">Tableau</text>
</g>
<!-- LocalTableau&#45;&gt;Tableau -->
<g id="edge23" class="edge">
<title>LocalTableau&#45;&gt;Tableau</title>
<path fill="none" stroke="black" d="M123.36,-359.7C122.59,-351.98 121.67,-342.71 120.81,-334.11"/>
<polygon fill="black" stroke="black" points="124.28,-333.71 119.81,-324.1 117.32,-334.4 124.28,-333.71"/>
</g>
<!-- MultisetOrder -->
<g id="node16" class="node">
<title>MultisetOrder</title>
<ellipse fill="none" stroke="black" cx="61.09" cy="-450" rx="61.19" ry="18"/>
<text text-anchor="middle" x="61.09" y="-446.3" font-family="Times,serif" font-size="14.00">MultisetOrder</text>
</g>
<!-- MultisetOrder&#45;&gt;LocalTableau -->
<g id="edge12" class="edge">
<title>MultisetOrder&#45;&gt;LocalTableau</title>
<path fill="none" stroke="black" d="M76.26,-432.41C84.31,-423.61 94.35,-412.63 103.23,-402.92"/>
<polygon fill="black" stroke="black" points="105.87,-405.21 110.04,-395.47 100.71,-400.49 105.87,-405.21"/>
</g>
<!-- Syntax -->
<g id="node17" class="node">
<title>Syntax</title>
<ellipse fill="none" stroke="black" cx="364.09" cy="-810" rx="35.19" ry="18"/>
<text text-anchor="middle" x="364.09" y="-806.3" font-family="Times,serif" font-size="14.00">Syntax</text>
</g>
<!-- Syntax&#45;&gt;Semantics -->
<g id="edge19" class="edge">
<title>Syntax&#45;&gt;Semantics</title>
<path fill="none" stroke="black" d="M383.42,-794.87C395.22,-785.22 409.62,-771.43 418.09,-756 428.59,-736.9 433.29,-712.55 435.4,-694.14"/>
<polygon fill="black" stroke="black" points="438.89,-694.37 436.36,-684.08 431.92,-693.7 438.89,-694.37"/>
</g>
<!-- Syntax&#45;&gt;Vocab -->
<g id="edge33" class="edge">
<title>Syntax&#45;&gt;Vocab</title>
<path fill="none" stroke="black" d="M345.04,-794.72C333.36,-785 318.98,-771.2 310.09,-756 298.95,-736.94 292.85,-712.59 289.59,-694.17"/>
<polygon fill="black" stroke="black" points="293.02,-693.42 287.98,-684.1 286.1,-694.53 293.02,-693.42"/>
</g>
<!-- Measures -->
<g id="node18" class="node">
<title>Measures</title>
<ellipse fill="none" stroke="black" cx="364.09" cy="-738" rx="44.69" ry="18"/>
<text text-anchor="middle" x="364.09" y="-734.3" font-family="Times,serif" font-size="14.00">Measures</text>
</g>
<!-- Syntax&#45;&gt;Measures -->
<g id="edge13" class="edge">
<title>Syntax&#45;&gt;Measures</title>
<path fill="none" stroke="black" d="M364.09,-791.7C364.09,-783.98 364.09,-774.71 364.09,-766.11"/>
<polygon fill="black" stroke="black" points="367.59,-766.1 364.09,-756.1 360.59,-766.1 367.59,-766.1"/>
</g>
<!-- Measures&#45;&gt;Semantics -->
<g id="edge20" class="edge">
<title>Measures&#45;&gt;Semantics</title>
<path fill="none" stroke="black" d="M380.66,-721.12C390.21,-711.96 402.38,-700.29 412.97,-690.13"/>
<polygon fill="black" stroke="black" points="415.55,-692.51 420.34,-683.06 410.7,-687.46 415.55,-692.51"/>
</g>
<!-- Modelgraphs&#45;&gt;TableauGame -->
<g id="edge26" class="edge">
<title>Modelgraphs&#45;&gt;TableauGame</title>
<path fill="none" stroke="black" d="M260.5,-359.89C257.71,-341.93 253.01,-312.9 248.09,-288 246.43,-279.54 244.42,-270.36 242.53,-262.06"/>
<polygon fill="black" stroke="black" points="245.89,-261.09 240.23,-252.13 239.07,-262.67 245.89,-261.09"/>
</g>
<!-- Tableau&#45;&gt;Soundness -->
<g id="edge21" class="edge">
<title>Tableau&#45;&gt;Soundness</title>
<path fill="none" stroke="black" d="M115.87,-287.7C114.88,-279.98 113.69,-270.71 112.58,-262.11"/>
<polygon fill="black" stroke="black" points="116.04,-261.58 111.29,-252.1 109.1,-262.47 116.04,-261.58"/>
</g>
<!-- Tableau&#45;&gt;TableauGame -->
<g id="edge25" class="edge">
<title>Tableau&#45;&gt;TableauGame</title>
<path fill="none" stroke="black" d="M141.13,-291.34C158.34,-281.12 182.17,-266.99 201.64,-255.44"/>
<polygon fill="black" stroke="black" points="203.43,-258.44 210.25,-250.33 199.86,-252.42 203.43,-258.44"/>
</g>
<!-- Substitution&#45;&gt;UnfoldDia -->
<g id="edge30" class="edge">
<title>Substitution&#45;&gt;UnfoldDia</title>
<path fill="none" stroke="black" d="M290.18,-504.05C292.52,-496.26 295.35,-486.82 297.97,-478.08"/>
<polygon fill="black" stroke="black" points="301.39,-478.86 300.91,-468.28 294.69,-476.85 301.39,-478.86"/>
</g>
<!-- Substitution&#45;&gt;UnfoldBox -->
<g id="edge27" class="edge">
<title>Substitution&#45;&gt;UnfoldBox</title>
<path fill="none" stroke="black" d="M264.01,-505.46C250.85,-495.77 233.72,-483.15 219.27,-472.5"/>
<polygon fill="black" stroke="black" points="221.25,-469.61 211.12,-466.49 217.09,-475.24 221.25,-469.61"/>
</g>
<!-- Game -->
<g id="node23" class="node">
<title>Game</title>
<ellipse fill="none" stroke="black" cx="207.09" cy="-306" rx="32.49" ry="18"/>
<text text-anchor="middle" x="207.09" y="-302.3" font-family="Times,serif" font-size="14.00">Game</text>
</g>
<!-- Game&#45;&gt;TableauGame -->
<g id="edge24" class="edge">
<title>Game&#45;&gt;TableauGame</title>
<path fill="none" stroke="black" d="M214.11,-288.05C217.38,-280.18 221.34,-270.62 224.99,-261.79"/>
<polygon fill="black" stroke="black" points="228.34,-262.85 228.94,-252.28 221.88,-260.17 228.34,-262.85"/>
</g>
</g>
</svg>
