<?xml version="1.0" encoding="UTF-8" standalone="no"?>
<!DOCTYPE svg PUBLIC "-//W3C//DTD SVG 1.1//EN"
 "http://www.w3.org/Graphics/SVG/1.1/DTD/svg11.dtd">
<!-- Generated by graphviz version 2.43.0 (0)
 -->
<!-- Title: %3 Pages: 1 -->
<svg width="591pt" height="836pt"
 viewBox="0.00 0.00 591.17 836.00" xmlns="http://www.w3.org/2000/svg" xmlns:xlink="http://www.w3.org/1999/xlink">
<g id="graph0" class="graph" transform="scale(1 1) rotate(0) translate(4 832)">
<title>%3</title>
<polygon fill="white" stroke="transparent" points="-4,4 -4,-832 587.17,-832 587.17,4 -4,4"/>
<!-- Soundness -->
<g id="node1" class="node">
<title>Soundness</title>
<ellipse fill="none" stroke="black" cx="178.88" cy="-234" rx="48.19" ry="18"/>
<text text-anchor="middle" x="178.88" y="-230.3" font-family="Times,serif" font-size="14.00">Soundness</text>
</g>
<!-- Completeness -->
<g id="node2" class="node">
<title>Completeness</title>
<ellipse fill="none" stroke="black" cx="135.88" cy="-162" rx="60.39" ry="18"/>
<text text-anchor="middle" x="135.88" y="-158.3" font-family="Times,serif" font-size="14.00">Completeness</text>
</g>
<!-- Soundness&#45;&gt;Completeness -->
<g id="edge1" class="edge">
<title>Soundness&#45;&gt;Completeness</title>
<path fill="none" stroke="black" d="M168.47,-216.05C163.4,-207.8 157.2,-197.7 151.57,-188.54"/>
<polygon fill="black" stroke="black" points="154.41,-186.48 146.19,-179.79 148.45,-190.14 154.41,-186.48"/>
</g>
<!-- PartInterpolation -->
<g id="node14" class="node">
<title>PartInterpolation</title>
<ellipse fill="none" stroke="black" cx="135.88" cy="-90" rx="70.39" ry="18"/>
<text text-anchor="middle" x="135.88" y="-86.3" font-family="Times,serif" font-size="14.00">PartInterpolation</text>
</g>
<!-- Completeness&#45;&gt;PartInterpolation -->
<g id="edge18" class="edge">
<title>Completeness&#45;&gt;PartInterpolation</title>
<path fill="none" stroke="black" d="M135.88,-143.7C135.88,-135.98 135.88,-126.71 135.88,-118.11"/>
<polygon fill="black" stroke="black" points="139.38,-118.1 135.88,-108.1 132.38,-118.1 139.38,-118.1"/>
</g>
<!-- Modelgraphs -->
<g id="node3" class="node">
<title>Modelgraphs</title>
<ellipse fill="none" stroke="black" cx="92.88" cy="-378" rx="57.69" ry="18"/>
<text text-anchor="middle" x="92.88" y="-374.3" font-family="Times,serif" font-size="14.00">Modelgraphs</text>
</g>
<!-- Modelgraphs&#45;&gt;Completeness -->
<g id="edge2" class="edge">
<title>Modelgraphs&#45;&gt;Completeness</title>
<path fill="none" stroke="black" d="M95.49,-359.99C100.1,-330.52 110.32,-268.13 121.88,-216 123.76,-207.51 126.09,-198.32 128.3,-190.02"/>
<polygon fill="black" stroke="black" points="131.75,-190.67 130.99,-180.1 124.99,-188.83 131.75,-190.67"/>
</g>
<!-- Syntax -->
<g id="node4" class="node">
<title>Syntax</title>
<ellipse fill="none" stroke="black" cx="312.88" cy="-810" rx="35.19" ry="18"/>
<text text-anchor="middle" x="312.88" y="-806.3" font-family="Times,serif" font-size="14.00">Syntax</text>
</g>
<!-- DagSyntax -->
<g id="node5" class="node">
<title>DagSyntax</title>
<ellipse fill="none" stroke="black" cx="196.88" cy="-738" rx="50.09" ry="18"/>
<text text-anchor="middle" x="196.88" y="-734.3" font-family="Times,serif" font-size="14.00">DagSyntax</text>
</g>
<!-- Syntax&#45;&gt;DagSyntax -->
<g id="edge3" class="edge">
<title>Syntax&#45;&gt;DagSyntax</title>
<path fill="none" stroke="black" d="M291.06,-795.83C273.87,-785.46 249.63,-770.83 230.04,-759.01"/>
<polygon fill="black" stroke="black" points="231.78,-755.97 221.41,-753.8 228.17,-761.97 231.78,-755.97"/>
</g>
<!-- Semantics -->
<g id="node6" class="node">
<title>Semantics</title>
<ellipse fill="none" stroke="black" cx="216.88" cy="-666" rx="47.39" ry="18"/>
<text text-anchor="middle" x="216.88" y="-662.3" font-family="Times,serif" font-size="14.00">Semantics</text>
</g>
<!-- Syntax&#45;&gt;Semantics -->
<g id="edge20" class="edge">
<title>Syntax&#45;&gt;Semantics</title>
<path fill="none" stroke="black" d="M302.89,-792.72C291.75,-774.71 273.03,-744.95 255.88,-720 249.41,-710.58 242.04,-700.43 235.46,-691.56"/>
<polygon fill="black" stroke="black" points="238.24,-689.43 229.46,-683.51 232.63,-693.62 238.24,-689.43"/>
</g>
<!-- Vocab -->
<g id="node12" class="node">
<title>Vocab</title>
<ellipse fill="none" stroke="black" cx="334.88" cy="-594" rx="32.49" ry="18"/>
<text text-anchor="middle" x="334.88" y="-590.3" font-family="Times,serif" font-size="14.00">Vocab</text>
</g>
<!-- Syntax&#45;&gt;Vocab -->
<g id="edge34" class="edge">
<title>Syntax&#45;&gt;Vocab</title>
<path fill="none" stroke="black" d="M314.64,-791.85C318.45,-754.83 327.46,-667.18 332.07,-622.39"/>
<polygon fill="black" stroke="black" points="335.57,-622.54 333.11,-612.23 328.61,-621.82 335.57,-622.54"/>
</g>
<!-- Setsimp -->
<g id="node16" class="node">
<title>Setsimp</title>
<ellipse fill="none" stroke="black" cx="458.88" cy="-666" rx="39.79" ry="18"/>
<text text-anchor="middle" x="458.88" y="-662.3" font-family="Times,serif" font-size="14.00">Setsimp</text>
</g>
<!-- Syntax&#45;&gt;Setsimp -->
<g id="edge22" class="edge">
<title>Syntax&#45;&gt;Setsimp</title>
<path fill="none" stroke="black" d="M346.11,-803.95C375.19,-797.74 416.38,-784.31 439.88,-756 454.12,-738.85 458.44,-713.57 459.44,-694.33"/>
<polygon fill="black" stroke="black" points="462.95,-694.17 459.7,-684.08 455.95,-693.99 462.95,-694.17"/>
</g>
<!-- Measures -->
<g id="node19" class="node">
<title>Measures</title>
<ellipse fill="none" stroke="black" cx="385.88" cy="-738" rx="44.69" ry="18"/>
<text text-anchor="middle" x="385.88" y="-734.3" font-family="Times,serif" font-size="14.00">Measures</text>
</g>
<!-- Syntax&#45;&gt;Measures -->
<g id="edge14" class="edge">
<title>Syntax&#45;&gt;Measures</title>
<path fill="none" stroke="black" d="M328.72,-793.81C338.47,-784.47 351.14,-772.31 362.08,-761.83"/>
<polygon fill="black" stroke="black" points="364.52,-764.34 369.31,-754.89 359.67,-759.28 364.52,-764.34"/>
</g>
<!-- Semantics&#45;&gt;Modelgraphs -->
<g id="edge15" class="edge">
<title>Semantics&#45;&gt;Modelgraphs</title>
<path fill="none" stroke="black" d="M180.41,-654.42C155.69,-645.92 123.37,-632.05 99.88,-612 41.56,-562.23 26.92,-541.44 4.88,-468 0.28,-452.68 -2.99,-445.93 4.88,-432 13.83,-416.16 29.61,-404.54 45.37,-396.27"/>
<polygon fill="black" stroke="black" points="47.12,-399.31 54.59,-391.79 44.06,-393.02 47.12,-399.31"/>
</g>
<!-- Discon -->
<g id="node7" class="node">
<title>Discon</title>
<ellipse fill="none" stroke="black" cx="248.88" cy="-594" rx="36" ry="18"/>
<text text-anchor="middle" x="248.88" y="-590.3" font-family="Times,serif" font-size="14.00">Discon</text>
</g>
<!-- Semantics&#45;&gt;Discon -->
<g id="edge4" class="edge">
<title>Semantics&#45;&gt;Discon</title>
<path fill="none" stroke="black" d="M224.63,-648.05C228.32,-639.97 232.83,-630.12 236.94,-621.11"/>
<polygon fill="black" stroke="black" points="240.23,-622.34 241.21,-611.79 233.87,-619.43 240.23,-622.34"/>
</g>
<!-- Examples -->
<g id="node10" class="node">
<title>Examples</title>
<ellipse fill="none" stroke="black" cx="59.88" cy="-450" rx="46.29" ry="18"/>
<text text-anchor="middle" x="59.88" y="-446.3" font-family="Times,serif" font-size="14.00">Examples</text>
</g>
<!-- Semantics&#45;&gt;Examples -->
<g id="edge6" class="edge">
<title>Semantics&#45;&gt;Examples</title>
<path fill="none" stroke="black" d="M192.42,-650.45C160.4,-630.04 105.06,-589.76 76.88,-540 66.19,-521.12 62.08,-496.75 60.57,-478.28"/>
<polygon fill="black" stroke="black" points="64.06,-477.95 59.95,-468.18 57.07,-478.38 64.06,-477.95"/>
</g>
<!-- Substitution -->
<g id="node22" class="node">
<title>Substitution</title>
<ellipse fill="none" stroke="black" cx="248.88" cy="-522" rx="53.09" ry="18"/>
<text text-anchor="middle" x="248.88" y="-518.3" font-family="Times,serif" font-size="14.00">Substitution</text>
</g>
<!-- Semantics&#45;&gt;Substitution -->
<g id="edge26" class="edge">
<title>Semantics&#45;&gt;Substitution</title>
<path fill="none" stroke="black" d="M209.63,-648.09C202.87,-629.8 195.05,-600.04 203.88,-576 207.9,-565.07 215.27,-554.85 222.91,-546.36"/>
<polygon fill="black" stroke="black" points="225.51,-548.71 229.91,-539.08 220.46,-543.86 225.51,-548.71"/>
</g>
<!-- Unfold -->
<g id="node8" class="node">
<title>Unfold</title>
<ellipse fill="none" stroke="black" cx="246.88" cy="-450" rx="36" ry="18"/>
<text text-anchor="middle" x="246.88" y="-446.3" font-family="Times,serif" font-size="14.00">Unfold</text>
</g>
<!-- Discon&#45;&gt;Unfold -->
<g id="edge30" class="edge">
<title>Discon&#45;&gt;Unfold</title>
<path fill="none" stroke="black" d="M225.47,-580.1C211.44,-570.95 194.82,-557.23 186.88,-540 180.19,-525.47 180.3,-518.59 186.88,-504 193.04,-490.34 204.66,-478.78 216.04,-469.98"/>
<polygon fill="black" stroke="black" points="218.16,-472.77 224.21,-464.07 214.05,-467.1 218.16,-472.77"/>
</g>
<!-- LocalTableau -->
<g id="node17" class="node">
<title>LocalTableau</title>
<ellipse fill="none" stroke="black" cx="444.88" cy="-378" rx="59.29" ry="18"/>
<text text-anchor="middle" x="444.88" y="-374.3" font-family="Times,serif" font-size="14.00">LocalTableau</text>
</g>
<!-- Discon&#45;&gt;LocalTableau -->
<g id="edge11" class="edge">
<title>Discon&#45;&gt;LocalTableau</title>
<path fill="none" stroke="black" d="M276.48,-582.55C282.23,-580.38 288.25,-578.11 293.88,-576 336.95,-559.87 358.89,-573.03 390.88,-540 395.71,-535.02 422.66,-450.23 436.57,-405.76"/>
<polygon fill="black" stroke="black" points="439.93,-406.74 439.57,-396.15 433.25,-404.66 439.93,-406.74"/>
</g>
<!-- Discon&#45;&gt;Substitution -->
<g id="edge28" class="edge">
<title>Discon&#45;&gt;Substitution</title>
<path fill="none" stroke="black" d="M248.88,-575.7C248.88,-567.98 248.88,-558.71 248.88,-550.11"/>
<polygon fill="black" stroke="black" points="252.38,-550.1 248.88,-540.1 245.38,-550.1 252.38,-550.1"/>
</g>
<!-- Unfold&#45;&gt;Modelgraphs -->
<g id="edge17" class="edge">
<title>Unfold&#45;&gt;Modelgraphs</title>
<path fill="none" stroke="black" d="M221.11,-437.28C197.21,-426.42 161.26,-410.08 133.51,-397.47"/>
<polygon fill="black" stroke="black" points="134.61,-394.13 124.06,-393.17 131.72,-400.5 134.61,-394.13"/>
</g>
<!-- Distance -->
<g id="node9" class="node">
<title>Distance</title>
<ellipse fill="none" stroke="black" cx="325.88" cy="-378" rx="41.69" ry="18"/>
<text text-anchor="middle" x="325.88" y="-374.3" font-family="Times,serif" font-size="14.00">Distance</text>
</g>
<!-- Unfold&#45;&gt;Distance -->
<g id="edge5" class="edge">
<title>Unfold&#45;&gt;Distance</title>
<path fill="none" stroke="black" d="M264.02,-433.81C274.82,-424.25 288.94,-411.74 300.96,-401.08"/>
<polygon fill="black" stroke="black" points="303.34,-403.65 308.5,-394.4 298.69,-398.41 303.34,-403.65"/>
</g>
<!-- Unfold&#45;&gt;LocalTableau -->
<g id="edge12" class="edge">
<title>Unfold&#45;&gt;LocalTableau</title>
<path fill="none" stroke="black" d="M275.25,-438.97C307.25,-427.66 359.79,-409.08 397.93,-395.6"/>
<polygon fill="black" stroke="black" points="399.53,-398.75 407.79,-392.11 397.19,-392.15 399.53,-398.75"/>
</g>
<!-- Paths -->
<g id="node20" class="node">
<title>Paths</title>
<ellipse fill="none" stroke="black" cx="236.88" cy="-378" rx="29.8" ry="18"/>
<text text-anchor="middle" x="236.88" y="-374.3" font-family="Times,serif" font-size="14.00">Paths</text>
</g>
<!-- Unfold&#45;&gt;Paths -->
<g id="edge19" class="edge">
<title>Unfold&#45;&gt;Paths</title>
<path fill="none" stroke="black" d="M244.41,-431.7C243.31,-423.98 241.98,-414.71 240.75,-406.11"/>
<polygon fill="black" stroke="black" points="244.2,-405.51 239.32,-396.1 237.27,-406.5 244.2,-405.51"/>
</g>
<!-- Star -->
<g id="node11" class="node">
<title>Star</title>
<ellipse fill="none" stroke="black" cx="112.88" cy="-522" rx="27" ry="18"/>
<text text-anchor="middle" x="112.88" y="-518.3" font-family="Times,serif" font-size="14.00">Star</text>
</g>
<!-- Star&#45;&gt;Soundness -->
<g id="edge24" class="edge">
<title>Star&#45;&gt;Soundness</title>
<path fill="none" stroke="black" d="M120.6,-504.43C131.22,-480.87 150.13,-436.1 159.88,-396 171.11,-349.81 175.8,-294.48 177.68,-262.18"/>
<polygon fill="black" stroke="black" points="181.18,-262.33 178.22,-252.16 174.19,-261.96 181.18,-262.33"/>
</g>
<!-- Star&#45;&gt;Modelgraphs -->
<g id="edge16" class="edge">
<title>Star&#45;&gt;Modelgraphs</title>
<path fill="none" stroke="black" d="M115.43,-504.08C117.65,-486.03 119.81,-456.71 114.88,-432 113.09,-423.01 109.74,-413.64 106.19,-405.32"/>
<polygon fill="black" stroke="black" points="109.34,-403.77 102.01,-396.12 102.96,-406.67 109.34,-403.77"/>
</g>
<!-- Star&#45;&gt;Unfold -->
<g id="edge33" class="edge">
<title>Star&#45;&gt;Unfold</title>
<path fill="none" stroke="black" d="M133.53,-510.22C154.88,-499.06 188.55,-481.47 213.65,-468.36"/>
<polygon fill="black" stroke="black" points="215.57,-471.31 222.81,-463.57 212.33,-465.1 215.57,-471.31"/>
</g>
<!-- Star&#45;&gt;Examples -->
<g id="edge7" class="edge">
<title>Star&#45;&gt;Examples</title>
<path fill="none" stroke="black" d="M101.12,-505.46C94.45,-496.65 85.95,-485.43 78.4,-475.46"/>
<polygon fill="black" stroke="black" points="81.18,-473.33 72.35,-467.47 75.6,-477.55 81.18,-473.33"/>
</g>
<!-- Fresh -->
<g id="node13" class="node">
<title>Fresh</title>
<ellipse fill="none" stroke="black" cx="350.88" cy="-522" rx="30.59" ry="18"/>
<text text-anchor="middle" x="350.88" y="-518.3" font-family="Times,serif" font-size="14.00">Fresh</text>
</g>
<!-- Vocab&#45;&gt;Fresh -->
<g id="edge8" class="edge">
<title>Vocab&#45;&gt;Fresh</title>
<path fill="none" stroke="black" d="M338.75,-576.05C340.54,-568.26 342.69,-558.82 344.69,-550.08"/>
<polygon fill="black" stroke="black" points="348.12,-550.8 346.93,-540.28 341.29,-549.24 348.12,-550.8"/>
</g>
<!-- Vocab&#45;&gt;Substitution -->
<g id="edge27" class="edge">
<title>Vocab&#45;&gt;Substitution</title>
<path fill="none" stroke="black" d="M317.06,-578.5C305.33,-568.95 289.73,-556.25 276.42,-545.41"/>
<polygon fill="black" stroke="black" points="278.44,-542.55 268.48,-538.95 274.02,-547.98 278.44,-542.55"/>
</g>
<!-- Fresh&#45;&gt;Unfold -->
<g id="edge32" class="edge">
<title>Fresh&#45;&gt;Unfold</title>
<path fill="none" stroke="black" d="M331.32,-507.83C315.79,-497.38 293.82,-482.6 276.19,-470.73"/>
<polygon fill="black" stroke="black" points="277.67,-467.51 267.42,-464.83 273.76,-473.31 277.67,-467.51"/>
</g>
<!-- Interpolation -->
<g id="node15" class="node">
<title>Interpolation</title>
<ellipse fill="none" stroke="black" cx="135.88" cy="-18" rx="55.79" ry="18"/>
<text text-anchor="middle" x="135.88" y="-14.3" font-family="Times,serif" font-size="14.00">Interpolation</text>
</g>
<!-- PartInterpolation&#45;&gt;Interpolation -->
<g id="edge9" class="edge">
<title>PartInterpolation&#45;&gt;Interpolation</title>
<path fill="none" stroke="black" d="M135.88,-71.7C135.88,-63.98 135.88,-54.71 135.88,-46.11"/>
<polygon fill="black" stroke="black" points="139.38,-46.1 135.88,-36.1 132.38,-46.1 139.38,-46.1"/>
</g>
<!-- Setsimp&#45;&gt;LocalTableau -->
<g id="edge10" class="edge">
<title>Setsimp&#45;&gt;LocalTableau</title>
<path fill="none" stroke="black" d="M476.56,-649.77C518.96,-611.4 619.28,-508.35 568.88,-432 554.65,-410.45 529.67,-397.63 505.83,-390.02"/>
<polygon fill="black" stroke="black" points="506.66,-386.61 496.08,-387.16 504.69,-393.33 506.66,-386.61"/>
</g>
<!-- Tableau -->
<g id="node21" class="node">
<title>Tableau</title>
<ellipse fill="none" stroke="black" cx="344.88" cy="-306" rx="38.99" ry="18"/>
<text text-anchor="middle" x="344.88" y="-302.3" font-family="Times,serif" font-size="14.00">Tableau</text>
</g>
<!-- LocalTableau&#45;&gt;Tableau -->
<g id="edge29" class="edge">
<title>LocalTableau&#45;&gt;Tableau</title>
<path fill="none" stroke="black" d="M422.19,-361.12C407.93,-351.13 389.4,-338.16 374.05,-327.42"/>
<polygon fill="black" stroke="black" points="375.64,-324.26 365.44,-321.39 371.63,-329.99 375.64,-324.26"/>
</g>
<!-- MultisetOrder -->
<g id="node18" class="node">
<title>MultisetOrder</title>
<ellipse fill="none" stroke="black" cx="498.88" cy="-450" rx="61.19" ry="18"/>
<text text-anchor="middle" x="498.88" y="-446.3" font-family="Times,serif" font-size="14.00">MultisetOrder</text>
</g>
<!-- MultisetOrder&#45;&gt;LocalTableau -->
<g id="edge13" class="edge">
<title>MultisetOrder&#45;&gt;LocalTableau</title>
<path fill="none" stroke="black" d="M485.81,-432.05C479.31,-423.63 471.33,-413.28 464.14,-403.97"/>
<polygon fill="black" stroke="black" points="466.71,-401.57 457.83,-395.79 461.17,-405.84 466.71,-401.57"/>
</g>
<!-- Measures&#45;&gt;Semantics -->
<g id="edge21" class="edge">
<title>Measures&#45;&gt;Semantics</title>
<path fill="none" stroke="black" d="M355.67,-724.49C328.17,-713.09 287.36,-696.19 257.11,-683.66"/>
<polygon fill="black" stroke="black" points="258.27,-680.35 247.69,-679.76 255.59,-686.82 258.27,-680.35"/>
</g>
<!-- Measures&#45;&gt;Setsimp -->
<g id="edge23" class="edge">
<title>Measures&#45;&gt;Setsimp</title>
<path fill="none" stroke="black" d="M402.45,-721.12C412.13,-711.83 424.51,-699.96 435.2,-689.7"/>
<polygon fill="black" stroke="black" points="437.84,-692.03 442.63,-682.58 432.99,-686.98 437.84,-692.03"/>
</g>
<!-- Tableau&#45;&gt;Soundness -->
<g id="edge25" class="edge">
<title>Tableau&#45;&gt;Soundness</title>
<path fill="none" stroke="black" d="M317.1,-293.28C290.28,-281.98 249.39,-264.73 219.03,-251.93"/>
<polygon fill="black" stroke="black" points="220.15,-248.6 209.58,-247.94 217.43,-255.05 220.15,-248.6"/>
</g>
<!-- Substitution&#45;&gt;Unfold -->
<g id="edge31" class="edge">
<title>Substitution&#45;&gt;Unfold</title>
<path fill="none" stroke="black" d="M248.39,-503.7C248.17,-495.98 247.9,-486.71 247.66,-478.11"/>
<polygon fill="black" stroke="black" points="251.15,-478 247.37,-468.1 244.16,-478.2 251.15,-478"/>
</g>
</g>
</svg>
