<?xml version="1.0" encoding="UTF-8" standalone="no"?>
<!DOCTYPE svg PUBLIC "-//W3C//DTD SVG 1.1//EN"
 "http://www.w3.org/Graphics/SVG/1.1/DTD/svg11.dtd">
<!-- Generated by graphviz version 2.43.0 (0)
 -->
<!-- Title: %3 Pages: 1 -->
<svg width="626pt" height="908pt"
 viewBox="0.00 0.00 625.99 908.00" xmlns="http://www.w3.org/2000/svg" xmlns:xlink="http://www.w3.org/1999/xlink">
<g id="graph0" class="graph" transform="scale(1 1) rotate(0) translate(4 904)">
<title>%3</title>
<polygon fill="white" stroke="transparent" points="-4,4 -4,-904 621.99,-904 621.99,4 -4,4"/>
<!-- Soundness -->
<g id="node1" class="node">
<title>Soundness</title>
<ellipse fill="none" stroke="black" cx="74.8" cy="-234" rx="48.19" ry="18"/>
<text text-anchor="middle" x="74.8" y="-230.3" font-family="Times,serif" font-size="14.00">Soundness</text>
</g>
<!-- Completeness -->
<g id="node2" class="node">
<title>Completeness</title>
<ellipse fill="none" stroke="black" cx="374.8" cy="-162" rx="60.39" ry="18"/>
<text text-anchor="middle" x="374.8" y="-158.3" font-family="Times,serif" font-size="14.00">Completeness</text>
</g>
<!-- Soundness&#45;&gt;Completeness -->
<g id="edge1" class="edge">
<title>Soundness&#45;&gt;Completeness</title>
<path fill="none" stroke="black" d="M114.63,-223.7C167.07,-211.47 259.52,-189.9 318.93,-176.04"/>
<polygon fill="black" stroke="black" points="319.95,-179.39 328.89,-173.71 318.36,-172.58 319.95,-179.39"/>
</g>
<!-- PartInterpolation -->
<g id="node12" class="node">
<title>PartInterpolation</title>
<ellipse fill="none" stroke="black" cx="418.8" cy="-90" rx="70.39" ry="18"/>
<text text-anchor="middle" x="418.8" y="-86.3" font-family="Times,serif" font-size="14.00">PartInterpolation</text>
</g>
<!-- Completeness&#45;&gt;PartInterpolation -->
<g id="edge15" class="edge">
<title>Completeness&#45;&gt;PartInterpolation</title>
<path fill="none" stroke="black" d="M385.45,-144.05C390.56,-135.92 396.8,-126 402.49,-116.94"/>
<polygon fill="black" stroke="black" points="405.58,-118.6 407.94,-108.28 399.65,-114.88 405.58,-118.6"/>
</g>
<!-- TableauGame -->
<g id="node3" class="node">
<title>TableauGame</title>
<ellipse fill="none" stroke="black" cx="374.8" cy="-306" rx="60.39" ry="18"/>
<text text-anchor="middle" x="374.8" y="-302.3" font-family="Times,serif" font-size="14.00">TableauGame</text>
</g>
<!-- TableauGame&#45;&gt;Completeness -->
<g id="edge2" class="edge">
<title>TableauGame&#45;&gt;Completeness</title>
<path fill="none" stroke="black" d="M374.8,-287.87C374.8,-263.67 374.8,-219.21 374.8,-190.39"/>
<polygon fill="black" stroke="black" points="378.3,-190.19 374.8,-180.19 371.3,-190.19 378.3,-190.19"/>
</g>
<!-- Semantics -->
<g id="node4" class="node">
<title>Semantics</title>
<ellipse fill="none" stroke="black" cx="500.8" cy="-738" rx="47.39" ry="18"/>
<text text-anchor="middle" x="500.8" y="-734.3" font-family="Times,serif" font-size="14.00">Semantics</text>
</g>
<!-- Discon -->
<g id="node5" class="node">
<title>Discon</title>
<ellipse fill="none" stroke="black" cx="349.8" cy="-666" rx="36" ry="18"/>
<text text-anchor="middle" x="349.8" y="-662.3" font-family="Times,serif" font-size="14.00">Discon</text>
</g>
<!-- Semantics&#45;&gt;Discon -->
<g id="edge3" class="edge">
<title>Semantics&#45;&gt;Discon</title>
<path fill="none" stroke="black" d="M472.04,-723.67C447.2,-712.15 411.22,-695.47 384.72,-683.19"/>
<polygon fill="black" stroke="black" points="385.97,-679.91 375.43,-678.88 383.03,-686.26 385.97,-679.91"/>
</g>
<!-- Examples -->
<g id="node9" class="node">
<title>Examples</title>
<ellipse fill="none" stroke="black" cx="494.8" cy="-522" rx="46.29" ry="18"/>
<text text-anchor="middle" x="494.8" y="-518.3" font-family="Times,serif" font-size="14.00">Examples</text>
</g>
<!-- Semantics&#45;&gt;Examples -->
<g id="edge6" class="edge">
<title>Semantics&#45;&gt;Examples</title>
<path fill="none" stroke="black" d="M500.32,-719.85C499.28,-682.83 496.82,-595.18 495.56,-550.39"/>
<polygon fill="black" stroke="black" points="499.06,-550.13 495.28,-540.23 492.06,-550.33 499.06,-550.13"/>
</g>
<!-- SemQuot -->
<g id="node19" class="node">
<title>SemQuot</title>
<ellipse fill="none" stroke="black" cx="573.8" cy="-666" rx="44.39" ry="18"/>
<text text-anchor="middle" x="573.8" y="-662.3" font-family="Times,serif" font-size="14.00">SemQuot</text>
</g>
<!-- Semantics&#45;&gt;SemQuot -->
<g id="edge17" class="edge">
<title>Semantics&#45;&gt;SemQuot</title>
<path fill="none" stroke="black" d="M517.36,-721.12C526.98,-711.9 539.25,-700.13 549.9,-689.92"/>
<polygon fill="black" stroke="black" points="552.5,-692.27 557.3,-682.82 547.66,-687.22 552.5,-692.27"/>
</g>
<!-- Substitution -->
<g id="node22" class="node">
<title>Substitution</title>
<ellipse fill="none" stroke="black" cx="348.8" cy="-594" rx="53.09" ry="18"/>
<text text-anchor="middle" x="348.8" y="-590.3" font-family="Times,serif" font-size="14.00">Substitution</text>
</g>
<!-- Discon&#45;&gt;Substitution -->
<g id="edge22" class="edge">
<title>Discon&#45;&gt;Substitution</title>
<path fill="none" stroke="black" d="M349.55,-647.7C349.44,-639.98 349.31,-630.71 349.18,-622.11"/>
<polygon fill="black" stroke="black" points="352.68,-622.05 349.04,-612.1 345.68,-622.15 352.68,-622.05"/>
</g>
<!-- Vocab -->
<g id="node6" class="node">
<title>Vocab</title>
<ellipse fill="none" stroke="black" cx="349.8" cy="-738" rx="32.49" ry="18"/>
<text text-anchor="middle" x="349.8" y="-734.3" font-family="Times,serif" font-size="14.00">Vocab</text>
</g>
<!-- Vocab&#45;&gt;Discon -->
<g id="edge4" class="edge">
<title>Vocab&#45;&gt;Discon</title>
<path fill="none" stroke="black" d="M349.8,-719.7C349.8,-711.98 349.8,-702.71 349.8,-694.11"/>
<polygon fill="black" stroke="black" points="353.3,-694.1 349.8,-684.1 346.3,-694.1 353.3,-694.1"/>
</g>
<!-- Fresh -->
<g id="node11" class="node">
<title>Fresh</title>
<ellipse fill="none" stroke="black" cx="246.8" cy="-594" rx="30.59" ry="18"/>
<text text-anchor="middle" x="246.8" y="-590.3" font-family="Times,serif" font-size="14.00">Fresh</text>
</g>
<!-- Vocab&#45;&gt;Fresh -->
<g id="edge8" class="edge">
<title>Vocab&#45;&gt;Fresh</title>
<path fill="none" stroke="black" d="M335.87,-721.66C326.7,-711.3 314.61,-697.16 304.8,-684 289.21,-663.1 273.15,-638.14 261.9,-619.99"/>
<polygon fill="black" stroke="black" points="264.69,-617.85 256.48,-611.17 258.73,-621.52 264.69,-617.85"/>
</g>
<!-- UnfoldDia -->
<g id="node7" class="node">
<title>UnfoldDia</title>
<ellipse fill="none" stroke="black" cx="375.8" cy="-522" rx="48.19" ry="18"/>
<text text-anchor="middle" x="375.8" y="-518.3" font-family="Times,serif" font-size="14.00">UnfoldDia</text>
</g>
<!-- Distance -->
<g id="node8" class="node">
<title>Distance</title>
<ellipse fill="none" stroke="black" cx="462.8" cy="-234" rx="41.69" ry="18"/>
<text text-anchor="middle" x="462.8" y="-230.3" font-family="Times,serif" font-size="14.00">Distance</text>
</g>
<!-- UnfoldDia&#45;&gt;Distance -->
<g id="edge5" class="edge">
<title>UnfoldDia&#45;&gt;Distance</title>
<path fill="none" stroke="black" d="M402.55,-507.04C417.05,-497.97 433.8,-484.72 442.8,-468 478.77,-401.14 472.86,-307.63 467.06,-262.08"/>
<polygon fill="black" stroke="black" points="470.52,-261.52 465.69,-252.09 463.58,-262.47 470.52,-261.52"/>
</g>
<!-- LocalTableau -->
<g id="node15" class="node">
<title>LocalTableau</title>
<ellipse fill="none" stroke="black" cx="240.8" cy="-450" rx="59.29" ry="18"/>
<text text-anchor="middle" x="240.8" y="-446.3" font-family="Times,serif" font-size="14.00">LocalTableau</text>
</g>
<!-- UnfoldDia&#45;&gt;LocalTableau -->
<g id="edge11" class="edge">
<title>UnfoldDia&#45;&gt;LocalTableau</title>
<path fill="none" stroke="black" d="M348.8,-507C328.65,-496.55 300.85,-482.14 278.5,-470.55"/>
<polygon fill="black" stroke="black" points="280.1,-467.44 269.61,-465.94 276.88,-473.65 280.1,-467.44"/>
</g>
<!-- Modelgraphs -->
<g id="node18" class="node">
<title>Modelgraphs</title>
<ellipse fill="none" stroke="black" cx="375.8" cy="-450" rx="57.69" ry="18"/>
<text text-anchor="middle" x="375.8" y="-446.3" font-family="Times,serif" font-size="14.00">Modelgraphs</text>
</g>
<!-- UnfoldDia&#45;&gt;Modelgraphs -->
<g id="edge14" class="edge">
<title>UnfoldDia&#45;&gt;Modelgraphs</title>
<path fill="none" stroke="black" d="M375.8,-503.7C375.8,-495.98 375.8,-486.71 375.8,-478.11"/>
<polygon fill="black" stroke="black" points="379.3,-478.1 375.8,-468.1 372.3,-478.1 379.3,-478.1"/>
</g>
<!-- Distance&#45;&gt;PartInterpolation -->
<g id="edge16" class="edge">
<title>Distance&#45;&gt;PartInterpolation</title>
<path fill="none" stroke="black" d="M460.36,-215.96C457.48,-197.81 452.03,-168.4 443.8,-144 440.8,-135.13 436.73,-125.79 432.75,-117.47"/>
<polygon fill="black" stroke="black" points="435.75,-115.65 428.17,-108.25 429.48,-118.76 435.75,-115.65"/>
</g>
<!-- Star -->
<g id="node10" class="node">
<title>Star</title>
<ellipse fill="none" stroke="black" cx="446.8" cy="-594" rx="27" ry="18"/>
<text text-anchor="middle" x="446.8" y="-590.3" font-family="Times,serif" font-size="14.00">Star</text>
</g>
<!-- Star&#45;&gt;UnfoldDia -->
<g id="edge35" class="edge">
<title>Star&#45;&gt;UnfoldDia</title>
<path fill="none" stroke="black" d="M432.09,-578.5C422.65,-569.19 410.18,-556.9 399.38,-546.25"/>
<polygon fill="black" stroke="black" points="401.8,-543.73 392.23,-539.2 396.89,-548.71 401.8,-543.73"/>
</g>
<!-- Star&#45;&gt;Examples -->
<g id="edge7" class="edge">
<title>Star&#45;&gt;Examples</title>
<path fill="none" stroke="black" d="M457.69,-577.12C463.53,-568.59 470.88,-557.89 477.48,-548.25"/>
<polygon fill="black" stroke="black" points="480.51,-550.02 483.28,-539.8 474.74,-546.07 480.51,-550.02"/>
</g>
<!-- UnfoldBox -->
<g id="node14" class="node">
<title>UnfoldBox</title>
<ellipse fill="none" stroke="black" cx="259.8" cy="-522" rx="50.09" ry="18"/>
<text text-anchor="middle" x="259.8" y="-518.3" font-family="Times,serif" font-size="14.00">UnfoldBox</text>
</g>
<!-- Star&#45;&gt;UnfoldBox -->
<g id="edge32" class="edge">
<title>Star&#45;&gt;UnfoldBox</title>
<path fill="none" stroke="black" d="M425.64,-582.56C420.8,-580.3 415.66,-577.99 410.8,-576 376.04,-561.74 335.88,-547.76 305.71,-537.74"/>
<polygon fill="black" stroke="black" points="306.48,-534.31 295.89,-534.5 304.29,-540.95 306.48,-534.31"/>
</g>
<!-- Fresh&#45;&gt;UnfoldDia -->
<g id="edge34" class="edge">
<title>Fresh&#45;&gt;UnfoldDia</title>
<path fill="none" stroke="black" d="M268.68,-581.13C288.27,-570.5 317.34,-554.72 340.26,-542.28"/>
<polygon fill="black" stroke="black" points="342.22,-545.2 349.34,-537.36 338.88,-539.05 342.22,-545.2"/>
</g>
<!-- Fresh&#45;&gt;UnfoldBox -->
<g id="edge31" class="edge">
<title>Fresh&#45;&gt;UnfoldBox</title>
<path fill="none" stroke="black" d="M249.94,-576.05C251.38,-568.35 253.11,-559.03 254.72,-550.36"/>
<polygon fill="black" stroke="black" points="258.2,-550.75 256.59,-540.28 251.32,-549.47 258.2,-550.75"/>
</g>
<!-- Interpolation -->
<g id="node13" class="node">
<title>Interpolation</title>
<ellipse fill="none" stroke="black" cx="418.8" cy="-18" rx="55.79" ry="18"/>
<text text-anchor="middle" x="418.8" y="-14.3" font-family="Times,serif" font-size="14.00">Interpolation</text>
</g>
<!-- PartInterpolation&#45;&gt;Interpolation -->
<g id="edge9" class="edge">
<title>PartInterpolation&#45;&gt;Interpolation</title>
<path fill="none" stroke="black" d="M418.8,-71.7C418.8,-63.98 418.8,-54.71 418.8,-46.11"/>
<polygon fill="black" stroke="black" points="422.3,-46.1 418.8,-36.1 415.3,-46.1 422.3,-46.1"/>
</g>
<!-- UnfoldBox&#45;&gt;LocalTableau -->
<g id="edge10" class="edge">
<title>UnfoldBox&#45;&gt;LocalTableau</title>
<path fill="none" stroke="black" d="M255.2,-504.05C253.08,-496.26 250.52,-486.82 248.15,-478.08"/>
<polygon fill="black" stroke="black" points="251.48,-477.01 245.49,-468.28 244.73,-478.84 251.48,-477.01"/>
</g>
<!-- UnfoldBox&#45;&gt;Modelgraphs -->
<g id="edge13" class="edge">
<title>UnfoldBox&#45;&gt;Modelgraphs</title>
<path fill="none" stroke="black" d="M284.4,-506.15C301.09,-496.08 323.37,-482.64 341.76,-471.54"/>
<polygon fill="black" stroke="black" points="343.68,-474.47 350.43,-466.31 340.06,-468.48 343.68,-474.47"/>
</g>
<!-- Tableau -->
<g id="node23" class="node">
<title>Tableau</title>
<ellipse fill="none" stroke="black" cx="223.8" cy="-378" rx="38.99" ry="18"/>
<text text-anchor="middle" x="223.8" y="-374.3" font-family="Times,serif" font-size="14.00">Tableau</text>
</g>
<!-- LocalTableau&#45;&gt;Tableau -->
<g id="edge23" class="edge">
<title>LocalTableau&#45;&gt;Tableau</title>
<path fill="none" stroke="black" d="M236.59,-431.7C234.7,-423.9 232.42,-414.51 230.31,-405.83"/>
<polygon fill="black" stroke="black" points="233.71,-405 227.95,-396.1 226.91,-406.65 233.71,-405"/>
</g>
<!-- Syntax -->
<g id="node16" class="node">
<title>Syntax</title>
<ellipse fill="none" stroke="black" cx="427.8" cy="-882" rx="35.19" ry="18"/>
<text text-anchor="middle" x="427.8" y="-878.3" font-family="Times,serif" font-size="14.00">Syntax</text>
</g>
<!-- Syntax&#45;&gt;Semantics -->
<g id="edge18" class="edge">
<title>Syntax&#45;&gt;Semantics</title>
<path fill="none" stroke="black" d="M447.12,-866.87C458.92,-857.22 473.32,-843.43 481.8,-828 492.29,-808.9 496.99,-784.55 499.1,-766.14"/>
<polygon fill="black" stroke="black" points="502.59,-766.37 500.06,-756.08 495.62,-765.7 502.59,-766.37"/>
</g>
<!-- Syntax&#45;&gt;Vocab -->
<g id="edge36" class="edge">
<title>Syntax&#45;&gt;Vocab</title>
<path fill="none" stroke="black" d="M408.75,-866.72C397.06,-857 382.68,-843.2 373.8,-828 362.66,-808.94 356.55,-784.59 353.29,-766.17"/>
<polygon fill="black" stroke="black" points="356.72,-765.42 351.69,-756.1 349.81,-766.53 356.72,-765.42"/>
</g>
<!-- Measures -->
<g id="node17" class="node">
<title>Measures</title>
<ellipse fill="none" stroke="black" cx="427.8" cy="-810" rx="44.69" ry="18"/>
<text text-anchor="middle" x="427.8" y="-806.3" font-family="Times,serif" font-size="14.00">Measures</text>
</g>
<!-- Syntax&#45;&gt;Measures -->
<g id="edge12" class="edge">
<title>Syntax&#45;&gt;Measures</title>
<path fill="none" stroke="black" d="M427.8,-863.7C427.8,-855.98 427.8,-846.71 427.8,-838.11"/>
<polygon fill="black" stroke="black" points="431.3,-838.1 427.8,-828.1 424.3,-838.1 431.3,-838.1"/>
</g>
<!-- Measures&#45;&gt;Semantics -->
<g id="edge19" class="edge">
<title>Measures&#45;&gt;Semantics</title>
<path fill="none" stroke="black" d="M444.36,-793.12C453.91,-783.96 466.08,-772.29 476.67,-762.13"/>
<polygon fill="black" stroke="black" points="479.25,-764.51 484.05,-755.06 474.4,-759.46 479.25,-764.51"/>
</g>
<!-- Modelgraphs&#45;&gt;TableauGame -->
<g id="edge27" class="edge">
<title>Modelgraphs&#45;&gt;TableauGame</title>
<path fill="none" stroke="black" d="M375.68,-431.87C375.51,-407.67 375.19,-363.21 374.99,-334.39"/>
<polygon fill="black" stroke="black" points="378.49,-334.16 374.92,-324.19 371.49,-334.21 378.49,-334.16"/>
</g>
<!-- TableauPath -->
<g id="node20" class="node">
<title>TableauPath</title>
<ellipse fill="none" stroke="black" cx="74.8" cy="-306" rx="54.69" ry="18"/>
<text text-anchor="middle" x="74.8" y="-302.3" font-family="Times,serif" font-size="14.00">TableauPath</text>
</g>
<!-- TableauPath&#45;&gt;Soundness -->
<g id="edge20" class="edge">
<title>TableauPath&#45;&gt;Soundness</title>
<path fill="none" stroke="black" d="M74.8,-287.7C74.8,-279.98 74.8,-270.71 74.8,-262.11"/>
<polygon fill="black" stroke="black" points="78.3,-262.1 74.8,-252.1 71.3,-262.1 78.3,-262.1"/>
</g>
<!-- Vector -->
<g id="node21" class="node">
<title>Vector</title>
<ellipse fill="none" stroke="black" cx="33.8" cy="-378" rx="33.6" ry="18"/>
<text text-anchor="middle" x="33.8" y="-374.3" font-family="Times,serif" font-size="14.00">Vector</text>
</g>
<!-- Vector&#45;&gt;Soundness -->
<g id="edge21" class="edge">
<title>Vector&#45;&gt;Soundness</title>
<path fill="none" stroke="black" d="M23.09,-360.62C12.54,-342.28 -0.48,-311.97 10.8,-288 17.07,-274.66 28.53,-263.52 40.05,-254.96"/>
<polygon fill="black" stroke="black" points="42.15,-257.76 48.36,-249.18 38.15,-252.01 42.15,-257.76"/>
</g>
<!-- Vector&#45;&gt;TableauPath -->
<g id="edge29" class="edge">
<title>Vector&#45;&gt;TableauPath</title>
<path fill="none" stroke="black" d="M43.51,-360.41C48.34,-352.16 54.29,-342.01 59.7,-332.78"/>
<polygon fill="black" stroke="black" points="62.83,-334.35 64.87,-323.96 56.79,-330.82 62.83,-334.35"/>
</g>
<!-- Substitution&#45;&gt;UnfoldDia -->
<g id="edge33" class="edge">
<title>Substitution&#45;&gt;UnfoldDia</title>
<path fill="none" stroke="black" d="M355.33,-576.05C358.37,-568.18 362.06,-558.62 365.46,-549.79"/>
<polygon fill="black" stroke="black" points="368.8,-550.86 369.13,-540.28 362.27,-548.35 368.8,-550.86"/>
</g>
<!-- Substitution&#45;&gt;UnfoldBox -->
<g id="edge30" class="edge">
<title>Substitution&#45;&gt;UnfoldBox</title>
<path fill="none" stroke="black" d="M328.6,-577.12C316.45,-567.56 300.82,-555.27 287.53,-544.81"/>
<polygon fill="black" stroke="black" points="289.63,-542.01 279.61,-538.58 285.3,-547.51 289.63,-542.01"/>
</g>
<!-- Tableau&#45;&gt;TableauGame -->
<g id="edge26" class="edge">
<title>Tableau&#45;&gt;TableauGame</title>
<path fill="none" stroke="black" d="M250.45,-364.65C273.59,-353.91 307.48,-338.21 334.04,-325.9"/>
<polygon fill="black" stroke="black" points="335.86,-328.91 343.46,-321.53 332.91,-322.56 335.86,-328.91"/>
</g>
<!-- Tableau&#45;&gt;TableauPath -->
<g id="edge28" class="edge">
<title>Tableau&#45;&gt;TableauPath</title>
<path fill="none" stroke="black" d="M197.5,-364.65C174.44,-353.81 140.57,-337.9 114.25,-325.54"/>
<polygon fill="black" stroke="black" points="115.47,-322.24 104.93,-321.16 112.49,-328.58 115.47,-322.24"/>
</g>
<!-- TableauExamples -->
<g id="node24" class="node">
<title>TableauExamples</title>
<ellipse fill="none" stroke="black" cx="221.8" cy="-306" rx="74.19" ry="18"/>
<text text-anchor="middle" x="221.8" y="-302.3" font-family="Times,serif" font-size="14.00">TableauExamples</text>
</g>
<!-- Tableau&#45;&gt;TableauExamples -->
<g id="edge24" class="edge">
<title>Tableau&#45;&gt;TableauExamples</title>
<path fill="none" stroke="black" d="M223.3,-359.7C223.08,-351.98 222.82,-342.71 222.57,-334.11"/>
<polygon fill="black" stroke="black" points="226.07,-334 222.29,-324.1 219.07,-334.2 226.07,-334"/>
</g>
<!-- Game -->
<g id="node25" class="node">
<title>Game</title>
<ellipse fill="none" stroke="black" cx="315.8" cy="-378" rx="32.49" ry="18"/>
<text text-anchor="middle" x="315.8" y="-374.3" font-family="Times,serif" font-size="14.00">Game</text>
</g>
<!-- Game&#45;&gt;TableauGame -->
<g id="edge25" class="edge">
<title>Game&#45;&gt;TableauGame</title>
<path fill="none" stroke="black" d="M328.89,-361.46C336.21,-352.78 345.51,-341.75 353.82,-331.89"/>
<polygon fill="black" stroke="black" points="356.73,-333.86 360.5,-323.96 351.38,-329.35 356.73,-333.86"/>
</g>
</g>
</svg>
