<?xml version="1.0" encoding="UTF-8" standalone="no"?>
<!DOCTYPE svg PUBLIC "-//W3C//DTD SVG 1.1//EN"
 "http://www.w3.org/Graphics/SVG/1.1/DTD/svg11.dtd">
<!-- Generated by graphviz version 2.43.0 (0)
 -->
<!-- Title: %3 Pages: 1 -->
<svg width="486pt" height="476pt"
 viewBox="0.00 0.00 486.04 476.00" xmlns="http://www.w3.org/2000/svg" xmlns:xlink="http://www.w3.org/1999/xlink">
<g id="graph0" class="graph" transform="scale(1 1) rotate(0) translate(4 472)">
<title>%3</title>
<polygon fill="white" stroke="transparent" points="-4,4 -4,-472 482.04,-472 482.04,4 -4,4"/>
<!-- Soundness -->
<g id="node1" class="node">
<title>Soundness</title>
<ellipse fill="none" stroke="black" cx="323.29" cy="-162" rx="48.19" ry="18"/>
<text text-anchor="middle" x="323.29" y="-158.3" font-family="Times,serif" font-size="14.00">Soundness</text>
</g>
<!-- CompletenessNaive -->
<g id="node2" class="node">
<title>CompletenessNaive</title>
<ellipse fill="none" stroke="black" cx="284.29" cy="-90" rx="81.49" ry="18"/>
<text text-anchor="middle" x="284.29" y="-86.3" font-family="Times,serif" font-size="14.00">CompletenessNaive</text>
</g>
<!-- Soundness&#45;&gt;CompletenessNaive -->
<g id="edge1" class="edge">
<title>Soundness&#45;&gt;CompletenessNaive</title>
<path fill="none" stroke="black" d="M313.85,-144.05C309.37,-136.01 303.91,-126.2 298.9,-117.23"/>
<polygon fill="black" stroke="black" points="301.84,-115.31 293.92,-108.28 295.73,-118.71 301.84,-115.31"/>
</g>
<!-- CompletenessViaPaths -->
<g id="node4" class="node">
<title>CompletenessViaPaths</title>
<ellipse fill="none" stroke="black" cx="92.29" cy="-90" rx="92.08" ry="18"/>
<text text-anchor="middle" x="92.29" y="-86.3" font-family="Times,serif" font-size="14.00">CompletenessViaPaths</text>
</g>
<!-- Soundness&#45;&gt;CompletenessViaPaths -->
<g id="edge3" class="edge">
<title>Soundness&#45;&gt;CompletenessViaPaths</title>
<path fill="none" stroke="black" d="M287.2,-150.06C250.47,-138.93 192.97,-121.51 149.93,-108.47"/>
<polygon fill="black" stroke="black" points="150.74,-105.05 140.16,-105.5 148.71,-111.75 150.74,-105.05"/>
</g>
<!-- Partitions -->
<g id="node8" class="node">
<title>Partitions</title>
<ellipse fill="none" stroke="black" cx="427.29" cy="-90" rx="44.39" ry="18"/>
<text text-anchor="middle" x="427.29" y="-86.3" font-family="Times,serif" font-size="14.00">Partitions</text>
</g>
<!-- Soundness&#45;&gt;Partitions -->
<g id="edge10" class="edge">
<title>Soundness&#45;&gt;Partitions</title>
<path fill="none" stroke="black" d="M345.6,-145.98C360.51,-135.95 380.31,-122.62 396.68,-111.6"/>
<polygon fill="black" stroke="black" points="399.03,-114.24 405.38,-105.75 395.12,-108.43 399.03,-114.24"/>
</g>
<!-- Modelgraphs -->
<g id="node3" class="node">
<title>Modelgraphs</title>
<ellipse fill="none" stroke="black" cx="98.29" cy="-234" rx="57.69" ry="18"/>
<text text-anchor="middle" x="98.29" y="-230.3" font-family="Times,serif" font-size="14.00">Modelgraphs</text>
</g>
<!-- Modelgraphs&#45;&gt;CompletenessViaPaths -->
<g id="edge2" class="edge">
<title>Modelgraphs&#45;&gt;CompletenessViaPaths</title>
<path fill="none" stroke="black" d="M97.57,-215.87C96.55,-191.67 94.67,-147.21 93.45,-118.39"/>
<polygon fill="black" stroke="black" points="96.94,-118.03 93.02,-108.19 89.94,-118.33 96.94,-118.03"/>
</g>
<!-- Interpolation -->
<g id="node7" class="node">
<title>Interpolation</title>
<ellipse fill="none" stroke="black" cx="259.29" cy="-18" rx="55.79" ry="18"/>
<text text-anchor="middle" x="259.29" y="-14.3" font-family="Times,serif" font-size="14.00">Interpolation</text>
</g>
<!-- CompletenessViaPaths&#45;&gt;Interpolation -->
<g id="edge5" class="edge">
<title>CompletenessViaPaths&#45;&gt;Interpolation</title>
<path fill="none" stroke="black" d="M129.35,-73.46C155.29,-62.6 189.98,-48.05 216.99,-36.73"/>
<polygon fill="black" stroke="black" points="218.7,-39.81 226.57,-32.72 215.99,-33.35 218.7,-39.81"/>
</g>
<!-- Semantics -->
<g id="node5" class="node">
<title>Semantics</title>
<ellipse fill="none" stroke="black" cx="234.29" cy="-306" rx="47.39" ry="18"/>
<text text-anchor="middle" x="234.29" y="-302.3" font-family="Times,serif" font-size="14.00">Semantics</text>
</g>
<!-- Semantics&#45;&gt;Modelgraphs -->
<g id="edge8" class="edge">
<title>Semantics&#45;&gt;Modelgraphs</title>
<path fill="none" stroke="black" d="M207.1,-291C186.66,-280.48 158.41,-265.95 135.83,-254.32"/>
<polygon fill="black" stroke="black" points="137.34,-251.16 126.85,-249.7 134.14,-257.39 137.34,-251.16"/>
</g>
<!-- Examples -->
<g id="node6" class="node">
<title>Examples</title>
<ellipse fill="none" stroke="black" cx="220.29" cy="-234" rx="46.29" ry="18"/>
<text text-anchor="middle" x="220.29" y="-230.3" font-family="Times,serif" font-size="14.00">Examples</text>
</g>
<!-- Semantics&#45;&gt;Examples -->
<g id="edge4" class="edge">
<title>Semantics&#45;&gt;Examples</title>
<path fill="none" stroke="black" d="M230.83,-287.7C229.29,-279.98 227.43,-270.71 225.71,-262.11"/>
<polygon fill="black" stroke="black" points="229.11,-261.22 223.71,-252.1 222.24,-262.6 229.11,-261.22"/>
</g>
<!-- Tableau -->
<g id="node10" class="node">
<title>Tableau</title>
<ellipse fill="none" stroke="black" cx="323.29" cy="-234" rx="38.99" ry="18"/>
<text text-anchor="middle" x="323.29" y="-230.3" font-family="Times,serif" font-size="14.00">Tableau</text>
</g>
<!-- Semantics&#45;&gt;Tableau -->
<g id="edge15" class="edge">
<title>Semantics&#45;&gt;Tableau</title>
<path fill="none" stroke="black" d="M254.04,-289.46C266.43,-279.72 282.56,-267.04 296.14,-256.36"/>
<polygon fill="black" stroke="black" points="298.51,-258.94 304.21,-250.01 294.18,-253.44 298.51,-258.94"/>
</g>
<!-- bigConDis -->
<g id="node11" class="node">
<title>bigConDis</title>
<ellipse fill="none" stroke="black" cx="429.29" cy="-234" rx="48.99" ry="18"/>
<text text-anchor="middle" x="429.29" y="-230.3" font-family="Times,serif" font-size="14.00">bigConDis</text>
</g>
<!-- Semantics&#45;&gt;bigConDis -->
<g id="edge22" class="edge">
<title>Semantics&#45;&gt;bigConDis</title>
<path fill="none" stroke="black" d="M267.81,-292.97C300.46,-281.25 350.24,-263.38 385.9,-250.58"/>
<polygon fill="black" stroke="black" points="387.33,-253.78 395.55,-247.11 384.96,-247.2 387.33,-253.78"/>
</g>
<!-- Partitions&#45;&gt;Interpolation -->
<g id="edge6" class="edge">
<title>Partitions&#45;&gt;Interpolation</title>
<path fill="none" stroke="black" d="M397.64,-76.65C370.95,-65.53 331.43,-49.06 301.46,-36.57"/>
<polygon fill="black" stroke="black" points="302.67,-33.28 292.09,-32.67 299.98,-39.74 302.67,-33.28"/>
</g>
<!-- Syntax -->
<g id="node9" class="node">
<title>Syntax</title>
<ellipse fill="none" stroke="black" cx="274.29" cy="-450" rx="35.19" ry="18"/>
<text text-anchor="middle" x="274.29" y="-446.3" font-family="Times,serif" font-size="14.00">Syntax</text>
</g>
<!-- Syntax&#45;&gt;Modelgraphs -->
<g id="edge7" class="edge">
<title>Syntax&#45;&gt;Modelgraphs</title>
<path fill="none" stroke="black" d="M261.35,-433.26C231,-396.36 155.04,-304 118.52,-259.6"/>
<polygon fill="black" stroke="black" points="121.03,-257.14 111.98,-251.64 115.62,-261.59 121.03,-257.14"/>
</g>
<!-- Syntax&#45;&gt;Semantics -->
<g id="edge12" class="edge">
<title>Syntax&#45;&gt;Semantics</title>
<path fill="none" stroke="black" d="M269.55,-432.15C262.73,-407.94 250.08,-363.05 241.93,-334.13"/>
<polygon fill="black" stroke="black" points="245.24,-332.94 239.16,-324.27 238.5,-334.84 245.24,-332.94"/>
</g>
<!-- Setsimp -->
<g id="node12" class="node">
<title>Setsimp</title>
<ellipse fill="none" stroke="black" cx="309.29" cy="-378" rx="39.79" ry="18"/>
<text text-anchor="middle" x="309.29" y="-374.3" font-family="Times,serif" font-size="14.00">Setsimp</text>
</g>
<!-- Syntax&#45;&gt;Setsimp -->
<g id="edge13" class="edge">
<title>Syntax&#45;&gt;Setsimp</title>
<path fill="none" stroke="black" d="M282.59,-432.41C286.67,-424.25 291.68,-414.22 296.26,-405.07"/>
<polygon fill="black" stroke="black" points="299.47,-406.47 300.81,-395.96 293.21,-403.34 299.47,-406.47"/>
</g>
<!-- Vocabulary -->
<g id="node13" class="node">
<title>Vocabulary</title>
<ellipse fill="none" stroke="black" cx="388.29" cy="-306" rx="50.89" ry="18"/>
<text text-anchor="middle" x="388.29" y="-302.3" font-family="Times,serif" font-size="14.00">Vocabulary</text>
</g>
<!-- Syntax&#45;&gt;Vocabulary -->
<g id="edge19" class="edge">
<title>Syntax&#45;&gt;Vocabulary</title>
<path fill="none" stroke="black" d="M300.82,-438.09C319.3,-429.25 343.26,-415.11 358.29,-396 372.43,-378.03 380.08,-353.03 384.11,-334.11"/>
<polygon fill="black" stroke="black" points="387.6,-334.51 386.04,-324.03 380.72,-333.19 387.6,-334.51"/>
</g>
<!-- Tableau&#45;&gt;Soundness -->
<g id="edge14" class="edge">
<title>Tableau&#45;&gt;Soundness</title>
<path fill="none" stroke="black" d="M323.29,-215.7C323.29,-207.98 323.29,-198.71 323.29,-190.11"/>
<polygon fill="black" stroke="black" points="326.79,-190.1 323.29,-180.1 319.79,-190.1 326.79,-190.1"/>
</g>
<!-- Tableau&#45;&gt;Partitions -->
<g id="edge9" class="edge">
<title>Tableau&#45;&gt;Partitions</title>
<path fill="none" stroke="black" d="M342.29,-218.15C354.18,-208.22 369.28,-194.37 380.29,-180 395.16,-160.6 407.81,-135.83 416.23,-117.35"/>
<polygon fill="black" stroke="black" points="419.49,-118.63 420.34,-108.07 413.09,-115.79 419.49,-118.63"/>
</g>
<!-- Tableauexamples -->
<g id="node14" class="node">
<title>Tableauexamples</title>
<ellipse fill="none" stroke="black" cx="184.29" cy="-162" rx="72.59" ry="18"/>
<text text-anchor="middle" x="184.29" y="-158.3" font-family="Times,serif" font-size="14.00">Tableauexamples</text>
</g>
<!-- Tableau&#45;&gt;Tableauexamples -->
<g id="edge18" class="edge">
<title>Tableau&#45;&gt;Tableauexamples</title>
<path fill="none" stroke="black" d="M297.8,-220.16C277.18,-209.78 247.78,-194.97 224.07,-183.03"/>
<polygon fill="black" stroke="black" points="225.47,-179.82 214.96,-178.45 222.32,-186.07 225.47,-179.82"/>
</g>
<!-- bigConDis&#45;&gt;Partitions -->
<g id="edge11" class="edge">
<title>bigConDis&#45;&gt;Partitions</title>
<path fill="none" stroke="black" d="M429.05,-215.87C428.71,-191.67 428.08,-147.21 427.68,-118.39"/>
<polygon fill="black" stroke="black" points="431.17,-118.14 427.53,-108.19 424.18,-118.24 431.17,-118.14"/>
</g>
<!-- Setsimp&#45;&gt;Tableau -->
<g id="edge16" class="edge">
<title>Setsimp&#45;&gt;Tableau</title>
<path fill="none" stroke="black" d="M310.98,-359.87C313.37,-335.67 317.75,-291.21 320.59,-262.39"/>
<polygon fill="black" stroke="black" points="324.1,-262.48 321.6,-252.19 317.13,-261.8 324.1,-262.48"/>
</g>
<!-- Setsimp&#45;&gt;Vocabulary -->
<g id="edge20" class="edge">
<title>Setsimp&#45;&gt;Vocabulary</title>
<path fill="none" stroke="black" d="M326.82,-361.46C337.31,-352.17 350.83,-340.19 362.52,-329.83"/>
<polygon fill="black" stroke="black" points="365.1,-332.23 370.26,-322.98 360.45,-326.99 365.1,-332.23"/>
</g>
<!-- Vocabulary&#45;&gt;Tableau -->
<g id="edge17" class="edge">
<title>Vocabulary&#45;&gt;Tableau</title>
<path fill="none" stroke="black" d="M373.22,-288.76C364.93,-279.84 354.5,-268.61 345.32,-258.72"/>
<polygon fill="black" stroke="black" points="347.66,-256.09 338.29,-251.15 342.53,-260.86 347.66,-256.09"/>
</g>
<!-- Vocabulary&#45;&gt;bigConDis -->
<g id="edge21" class="edge">
<title>Vocabulary&#45;&gt;bigConDis</title>
<path fill="none" stroke="black" d="M398.22,-288.05C403.05,-279.8 408.97,-269.7 414.33,-260.54"/>
<polygon fill="black" stroke="black" points="417.42,-262.19 419.46,-251.79 411.38,-258.65 417.42,-262.19"/>
</g>
</g>
</svg>
