<?xml version="1.0" encoding="UTF-8" standalone="no"?>
<!DOCTYPE svg PUBLIC "-//W3C//DTD SVG 1.1//EN"
 "http://www.w3.org/Graphics/SVG/1.1/DTD/svg11.dtd">
<!-- Generated by graphviz version 2.42.4 (0)
 -->
<!-- Pages: 1 -->
<svg width="566pt" height="476pt"
 viewBox="0.00 0.00 565.65 476.00" xmlns="http://www.w3.org/2000/svg" xmlns:xlink="http://www.w3.org/1999/xlink">
<g id="graph0" class="graph" transform="scale(1 1) rotate(0) translate(4 472)">
<polygon fill="white" stroke="transparent" points="-4,4 -4,-472 561.65,-472 561.65,4 -4,4"/>
<!-- Vocabulary -->
<g id="node1" class="node">
<title>Vocabulary</title>
<ellipse fill="none" stroke="black" cx="360.29" cy="-306" rx="50.89" ry="18"/>
<text text-anchor="middle" x="360.29" y="-302.3" font-family="Times,serif" font-size="14.00">Vocabulary</text>
</g>
<!-- BigConDis -->
<g id="node2" class="node">
<title>BigConDis</title>
<ellipse fill="none" stroke="black" cx="358.29" cy="-234" rx="50.09" ry="18"/>
<text text-anchor="middle" x="358.29" y="-230.3" font-family="Times,serif" font-size="14.00">BigConDis</text>
</g>
<!-- Vocabulary&#45;&gt;BigConDis -->
<g id="edge1" class="edge">
<title>Vocabulary&#45;&gt;BigConDis</title>
<path fill="none" stroke="black" d="M359.8,-287.7C359.58,-279.98 359.31,-270.71 359.07,-262.11"/>
<polygon fill="black" stroke="black" points="362.56,-262 358.78,-252.1 355.57,-262.2 362.56,-262"/>
</g>
<!-- Tableau -->
<g id="node13" class="node">
<title>Tableau</title>
<ellipse fill="none" stroke="black" cx="465.29" cy="-234" rx="38.99" ry="18"/>
<text text-anchor="middle" x="465.29" y="-230.3" font-family="Times,serif" font-size="14.00">Tableau</text>
</g>
<!-- Vocabulary&#45;&gt;Tableau -->
<g id="edge21" class="edge">
<title>Vocabulary&#45;&gt;Tableau</title>
<path fill="none" stroke="black" d="M383.08,-289.81C398.48,-279.54 418.98,-265.87 435.66,-254.75"/>
<polygon fill="black" stroke="black" points="437.61,-257.66 443.98,-249.21 433.72,-251.84 437.61,-257.66"/>
</g>
<!-- Bisimulation -->
<g id="node4" class="node">
<title>Bisimulation</title>
<ellipse fill="none" stroke="black" cx="169.29" cy="-162" rx="56.59" ry="18"/>
<text text-anchor="middle" x="169.29" y="-158.3" font-family="Times,serif" font-size="14.00">Bisimulation</text>
</g>
<!-- BigConDis&#45;&gt;Bisimulation -->
<g id="edge4" class="edge">
<title>BigConDis&#45;&gt;Bisimulation</title>
<path fill="none" stroke="black" d="M324.5,-220.49C293.77,-209.1 248.19,-192.22 214.36,-179.69"/>
<polygon fill="black" stroke="black" points="215.31,-176.31 204.71,-176.12 212.87,-182.87 215.31,-176.31"/>
</g>
<!-- Partitions -->
<g id="node11" class="node">
<title>Partitions</title>
<ellipse fill="none" stroke="black" cx="427.29" cy="-90" rx="44.39" ry="18"/>
<text text-anchor="middle" x="427.29" y="-86.3" font-family="Times,serif" font-size="14.00">Partitions</text>
</g>
<!-- BigConDis&#45;&gt;Partitions -->
<g id="edge15" class="edge">
<title>BigConDis&#45;&gt;Partitions</title>
<path fill="none" stroke="black" d="M362.06,-215.93C366.53,-197.51 374.97,-167.63 387.29,-144 392.54,-133.93 399.68,-123.76 406.47,-115.06"/>
<polygon fill="black" stroke="black" points="409.24,-117.2 412.8,-107.22 403.79,-112.8 409.24,-117.2"/>
</g>
<!-- Semantics -->
<g id="node3" class="node">
<title>Semantics</title>
<ellipse fill="none" stroke="black" cx="244.29" cy="-306" rx="47.39" ry="18"/>
<text text-anchor="middle" x="244.29" y="-302.3" font-family="Times,serif" font-size="14.00">Semantics</text>
</g>
<!-- Semantics&#45;&gt;BigConDis -->
<g id="edge2" class="edge">
<title>Semantics&#45;&gt;BigConDis</title>
<path fill="none" stroke="black" d="M268.19,-290.33C284.8,-280.13 307.14,-266.41 325.43,-255.18"/>
<polygon fill="black" stroke="black" points="327.34,-258.11 334.03,-249.9 323.68,-252.15 327.34,-258.11"/>
</g>
<!-- Semantics&#45;&gt;Bisimulation -->
<g id="edge3" class="edge">
<title>Semantics&#45;&gt;Bisimulation</title>
<path fill="none" stroke="black" d="M223.31,-289.82C211.58,-280.25 197.68,-266.91 189.29,-252 178.58,-232.96 173.61,-208.6 171.3,-190.18"/>
<polygon fill="black" stroke="black" points="174.76,-189.68 170.22,-180.11 167.8,-190.42 174.76,-189.68"/>
</g>
<!-- Modelgraphs -->
<g id="node7" class="node">
<title>Modelgraphs</title>
<ellipse fill="none" stroke="black" cx="84.29" cy="-234" rx="57.69" ry="18"/>
<text text-anchor="middle" x="84.29" y="-230.3" font-family="Times,serif" font-size="14.00">Modelgraphs</text>
</g>
<!-- Semantics&#45;&gt;Modelgraphs -->
<g id="edge12" class="edge">
<title>Semantics&#45;&gt;Modelgraphs</title>
<path fill="none" stroke="black" d="M214.2,-291.83C189.26,-280.92 153.54,-265.3 125.87,-253.19"/>
<polygon fill="black" stroke="black" points="127.01,-249.87 116.45,-249.07 124.21,-256.28 127.01,-249.87"/>
</g>
<!-- Examples -->
<g id="node9" class="node">
<title>Examples</title>
<ellipse fill="none" stroke="black" cx="244.29" cy="-234" rx="46.29" ry="18"/>
<text text-anchor="middle" x="244.29" y="-230.3" font-family="Times,serif" font-size="14.00">Examples</text>
</g>
<!-- Semantics&#45;&gt;Examples -->
<g id="edge8" class="edge">
<title>Semantics&#45;&gt;Examples</title>
<path fill="none" stroke="black" d="M244.29,-287.7C244.29,-279.98 244.29,-270.71 244.29,-262.11"/>
<polygon fill="black" stroke="black" points="247.79,-262.1 244.29,-252.1 240.79,-262.1 247.79,-262.1"/>
</g>
<!-- Semantics&#45;&gt;Tableau -->
<g id="edge19" class="edge">
<title>Semantics&#45;&gt;Tableau</title>
<path fill="none" stroke="black" d="M280.17,-294.1C326.88,-279.89 404.13,-256.34 417.29,-252 420.18,-251.05 423.16,-250.04 426.15,-249.02"/>
<polygon fill="black" stroke="black" points="427.36,-252.3 435.66,-245.72 425.06,-245.69 427.36,-252.3"/>
</g>
<!-- Soundness -->
<g id="node5" class="node">
<title>Soundness</title>
<ellipse fill="none" stroke="black" cx="292.29" cy="-162" rx="48.19" ry="18"/>
<text text-anchor="middle" x="292.29" y="-158.3" font-family="Times,serif" font-size="14.00">Soundness</text>
</g>
<!-- CompletenessNaive -->
<g id="node6" class="node">
<title>CompletenessNaive</title>
<ellipse fill="none" stroke="black" cx="284.29" cy="-90" rx="81.49" ry="18"/>
<text text-anchor="middle" x="284.29" y="-86.3" font-family="Times,serif" font-size="14.00">CompletenessNaive</text>
</g>
<!-- Soundness&#45;&gt;CompletenessNaive -->
<g id="edge5" class="edge">
<title>Soundness&#45;&gt;CompletenessNaive</title>
<path fill="none" stroke="black" d="M290.31,-143.7C289.43,-135.98 288.37,-126.71 287.39,-118.11"/>
<polygon fill="black" stroke="black" points="290.86,-117.64 286.25,-108.1 283.9,-118.44 290.86,-117.64"/>
</g>
<!-- CompletenessViaPaths -->
<g id="node8" class="node">
<title>CompletenessViaPaths</title>
<ellipse fill="none" stroke="black" cx="92.29" cy="-90" rx="92.08" ry="18"/>
<text text-anchor="middle" x="92.29" y="-86.3" font-family="Times,serif" font-size="14.00">CompletenessViaPaths</text>
</g>
<!-- Soundness&#45;&gt;CompletenessViaPaths -->
<g id="edge7" class="edge">
<title>Soundness&#45;&gt;CompletenessViaPaths</title>
<path fill="none" stroke="black" d="M258.36,-149.13C227.29,-138.25 180.82,-121.99 144.93,-109.42"/>
<polygon fill="black" stroke="black" points="145.71,-105.99 135.11,-105.99 143.39,-112.59 145.71,-105.99"/>
</g>
<!-- Soundness&#45;&gt;Partitions -->
<g id="edge14" class="edge">
<title>Soundness&#45;&gt;Partitions</title>
<path fill="none" stroke="black" d="M319.29,-147C340.12,-136.2 369.11,-121.17 391.82,-109.4"/>
<polygon fill="black" stroke="black" points="393.54,-112.44 400.8,-104.73 390.32,-106.23 393.54,-112.44"/>
</g>
<!-- Modelgraphs&#45;&gt;CompletenessViaPaths -->
<g id="edge6" class="edge">
<title>Modelgraphs&#45;&gt;CompletenessViaPaths</title>
<path fill="none" stroke="black" d="M85.26,-215.87C86.62,-191.67 89.13,-147.21 90.75,-118.39"/>
<polygon fill="black" stroke="black" points="94.26,-118.37 91.32,-108.19 87.27,-117.98 94.26,-118.37"/>
</g>
<!-- Interpolation -->
<g id="node10" class="node">
<title>Interpolation</title>
<ellipse fill="none" stroke="black" cx="259.29" cy="-18" rx="55.79" ry="18"/>
<text text-anchor="middle" x="259.29" y="-14.3" font-family="Times,serif" font-size="14.00">Interpolation</text>
</g>
<!-- CompletenessViaPaths&#45;&gt;Interpolation -->
<g id="edge9" class="edge">
<title>CompletenessViaPaths&#45;&gt;Interpolation</title>
<path fill="none" stroke="black" d="M129.35,-73.46C155.29,-62.6 189.98,-48.05 216.99,-36.73"/>
<polygon fill="black" stroke="black" points="218.7,-39.81 226.57,-32.72 215.99,-33.35 218.7,-39.81"/>
</g>
<!-- Partitions&#45;&gt;Interpolation -->
<g id="edge10" class="edge">
<title>Partitions&#45;&gt;Interpolation</title>
<path fill="none" stroke="black" d="M397.64,-76.65C370.95,-65.53 331.43,-49.06 301.46,-36.57"/>
<polygon fill="black" stroke="black" points="302.67,-33.28 292.09,-32.67 299.98,-39.74 302.67,-33.28"/>
</g>
<!-- Syntax -->
<g id="node12" class="node">
<title>Syntax</title>
<ellipse fill="none" stroke="black" cx="270.29" cy="-450" rx="35.19" ry="18"/>
<text text-anchor="middle" x="270.29" y="-446.3" font-family="Times,serif" font-size="14.00">Syntax</text>
</g>
<!-- Syntax&#45;&gt;Vocabulary -->
<g id="edge23" class="edge">
<title>Syntax&#45;&gt;Vocabulary</title>
<path fill="none" stroke="black" d="M276.24,-432.11C283.17,-413.57 295.7,-383.34 311.29,-360 318.29,-349.52 327.35,-339.1 335.77,-330.3"/>
<polygon fill="black" stroke="black" points="338.41,-332.61 342.94,-323.03 333.43,-327.7 338.41,-332.61"/>
</g>
<!-- Syntax&#45;&gt;Semantics -->
<g id="edge16" class="edge">
<title>Syntax&#45;&gt;Semantics</title>
<path fill="none" stroke="black" d="M267.16,-431.87C262.72,-407.67 254.58,-363.21 249.31,-334.39"/>
<polygon fill="black" stroke="black" points="252.68,-333.4 247.44,-324.19 245.8,-334.66 252.68,-333.4"/>
</g>
<!-- Syntax&#45;&gt;Modelgraphs -->
<g id="edge11" class="edge">
<title>Syntax&#45;&gt;Modelgraphs</title>
<path fill="none" stroke="black" d="M256.61,-433.26C224.47,-396.28 143.93,-303.62 105.43,-259.32"/>
<polygon fill="black" stroke="black" points="107.95,-256.89 98.75,-251.64 102.67,-261.48 107.95,-256.89"/>
</g>
<!-- Setsimp -->
<g id="node14" class="node">
<title>Setsimp</title>
<ellipse fill="none" stroke="black" cx="360.29" cy="-378" rx="39.79" ry="18"/>
<text text-anchor="middle" x="360.29" y="-374.3" font-family="Times,serif" font-size="14.00">Setsimp</text>
</g>
<!-- Syntax&#45;&gt;Setsimp -->
<g id="edge17" class="edge">
<title>Syntax&#45;&gt;Setsimp</title>
<path fill="none" stroke="black" d="M288.94,-434.5C301.68,-424.59 318.77,-411.29 333.03,-400.2"/>
<polygon fill="black" stroke="black" points="335.3,-402.87 341.05,-393.97 331,-397.35 335.3,-402.87"/>
</g>
<!-- Tableau&#45;&gt;Soundness -->
<g id="edge18" class="edge">
<title>Tableau&#45;&gt;Soundness</title>
<path fill="none" stroke="black" d="M436.72,-221.44C408.55,-210.04 365.18,-192.49 333.32,-179.6"/>
<polygon fill="black" stroke="black" points="334.42,-176.27 323.83,-175.76 331.79,-182.76 334.42,-176.27"/>
</g>
<!-- Tableau&#45;&gt;Partitions -->
<g id="edge13" class="edge">
<title>Tableau&#45;&gt;Partitions</title>
<path fill="none" stroke="black" d="M496.17,-222.89C515.77,-214.68 539.58,-200.98 551.29,-180 559.09,-166.03 560.11,-157.35 551.29,-144 535.11,-119.48 505,-106.27 478.51,-99.16"/>
<polygon fill="black" stroke="black" points="479.11,-95.71 468.57,-96.73 477.45,-102.51 479.11,-95.71"/>
</g>
<!-- Tableauexamples -->
<g id="node15" class="node">
<title>Tableauexamples</title>
<ellipse fill="none" stroke="black" cx="469.29" cy="-162" rx="72.59" ry="18"/>
<text text-anchor="middle" x="469.29" y="-158.3" font-family="Times,serif" font-size="14.00">Tableauexamples</text>
</g>
<!-- Tableau&#45;&gt;Tableauexamples -->
<g id="edge22" class="edge">
<title>Tableau&#45;&gt;Tableauexamples</title>
<path fill="none" stroke="black" d="M466.28,-215.7C466.72,-207.98 467.25,-198.71 467.74,-190.11"/>
<polygon fill="black" stroke="black" points="471.24,-190.29 468.31,-180.1 464.25,-189.89 471.24,-190.29"/>
</g>
<!-- Setsimp&#45;&gt;Vocabulary -->
<g id="edge24" class="edge">
<title>Setsimp&#45;&gt;Vocabulary</title>
<path fill="none" stroke="black" d="M360.29,-359.7C360.29,-351.98 360.29,-342.71 360.29,-334.11"/>
<polygon fill="black" stroke="black" points="363.79,-334.1 360.29,-324.1 356.79,-334.1 363.79,-334.1"/>
</g>
<!-- Setsimp&#45;&gt;Tableau -->
<g id="edge20" class="edge">
<title>Setsimp&#45;&gt;Tableau</title>
<path fill="none" stroke="black" d="M380.43,-362.4C393,-352.57 408.91,-338.74 420.29,-324 435.18,-304.72 447.3,-279.75 455.19,-261.16"/>
<polygon fill="black" stroke="black" points="458.46,-262.41 459.03,-251.83 451.99,-259.75 458.46,-262.41"/>
</g>
</g>
</svg>
